<svg width="392" height="392" viewBox="0 0 392 392" fill="none" xmlns="http://www.w3.org/2000/svg">
<path d="M196 373.749C292.73 373.749 371.146 331.104 371.146 278.5C371.146 225.896 292.73 183.252 196 183.252C99.2698 183.252 20.8545 225.896 20.8545 278.5C20.8545 331.104 99.2698 373.749 196 373.749Z" fill="#F5F5F5"/>
<path d="M196 273.514C210.574 273.514 222.389 266.69 222.389 258.273C222.389 249.856 210.574 243.032 196 243.032C181.425 243.032 169.61 249.856 169.61 258.273C169.61 266.69 181.425 273.514 196 273.514Z" fill="#E0E0E0"/>
<path d="M294.415 314.243C317.454 314.243 336.132 303.46 336.132 290.158C336.132 276.857 317.454 266.074 294.415 266.074C271.375 266.074 252.698 276.857 252.698 290.158C252.698 303.46 271.375 314.243 294.415 314.243Z" fill="#E0E0E0"/>
<path d="M89.7049 316.846C112.744 316.846 131.422 306.063 131.422 292.761C131.422 279.46 112.744 268.677 89.7049 268.677C66.6655 268.677 47.9883 279.46 47.9883 292.761C47.9883 306.063 66.6655 316.846 89.7049 316.846Z" fill="#E0E0E0"/>
<path d="M356.719 273.044L348.84 269.821C347.85 263.011 347.279 256.146 347.131 249.265C347.131 236.392 355.151 220.649 365.328 223.283C375.504 225.917 362.458 240.32 360.341 251.444C358.224 262.569 356.719 273.044 356.719 273.044Z" fill="#3D9635"/>
<path opacity="0.3" d="M356.719 273.044L348.84 269.821C347.85 263.011 347.279 256.146 347.131 249.265C347.131 236.392 355.151 220.649 365.328 223.283C375.504 225.917 362.458 240.32 360.341 251.444C358.224 262.569 356.719 273.044 356.719 273.044Z" fill="black"/>
<path d="M352.901 272.048C352.987 272.036 353.065 271.991 353.118 271.922C353.171 271.853 353.194 271.766 353.183 271.68C349.428 243.456 362.121 227.776 362.246 227.642C362.302 227.575 362.329 227.488 362.321 227.4C362.313 227.313 362.27 227.232 362.203 227.176C362.135 227.12 362.048 227.093 361.961 227.101C361.873 227.109 361.793 227.151 361.736 227.219C361.611 227.376 348.73 243.244 352.524 271.766C352.53 271.809 352.545 271.851 352.567 271.889C352.589 271.927 352.618 271.96 352.653 271.986C352.688 272.012 352.728 272.031 352.771 272.042C352.813 272.053 352.857 272.055 352.901 272.048Z" fill="white"/>
<path d="M360.764 274.925L356.648 273.059C355.416 266.718 355.603 260.182 357.197 253.922C359.839 243.777 368.636 237.521 373.065 238.556C378.483 239.818 379.008 244.828 377.424 248.316C375.535 252.448 362.505 263.636 360.764 274.925Z" fill="#3D9635"/>
<path opacity="0.1" d="M360.764 274.925L356.648 273.059C355.416 266.718 355.603 260.182 357.197 253.922C359.839 243.777 368.636 237.521 373.065 238.556C378.483 239.818 379.008 244.828 377.424 248.316C375.535 252.448 362.505 263.636 360.764 274.925Z" fill="black"/>
<path d="M358.624 274.275C358.712 274.265 358.793 274.22 358.848 274.151C358.904 274.083 358.931 273.994 358.922 273.906C357.072 256 372.697 242.232 372.861 242.099C372.921 242.035 372.954 241.951 372.954 241.864C372.954 241.777 372.921 241.693 372.861 241.629C372.831 241.598 372.794 241.573 372.754 241.556C372.713 241.539 372.67 241.53 372.626 241.53C372.582 241.53 372.539 241.539 372.498 241.556C372.458 241.573 372.422 241.598 372.391 241.629C372.226 241.77 356.35 255.741 358.224 274.008C358.243 274.096 358.295 274.173 358.37 274.222C358.444 274.272 358.536 274.291 358.624 274.275Z" fill="white"/>
<path d="M43.9033 265.831L49.3129 262.742C49.3129 262.742 51.9001 248.465 49.9636 236.188C47.2353 218.94 35.4831 212.974 31.2182 214.691C26.9532 216.408 25.9497 221.519 33.6564 231.492C38.2036 237.372 44.0522 249.814 43.9033 265.831Z" fill="#3D9635"/>
<g opacity="0.15">
<path d="M43.9033 265.831L49.3129 262.742C49.3129 262.742 51.9001 248.465 49.9636 236.188C47.2353 218.94 35.4831 212.974 31.2182 214.691C26.9532 216.408 25.9497 221.519 33.6564 231.492C38.2036 237.372 44.0522 249.814 43.9033 265.831Z" fill="black"/>
</g>
<path d="M45.8631 258.979H45.8083C45.7586 258.972 45.7108 258.955 45.6677 258.93C45.6245 258.905 45.5868 258.871 45.5569 258.831C45.527 258.791 45.5053 258.745 45.4933 258.696C45.4813 258.648 45.4791 258.597 45.4868 258.548C47.7134 242.389 41.2219 224.687 33.915 217.552C33.8696 217.519 33.8319 217.477 33.8043 217.428C33.7768 217.379 33.7601 217.325 33.7553 217.269C33.7506 217.213 33.7579 217.156 33.7768 217.104C33.7956 217.051 33.8257 217.002 33.8648 216.962C33.9039 216.922 33.9512 216.891 34.0035 216.87C34.0558 216.85 34.1119 216.841 34.168 216.844C34.224 216.847 34.2787 216.862 34.3284 216.888C34.3781 216.915 34.4216 216.951 34.4559 216.996C41.8883 224.224 48.5131 242.256 46.2551 258.642C46.2418 258.736 46.1947 258.822 46.1226 258.884C46.0505 258.946 45.9583 258.98 45.8631 258.979Z" fill="white"/>
<path d="M28.9134 274.494C28.0589 274.98 26.3027 273.914 25.6285 273.459C24.472 272.662 23.5383 271.582 22.9158 270.323C22.2208 268.901 21.9851 267.299 22.2416 265.737C22.3773 264.911 22.5712 264.097 22.8218 263.299L23.5038 260.947C23.7726 260.193 23.8898 259.394 23.8488 258.595C23.645 256.972 22.2024 255.843 20.901 254.863C19.4506 253.781 17.9531 252.354 17.961 250.402C18.0621 248.889 18.6665 247.454 19.6779 246.325C20.603 245.141 21.7085 244.098 22.5552 242.852C23.2189 241.977 23.5596 240.899 23.5195 239.802C23.4297 239.134 23.2057 238.492 22.861 237.913C22.0678 236.707 21.3756 235.438 20.7912 234.118C20.313 232.754 20.3835 231.061 21.4498 230.081C21.9243 229.726 22.4648 229.47 23.0397 229.327C23.6146 229.184 24.2122 229.158 24.7974 229.249C25.9107 229.381 26.9813 229.755 27.9334 230.347C31.0302 232.064 32.7942 235.733 36.0792 237.058C37.3798 237.463 38.7048 237.785 40.0462 238.022C40.7195 238.147 41.3591 238.412 41.9237 238.8C42.4882 239.187 42.965 239.689 43.3234 240.273C44.5307 242.679 42.2963 245.643 43.143 248.199C43.927 250.457 46.0909 251.335 47.3218 253.365C47.8264 254.263 48.0297 255.299 47.9019 256.321C47.7925 258.05 47.3701 259.745 46.6554 261.323C45.8511 262.892 44.9313 264.399 43.9035 265.831C43.8565 265.886 29.0467 274.4 28.9134 274.494Z" fill="#3D9635"/>
<path d="M37.6863 269.821C37.6348 269.819 37.5842 269.807 37.5375 269.786C37.4907 269.764 37.4486 269.733 37.4136 269.696C37.3787 269.658 37.3515 269.613 37.3338 269.565C37.316 269.517 37.3079 269.465 37.31 269.414C37.945 254.126 30.7401 237.27 25.503 232.331C25.4316 232.259 25.3916 232.161 25.3916 232.06C25.3916 231.959 25.4316 231.862 25.503 231.79C25.5762 231.718 25.6748 231.678 25.7774 231.678C25.88 231.678 25.9785 231.718 26.0518 231.79C31.3594 236.768 38.7212 253.938 38.0705 269.453C38.0664 269.552 38.0242 269.646 37.9526 269.715C37.881 269.783 37.7855 269.822 37.6863 269.821Z" fill="white"/>
<path d="M35.3971 251.75H35.2795C31.6571 250.754 27.9377 250.152 24.1859 249.955C24.082 249.955 23.9823 249.914 23.9088 249.84C23.8352 249.767 23.7939 249.667 23.7939 249.563C23.7939 249.459 23.8352 249.359 23.9088 249.286C23.9823 249.212 24.082 249.171 24.1859 249.171C28.0042 249.369 31.7896 249.982 35.4755 250.998C35.524 251.012 35.5691 251.036 35.6083 251.068C35.6475 251.099 35.68 251.139 35.7041 251.183C35.7281 251.227 35.7431 251.276 35.7483 251.326C35.7535 251.377 35.7487 251.427 35.7343 251.476C35.7114 251.55 35.6672 251.615 35.6072 251.664C35.5472 251.713 35.4741 251.743 35.3971 251.75Z" fill="white"/>
<path d="M315.034 285.188L307.727 284.349L305.838 269.625L314.768 272.275L315.034 285.188Z" fill="#B16668"/>
<path d="M299.025 297.199C298.92 297.489 298.876 297.798 298.898 298.106C298.92 298.414 299.006 298.714 299.151 298.986C299.935 299.896 301.957 300.962 304.717 301.158C307.359 301.346 309.711 300.993 311.256 300.013C311.927 299.666 312.502 299.158 312.929 298.534C313.356 297.91 313.621 297.19 313.702 296.438C313.851 294.941 313.702 293.49 314.399 292.338C315.097 291.185 316.109 290.064 316.336 289.484C316.607 288.483 316.607 287.428 316.336 286.427L299.025 297.199Z" fill="#263238"/>
<path d="M306.246 284.09C306.223 284.658 306.12 285.221 305.94 285.76C305.536 286.921 304.994 288.029 304.325 289.061C303.997 289.609 303.63 290.133 303.228 290.629C302.444 291.577 301.44 292.361 300.593 293.271C299.695 294.128 299.119 295.269 298.963 296.501C298.853 298.571 302.146 299.276 303.878 299.582C305.747 299.909 307.665 299.812 309.492 299.3C310.451 299.05 311.318 298.529 311.988 297.799C312.658 297.069 313.104 296.161 313.271 295.184C313.373 294.604 313.333 294.016 313.404 293.443C313.632 292.122 314.184 290.877 315.011 289.821C315.491 289.212 315.904 288.552 316.242 287.853C316.783 286.576 316.352 285.133 316.007 283.863C315.709 282.757 315.348 281.511 314.956 281.597C314.956 282.169 314.956 282.248 314.572 282.632C314.188 283.016 314.039 283.863 313.49 284.294C313.665 283.816 313.794 283.323 313.874 282.82C313.908 282.619 313.867 282.412 313.757 282.24C313.575 282.077 313.357 281.959 313.122 281.895C312.306 281.622 311.466 281.431 310.613 281.323C309.449 281.189 308.273 281.189 307.108 281.323C306.866 281.366 306.646 281.494 306.489 281.683C306.348 281.892 306.272 282.137 306.27 282.389C306.23 282.687 306.262 283.541 306.246 284.09Z" fill="#455A64"/>
<path d="M304.043 289.5C304.827 288.92 307.594 288.912 308.535 289.014C309.494 289.096 310.417 289.419 311.217 289.955C311.334 290.038 311.477 290.077 311.62 290.066C311.763 290.055 311.898 289.993 312.001 289.892C312.06 289.833 312.106 289.762 312.135 289.684C312.165 289.605 312.177 289.522 312.171 289.438C312.165 289.355 312.141 289.274 312.101 289.201C312.061 289.127 312.005 289.064 311.938 289.014C311.059 288.365 310.016 287.977 308.927 287.893C307.569 287.793 306.204 287.872 304.866 288.128C304.866 288.128 303.816 288.81 304.043 289.5Z" fill="#F5F5F5"/>
<path d="M302.271 291.648C303.244 291.076 306.192 291.154 307.14 291.256C308.08 291.352 308.978 291.696 309.743 292.252C309.861 292.334 310.003 292.372 310.146 292.361C310.289 292.349 310.424 292.289 310.527 292.189C310.586 292.13 310.632 292.059 310.662 291.981C310.691 291.903 310.703 291.819 310.697 291.736C310.691 291.652 310.667 291.571 310.627 291.498C310.587 291.424 310.531 291.361 310.464 291.311C309.178 290.645 307.775 290.235 306.333 290.104C303.981 289.939 303.408 290.409 303.408 290.409C303.138 290.518 302.896 290.686 302.7 290.9C302.503 291.114 302.357 291.37 302.271 291.648Z" fill="#F5F5F5"/>
<path d="M309.852 285.674C308.526 285.522 307.183 285.605 305.885 285.917C305.478 286.144 305.203 286.795 305.47 286.96C306.654 286.64 307.883 286.518 309.108 286.599C309.977 286.686 310.825 286.919 311.616 287.289C311.82 287.383 312.056 287.501 312.259 287.618C312.325 287.66 312.399 287.687 312.476 287.698C312.552 287.708 312.631 287.702 312.705 287.68C312.78 287.658 312.848 287.62 312.907 287.568C312.965 287.517 313.012 287.454 313.043 287.383C313.099 287.267 313.11 287.135 313.074 287.012C313.038 286.889 312.957 286.784 312.847 286.717C311.935 286.159 310.914 285.804 309.852 285.674Z" fill="#F5F5F5"/>
<path d="M287.791 278.493L280.845 276.556V262.515L289.461 262.891L287.791 278.493Z" fill="#B16668"/>
<path d="M266.167 286.011C265.972 286.617 266.008 287.273 266.269 287.853C266.528 288.387 269.343 289.978 273.137 289.719C275.948 289.518 278.654 288.571 280.977 286.975C282.42 286.019 283.925 285.839 285.807 285.737C287.688 285.635 290.15 284.686 290.566 283.808C290.777 283.022 290.755 282.191 290.503 281.417L266.167 286.011Z" fill="#263238"/>
<path d="M281.456 274.173L281.158 274.11C280.993 274.071 280.821 274.071 280.656 274.11C280.474 274.17 280.311 274.278 280.186 274.424C279.816 274.901 279.493 275.413 279.222 275.952C278.438 277.246 276.752 278.304 274.933 279.3C273.694 279.966 272.479 280.484 271.201 281.056C269.923 281.629 268.159 282.005 267.14 282.695C265.65 283.698 265.454 286.215 267.14 287.211C268.598 288.073 272.456 289.006 276.493 287.861C278.688 287.234 281.134 284.89 284.02 284.663C285.854 284.514 289.327 284.004 290.511 282.609C290.95 281.989 290.362 280.029 289.884 278.336C289.359 276.485 288.865 273.632 288.253 273.765C288.258 273.897 288.232 274.029 288.176 274.149C288.12 274.269 288.036 274.374 287.932 274.455C287.704 274.69 287.399 274.839 287.148 275.051C286.72 275.472 286.374 275.969 286.129 276.517C286.029 276.761 285.845 276.961 285.611 277.081C285.298 277.191 285.07 277.003 284.827 276.877C284.483 276.72 284.093 276.692 283.73 276.799C283.767 276.431 283.833 276.067 283.926 275.709C283.96 275.597 283.96 275.477 283.926 275.364C283.881 275.251 283.798 275.156 283.69 275.098C283.018 274.637 282.257 274.321 281.456 274.173Z" fill="#455A64"/>
<path d="M276.674 278.273C276.805 278.019 276.998 277.803 277.235 277.644C277.472 277.485 277.746 277.388 278.03 277.364C278.861 277.207 280.335 277.826 281.252 278.579C281.34 278.649 281.409 278.739 281.453 278.842C281.497 278.945 281.516 279.057 281.506 279.168C281.497 279.28 281.461 279.387 281.4 279.481C281.339 279.576 281.256 279.653 281.158 279.708C281.035 279.777 280.893 279.807 280.752 279.791C280.612 279.776 280.479 279.716 280.374 279.621C279.362 278.709 278.036 278.226 276.674 278.273Z" fill="#F5F5F5"/>
<path d="M274.078 279.723C274.26 279.466 274.501 279.257 274.781 279.112C275.06 278.968 275.371 278.892 275.685 278.892C276.974 278.949 278.212 279.413 279.221 280.217C279.304 280.286 279.368 280.374 279.41 280.473C279.451 280.572 279.468 280.68 279.459 280.787C279.449 280.894 279.414 280.997 279.357 281.088C279.299 281.178 279.22 281.253 279.127 281.307C279.005 281.38 278.862 281.412 278.721 281.396C278.579 281.381 278.446 281.319 278.343 281.221C277.788 280.669 277.118 280.249 276.38 279.99C275.642 279.731 274.856 279.64 274.078 279.723Z" fill="#F5F5F5"/>
<path d="M271.264 281.025C271.471 280.788 271.726 280.599 272.013 280.47C272.3 280.342 272.611 280.277 272.926 280.28C274.167 280.356 275.352 280.823 276.313 281.613C276.395 281.682 276.46 281.771 276.501 281.87C276.542 281.97 276.559 282.078 276.55 282.186C276.541 282.294 276.506 282.397 276.448 282.489C276.39 282.58 276.312 282.656 276.219 282.71C276.096 282.784 275.954 282.815 275.812 282.8C275.67 282.784 275.538 282.722 275.435 282.624C274.91 282.053 274.261 281.611 273.537 281.334C272.814 281.056 272.035 280.951 271.264 281.025Z" fill="#F5F5F5"/>
<path d="M313.436 186.882C313.914 201.363 313.945 232.723 313.945 232.723C314.094 234.526 314.251 237.724 314.384 244.216C314.58 253.624 315.035 276.854 315.035 276.854C315.035 276.854 310.543 278.963 306.411 277.246C306.411 277.246 300.672 244.584 299.496 235.271C298.469 227.14 296.501 208.074 296.501 208.074L293.789 232.276C293.789 232.276 293.789 238.548 293.42 244.083C293.114 248.395 288.928 270.605 288.928 270.605C286.194 271.332 283.306 271.236 280.625 270.331C280.625 270.331 280.249 236.235 280.171 232.276C280.084 227.776 281.245 179.12 281.245 179.12L313.436 186.882Z" fill="#455A64"/>
<path d="M296.517 208.074L295.482 199.865C292.14 199.011 288.98 197.561 286.152 195.584C286.152 195.584 288.144 198.25 293.992 201.072L295.309 208.52L293.82 232.276L296.517 208.074Z" fill="#37474F"/>
<path d="M280.876 146.247C278.759 149.023 267.869 163.966 267.869 163.966L257.81 156.173C255.458 154.33 254.761 151.916 253.287 150.246C251.813 148.576 250.198 148.176 248.544 146.78C246.889 145.385 246.254 144.327 245.69 145.518C245.125 146.71 246.952 148.788 247.258 149.289C247.564 149.791 249.453 150.991 246.96 150.857C244.467 150.724 239.669 147.878 238.508 147.353C237.348 146.828 237.317 148.262 237.865 149.203C238.414 150.144 238.14 152.762 238.783 154.448C239.426 156.134 240.555 157.168 242.852 158.305C244.992 159.372 250.198 160.038 251.891 161.104C255.607 164.914 262.616 172.025 264.388 173.342C266.826 175.153 269.186 176.823 272.918 173.233C276.65 169.642 287.461 155.553 287.461 155.553L289.696 142.155C286.027 142.022 283.432 142.9 280.876 146.247Z" fill="#B16668"/>
<path d="M267.869 163.966C269.249 164.985 270.684 167.274 270.817 168.301C270.801 167.328 270.584 166.369 270.179 165.484C269.774 164.599 269.191 163.807 268.465 163.158L267.869 163.966Z" fill="#9A4A4D"/>
<path d="M290.558 141.826C290.558 141.826 285.384 141.763 283.11 143.354C280.836 144.946 279.151 147.274 275.458 152.645C272.22 157.349 270.652 159.607 270.652 159.607C272.772 162.742 275.858 165.099 279.441 166.318L289.1 154.354L290.558 141.826Z" fill="#37474F"/>
<path d="M300.57 141.575C303.502 141.857 307.626 141.888 310.527 142.186C312.542 143.017 316.43 146.404 316.14 148.819C315.058 157.843 312.871 172.637 312.871 172.637L313.592 188.317C309.555 192.347 290.66 193.922 280.923 187.478C280.923 187.478 281.236 159.317 281.911 154.55C283.11 146.012 284.161 142.845 288.567 142.092C292.973 141.34 300.57 141.575 300.57 141.575Z" fill="#3D9635"/>
<path d="M317.174 146.475C319.291 149.25 330.189 164.193 330.189 164.193L340.255 156.4C342.607 154.55 343.305 152.135 344.779 150.473C346.253 148.811 347.868 148.403 349.522 147.008C351.177 145.612 351.812 144.554 352.376 145.738C352.941 146.922 351.114 149.015 350.808 149.517C350.502 150.018 348.613 151.218 351.106 151.085C353.599 150.951 358.389 148.098 359.557 147.572C360.726 147.047 360.741 148.482 360.2 149.423C359.659 150.363 359.918 152.99 359.283 154.675C358.648 156.361 357.511 157.388 355.214 158.533C353.074 159.599 347.868 160.265 346.175 161.332C342.458 165.134 335.449 172.253 333.678 173.562C331.239 175.373 328.88 177.043 325.148 173.46C321.416 169.877 312.886 158.721 312.886 158.721L308.37 142.382C312.031 142.249 314.626 143.127 317.174 146.475Z" fill="#B16668"/>
<path d="M330.189 164.193C328.809 165.212 327.374 167.502 327.241 168.529C327.256 167.554 327.473 166.593 327.878 165.707C328.283 164.82 328.867 164.027 329.593 163.378L330.189 164.193Z" fill="#9A4A4D"/>
<path d="M307.854 141.99C307.854 141.99 312.503 141.7 314.949 143.558C317.152 145.252 318.869 147.478 322.601 152.849C325.839 157.553 327.407 159.811 327.407 159.811C325.282 162.945 322.194 165.301 318.61 166.522L312.032 158.415C308.606 154.072 305.212 147.463 307.854 141.99Z" fill="#37474F"/>
<path d="M301.299 120.344C301.314 122.143 300.796 123.905 299.81 125.41C298.823 126.914 297.413 128.091 295.757 128.794C294.101 129.497 292.274 129.692 290.507 129.357C288.74 129.021 287.112 128.169 285.83 126.908C284.547 125.647 283.667 124.034 283.301 122.273C282.935 120.512 283.099 118.682 283.773 117.015C284.447 115.347 285.6 113.917 287.087 112.904C288.574 111.892 290.327 111.344 292.126 111.328C293.32 111.318 294.505 111.543 295.612 111.99C296.72 112.438 297.728 113.099 298.58 113.936C299.432 114.773 300.11 115.77 300.577 116.87C301.043 117.969 301.289 119.15 301.299 120.344Z" fill="#263238"/>
<path d="M307.986 126.757C307.986 126.757 306.567 133.696 305.987 134.832C305.601 135.538 304.958 136.069 304.191 136.314L304.246 131.438L307.986 126.757Z" fill="#263238"/>
<path d="M306.05 116.855C306.564 116.789 307.086 116.842 307.577 117.009C308.067 117.176 308.513 117.453 308.88 117.82C310.103 119.05 309.46 122.939 307.986 126.757L305.211 127.102L306.05 116.855Z" fill="#263238"/>
<path d="M304.38 127.11C304.937 127.439 305.721 126.326 306.403 125.636C307.085 124.946 309.311 123.911 310.456 126.255C311.601 128.6 309.515 131.837 307.759 132.402C304.725 133.39 304.247 131.438 304.247 131.438L304.121 142.743C300.39 147.627 289.892 147.306 294.219 142.21V138.87C292.868 139.097 291.496 139.178 290.127 139.113C287.885 138.792 286.466 137.035 285.76 134.621C284.639 130.748 284.192 127.612 285.055 119.952C285.995 111.563 295.74 111.391 301.032 114.66C306.324 117.929 304.38 127.11 304.38 127.11Z" fill="#B16668"/>
<path d="M304.388 128.043C304.662 128.043 305.713 126.271 306.402 125.636C307.351 124.75 306.05 116.855 306.05 116.855C306.375 116.155 306.482 115.372 306.356 114.61C306.23 113.848 305.878 113.141 305.344 112.582C304.019 111.148 302.169 109.399 296.21 110.152C291.953 110.693 287.336 112.065 283.58 110.262C283.246 111.484 283.284 112.779 283.689 113.98C284.094 115.181 284.847 116.234 285.854 117.004C285.854 117.004 287.218 117.867 290.785 118.266C294.074 118.483 297.376 118.391 300.648 117.992C301.683 117.843 301.91 118.839 302.49 121.575C303 123.966 303.447 128.035 304.388 128.043Z" fill="#263238"/>
<path d="M306.05 117.467L309.397 115.632C309.289 115.406 309.135 115.204 308.946 115.038C308.756 114.873 308.535 114.748 308.296 114.671C308.057 114.594 307.805 114.567 307.555 114.59C307.305 114.614 307.062 114.688 306.841 114.809C306.393 115.065 306.06 115.484 305.913 115.979C305.765 116.474 305.814 117.007 306.05 117.467Z" fill="#263238"/>
<path d="M294.196 138.87C294.196 138.87 299.183 137.819 300.915 136.879C301.937 136.336 302.77 135.497 303.306 134.472C303.053 135.493 302.597 136.453 301.966 137.294C300.703 138.94 294.212 140.195 294.212 140.195L294.196 138.87Z" fill="#9A4A4D"/>
<path d="M293.796 126.31C293.794 126.444 293.818 126.576 293.868 126.7C293.917 126.824 293.991 126.937 294.084 127.033C294.177 127.128 294.288 127.204 294.411 127.257C294.534 127.309 294.666 127.336 294.8 127.337C295.008 127.345 295.214 127.29 295.391 127.18C295.568 127.069 295.707 126.908 295.792 126.718C295.876 126.527 295.902 126.316 295.865 126.11C295.828 125.905 295.73 125.716 295.584 125.567C295.439 125.417 295.252 125.315 295.047 125.274C294.843 125.232 294.631 125.252 294.438 125.332C294.246 125.413 294.082 125.549 293.967 125.723C293.853 125.897 293.793 126.102 293.796 126.31Z" fill="#263238"/>
<path d="M296.767 122.868L294.541 121.857C294.411 122.162 294.404 122.504 294.521 122.814C294.638 123.123 294.87 123.376 295.168 123.519C295.315 123.584 295.474 123.619 295.636 123.622C295.797 123.624 295.957 123.594 296.106 123.534C296.255 123.473 296.391 123.383 296.504 123.268C296.618 123.154 296.708 123.018 296.767 122.868Z" fill="#263238"/>
<path d="M287.242 121.638L285.306 123.159C285.397 123.29 285.515 123.402 285.651 123.486C285.788 123.571 285.941 123.626 286.099 123.649C286.258 123.672 286.42 123.662 286.575 123.619C286.73 123.576 286.874 123.502 286.999 123.402C287.256 123.193 287.424 122.895 287.47 122.568C287.515 122.24 287.433 121.907 287.242 121.638Z" fill="#263238"/>
<path d="M286.074 126.067C286.083 126.254 286.147 126.435 286.258 126.586C286.369 126.737 286.522 126.852 286.697 126.917C286.873 126.982 287.064 126.994 287.247 126.951C287.429 126.909 287.595 126.813 287.724 126.677C287.853 126.541 287.939 126.37 287.971 126.185C288.004 126.001 287.981 125.811 287.906 125.639C287.831 125.467 287.708 125.321 287.551 125.218C287.394 125.116 287.21 125.062 287.022 125.064C286.894 125.067 286.768 125.095 286.65 125.147C286.533 125.2 286.427 125.274 286.339 125.368C286.251 125.461 286.182 125.571 286.136 125.691C286.091 125.811 286.07 125.939 286.074 126.067Z" fill="#263238"/>
<path d="M291.264 125.26L290.699 131.257L287.603 130.066L291.264 125.26Z" fill="#9A4A4D"/>
<path d="M292.965 133.507C292.963 133.698 293.019 133.886 293.124 134.045C293.229 134.205 293.379 134.33 293.555 134.404C293.731 134.478 293.925 134.498 294.112 134.462C294.3 134.426 294.473 134.334 294.608 134.2C294.744 134.065 294.837 133.894 294.874 133.706C294.912 133.519 294.894 133.325 294.821 133.148C294.748 132.971 294.625 132.82 294.466 132.714C294.307 132.608 294.12 132.551 293.929 132.551C293.675 132.551 293.431 132.651 293.25 132.831C293.069 133.01 292.967 133.253 292.965 133.507Z" fill="#9A4A4D"/>
<path d="M317.442 69.6349C318.937 69.9679 320.378 70.5089 321.722 71.2421C323.008 71.9343 324.161 72.8502 325.125 73.9469C326.053 75.0094 326.738 76.2616 327.132 77.616C327.544 79.0518 327.577 80.5701 327.226 82.0221C326.994 83.1747 326.536 84.2699 325.878 85.2444C325.286 86.0827 324.576 86.8302 323.769 87.4631C322.979 88.0762 322.136 88.6193 321.252 89.086L318.759 90.4031C318.007 90.7958 317.293 91.2578 316.626 91.7829C316.024 92.2397 315.563 92.8563 315.294 93.5626C315.158 93.8775 314.938 94.1488 314.659 94.3466C314.524 94.4493 314.368 94.5202 314.203 94.5542C314.037 94.5881 313.866 94.5842 313.702 94.5426L310.033 93.7586C309.857 93.7215 309.69 93.6497 309.542 93.5474C309.394 93.4451 309.268 93.3143 309.171 93.1628C309.068 93.0208 309 92.8567 308.973 92.6837C308.946 92.5107 308.96 92.3337 309.014 92.1671C309.319 91.0266 309.853 89.9598 310.582 89.0311C311.239 88.2114 311.997 87.479 312.84 86.8516C313.653 86.2563 314.516 85.7317 315.419 85.2836C316.313 84.8367 317.144 84.4055 317.912 83.9821C318.615 83.611 319.275 83.164 319.88 82.6493C320.408 82.2048 320.774 81.5985 320.923 80.9245C321.058 80.3359 321.049 79.7232 320.896 79.1388C320.743 78.5544 320.451 78.0158 320.045 77.569C319.031 76.4612 317.676 75.7243 316.195 75.4757C313.456 74.8642 311.141 75.7867 309.249 78.2432C309.067 78.5122 308.836 78.7438 308.567 78.9253C308.421 78.9994 308.262 79.0438 308.1 79.0559C307.937 79.0681 307.773 79.0476 307.618 78.9959L303.698 78.1256C303.56 78.099 303.428 78.0451 303.311 77.967C303.194 77.8889 303.094 77.7883 303.016 77.6709C302.931 77.5508 302.873 77.4133 302.847 77.2682C302.822 77.1231 302.828 76.9742 302.867 76.832C303.197 75.6271 303.816 74.5209 304.67 73.6098C305.63 72.551 306.768 71.6698 308.034 71.0069C309.421 70.2788 310.917 69.781 312.463 69.533C314.114 69.2426 315.805 69.2773 317.442 69.6349ZM313.302 97.4983C313.474 97.535 313.637 97.6069 313.78 97.7095C313.923 97.812 314.043 97.9429 314.133 98.0941C314.23 98.2404 314.295 98.4049 314.326 98.5774C314.357 98.7499 314.353 98.9269 314.314 99.0976L313.373 103.347C313.294 103.686 313.086 103.981 312.794 104.17C312.501 104.359 312.146 104.426 311.805 104.358L307.65 103.441C307.478 103.404 307.317 103.333 307.174 103.232C307.031 103.131 306.91 103.002 306.819 102.853C306.721 102.707 306.654 102.543 306.623 102.37C306.592 102.197 306.597 102.02 306.638 101.849L307.579 97.5924C307.658 97.2531 307.866 96.9579 308.158 96.7691C308.451 96.5804 308.805 96.5129 309.147 96.581L313.302 97.4983Z" fill="#3D9635"/>
<path d="M329.767 109.611C330.803 109.44 331.86 109.419 332.903 109.548C333.905 109.662 334.88 109.954 335.78 110.411C336.639 110.851 337.393 111.471 337.991 112.23C338.624 113.043 339.032 114.008 339.175 115.029C339.337 115.823 339.337 116.641 339.175 117.435C339.011 118.126 338.747 118.789 338.391 119.403C338.041 119.995 337.643 120.556 337.199 121.081L335.937 122.571C335.557 123.016 335.216 123.494 334.917 123.997C334.652 124.445 334.516 124.959 334.525 125.479C334.524 125.724 334.453 125.963 334.322 126.169C334.262 126.268 334.181 126.352 334.084 126.416C333.988 126.479 333.879 126.521 333.765 126.538L331.201 126.961C330.954 127 330.7 126.941 330.496 126.796C330.395 126.731 330.311 126.643 330.25 126.539C330.189 126.436 330.152 126.32 330.143 126.201C330.036 125.397 330.097 124.58 330.323 123.801C330.526 123.103 330.825 122.436 331.209 121.818C331.576 121.227 331.993 120.668 332.456 120.148C332.918 119.631 333.334 119.144 333.726 118.674C334.079 118.256 334.387 117.801 334.643 117.318C334.868 116.898 334.948 116.416 334.87 115.946C334.807 115.533 334.643 115.141 334.395 114.805C334.146 114.47 333.82 114.199 333.443 114.017C332.514 113.563 331.459 113.436 330.449 113.657C329.535 113.791 328.684 114.205 328.014 114.84C327.343 115.476 326.885 116.303 326.701 117.208C326.651 117.429 326.561 117.639 326.435 117.827C326.283 117.994 326.072 118.095 325.847 118.11L323.118 118.557C322.924 118.588 322.726 118.546 322.562 118.439C322.476 118.383 322.403 118.31 322.349 118.223C322.295 118.136 322.26 118.039 322.248 117.937C322.153 117.081 322.269 116.214 322.585 115.413C322.925 114.486 323.43 113.628 324.075 112.88C324.778 112.06 325.609 111.358 326.536 110.803C327.526 110.2 328.623 109.795 329.767 109.611ZM334.243 128.576C334.363 128.556 334.486 128.56 334.605 128.588C334.723 128.617 334.835 128.668 334.933 128.741C335.031 128.81 335.114 128.899 335.178 129.001C335.241 129.104 335.283 129.218 335.302 129.337L335.788 132.3C335.808 132.42 335.804 132.543 335.775 132.662C335.747 132.78 335.695 132.892 335.623 132.99C335.554 133.089 335.466 133.173 335.363 133.236C335.261 133.3 335.146 133.341 335.027 133.358L332.126 133.837C332.007 133.856 331.886 133.852 331.769 133.823C331.651 133.795 331.541 133.744 331.444 133.672C331.344 133.604 331.258 133.516 331.194 133.414C331.129 133.311 331.086 133.196 331.068 133.076L330.582 130.105C330.546 129.861 330.608 129.612 330.755 129.414C330.902 129.215 331.122 129.083 331.366 129.046L334.243 128.576Z" fill="#3D9635"/>
<g opacity="0.2">
<path d="M329.767 109.611C330.803 109.44 331.86 109.419 332.903 109.548C333.905 109.662 334.88 109.954 335.78 110.411C336.639 110.851 337.393 111.471 337.991 112.23C338.624 113.043 339.032 114.008 339.175 115.029C339.337 115.823 339.337 116.641 339.175 117.435C339.011 118.126 338.747 118.789 338.391 119.403C338.041 119.995 337.643 120.556 337.199 121.081L335.937 122.571C335.557 123.016 335.216 123.494 334.917 123.997C334.652 124.445 334.516 124.959 334.525 125.479C334.524 125.724 334.453 125.963 334.322 126.169C334.262 126.268 334.181 126.352 334.084 126.416C333.988 126.479 333.879 126.521 333.765 126.538L331.201 126.961C330.954 127 330.7 126.941 330.496 126.796C330.395 126.731 330.311 126.643 330.25 126.539C330.189 126.436 330.152 126.32 330.143 126.201C330.036 125.397 330.097 124.58 330.323 123.801C330.526 123.103 330.825 122.436 331.209 121.818C331.576 121.227 331.993 120.668 332.456 120.148C332.918 119.631 333.334 119.144 333.726 118.674C334.079 118.256 334.387 117.801 334.643 117.318C334.868 116.898 334.948 116.416 334.87 115.946C334.807 115.533 334.643 115.141 334.395 114.805C334.146 114.47 333.82 114.199 333.443 114.017C332.514 113.563 331.459 113.436 330.449 113.657C329.535 113.791 328.684 114.205 328.014 114.84C327.343 115.476 326.885 116.303 326.701 117.208C326.651 117.429 326.561 117.639 326.435 117.827C326.283 117.994 326.072 118.095 325.847 118.11L323.118 118.557C322.924 118.588 322.726 118.546 322.562 118.439C322.476 118.383 322.403 118.31 322.349 118.223C322.295 118.136 322.26 118.039 322.248 117.937C322.153 117.081 322.269 116.214 322.585 115.413C322.925 114.486 323.43 113.628 324.075 112.88C324.778 112.06 325.609 111.358 326.536 110.803C327.526 110.2 328.623 109.795 329.767 109.611ZM334.243 128.576C334.363 128.556 334.486 128.56 334.605 128.588C334.723 128.617 334.835 128.668 334.933 128.741C335.031 128.81 335.114 128.899 335.178 129.001C335.241 129.104 335.283 129.218 335.302 129.337L335.788 132.3C335.808 132.42 335.804 132.543 335.775 132.662C335.747 132.78 335.695 132.892 335.623 132.99C335.554 133.089 335.466 133.173 335.363 133.236C335.261 133.3 335.146 133.341 335.027 133.358L332.126 133.837C332.007 133.856 331.886 133.852 331.769 133.823C331.651 133.795 331.541 133.744 331.444 133.672C331.344 133.604 331.258 133.516 331.194 133.414C331.129 133.311 331.086 133.196 331.068 133.076L330.582 130.105C330.546 129.861 330.608 129.612 330.755 129.414C330.902 129.215 331.122 129.083 331.366 129.046L334.243 128.576Z" fill="black"/>
</g>
<path d="M356.5 118.023C356.733 118.193 356.89 118.447 356.939 118.731C356.987 119.015 356.923 119.307 356.759 119.544L354.689 122.445C354.519 122.678 354.265 122.835 353.981 122.884C353.697 122.932 353.405 122.868 353.168 122.704L350.33 120.689C350.213 120.607 350.114 120.502 350.038 120.381C349.963 120.26 349.913 120.125 349.891 119.983C349.85 119.709 349.914 119.429 350.071 119.199L352.141 116.291C352.309 116.057 352.563 115.899 352.847 115.852C353.123 115.81 353.404 115.878 353.631 116.04L356.5 118.023ZM368.48 98.3529C369.503 99.0749 370.417 99.941 371.192 100.924C371.942 101.86 372.518 102.922 372.894 104.06C373.253 105.148 373.373 106.301 373.246 107.439C373.099 108.652 372.64 109.805 371.914 110.787C371.372 111.581 370.679 112.26 369.875 112.786C369.16 113.23 368.384 113.566 367.57 113.782C366.782 113.992 365.976 114.134 365.163 114.205L362.858 114.401C362.17 114.464 361.488 114.585 360.82 114.762C360.222 114.92 359.679 115.24 359.252 115.687C359.047 115.887 358.793 116.03 358.515 116.103C358.38 116.135 358.24 116.136 358.105 116.108C357.969 116.079 357.842 116.021 357.731 115.938L355.222 114.158C354.983 113.986 354.82 113.727 354.768 113.437C354.738 113.3 354.74 113.158 354.774 113.022C354.808 112.886 354.873 112.76 354.964 112.653C355.547 111.888 356.281 111.25 357.12 110.779C357.874 110.365 358.681 110.054 359.519 109.854C360.322 109.66 361.14 109.534 361.965 109.478C362.749 109.431 363.533 109.368 364.254 109.297C364.901 109.242 365.541 109.113 366.159 108.913C366.698 108.749 367.167 108.41 367.492 107.949C367.783 107.55 367.973 107.085 368.044 106.596C368.115 106.107 368.065 105.608 367.9 105.142C367.491 103.987 366.707 103.002 365.673 102.343C363.807 101.011 361.769 100.966 359.558 102.21C359.335 102.353 359.088 102.454 358.829 102.508C358.694 102.518 358.559 102.5 358.431 102.457C358.303 102.414 358.185 102.346 358.084 102.257L355.418 100.36C355.224 100.228 355.089 100.025 355.042 99.7954C355.019 99.6778 355.022 99.5567 355.051 99.4403C355.079 99.3239 355.132 99.2151 355.207 99.1212C355.827 98.3193 356.635 97.6814 357.559 97.2631C358.619 96.7726 359.758 96.4727 360.922 96.3772C362.197 96.2732 363.481 96.3738 364.724 96.6751C366.075 96.9799 367.352 97.5502 368.48 98.3529Z" fill="#3D9635"/>
<g opacity="0.6">
<path d="M356.5 118.023C356.733 118.193 356.89 118.447 356.939 118.731C356.987 119.015 356.923 119.307 356.759 119.544L354.689 122.445C354.519 122.678 354.265 122.835 353.981 122.884C353.697 122.932 353.405 122.868 353.168 122.704L350.33 120.689C350.213 120.607 350.114 120.502 350.038 120.381C349.963 120.26 349.913 120.125 349.891 119.983C349.85 119.709 349.914 119.429 350.071 119.199L352.141 116.291C352.309 116.057 352.563 115.899 352.847 115.852C353.123 115.81 353.404 115.878 353.631 116.04L356.5 118.023ZM368.48 98.3529C369.503 99.0749 370.417 99.941 371.192 100.924C371.942 101.86 372.518 102.922 372.894 104.06C373.253 105.148 373.373 106.301 373.246 107.439C373.099 108.652 372.64 109.805 371.914 110.787C371.372 111.581 370.679 112.26 369.875 112.786C369.16 113.23 368.384 113.566 367.57 113.782C366.782 113.992 365.976 114.134 365.163 114.205L362.858 114.401C362.17 114.464 361.488 114.585 360.82 114.762C360.222 114.92 359.679 115.24 359.252 115.687C359.047 115.887 358.793 116.03 358.515 116.103C358.38 116.135 358.24 116.136 358.105 116.108C357.969 116.079 357.842 116.021 357.731 115.938L355.222 114.158C354.983 113.986 354.82 113.727 354.768 113.437C354.738 113.3 354.74 113.158 354.774 113.022C354.808 112.886 354.873 112.76 354.964 112.653C355.547 111.888 356.281 111.25 357.12 110.779C357.874 110.365 358.681 110.054 359.519 109.854C360.322 109.66 361.14 109.534 361.965 109.478C362.749 109.431 363.533 109.368 364.254 109.297C364.901 109.242 365.541 109.113 366.159 108.913C366.698 108.749 367.167 108.41 367.492 107.949C367.783 107.55 367.973 107.085 368.044 106.596C368.115 106.107 368.065 105.608 367.9 105.142C367.491 103.987 366.707 103.002 365.673 102.343C363.807 101.011 361.769 100.966 359.558 102.21C359.335 102.353 359.088 102.454 358.829 102.508C358.694 102.518 358.559 102.5 358.431 102.457C358.303 102.414 358.185 102.346 358.084 102.257L355.418 100.36C355.224 100.228 355.089 100.025 355.042 99.7954C355.019 99.6778 355.022 99.5567 355.051 99.4403C355.079 99.3239 355.132 99.2151 355.207 99.1212C355.827 98.3193 356.635 97.6814 357.559 97.2631C358.619 96.7726 359.758 96.4727 360.922 96.3772C362.197 96.2732 363.481 96.3738 364.724 96.6751C366.075 96.9799 367.352 97.5502 368.48 98.3529Z" fill="white"/>
</g>
<path d="M103.864 273.24C103.785 270.888 105.479 247.901 105.479 247.901L94.2832 256.023C96.5803 269.727 97.0742 272.965 97.1134 275.208C97.0661 275.394 97.045 275.587 97.0507 275.78C97.0507 278.445 100.069 279.88 102.413 281.66C104.406 283.218 106.528 284.603 108.756 285.799C110.457 286.654 113.922 286.732 114.346 285.635C111.492 283.455 107.345 280.194 105.071 277.708C103.989 276.517 103.95 275.576 103.864 273.24Z" fill="#FFA8A7"/>
<path d="M119.215 288.512C119.342 288.878 119.365 289.272 119.28 289.65C119.196 290.028 119.008 290.375 118.737 290.652C116.681 292.135 114.122 292.744 111.618 292.346C108.059 291.883 106.13 290.872 104.711 289.68C103.292 288.488 101.293 286.811 99.6779 286.458C98.394 286.213 97.1726 285.712 96.0872 284.984C95.6089 284.521 95.6717 282.467 95.6717 282.467L119.215 288.512Z" fill="#263238"/>
<path d="M97.0906 274.557C96.9587 274.561 96.8324 274.611 96.7336 274.698C96.6348 274.785 96.5697 274.905 96.5496 275.035C96.4399 275.6 96.3223 277.246 96.0871 278.171C95.7232 279.807 95.6069 281.487 95.7421 283.157C95.9381 284.216 98.3685 284.945 99.9287 285.509C101.763 286.308 103.466 287.381 104.978 288.692C107.159 290.324 109.763 291.295 112.48 291.491C115.224 291.491 118.313 290.582 119.027 289.312C119.897 287.744 119.215 286.826 115.146 284.937C114.362 284.584 111.673 282.977 110.748 282.397C108.255 280.829 105.785 278.641 104.633 275.866C104.54 275.527 104.335 275.229 104.052 275.019C103.806 274.913 103.532 274.885 103.268 274.941C102.589 275.04 101.928 275.241 101.308 275.537C100.768 275.796 99.9914 276.101 99.9992 276.799C100.016 277.041 100.069 277.279 100.156 277.505C100.203 277.654 100.242 277.842 100.156 277.928C100.07 278.014 99.8816 277.928 99.7719 277.818C99.3729 277.41 99.0084 276.969 98.6821 276.501C98.4893 276.261 98.2712 276.043 98.0314 275.85C97.7915 275.714 97.561 275.562 97.3415 275.396C97.0435 275.184 97.1063 274.886 97.0906 274.557Z" fill="#455A64"/>
<path d="M104.977 288.732C104.264 288.151 103.511 287.579 102.759 287.077C102.759 287.077 107.541 289.986 109.47 288.645C109.828 288.418 110.09 288.067 110.205 287.66C110.321 287.252 110.282 286.816 110.097 286.434C110.097 286.105 113.139 284.686 114.346 284.545C114.683 284.733 114.966 284.882 115.13 284.961C119.199 286.85 119.881 287.759 119.011 289.335C118.298 290.605 116.063 291.601 112.52 291.601C110.215 291.648 106.624 290.08 104.977 288.732Z" fill="#37474F"/>
<path d="M109.76 285.486C112.292 286.497 111.21 286.968 110.505 287.054C109.799 287.14 105.542 284.702 102.939 282.616C100.336 280.531 98.5251 278.124 97.5216 277.34C97.1453 277.05 96.7376 276.689 96.377 276.352C96.4475 275.796 96.5024 275.286 96.5494 275.019C96.5695 274.889 96.6346 274.77 96.7334 274.682C96.8323 274.595 96.9586 274.545 97.0904 274.541C97.0904 274.87 97.0434 275.176 97.2942 275.419C97.5138 275.586 97.7443 275.738 97.9842 275.874C98.2239 276.067 98.4421 276.285 98.6349 276.525C98.9611 276.993 99.3256 277.434 99.7246 277.842C102.546 281.013 105.953 283.608 109.76 285.486Z" fill="#263238"/>
<path d="M110.325 286.701C110.267 286.699 110.211 286.677 110.168 286.638C110.142 286.618 110.121 286.594 110.105 286.565C110.089 286.537 110.079 286.506 110.076 286.474C110.072 286.442 110.075 286.409 110.084 286.378C110.093 286.347 110.108 286.318 110.129 286.293C110.725 285.674 111.447 285.19 112.246 284.873C113.046 284.557 113.904 284.416 114.762 284.459C114.829 284.467 114.891 284.501 114.933 284.553C114.976 284.606 114.996 284.674 114.989 284.741C114.982 284.806 114.948 284.866 114.897 284.907C114.846 284.948 114.78 284.967 114.715 284.96C113.94 284.928 113.167 285.058 112.444 285.342C111.722 285.625 111.067 286.056 110.521 286.607C110.497 286.636 110.467 286.659 110.433 286.675C110.399 286.692 110.362 286.7 110.325 286.701Z" fill="#F5F5F5"/>
<path d="M108.121 285.376C108.061 285.379 108.002 285.359 107.956 285.321C107.912 285.273 107.887 285.21 107.887 285.145C107.887 285.079 107.912 285.016 107.956 284.968C108.554 284.351 109.276 283.869 110.075 283.554C110.875 283.239 111.732 283.098 112.59 283.142C112.656 283.149 112.717 283.182 112.759 283.234C112.801 283.287 112.82 283.353 112.813 283.42C112.806 283.486 112.772 283.547 112.72 283.589C112.668 283.631 112.601 283.651 112.535 283.643C111.759 283.609 110.985 283.738 110.263 284.022C109.54 284.305 108.886 284.737 108.34 285.29C108.314 285.321 108.28 285.345 108.241 285.36C108.203 285.375 108.162 285.381 108.121 285.376Z" fill="#F5F5F5"/>
<path d="M105.91 284.051C105.853 284.052 105.797 284.032 105.753 283.996C105.707 283.949 105.681 283.886 105.681 283.82C105.681 283.754 105.707 283.69 105.753 283.643C106.351 283.027 107.074 282.545 107.873 282.23C108.672 281.915 109.529 281.774 110.387 281.817C110.42 281.82 110.452 281.829 110.481 281.844C110.51 281.86 110.536 281.881 110.557 281.906C110.579 281.932 110.594 281.961 110.604 281.993C110.614 282.025 110.617 282.058 110.614 282.091C110.611 282.124 110.602 282.156 110.586 282.185C110.571 282.215 110.55 282.241 110.524 282.262C110.499 282.283 110.469 282.299 110.437 282.309C110.406 282.318 110.373 282.322 110.34 282.318C109.564 282.284 108.79 282.413 108.068 282.697C107.345 282.98 106.69 283.412 106.145 283.965C106.116 283.997 106.079 284.022 106.038 284.037C105.997 284.052 105.953 284.057 105.91 284.051Z" fill="#F5F5F5"/>
<path d="M103.864 282.585C103.807 282.586 103.752 282.566 103.708 282.53C103.684 282.507 103.665 282.48 103.652 282.45C103.639 282.419 103.632 282.387 103.632 282.354C103.632 282.321 103.639 282.288 103.652 282.258C103.665 282.227 103.684 282.2 103.708 282.177C104.305 281.559 105.027 281.077 105.826 280.762C106.626 280.447 107.483 280.306 108.341 280.351C108.406 280.358 108.466 280.392 108.507 280.443C108.548 280.494 108.567 280.56 108.561 280.625C108.553 280.69 108.52 280.75 108.468 280.791C108.417 280.832 108.352 280.851 108.286 280.844C107.511 280.814 106.738 280.944 106.016 281.228C105.294 281.511 104.639 281.941 104.092 282.491C104.065 282.525 104.03 282.551 103.99 282.568C103.951 282.584 103.907 282.59 103.864 282.585Z" fill="#F5F5F5"/>
<path d="M101.865 281.119C101.809 281.116 101.754 281.097 101.708 281.064C101.662 281.017 101.636 280.954 101.636 280.888C101.636 280.822 101.662 280.758 101.708 280.711C102.355 280.038 103.146 279.522 104.023 279.201C104.899 278.881 105.837 278.764 106.765 278.861C106.798 278.863 106.831 278.871 106.86 278.887C106.89 278.902 106.916 278.923 106.936 278.949C106.957 278.975 106.972 279.005 106.98 279.037C106.989 279.069 106.99 279.103 106.985 279.135C106.977 279.201 106.944 279.26 106.892 279.301C106.841 279.342 106.776 279.362 106.71 279.355C105.867 279.272 105.015 279.378 104.217 279.665C103.42 279.953 102.697 280.415 102.1 281.017C102.073 281.052 102.037 281.08 101.996 281.098C101.955 281.116 101.91 281.123 101.865 281.119Z" fill="#F5F5F5"/>
<path d="M82.774 258.367L71.4766 258.163C71.6412 265.705 72.8407 274.071 73.0446 281.142C73.0446 282.475 73.0446 291.491 73.515 294.235C74.299 298.351 79.1598 297.795 79.4185 295.333C79.6772 292.871 79.1049 282.342 79.1206 281.221C79.0735 276.689 81.1982 269.03 82.3193 260.884C82.3663 260.515 82.7191 258.759 82.774 258.367Z" fill="#FFA8A7"/>
<path d="M81.2537 297.042C81.4635 298.929 81.1938 300.838 80.4697 302.593C80.1111 303.29 79.5326 303.849 78.8238 304.183C78.115 304.518 77.3156 304.609 76.5497 304.443C74.8797 304.2 72.6767 303.306 72.0025 301.307C71.364 299.466 71.1392 297.506 71.3439 295.568L81.2537 297.042Z" fill="#263238"/>
<path d="M73.0135 280.28C72.3471 280.398 72.4725 283.651 72.4098 286.921C72.3392 290.433 71.4533 291.969 71.3671 294.847C71.2652 298.14 71.5866 299.551 72.9351 301.417C74.2836 303.283 78.4936 304.788 80.1949 301.777C81.5826 299.323 81.3944 296.775 80.9162 293.545C80.438 290.315 80.0616 287.869 79.9362 285.313C79.8108 282.757 79.7559 280.492 79.1522 280.28C79.1522 280.641 79.1522 281.103 79.1522 281.456C79.1522 281.809 79.2071 283.024 78.8308 283.102C78.7727 282.8 78.7387 282.493 78.7288 282.185C78.7463 281.9 78.6536 281.62 78.4701 281.401C78.2433 281.234 77.9679 281.146 77.6861 281.15C77.0146 281.075 76.3392 281.038 75.6634 281.041C75.3263 281.041 74.9813 281.041 74.652 281.095C74.3624 281.117 74.0786 281.189 73.8132 281.307C73.735 281.34 73.6646 281.39 73.6066 281.452C73.5485 281.514 73.5041 281.587 73.476 281.668C73.4525 281.792 73.4525 281.92 73.476 282.044C73.5035 282.268 73.5035 282.494 73.476 282.718C73.476 282.82 73.4055 282.946 73.3036 282.93C73.2016 282.914 73.186 282.82 73.1781 282.742C73.1311 282.35 73.1781 282.06 73.1311 281.605C73.1311 281.393 73.1311 281.103 73.1311 280.892C73.1311 280.68 73.0213 280.492 73.0135 280.28Z" fill="#455A64"/>
<path d="M71.4217 293.906C71.4217 294.384 71.3197 297.528 72.2057 297.998C73.0916 298.469 73.4365 296.023 73.4365 296.023C73.4365 296.023 75.5141 295.152 78.7756 296.203C78.6658 296.72 79.3087 298.336 80.1319 297.896C80.9551 297.457 80.9159 293.875 80.9159 293.828C81.3628 296.964 81.5039 299.394 80.1319 301.777C78.4306 304.788 74.2049 303.267 72.8721 301.417C71.5393 299.566 71.2178 298.14 71.3041 294.847C71.3433 294.517 71.3981 294.212 71.4217 293.906Z" fill="#37474F"/>
<path d="M73.6954 296.203C73.7973 297.379 72.6056 297.105 72.3861 295.419C72.1666 293.733 72.684 289.743 72.3861 286.889C72.4488 283.62 72.3234 280.366 72.9898 280.249C72.9859 280.288 72.9859 280.327 72.9898 280.366L73.0681 282.021C73.0527 282.255 73.0527 282.491 73.0681 282.726C73.2877 285.125 73.421 289.782 73.4288 291.993C73.4426 293.4 73.5316 294.805 73.6954 296.203Z" fill="#263238"/>
<path d="M78.3993 296.203C78.5529 294.815 78.6288 293.42 78.6267 292.024C78.6267 289.829 78.7678 285.227 78.9873 282.812C79.0723 282.366 79.1065 281.911 79.0892 281.456C79.0892 281.127 79.0892 280.672 79.0892 280.358C79.0892 280.358 79.0892 280.311 79.0892 280.28C79.5283 280.445 79.6851 281.738 79.7792 283.369C79.7792 284.318 79.7792 285.494 79.6929 286.921C79.395 289.774 79.9124 293.82 79.6929 295.474C79.4734 297.128 78.3209 297.379 78.3993 296.203Z" fill="#263238"/>
<path d="M78.8626 296.289H78.7764C77.0824 295.704 75.2412 295.704 73.5471 296.289C73.5162 296.301 73.4833 296.307 73.4503 296.306C73.4172 296.305 73.3846 296.298 73.3544 296.284C73.3242 296.271 73.2969 296.251 73.2742 296.227C73.2514 296.203 73.2336 296.175 73.2218 296.144C73.2099 296.113 73.2043 296.08 73.2052 296.047C73.206 296.014 73.2134 295.982 73.2269 295.952C73.2404 295.921 73.2597 295.894 73.2837 295.871C73.3077 295.849 73.3359 295.831 73.3668 295.819C75.1742 295.173 77.1493 295.173 78.9567 295.819C78.9875 295.83 79.0158 295.847 79.0397 295.87C79.0636 295.892 79.0827 295.919 79.0959 295.949C79.1091 295.979 79.1161 296.012 79.1164 296.045C79.1167 296.077 79.1104 296.11 79.0978 296.14C79.0786 296.186 79.0458 296.225 79.0037 296.252C78.9616 296.278 78.9124 296.292 78.8626 296.289Z" fill="#F5F5F5"/>
<path d="M79.1835 293.686C79.1552 293.693 79.1256 293.693 79.0972 293.686C77.1925 293.095 75.1533 293.095 73.2486 293.686C73.2172 293.697 73.1839 293.702 73.1507 293.7C73.1175 293.698 73.085 293.69 73.055 293.675C73.0251 293.661 72.9984 293.64 72.9765 293.615C72.9545 293.59 72.9377 293.561 72.9272 293.53C72.9162 293.499 72.9115 293.466 72.9135 293.433C72.9155 293.401 72.9241 293.369 72.9387 293.339C72.9534 293.31 72.9738 293.284 72.9988 293.263C73.0237 293.242 73.0527 293.226 73.084 293.216C75.0961 292.575 77.2576 292.575 79.2697 293.216C79.3248 293.236 79.371 293.276 79.4002 293.327C79.4293 293.378 79.4397 293.437 79.4294 293.495C79.4192 293.553 79.3889 293.605 79.344 293.643C79.299 293.681 79.2422 293.702 79.1835 293.702V293.686Z" fill="#F5F5F5"/>
<path d="M73.1471 291.225C73.0991 291.223 73.0524 291.209 73.0122 291.182C72.9721 291.156 72.94 291.119 72.9197 291.076C72.8931 291.015 72.8914 290.947 72.9149 290.885C72.9383 290.824 72.9851 290.774 73.0451 290.746C75.0256 289.968 77.225 289.954 79.2152 290.707C79.246 290.718 79.2742 290.736 79.2982 290.758C79.3221 290.781 79.3412 290.808 79.3544 290.838C79.3676 290.868 79.3745 290.9 79.3749 290.933C79.3752 290.966 79.3689 290.998 79.3563 291.029C79.3319 291.09 79.2845 291.138 79.2244 291.165C79.1643 291.191 79.0963 291.193 79.0349 291.17C79.0349 291.17 75.9616 289.962 73.2568 291.17C73.2248 291.196 73.1873 291.215 73.1471 291.225Z" fill="#F5F5F5"/>
<path d="M73.0918 288.92C73.0444 288.92 72.998 288.907 72.9577 288.882C72.9175 288.857 72.8851 288.821 72.8644 288.779C72.8373 288.719 72.8345 288.652 72.8564 288.59C72.8784 288.529 72.9234 288.478 72.982 288.449C73.9649 288.001 75.0305 287.764 76.1106 287.751C77.1906 287.739 78.2613 287.953 79.254 288.379C79.2837 288.392 79.3105 288.411 79.3326 288.435C79.3547 288.459 79.3717 288.488 79.3827 288.518C79.3937 288.549 79.3984 288.582 79.3965 288.614C79.3945 288.647 79.3861 288.679 79.3716 288.708C79.3582 288.738 79.3389 288.764 79.3149 288.787C79.2909 288.809 79.2627 288.826 79.2319 288.837C79.2012 288.848 79.1686 288.852 79.136 288.85C79.1034 288.849 79.0716 288.84 79.0423 288.826C78.111 288.44 77.111 288.247 76.1029 288.259C75.0949 288.271 74.0999 288.488 73.178 288.896C73.1508 288.909 73.1216 288.917 73.0918 288.92Z" fill="#F5F5F5"/>
<path d="M73.0369 286.34C72.9795 286.341 72.9235 286.322 72.8783 286.287C72.8331 286.251 72.8014 286.202 72.7886 286.146C72.7757 286.09 72.7825 286.031 72.8077 285.979C72.8329 285.928 72.8751 285.886 72.9271 285.862C75.9141 284.388 79.1364 285.799 79.2697 285.862C79.3008 285.874 79.3292 285.892 79.3528 285.916C79.3764 285.939 79.3947 285.967 79.4066 285.998C79.4184 286.03 79.4235 286.063 79.4216 286.096C79.4196 286.129 79.4106 286.162 79.3951 286.191C79.3677 286.251 79.3178 286.298 79.2562 286.322C79.1946 286.345 79.1262 286.343 79.0658 286.317C79.0658 286.317 75.9298 284.945 73.1545 286.317C73.1182 286.335 73.0775 286.344 73.0369 286.34Z" fill="#F5F5F5"/>
<path d="M75.1933 185.024C71.2106 196.055 71.9084 202.978 72.5904 214.542C73.2176 225.141 74.2133 234.479 74.2133 234.479C74.0565 236.36 71.438 240.029 71.0773 248.34C70.9617 254.191 71.2236 260.044 71.8613 265.862C71.8613 265.862 77.0749 267.767 81.481 265.862C81.481 265.862 85.989 245.956 87.2199 236.227C88.2861 227.736 90.152 216.886 90.152 216.886L94.072 236.188C93.3058 238.782 92.9125 241.472 92.9039 244.177C92.9039 248.716 95.0128 261.339 95.0128 261.339C95.0128 261.339 100.854 263.228 104.554 259.943C104.554 259.943 106.02 241.778 106.538 234.855C107.228 225.62 106.224 200.304 104.005 187.345L75.1933 185.024Z" fill="#455A64"/>
<path d="M90.1992 216.854L91.8299 202.335C91.8299 202.335 99.129 201.363 102.437 198.25C101.488 199.734 100.223 200.991 98.7326 201.93C97.2418 202.869 95.5622 203.468 93.8135 203.683L91.4615 217.199L94.1271 236.156L90.1992 216.854Z" fill="#37474F"/>
<path d="M108.247 174.26C104.695 170.606 98.2822 162.343 98.2822 162.343L94.6602 149.799C95.4697 149.841 96.281 149.841 97.0906 149.799C101.011 150.058 102.163 150.395 104.601 153.06C106.538 155.185 113.923 165.267 116.487 168.662L123.3 159.983C124.938 157.513 124.672 154.746 125.518 152.731C126.365 150.716 127.737 149.83 128.835 148.027C129.932 146.224 130.191 145.016 131.093 145.949C131.994 146.882 130.952 149.391 130.818 149.963C130.685 150.536 129.305 152.237 131.602 151.351C133.899 150.465 137.443 146.271 138.352 145.416C139.262 144.562 139.748 145.887 139.544 146.937C139.34 147.988 140.328 150.355 139.968 152.088C139.743 153.831 138.876 155.427 137.537 156.565C135.883 158.227 131.837 160.273 130.254 162.46C128.67 164.648 125.291 171.445 123.198 175.538C120.571 180.743 118.337 182.46 115.358 180.704C112.379 178.948 109.556 175.616 108.247 174.26Z" fill="#FFA8A7"/>
<path d="M95.8124 149.666C97.817 149.465 99.8407 149.734 101.724 150.45C103.848 151.406 105.291 153.46 107.369 156.243C109.446 159.027 113.154 163.895 113.154 163.895C113.154 163.895 112.151 168.121 105.534 171.916L94.7305 160.791L95.8124 149.666Z" fill="#37474F"/>
<path d="M116.486 168.654C115.194 169.873 114.328 171.476 114.016 173.225C114.016 173.225 113.232 170.708 115.906 167.878L116.486 168.654Z" fill="#F28F8F"/>
<path d="M103.637 171.939C108.458 167.972 106.867 162.805 105.111 159.324C101.59 152.37 97.9292 149.634 96.4004 149.658L86.8121 149.752C82.2335 150.379 78.6898 150.065 77.5844 150.324C74.762 150.991 74.6993 153.311 74.5895 156.314C74.4719 159.607 72.7863 159.05 73.6409 164.491C74.6488 166.513 75.5337 168.595 76.2908 170.724C76.8082 172.605 78.2665 175.6 77.4903 178.642C77.1924 179.818 76.3927 180.994 75.1932 184.216C73.8331 187.838 72.8224 191.582 72.1748 195.396C72.1748 195.396 74.9737 194.746 78.1567 191.359C78.1567 191.359 82.5079 197.184 92.9743 196.596C103.833 195.984 104.789 190.324 104.789 190.324L103.127 180.132C103.378 176.016 103.488 174.526 103.637 171.939Z" fill="#3D9635"/>
<path opacity="0.1" d="M97.3725 170.912C97.3725 170.912 93.4525 174.048 88.8504 172.543C87.5685 172.158 86.4062 171.452 85.4744 170.492C84.5426 169.531 83.8722 168.348 83.5271 167.055C83.5271 167.055 83.1351 172.268 88.921 173.946C90.4687 174.416 92.1265 174.374 93.6488 173.828C95.171 173.281 96.4768 172.259 97.3725 170.912Z" fill="black"/>
<path d="M69.9249 145.181C68.5058 144.146 60.8618 154.377 64.4369 156.941C68.0119 159.505 71.8221 152.237 71.0538 148.803C70.2855 145.369 69.9249 145.181 69.9249 145.181Z" fill="#37474F"/>
<path d="M62.9863 140.101C64.8992 137.451 66.2007 135.452 67.949 133.178C68.9368 131.884 69.5719 130.967 70.5205 129.642C71.1791 128.733 71.5632 127.964 72.3002 127.674C73.1229 127.312 73.8582 126.778 74.4562 126.106C74.8223 125.682 75.1602 125.234 75.4675 124.766C76.5726 123.236 77.8929 121.873 79.3875 120.72C80.9555 119.505 82.6725 118.564 84.2719 117.404C85.2205 116.714 86.2397 115.577 85.0559 114.55C84.688 114.253 84.2512 114.054 83.7858 113.97C80.932 113.398 78.4624 114.425 75.6871 115.185C74.4802 115.514 73.3007 115.936 72.1591 116.448C71.5923 116.678 71.0636 116.992 70.5911 117.38C69.9346 118.066 69.4038 118.863 69.0231 119.732C67.8079 121.967 65.2442 123.958 63.4488 125.707C61.3399 127.761 59.4583 129.627 57.0514 131.908C54.8875 133.946 52.7629 135.828 50.7794 138.055C49.1408 139.889 49.7759 141.3 49.9954 141.779C51.4066 144.554 52.9432 145.534 54.7935 147.267C55.405 147.831 56.0243 148.388 56.6437 148.944C59.0427 151.108 61.4418 153.131 63.9349 155.216C66.6005 157.412 67.6981 158.478 70.0736 160.61C71.5727 161.987 72.822 163.613 73.7663 165.416C77.8823 166.098 81.9277 159.803 78.3997 152.441C77.8194 151.25 76.9418 150.23 75.8517 149.477C71.5083 146.381 62.9863 140.101 62.9863 140.101Z" fill="#FFA8A7"/>
<path d="M62.9862 140.101C61.7021 141.731 59.9769 142.958 58.0156 143.637C58.0156 143.637 60.642 144.264 64.17 140.979L62.9862 140.101Z" fill="#F28F8F"/>
<path d="M77.9134 150.261C76.949 149.595 74.6049 148.176 69.9244 145.181C69.9244 145.181 70.6457 146.694 69.5089 150.497C68.3721 154.299 65.9731 156.706 64.4678 156.98C64.4678 156.98 67.0863 159.05 69.5011 161.386C71.9158 163.723 73.8993 165.377 75.2948 168.09C75.2948 168.09 78.7444 167.204 79.5284 161.355C80.0772 157.255 79.7479 152.441 77.9134 150.261Z" fill="#455A64"/>
<path d="M104.099 131.43C104.789 129.973 105.092 128.364 104.981 126.757C104.87 125.149 104.347 123.597 103.464 122.249C100.493 118.023 95.4832 115.977 89.9481 116.04H88.2312C80.7596 116.165 73.9702 122.578 73.8369 129.799C73.8369 134.879 73.8369 139.576 76.6358 143.041C79.2152 146.263 83.2371 147.321 86.6318 147.839C93.1233 148.827 100.415 148.074 103.362 143.652C103.362 143.652 99.4424 144.436 99.9363 140.375C100.007 139.732 99.3953 139.027 98.3212 138.298C99.0736 136.994 99.959 135.773 100.963 134.652C102.069 133.547 103.347 132.927 104.099 131.43Z" fill="#263238"/>
<path d="M102.163 135.138C102.124 142.704 99.7013 144.609 98.4861 145.173C97.2709 145.738 94.8875 145.44 92.5747 145.103L92.6531 149.642C92.6531 149.642 95.3579 152.378 95.2011 154.464C95.0443 156.549 91.0616 156.816 88.0432 154.864C86.3805 153.762 84.8723 152.444 83.5587 150.944C83.308 150.653 83.1666 150.284 83.1589 149.901L82.9707 139.231C82.9707 139.231 81.732 140.587 79.4741 139.097C78.9863 138.799 78.5658 138.403 78.2394 137.933C77.913 137.464 77.6877 136.932 77.5778 136.371C77.468 135.81 77.476 135.232 77.6013 134.675C77.7267 134.117 77.9666 133.591 78.3059 133.131C78.6249 132.821 79.008 132.584 79.4283 132.438C79.8485 132.292 80.2957 132.24 80.7383 132.286C81.1808 132.332 81.608 132.474 81.9897 132.702C82.3713 132.931 82.6982 133.241 82.9472 133.609C83.6371 134.895 83.5744 135.804 84.5152 135.656C85.456 135.507 85.4952 134.487 85.5579 133.758C85.6206 133.029 85.5579 132.794 85.652 131.837C87.8864 131.359 90.1992 128.247 90.4579 125.973C91.9716 126.718 93.6399 127.094 95.3266 127.071C97.8275 126.898 99.1211 126.396 100.352 124.593C100.645 125.006 100.88 125.457 101.05 125.934C101.398 126.899 101.66 127.894 101.834 128.905C102.113 130.97 102.223 133.055 102.163 135.138Z" fill="#FFA8A7"/>
<path d="M92.574 145.103C90.1357 144.821 85.1103 143.472 84.2949 141.512C84.6245 142.507 85.2511 143.377 86.0903 144.005C87.6112 145.26 92.5975 146.616 92.5975 146.616L92.574 145.103Z" fill="#F28F8F"/>
<path d="M95.0282 141.026C95.0328 141.223 94.9788 141.417 94.8729 141.584C94.7671 141.75 94.6142 141.881 94.4336 141.961C94.2531 142.04 94.053 142.064 93.8588 142.03C93.6646 141.995 93.485 141.904 93.3428 141.767C93.2006 141.63 93.1022 141.455 93.0601 141.262C93.018 141.069 93.034 140.868 93.1062 140.685C93.1784 140.501 93.3035 140.343 93.4657 140.231C93.6278 140.119 93.8196 140.057 94.0168 140.054C94.2796 140.05 94.5333 140.149 94.7228 140.332C94.9122 140.514 95.022 140.763 95.0282 141.026Z" fill="#B16668"/>
<path d="M93.75 133.578C93.7629 133.717 93.7482 133.857 93.7066 133.991C93.665 134.124 93.5975 134.248 93.5079 134.355C93.4182 134.462 93.3082 134.55 93.1843 134.615C93.0603 134.679 92.9249 134.719 92.7857 134.73C92.5713 134.753 92.3549 134.712 92.1644 134.611C91.9738 134.51 91.8178 134.354 91.7163 134.164C91.6148 133.974 91.5724 133.758 91.5946 133.543C91.6169 133.329 91.7027 133.126 91.841 132.96C91.9794 132.795 92.164 132.675 92.3712 132.615C92.5784 132.555 92.7987 132.559 93.0038 132.625C93.209 132.692 93.3896 132.818 93.5226 132.988C93.6555 133.157 93.7347 133.363 93.75 133.578Z" fill="#263238"/>
<path d="M100.822 133.131C100.842 133.387 100.76 133.639 100.594 133.835C100.428 134.03 100.191 134.152 99.9362 134.174C99.8076 134.19 99.6771 134.177 99.5536 134.138C99.4301 134.099 99.3164 134.034 99.2205 133.947C99.1245 133.86 99.0484 133.753 98.9974 133.634C98.9464 133.515 98.9216 133.386 98.9248 133.256C98.9119 133.13 98.9245 133.001 98.9619 132.879C98.9993 132.757 99.0607 132.644 99.1425 132.546C99.2243 132.448 99.3249 132.368 99.4383 132.309C99.5518 132.251 99.6757 132.216 99.8029 132.206C100.06 132.195 100.312 132.286 100.502 132.459C100.693 132.633 100.808 132.874 100.822 133.131Z" fill="#263238"/>
<path d="M95.9375 132.151L96.6901 138.47L99.9281 137.122L95.9375 132.151Z" fill="#F28F8F"/>
<path d="M89.9717 130.85L91.8533 129.062C92.0876 129.323 92.2126 129.664 92.2024 130.014C92.1922 130.364 92.0475 130.697 91.7984 130.944C91.6743 131.061 91.5275 131.153 91.367 131.212C91.2066 131.271 91.0357 131.297 90.8649 131.288C90.694 131.28 90.5267 131.236 90.3732 131.161C90.2197 131.085 90.0831 130.979 89.9717 130.85Z" fill="#263238"/>
<path d="M99.3872 128.482L101.473 130.05C101.377 130.192 101.253 130.312 101.108 130.404C100.964 130.496 100.803 130.557 100.634 130.584C100.465 130.612 100.292 130.604 100.126 130.562C99.9605 130.52 99.805 130.444 99.6695 130.34C99.3964 130.123 99.2155 129.811 99.1631 129.466C99.1108 129.122 99.1908 128.77 99.3872 128.482Z" fill="#263238"/>
<path d="M69.3288 71.0539C70.8321 70.7673 72.3688 70.6986 73.8917 70.8501C75.347 70.9777 76.7677 71.3654 78.0861 71.9947C79.3511 72.5986 80.4694 73.4708 81.3632 74.5506C82.3057 75.7063 82.9324 77.0866 83.1821 78.5568C83.4172 79.7105 83.4172 80.8998 83.1821 82.0535C82.9713 83.0576 82.612 84.0248 82.1159 84.9229C81.6343 85.7969 81.0754 86.626 80.4459 87.4003C79.8187 88.1843 79.2229 88.9056 78.6663 89.6034C78.1339 90.2601 77.6616 90.9633 77.2551 91.7045C76.8814 92.3626 76.6994 93.1122 76.7298 93.8683C76.7344 94.2199 76.6451 94.5663 76.4711 94.8719C76.389 95.0163 76.2763 95.141 76.1408 95.2372C76.0054 95.3333 75.8505 95.3986 75.6871 95.4285L71.9944 96.1263C71.819 96.1612 71.6384 96.1604 71.4633 96.124C71.2882 96.0877 71.1222 96.0164 70.9752 95.9146C70.8223 95.827 70.693 95.7033 70.5987 95.5544C70.5045 95.4055 70.448 95.2358 70.4343 95.06C70.2542 93.9001 70.3129 92.7156 70.6067 91.5791C70.8855 90.5664 71.2939 89.5941 71.8219 88.6861C72.3324 87.8214 72.9174 87.0029 73.5703 86.24C74.221 85.456 74.809 84.7504 75.3499 84.0605C75.8473 83.4409 76.2782 82.7708 76.6357 82.0613C76.9432 81.4456 77.0396 80.7459 76.9101 80.0699C76.806 79.4742 76.558 78.9129 76.1878 78.4347C75.8175 77.9565 75.3361 77.5759 74.7855 77.3259C73.4195 76.7051 71.8851 76.5589 70.4264 76.9104C67.6772 77.4331 65.9132 79.1945 65.1344 82.1946C65.0659 82.5108 64.9439 82.8131 64.7738 83.0883C64.5564 83.3396 64.2501 83.497 63.9192 83.5274L59.9992 84.2722C59.7285 84.3204 59.4494 84.2674 59.2152 84.1232C59.0921 84.0419 58.9873 83.9357 58.9077 83.8115C58.828 83.6873 58.7752 83.5478 58.7527 83.4019C58.5833 82.1652 58.7179 80.9059 59.1447 79.7328C59.5885 78.3779 60.2679 77.112 61.1517 75.9931C62.1426 74.7681 63.3231 73.7094 64.6483 72.8571C66.0766 71.9579 67.6664 71.3454 69.3288 71.0539ZM76.4867 98.2979C76.8353 98.2377 77.1937 98.3152 77.4863 98.5141C77.7788 98.713 77.9826 99.0178 78.0547 99.3642L78.8387 103.645C78.8745 103.816 78.8742 103.994 78.8377 104.165C78.8013 104.336 78.7295 104.498 78.6271 104.641C78.5307 104.786 78.4062 104.911 78.2608 105.008C78.1154 105.105 77.952 105.172 77.7803 105.205L73.6016 105.989C73.4288 106.025 73.2504 106.025 73.0777 105.988C72.905 105.952 72.7417 105.88 72.5981 105.777C72.4523 105.681 72.3272 105.556 72.2302 105.411C72.1333 105.266 72.0664 105.102 72.0336 104.931L71.2496 100.65C71.2168 100.478 71.2194 100.301 71.2571 100.13C71.2949 99.9584 71.367 99.7967 71.4691 99.6543C71.563 99.5062 71.6868 99.3795 71.8327 99.2823C71.9785 99.1851 72.1431 99.1195 72.3159 99.0898L76.4867 98.2979Z" fill="#3D9635"/>
<path d="M109.172 88.7175C110.097 89.2301 110.942 89.8745 111.681 90.6304C112.4 91.3387 112.982 92.1732 113.398 93.0922C113.798 93.9711 114.003 94.9256 114.002 95.8911C114.001 96.9201 113.731 97.931 113.218 98.8232C112.834 99.5383 112.315 100.172 111.689 100.689C111.129 101.124 110.508 101.475 109.847 101.732C109.204 101.983 108.54 102.177 107.863 102.312L105.95 102.688C105.376 102.799 104.814 102.964 104.272 103.182C103.785 103.363 103.358 103.679 103.041 104.092C102.887 104.282 102.684 104.425 102.453 104.507C102.345 104.548 102.229 104.564 102.114 104.554C101.999 104.545 101.887 104.51 101.787 104.452L99.5213 103.182C99.301 103.062 99.1375 102.859 99.0666 102.618C99.0281 102.503 99.0165 102.381 99.0328 102.262C99.0491 102.142 99.0929 102.028 99.1607 101.928C99.5781 101.235 100.133 100.634 100.791 100.164C101.388 99.7471 102.036 99.4098 102.72 99.1603C103.376 98.9271 104.05 98.7487 104.735 98.6272C105.417 98.5096 106.052 98.392 106.648 98.2666C107.186 98.1542 107.711 97.9888 108.216 97.7727C108.652 97.5804 109.014 97.2534 109.251 96.8397C109.457 96.4759 109.571 96.0676 109.585 95.6498C109.599 95.232 109.511 94.8171 109.329 94.4407C108.881 93.507 108.133 92.7506 107.205 92.2925C106.405 91.8302 105.481 91.6258 104.561 91.7072C103.641 91.7886 102.768 92.1517 102.061 92.7472C101.887 92.8893 101.687 92.9982 101.473 93.0687C101.249 93.1059 101.019 93.0554 100.831 92.9275L98.4159 91.5791C98.245 91.483 98.1163 91.3263 98.0552 91.14C98.0247 91.0426 98.0152 90.9398 98.0274 90.8384C98.0395 90.7371 98.0731 90.6395 98.1258 90.552C98.5835 89.8232 99.21 89.2154 99.9525 88.7802C100.798 88.2701 101.727 87.9144 102.697 87.7296C103.758 87.5215 104.846 87.4871 105.919 87.6277C107.063 87.7784 108.168 88.1484 109.172 88.7175ZM100.909 106.318C101.015 106.377 101.109 106.457 101.184 106.552C101.26 106.648 101.315 106.758 101.348 106.875C101.383 106.99 101.394 107.112 101.38 107.232C101.367 107.352 101.329 107.468 101.27 107.573L99.8035 110.199C99.6846 110.413 99.4859 110.571 99.2508 110.638C99.0157 110.706 98.7634 110.678 98.5491 110.56L95.9855 109.125C95.8775 109.069 95.7831 108.99 95.7086 108.894C95.6342 108.798 95.5815 108.687 95.5543 108.568C95.517 108.454 95.504 108.332 95.5161 108.212C95.5283 108.092 95.5653 107.976 95.6248 107.871L97.0909 105.244C97.1504 105.139 97.2302 105.047 97.3258 104.973C97.4214 104.898 97.5308 104.844 97.6475 104.813C97.7628 104.776 97.8845 104.764 98.0048 104.778C98.125 104.791 98.241 104.83 98.3453 104.891L100.909 106.318Z" fill="#3D9635"/>
<g opacity="0.2">
<path d="M109.172 88.7175C110.097 89.2301 110.942 89.8745 111.681 90.6304C112.4 91.3387 112.982 92.1732 113.398 93.0922C113.798 93.9711 114.003 94.9256 114.002 95.8911C114.001 96.9201 113.731 97.931 113.218 98.8232C112.834 99.5383 112.315 100.172 111.689 100.689C111.129 101.124 110.508 101.475 109.847 101.732C109.204 101.983 108.54 102.177 107.863 102.312L105.95 102.688C105.376 102.799 104.814 102.964 104.272 103.182C103.785 103.363 103.358 103.679 103.041 104.092C102.887 104.282 102.684 104.425 102.453 104.507C102.345 104.548 102.229 104.564 102.114 104.554C101.999 104.545 101.887 104.51 101.787 104.452L99.5213 103.182C99.301 103.062 99.1375 102.859 99.0666 102.618C99.0281 102.503 99.0165 102.381 99.0328 102.262C99.0491 102.142 99.0929 102.028 99.1607 101.928C99.5781 101.235 100.133 100.634 100.791 100.164C101.388 99.7471 102.036 99.4098 102.72 99.1603C103.376 98.9271 104.05 98.7487 104.735 98.6272C105.417 98.5096 106.052 98.392 106.648 98.2666C107.186 98.1542 107.711 97.9888 108.216 97.7727C108.652 97.5804 109.014 97.2534 109.251 96.8397C109.457 96.4759 109.571 96.0676 109.585 95.6498C109.599 95.232 109.511 94.8171 109.329 94.4407C108.881 93.507 108.133 92.7506 107.205 92.2925C106.405 91.8302 105.481 91.6258 104.561 91.7072C103.641 91.7886 102.768 92.1517 102.061 92.7472C101.887 92.8893 101.687 92.9982 101.473 93.0687C101.249 93.1059 101.019 93.0554 100.831 92.9275L98.4159 91.5791C98.245 91.483 98.1163 91.3263 98.0552 91.14C98.0247 91.0426 98.0152 90.9398 98.0274 90.8384C98.0395 90.7371 98.0731 90.6395 98.1258 90.552C98.5835 89.8232 99.21 89.2154 99.9525 88.7802C100.798 88.2701 101.727 87.9144 102.697 87.7296C103.758 87.5215 104.846 87.4871 105.919 87.6277C107.063 87.7784 108.168 88.1484 109.172 88.7175ZM100.909 106.318C101.015 106.377 101.109 106.457 101.184 106.552C101.26 106.648 101.315 106.758 101.348 106.875C101.383 106.99 101.394 107.112 101.38 107.232C101.367 107.352 101.329 107.468 101.27 107.573L99.8035 110.199C99.6846 110.413 99.4859 110.571 99.2508 110.638C99.0157 110.706 98.7634 110.678 98.5491 110.56L95.9855 109.125C95.8775 109.069 95.7831 108.99 95.7086 108.894C95.6342 108.798 95.5815 108.687 95.5543 108.568C95.517 108.454 95.504 108.332 95.5161 108.212C95.5283 108.092 95.5653 107.976 95.6248 107.871L97.0909 105.244C97.1504 105.139 97.2302 105.047 97.3258 104.973C97.4214 104.898 97.5308 104.844 97.6475 104.813C97.7628 104.776 97.8845 104.764 98.0048 104.778C98.125 104.791 98.241 104.83 98.3453 104.891L100.909 106.318Z" fill="black"/>
</g>
<path d="M53.9469 117.506C54.0513 117.407 54.1746 117.331 54.3093 117.281C54.444 117.231 54.5874 117.209 54.7309 117.216C54.878 117.218 55.0233 117.249 55.1579 117.309C55.2926 117.368 55.414 117.454 55.5149 117.561L57.9296 120.179C58.029 120.286 58.1062 120.412 58.1569 120.548C58.2075 120.685 58.2306 120.831 58.2248 120.976C58.2189 121.122 58.1843 121.265 58.1229 121.398C58.0615 121.53 57.9745 121.649 57.8669 121.747L55.3111 124.099C55.2043 124.199 55.0788 124.276 54.942 124.327C54.8052 124.377 54.6598 124.4 54.514 124.395C54.3682 124.389 54.2251 124.354 54.0928 124.293C53.9605 124.231 53.8416 124.144 53.7431 124.037L51.3284 121.418C51.228 121.312 51.1499 121.186 51.0987 121.05C51.0474 120.913 51.0241 120.767 51.0299 120.621C51.0357 120.475 51.0707 120.331 51.1327 120.199C51.1947 120.067 51.2826 119.948 51.3911 119.85L53.9469 117.506ZM37.1693 101.708C38.0861 100.852 39.1211 100.131 40.2426 99.568C41.3076 99.0297 42.4596 98.6847 43.6451 98.5488C44.7832 98.4232 45.935 98.5408 47.0242 98.8938C48.1814 99.2887 49.2161 99.9777 50.0269 100.893C50.7053 101.582 51.2385 102.401 51.5949 103.3C51.8824 104.089 52.0515 104.916 52.0967 105.754C52.1414 106.57 52.1152 107.388 52.0183 108.2C51.9163 108.984 51.8223 109.768 51.736 110.497C51.6509 111.183 51.6273 111.876 51.6655 112.567C51.6915 113.187 51.8927 113.788 52.2456 114.299C52.3976 114.534 52.4842 114.804 52.4965 115.083C52.5033 115.221 52.4786 115.358 52.4243 115.484C52.3699 115.611 52.2873 115.723 52.1829 115.812L49.925 117.906C49.7108 118.1 49.4299 118.204 49.141 118.196C48.9976 118.201 48.8551 118.172 48.7255 118.11C48.5959 118.049 48.4829 117.957 48.3962 117.843C47.7689 117.114 47.2944 116.266 47.0007 115.35C46.7551 114.527 46.6181 113.676 46.593 112.818C46.5685 111.989 46.6157 111.16 46.7341 110.34C46.8517 109.556 46.9458 108.772 47.0242 108.067C47.0944 107.418 47.0944 106.763 47.0242 106.114C46.973 105.555 46.7388 105.029 46.3578 104.617C46.0263 104.25 45.6104 103.968 45.146 103.798C44.6816 103.627 44.1827 103.572 43.6922 103.637C42.4825 103.793 41.3581 104.345 40.4935 105.205C38.8105 106.773 38.3479 108.762 39.1058 111.171C39.1988 111.422 39.2465 111.688 39.2469 111.955C39.2275 112.087 39.1822 112.214 39.1136 112.328C39.0449 112.443 38.9544 112.542 38.8471 112.622L36.4402 114.848C36.272 115.011 36.0468 115.101 35.813 115.099C35.6932 115.097 35.5753 115.069 35.4671 115.018C35.3589 114.967 35.263 114.893 35.1858 114.801C34.5193 114.03 34.0534 113.106 33.8295 112.112C33.5634 110.974 33.5024 109.798 33.6491 108.639C33.8101 107.368 34.1755 106.132 34.7311 104.978C35.3228 103.739 36.1511 102.629 37.1693 101.708Z" fill="#3D9635"/>
<g opacity="0.6">
<path d="M53.9469 117.506C54.0513 117.407 54.1746 117.331 54.3093 117.281C54.444 117.231 54.5874 117.209 54.7309 117.216C54.878 117.218 55.0233 117.249 55.1579 117.309C55.2926 117.368 55.414 117.454 55.5149 117.561L57.9296 120.179C58.029 120.286 58.1062 120.412 58.1569 120.548C58.2075 120.685 58.2306 120.831 58.2248 120.976C58.2189 121.122 58.1843 121.265 58.1229 121.398C58.0615 121.53 57.9745 121.649 57.8669 121.747L55.3111 124.099C55.2043 124.199 55.0788 124.276 54.942 124.327C54.8052 124.377 54.6598 124.4 54.514 124.395C54.3682 124.389 54.2251 124.354 54.0928 124.293C53.9605 124.231 53.8416 124.144 53.7431 124.037L51.3284 121.418C51.228 121.312 51.1499 121.186 51.0987 121.05C51.0474 120.913 51.0241 120.767 51.0299 120.621C51.0357 120.475 51.0707 120.331 51.1327 120.199C51.1947 120.067 51.2826 119.948 51.3911 119.85L53.9469 117.506ZM37.1693 101.708C38.0861 100.852 39.1211 100.131 40.2426 99.568C41.3076 99.0297 42.4596 98.6847 43.6451 98.5488C44.7832 98.4232 45.935 98.5408 47.0242 98.8938C48.1814 99.2887 49.2161 99.9777 50.0269 100.893C50.7053 101.582 51.2385 102.401 51.5949 103.3C51.8824 104.089 52.0515 104.916 52.0967 105.754C52.1414 106.57 52.1152 107.388 52.0183 108.2C51.9163 108.984 51.8223 109.768 51.736 110.497C51.6509 111.183 51.6273 111.876 51.6655 112.567C51.6915 113.187 51.8927 113.788 52.2456 114.299C52.3976 114.534 52.4842 114.804 52.4965 115.083C52.5033 115.221 52.4786 115.358 52.4243 115.484C52.3699 115.611 52.2873 115.723 52.1829 115.812L49.925 117.906C49.7108 118.1 49.4299 118.204 49.141 118.196C48.9976 118.201 48.8551 118.172 48.7255 118.11C48.5959 118.049 48.4829 117.957 48.3962 117.843C47.7689 117.114 47.2944 116.266 47.0007 115.35C46.7551 114.527 46.6181 113.676 46.593 112.818C46.5685 111.989 46.6157 111.16 46.7341 110.34C46.8517 109.556 46.9458 108.772 47.0242 108.067C47.0944 107.418 47.0944 106.763 47.0242 106.114C46.973 105.555 46.7388 105.029 46.3578 104.617C46.0263 104.25 45.6104 103.968 45.146 103.798C44.6816 103.627 44.1827 103.572 43.6922 103.637C42.4825 103.793 41.3581 104.345 40.4935 105.205C38.8105 106.773 38.3479 108.762 39.1058 111.171C39.1988 111.422 39.2465 111.688 39.2469 111.955C39.2275 112.087 39.1822 112.214 39.1136 112.328C39.0449 112.443 38.9544 112.542 38.8471 112.622L36.4402 114.848C36.272 115.011 36.0468 115.101 35.813 115.099C35.6932 115.097 35.5753 115.069 35.4671 115.018C35.3589 114.967 35.263 114.893 35.1858 114.801C34.5193 114.03 34.0534 113.106 33.8295 112.112C33.5634 110.974 33.5024 109.798 33.6491 108.639C33.8101 107.368 34.1755 106.132 34.7311 104.978C35.3228 103.739 36.1511 102.629 37.1693 101.708Z" fill="white"/>
</g>
<path d="M213.593 172.206C211.358 170.928 201.95 165.487 198.752 163.636C198.117 163.276 197.717 163.041 197.685 163.017C196.095 162.131 194.237 161.852 192.456 162.233C190.928 162.543 189.464 163.113 188.128 163.919C187.909 164.044 187.689 164.193 187.478 164.334C183.864 166.616 180.759 170.206 178.172 175.146C175.537 179.957 174.124 185.341 174.056 190.826C174.056 196.021 175.441 199.666 178.211 201.762C178.491 201.971 178.785 202.162 179.089 202.335C181.684 203.809 194.698 211.351 194.988 211.515H195.059C194.739 211.34 194.432 211.141 194.142 210.919C191.366 208.829 189.981 205.186 189.987 199.991C190.055 194.506 191.468 189.122 194.103 184.311C196.836 179.084 200.152 175.339 204.052 173.076C207.762 170.933 210.966 170.653 213.663 172.237L213.593 172.206Z" fill="#3D9635"/>
<path opacity="0.4" d="M213.663 172.253C210.967 170.685 207.763 170.962 204.052 173.084C200.43 175.174 197.307 178.572 194.683 183.276L178.752 174.048C181.214 169.65 184.122 166.412 187.47 164.303C187.682 164.17 187.901 164.013 188.121 163.887C189.455 163.081 190.919 162.513 192.448 162.21C194.229 161.824 196.089 162.103 197.678 162.994L198.744 163.613C201.943 165.455 211.351 170.896 213.585 172.174L213.663 172.253Z" fill="black"/>
<path opacity="0.3" d="M195.059 211.492H194.988C194.698 211.327 181.66 203.785 179.089 202.311C178.785 202.139 178.491 201.948 178.211 201.739C175.441 199.648 174.056 196.005 174.056 190.81C174.122 185.325 175.535 179.94 178.172 175.13C178.36 174.761 178.556 174.401 178.76 174.056L194.683 183.252C194.487 183.597 194.291 183.958 194.103 184.318C191.468 189.129 190.055 194.514 189.987 199.998C189.987 205.194 191.372 208.837 194.142 210.927C194.433 211.138 194.74 211.326 195.059 211.492Z" fill="black"/>
<path d="M206.646 37.6712C214.377 33.2024 220.957 31.3025 226.387 31.9715C228.598 32.2355 230.731 32.945 232.659 34.0569C232.605 34.0285 232.553 33.9971 232.503 33.9629C230.637 32.9123 219.394 26.4286 216.823 24.9155C214.861 23.769 212.682 23.0428 210.425 22.783C204.989 22.1192 198.406 24.0165 190.676 28.4749C178.655 35.4107 168.986 45.6027 161.668 59.0509C154.351 72.4991 150.731 86.2269 150.81 100.234L166.733 109.431C166.623 95.4128 170.243 81.6823 177.591 68.2393C184.94 54.7964 194.625 44.607 206.646 37.6712Z" fill="#3D9635"/>
<path opacity="0.2" d="M232.534 33.9707C230.634 32.9124 228.546 32.2334 226.387 31.9715C220.962 31.3025 214.382 33.2024 206.646 37.6712C194.625 44.6017 184.956 54.7937 177.638 68.2472C177.332 68.8038 177.035 69.3683 176.744 69.9249L160.782 60.7129C161.072 60.1563 161.37 59.5918 161.676 59.0352C169.025 45.5974 178.694 35.4054 190.684 28.4592C198.425 23.9956 205.008 22.0983 210.433 22.7673C212.691 23.0298 214.869 23.7586 216.83 24.9077C219.425 26.4365 230.668 32.928 232.534 33.9707Z" fill="black"/>
<path opacity="0.3" d="M176.705 69.9093C169.958 82.8139 166.636 95.9825 166.741 109.415L150.818 100.219C150.718 86.781 154.04 73.6124 160.782 60.713L176.705 69.9093Z" fill="black"/>
<path d="M217.466 63.7313C214.576 62.1947 210.716 62.7958 205.886 65.5345C205.723 68.4079 205.131 71.2407 204.13 73.939C202.923 77.19 199.41 83.8958 193.593 94.0564C187.567 104.562 183.208 114.595 180.516 124.154C177.846 133.592 176.49 143.354 176.486 153.162L176.565 158.047L187.431 164.319L192.496 167.243L192.409 162.351V162.288C192.427 152.511 193.782 142.783 196.439 133.374C199.131 123.814 203.493 113.785 209.524 103.284C215.336 93.1235 218.846 86.4151 220.053 83.1588C221.259 79.9397 221.875 76.5298 221.872 73.0923C221.872 68.4144 220.403 65.2941 217.466 63.7313Z" fill="#3D9635"/>
<path opacity="0.3" d="M218.493 86.679C216.695 90.4213 213.705 95.9459 209.524 103.253C203.487 113.758 199.126 123.791 196.439 133.351C193.78 142.767 192.424 152.503 192.409 162.288V162.413L192.496 167.306L187.431 164.389L176.565 158.117L176.486 153.225C176.491 143.416 177.847 133.655 180.516 124.217C183.208 114.657 187.567 104.625 193.593 94.1192C197.775 86.8019 200.769 81.2799 202.578 77.5533L218.493 86.679Z" fill="black"/>
<path opacity="0.4" d="M221.871 73.0923C221.873 76.5188 221.26 79.9177 220.06 83.1275C219.723 84.0448 219.198 85.2286 218.492 86.679L202.577 77.4905C203.272 76.0375 203.795 74.8537 204.145 73.939C205.146 71.2407 205.738 68.4079 205.901 65.5345C210.731 62.7958 214.591 62.1947 217.481 63.7313C220.371 65.268 221.835 68.3883 221.871 73.0923Z" fill="black"/>
<path d="M188.293 96.9651L166.741 109.415C166.631 95.3971 170.25 81.6667 177.599 68.2237C184.948 54.7807 194.617 44.5887 206.607 37.6477C214.337 33.1789 220.918 31.279 226.348 31.948C231.779 32.617 236.125 35.5936 239.386 40.8778C242.653 46.1619 244.286 52.7527 244.286 60.6502C244.254 65.2353 243.728 69.8036 242.718 74.2761C241.496 79.6263 239.847 84.8698 237.787 89.9562C236.47 93.2803 233.315 99.4164 228.324 108.364C223.552 116.894 220.562 122.699 219.355 125.777C218.015 129.431 217.02 133.203 216.384 137.043C215.434 142.783 214.91 148.584 214.816 154.401L192.526 167.274L192.44 162.382C192.445 152.574 193.801 142.812 196.47 133.374C199.162 123.814 203.523 113.785 209.555 103.284C215.367 93.1235 218.877 86.4151 220.084 83.1589C221.279 79.9378 221.885 76.5279 221.872 73.0923C221.872 68.3883 220.406 65.268 217.473 63.7314C214.541 62.1947 210.606 62.8376 205.666 65.66C200.617 68.5765 196.475 72.9512 193.24 78.7841C190.076 84.3269 188.373 90.5833 188.293 96.9651Z" fill="#3D9635"/>
<path d="M204.012 173.131C208.011 170.815 211.424 170.672 214.251 172.699C217.079 174.727 218.493 178.336 218.493 183.527C218.407 189.041 216.967 194.45 214.298 199.277C211.507 204.582 208.133 208.377 204.177 210.661C200.22 212.945 196.86 213.039 194.095 210.943C191.325 208.852 189.939 205.207 189.939 200.006C190.008 194.521 191.421 189.137 194.055 184.326C196.799 179.11 200.118 175.378 204.012 173.131Z" fill="#3D9635"/>
</svg>
