<svg width="314" height="84" viewBox="0 0 314 84" fill="none" xmlns="http://www.w3.org/2000/svg">
<path d="M66.0421 40.67V36.188C66.0421 35.168 66.3421 34.352 66.9421 33.74C67.4701 33.212 68.1781 32.912 69.0661 32.84C68.7421 32.336 68.5801 31.67 68.5801 30.842C68.5801 29.522 68.9401 28.478 69.6601 27.71C70.2961 27.038 71.1361 26.702 72.1801 26.702C73.2481 26.702 74.0821 27.044 74.6821 27.728C75.1981 28.316 75.4561 29.084 75.4561 30.032V32.174C75.4441 33.062 75.1441 33.752 74.5561 34.244C73.9681 34.736 73.1401 34.988 72.0721 35H69.5701C69.1141 35 68.7901 35.096 68.5981 35.288C68.4061 35.492 68.3101 35.828 68.3101 36.296V39.482L66.0421 40.67ZM73.1881 29.996C73.1881 29.204 72.8521 28.808 72.1801 28.808C71.7481 28.808 71.4061 28.982 71.1541 29.33C70.9141 29.678 70.7941 30.158 70.7941 30.77C70.7941 32.138 71.2441 32.822 72.1441 32.822C72.8401 32.822 73.1881 32.486 73.1881 31.814V29.996ZM81.829 35C80.737 35 79.891 34.652 79.291 33.956C78.775 33.356 78.517 32.582 78.517 31.634V24.578L80.785 23.39V31.526C80.785 31.994 80.881 32.33 81.073 32.534C81.265 32.726 81.589 32.822 82.045 32.822H83.665V35H81.829ZM91.4176 32.822H96.3676L96.4036 35H91.2016C90.5896 35 90.0136 34.85 89.4736 34.55C88.9096 34.85 88.3336 35 87.7456 35H82.5796V32.822H87.4756C86.9356 32.45 86.4856 32.096 86.1256 31.76C85.9216 31.58 85.6096 31.244 85.1896 30.752C85.0576 30.596 84.9496 30.47 84.8656 30.374V29.348C85.3936 28.544 86.0716 27.902 86.8996 27.422C87.7396 26.942 88.5976 26.702 89.4736 26.702C90.3376 26.702 91.1896 26.948 92.0296 27.44C92.8696 27.92 93.5656 28.568 94.1176 29.384V30.374C93.3136 31.346 92.4136 32.162 91.4176 32.822ZM89.4556 31.958C90.3556 31.25 91.0216 30.536 91.4536 29.816C90.7336 29.144 90.0556 28.808 89.4196 28.808C88.8076 28.808 88.1716 29.144 87.5116 29.816C87.9796 30.644 88.6276 31.358 89.4556 31.958ZM95.3238 35V32.822H96.4578C97.0098 32.822 97.3998 32.702 97.6278 32.462C97.8678 32.222 97.9878 31.814 97.9878 31.238V24.596L100.238 23.39V31.256C100.238 32.42 99.8838 33.35 99.1758 34.046C98.5278 34.682 97.6638 35 96.5838 35H95.3238ZM103.478 35V24.596L105.746 23.39V35H103.478ZM117.66 27.206C117.3 27.206 117.012 27.098 116.796 26.882C116.58 26.666 116.472 26.372 116.472 26C116.472 25.652 116.58 25.37 116.796 25.154C117.012 24.938 117.3 24.83 117.66 24.83C118.02 24.83 118.302 24.938 118.506 25.154C118.722 25.358 118.83 25.64 118.83 26C118.83 26.804 118.44 27.206 117.66 27.206ZM122.646 33.848C122.646 35.288 122.148 36.434 121.152 37.286C120.264 38.042 119.13 38.42 117.75 38.42C116.13 38.42 114.876 37.85 113.988 36.71C113.292 35.822 112.944 34.778 112.944 33.578C112.944 32.63 113.166 31.802 113.61 31.094L115.77 30.644C115.29 31.46 115.05 32.318 115.05 33.218C115.05 34.13 115.308 34.868 115.824 35.432C116.316 35.972 116.958 36.242 117.75 36.242C118.578 36.242 119.22 36.032 119.676 35.612C120.144 35.192 120.378 34.604 120.378 33.848V28.196L122.646 27.008V33.848ZM125.206 22.382L125.782 21.338H126.322C126.19 21.098 126.124 20.852 126.124 20.6C126.124 20.216 126.262 19.886 126.538 19.61C126.826 19.334 127.168 19.196 127.564 19.196C127.924 19.196 128.26 19.322 128.572 19.574V20.618C128.284 20.366 127.996 20.24 127.708 20.24C127.312 20.24 127.114 20.42 127.114 20.78C127.114 20.96 127.192 21.146 127.348 21.338H129.13L128.554 22.382H125.206ZM129.202 35C128.11 35 127.264 34.652 126.664 33.956C126.148 33.356 125.89 32.582 125.89 31.634V24.578L128.158 23.39V31.526C128.158 31.994 128.254 32.33 128.446 32.534C128.638 32.726 128.962 32.822 129.418 32.822H131.038V35H129.202ZM140.177 22.778C139.457 22.778 139.097 22.412 139.097 21.68C139.097 20.972 139.457 20.618 140.177 20.618C140.885 20.618 141.239 20.972 141.239 21.68C141.239 22.412 140.885 22.778 140.177 22.778ZM138.809 25.424C138.449 25.424 138.161 25.316 137.945 25.1C137.729 24.884 137.621 24.59 137.621 24.218C137.621 23.87 137.729 23.588 137.945 23.372C138.161 23.156 138.449 23.048 138.809 23.048C139.169 23.048 139.451 23.156 139.655 23.372C139.871 23.576 139.979 23.858 139.979 24.218C139.979 25.022 139.589 25.424 138.809 25.424ZM141.581 25.424C141.221 25.424 140.933 25.316 140.717 25.1C140.501 24.884 140.393 24.59 140.393 24.218C140.393 23.87 140.501 23.588 140.717 23.372C140.933 23.156 141.221 23.048 141.581 23.048C141.941 23.048 142.223 23.156 142.427 23.372C142.643 23.576 142.751 23.858 142.751 24.218C142.751 25.022 142.361 25.424 141.581 25.424ZM129.953 35V32.822H131.861C132.317 32.822 132.641 32.726 132.833 32.534C133.037 32.33 133.139 31.994 133.139 31.526V29.15L135.407 27.962V31.526C135.407 31.994 135.503 32.33 135.695 32.534C135.887 32.726 136.211 32.822 136.667 32.822H137.891C138.347 32.822 138.671 32.726 138.863 32.534C139.055 32.33 139.151 31.994 139.151 31.526V28.682L141.419 27.476V31.526C141.419 31.994 141.515 32.33 141.707 32.534C141.911 32.726 142.241 32.822 142.697 32.822H143.921C144.377 32.822 144.701 32.726 144.893 32.534C145.085 32.33 145.181 31.994 145.181 31.526V28.196L147.449 27.008V31.238C147.449 31.814 147.563 32.222 147.791 32.462C148.031 32.702 148.427 32.822 148.979 32.822H150.635V35H148.853C147.845 35 147.035 34.712 146.423 34.136C145.883 34.7 145.157 34.988 144.245 35H142.463C141.575 35 140.849 34.736 140.285 34.208C139.769 34.724 139.085 34.988 138.233 35H136.451C135.563 35 134.837 34.736 134.273 34.208C133.709 34.736 132.983 35 132.095 35H129.953ZM149.552 35V32.822H150.686C151.238 32.822 151.628 32.702 151.856 32.462C152.096 32.222 152.216 31.814 152.216 31.238V24.596L154.466 23.39V31.256C154.466 32.42 154.112 33.35 153.404 34.046C152.756 34.682 151.892 35 150.812 35H149.552ZM161.018 35C159.926 35 159.08 34.652 158.48 33.956C157.964 33.356 157.706 32.582 157.706 31.634V24.578L159.974 23.39V31.526C159.974 31.994 160.07 32.33 160.262 32.534C160.454 32.726 160.778 32.822 161.234 32.822H162.854V35H161.018ZM161.769 35V32.822H163.389C163.845 32.822 164.169 32.726 164.361 32.534C164.553 32.33 164.649 31.994 164.649 31.526V28.196L166.917 27.008V31.634C166.917 32.726 166.581 33.578 165.909 34.19C165.321 34.73 164.553 35 163.605 35H161.769ZM165.585 39.014C165.225 39.014 164.937 38.906 164.721 38.69C164.505 38.474 164.397 38.18 164.397 37.808C164.397 37.46 164.505 37.178 164.721 36.962C164.937 36.746 165.225 36.638 165.585 36.638C165.945 36.638 166.227 36.74 166.431 36.944C166.647 37.16 166.755 37.448 166.755 37.808C166.755 38.612 166.365 39.014 165.585 39.014ZM178.796 27.134C178.436 27.134 178.148 27.026 177.932 26.81C177.716 26.594 177.608 26.3 177.608 25.928C177.608 25.58 177.716 25.298 177.932 25.082C178.148 24.866 178.436 24.758 178.796 24.758C179.156 24.758 179.438 24.866 179.642 25.082C179.858 25.286 179.966 25.568 179.966 25.928C179.966 26.732 179.576 27.134 178.796 27.134ZM185.078 32.822H186.698V35H184.862C184.454 35 184.076 34.946 183.728 34.838C183.5 35.99 182.918 36.896 181.982 37.556C181.142 38.132 180.122 38.42 178.922 38.42C177.302 38.42 176.048 37.85 175.16 36.71C174.464 35.822 174.116 34.778 174.116 33.578C174.116 32.63 174.338 31.802 174.782 31.094L176.942 30.644C176.462 31.46 176.222 32.318 176.222 33.218C176.222 34.13 176.48 34.868 176.996 35.432C177.488 35.972 178.13 36.242 178.922 36.242C179.75 36.242 180.392 36.032 180.848 35.612C181.316 35.192 181.55 34.604 181.55 33.848V28.196L183.818 27.008V31.526C183.818 31.994 183.914 32.33 184.106 32.534C184.298 32.726 184.622 32.822 185.078 32.822ZM192.031 32.822H193.651V35H191.815C190.939 35 190.213 34.766 189.637 34.298C189.061 34.766 188.335 35 187.459 35H185.623V32.822H187.243C187.699 32.822 188.023 32.726 188.215 32.534C188.407 32.33 188.503 31.994 188.503 31.526V28.196L190.771 27.008V31.526C190.771 31.994 190.867 32.33 191.059 32.534C191.251 32.726 191.575 32.822 192.031 32.822ZM187.369 36.638C187.729 36.638 188.011 36.74 188.215 36.944C188.431 37.16 188.539 37.448 188.539 37.808C188.539 38.612 188.149 39.014 187.369 39.014C187.009 39.014 186.721 38.906 186.505 38.69C186.289 38.474 186.181 38.18 186.181 37.808C186.181 37.028 186.577 36.638 187.369 36.638ZM190.141 36.638C190.501 36.638 190.783 36.74 190.987 36.944C191.203 37.16 191.311 37.448 191.311 37.808C191.311 38.612 190.921 39.014 190.141 39.014C189.781 39.014 189.493 38.906 189.277 38.69C189.061 38.474 188.953 38.18 188.953 37.808C188.953 37.028 189.349 36.638 190.141 36.638ZM204.014 32.822H205.616V35H203.78C202.916 35 202.208 34.778 201.656 34.334C201.008 35.018 200.156 35.36 199.1 35.36C198.02 35.36 197.168 35.018 196.544 34.334C195.968 34.778 195.254 35 194.402 35H192.566V32.822H194.186C194.642 32.822 194.966 32.726 195.158 32.534C195.35 32.33 195.446 31.994 195.446 31.526V31.004C195.446 29.6 195.812 28.508 196.544 27.728C197.18 27.044 198.032 26.702 199.1 26.702C200.312 26.702 201.248 27.146 201.908 28.034C202.46 28.79 202.736 29.78 202.736 31.004V31.526C202.736 31.994 202.832 32.33 203.024 32.534C203.228 32.726 203.558 32.822 204.014 32.822ZM199.1 33.182C200.012 33.182 200.468 32.438 200.468 30.95C200.468 29.522 200.012 28.808 199.1 28.808C198.176 28.808 197.714 29.522 197.714 30.95C197.714 32.438 198.176 33.182 199.1 33.182ZM206.247 25.424C205.887 25.424 205.599 25.316 205.383 25.1C205.167 24.884 205.059 24.59 205.059 24.218C205.059 23.87 205.167 23.588 205.383 23.372C205.599 23.156 205.887 23.048 206.247 23.048C206.607 23.048 206.889 23.156 207.093 23.372C207.309 23.576 207.417 23.858 207.417 24.218C207.417 25.022 207.027 25.424 206.247 25.424ZM209.001 25.424C208.641 25.424 208.353 25.316 208.137 25.1C207.921 24.872 207.813 24.578 207.813 24.218C207.813 23.87 207.921 23.588 208.137 23.372C208.365 23.156 208.653 23.048 209.001 23.048C209.361 23.048 209.643 23.156 209.847 23.372C210.063 23.576 210.171 23.858 210.171 24.218C210.171 25.022 209.781 25.424 209.001 25.424ZM210.945 32.822H212.565V35H210.729C209.853 35 209.127 34.766 208.551 34.298C207.975 34.766 207.249 35 206.373 35H204.537V32.822H206.157C206.613 32.822 206.937 32.726 207.129 32.534C207.321 32.33 207.417 31.994 207.417 31.526V28.196L209.685 27.008V31.526C209.685 31.994 209.781 32.33 209.973 32.534C210.165 32.726 210.489 32.822 210.945 32.822ZM223.774 32.822H225.394V35H223.558C222.67 35 221.938 34.76 221.362 34.28C220.786 34.76 220.042 35 219.13 35H216.862C216.454 35 216.07 34.94 215.71 34.82C215.338 34.94 214.954 35 214.558 35H211.48V32.822H213.316C213.112 32.378 213.01 31.892 213.01 31.364C213.01 30.62 213.208 29.996 213.604 29.492C213.904 28.484 214.438 27.692 215.206 27.116C215.986 26.54 216.886 26.252 217.906 26.252C219.274 26.252 220.396 26.702 221.272 27.602C222.088 28.442 222.496 29.528 222.496 30.86V31.526C222.496 31.994 222.592 32.33 222.784 32.534C222.988 32.726 223.318 32.822 223.774 32.822ZM219.094 32.822C219.538 32.822 219.838 32.732 219.994 32.552C220.162 32.36 220.246 32.012 220.246 31.508V30.86C220.246 30.104 220.024 29.498 219.58 29.042C219.148 28.586 218.572 28.358 217.852 28.358C217.36 28.358 216.934 28.466 216.574 28.682C217.138 28.85 217.582 29.174 217.906 29.654C218.242 30.134 218.41 30.704 218.41 31.364C218.41 31.892 218.308 32.378 218.104 32.822H219.094ZM215.71 32.66C216.478 32.408 216.862 31.91 216.862 31.166C216.862 30.794 216.754 30.5 216.538 30.284C216.334 30.056 216.058 29.942 215.71 29.942C215.362 29.942 215.08 30.056 214.864 30.284C214.66 30.5 214.558 30.794 214.558 31.166C214.558 31.91 214.942 32.408 215.71 32.66ZM235.76 32.822H237.362V35H235.526C234.662 35 233.954 34.778 233.402 34.334C232.754 35.018 231.902 35.36 230.846 35.36C229.766 35.36 228.914 35.018 228.29 34.334C227.714 34.778 227 35 226.148 35H224.312V32.822H225.932C226.388 32.822 226.712 32.726 226.904 32.534C227.096 32.33 227.192 31.994 227.192 31.526V31.004C227.192 29.6 227.558 28.508 228.29 27.728C228.926 27.044 229.778 26.702 230.846 26.702C232.058 26.702 232.994 27.146 233.654 28.034C234.206 28.79 234.482 29.78 234.482 31.004V31.526C234.482 31.994 234.578 32.33 234.77 32.534C234.974 32.726 235.304 32.822 235.76 32.822ZM230.846 33.182C231.758 33.182 232.214 32.438 232.214 30.95C232.214 29.522 231.758 28.808 230.846 28.808C229.922 28.808 229.46 29.522 229.46 30.95C229.46 32.438 229.922 33.182 230.846 33.182ZM236.283 35V32.822H237.417C237.969 32.822 238.359 32.702 238.587 32.462C238.827 32.222 238.947 31.814 238.947 31.238V24.596L241.197 23.39V31.256C241.197 32.42 240.843 33.35 240.135 34.046C239.487 34.682 238.623 35 237.543 35H236.283ZM244.437 35V24.596L246.705 23.39V35H244.437Z" fill="#253C30"/>
<path d="M65.2656 52.09C64.8083 52.09 64.5796 51.8567 64.5796 51.39C64.5796 50.9327 64.8083 50.704 65.2656 50.704C65.7136 50.704 65.9376 50.9327 65.9376 51.39C65.9376 51.8567 65.7136 52.09 65.2656 52.09ZM67.0436 52.09C66.5863 52.09 66.3576 51.8567 66.3576 51.39C66.3576 50.9327 66.5863 50.704 67.0436 50.704C67.4916 50.704 67.7156 50.9327 67.7156 51.39C67.7156 51.8567 67.4916 52.09 67.0436 52.09ZM69.6476 58.866H70.5716V60H69.5076C68.5463 60 67.8556 59.6453 67.4356 58.936C66.9876 59.3653 66.4323 59.58 65.7696 59.58C64.9483 59.58 64.2949 59.272 63.8096 58.656C63.4083 58.1333 63.2076 57.494 63.2076 56.738C63.2076 55.8327 63.4829 55.1047 64.0336 54.554C64.5003 54.078 65.0696 53.84 65.7416 53.84C66.2549 53.84 66.6983 53.9707 67.0716 54.232V53.63L68.2896 52.986V57.466C68.2896 58.3993 68.7423 58.866 69.6476 58.866ZM67.0716 55.534C66.7263 55.1513 66.3016 54.96 65.7976 54.96C65.3869 54.96 65.0509 55.128 64.7896 55.464C64.5283 55.7907 64.3976 56.22 64.3976 56.752C64.3976 57.2933 64.5283 57.7273 64.7896 58.054C65.0509 58.3807 65.3916 58.544 65.8116 58.544C66.3343 58.544 66.7636 58.3293 67.0996 57.9C67.0809 57.732 67.0716 57.6013 67.0716 57.508V55.534ZM77.3947 58.866H78.1927V60H77.2687C76.4847 60 75.8734 59.7573 75.4347 59.272C74.9961 59.7573 74.3847 60 73.6007 60H69.7367V58.866H73.4887C74.3847 58.866 74.8327 58.3947 74.8327 57.452V57.326C74.8327 56.626 74.5621 56.094 74.0207 55.73C73.5914 55.4313 73.0641 55.282 72.4387 55.282C71.9441 55.282 71.4494 55.3753 70.9547 55.562V54.372L74.0207 50.97H75.2527L72.4947 54.078C72.5041 54.078 72.5181 54.078 72.5367 54.078C72.5554 54.078 72.5694 54.078 72.5787 54.078C73.6427 54.078 74.5014 54.4 75.1547 55.044C75.7427 55.6413 76.0367 56.3973 76.0367 57.312V57.466C76.0367 58.3993 76.4894 58.866 77.3947 58.866ZM82.126 58.866H83.05V60H81.986C81.1833 60 80.5626 59.7433 80.124 59.23C79.6573 59.7433 79.0133 60 78.192 60H77.352V58.866H78.094C79.0646 58.866 79.55 58.3573 79.55 57.34V51.614L80.768 50.97V57.354C80.768 57.8953 80.8706 58.2827 81.076 58.516C81.2906 58.7493 81.6406 58.866 82.126 58.866ZM91.2215 58.866H92.1595V60H91.0955C90.3208 60 89.7095 59.7527 89.2615 59.258C88.7855 59.9393 88.0902 60.28 87.1755 60.28C86.2608 60.28 85.5702 59.944 85.1035 59.272C84.6648 59.7573 84.0535 60 83.2695 60H82.2055V58.866H83.1295C84.0442 58.866 84.5015 58.3993 84.5015 57.466V57.004C84.5015 55.9213 84.7675 55.0907 85.2995 54.512C85.7662 53.9987 86.3915 53.742 87.1755 53.742C88.0715 53.742 88.7622 54.0733 89.2475 54.736C89.6582 55.3053 89.8635 56.0613 89.8635 57.004V57.466C89.8635 58.3993 90.3162 58.866 91.2215 58.866ZM87.1755 59.146C87.6328 59.146 87.9922 58.9547 88.2535 58.572C88.5242 58.1893 88.6595 57.662 88.6595 56.99C88.6595 55.5713 88.1648 54.862 87.1755 54.862C86.1955 54.862 85.7055 55.5713 85.7055 56.99C85.7055 58.4273 86.1955 59.146 87.1755 59.146ZM100.341 58.866H101.279V60H100.215C99.44 60 98.8286 59.7527 98.3806 59.258C97.9046 59.9393 97.2093 60.28 96.2946 60.28C95.38 60.28 94.6893 59.944 94.2226 59.272C93.784 59.7573 93.1726 60 92.3886 60H91.3246V58.866H92.2486C93.1633 58.866 93.6206 58.3993 93.6206 57.466V57.004C93.6206 55.9213 93.8866 55.0907 94.4186 54.512C94.8853 53.9987 95.5106 53.742 96.2946 53.742C97.1906 53.742 97.8813 54.0733 98.3666 54.736C98.7773 55.3053 98.9826 56.0613 98.9826 57.004V57.466C98.9826 58.3993 99.4353 58.866 100.341 58.866ZM96.2946 59.146C96.752 59.146 97.1113 58.9547 97.3726 58.572C97.6433 58.1893 97.7786 57.662 97.7786 56.99C97.7786 55.5713 97.284 54.862 96.2946 54.862C95.3146 54.862 94.8246 55.5713 94.8246 56.99C94.8246 58.4273 95.3146 59.146 96.2946 59.146ZM100.444 60V58.866H101.186C102.156 58.866 102.642 58.3573 102.642 57.34V51.614L103.86 50.97V57.354C103.86 58.1847 103.612 58.8427 103.118 59.328C102.651 59.776 102.04 60 101.284 60H100.444ZM106.376 60V51.614L107.58 50.97V60H106.376ZM121.44 60C121.347 60.8213 120.899 61.4793 120.096 61.974C119.349 62.4313 118.397 62.66 117.24 62.66C115.765 62.66 114.655 62.2307 113.908 61.372C113.357 60.7373 113.082 59.9533 113.082 59.02C113.082 58.236 113.278 57.564 113.67 57.004L114.832 56.752C114.412 57.4147 114.202 58.1287 114.202 58.894C114.202 59.7247 114.473 60.378 115.014 60.854C115.546 61.33 116.288 61.568 117.24 61.568C118.043 61.568 118.705 61.428 119.228 61.148C119.751 60.868 120.068 60.4853 120.18 60H118.78L119.368 58.866H121.482V60H121.44ZM116.302 65.138C115.845 65.138 115.616 64.9047 115.616 64.438C115.616 63.9807 115.845 63.752 116.302 63.752C116.75 63.752 116.974 63.9807 116.974 64.438C116.974 64.9047 116.75 65.138 116.302 65.138ZM118.08 65.138C117.623 65.138 117.394 64.9047 117.394 64.438C117.394 63.9807 117.623 63.752 118.08 63.752C118.528 63.752 118.752 63.9807 118.752 64.438C118.752 64.9047 118.528 65.138 118.08 65.138ZM125.311 52.314C124.853 52.314 124.625 52.0807 124.625 51.614C124.625 51.1567 124.853 50.928 125.311 50.928C125.759 50.928 125.983 51.1567 125.983 51.614C125.983 52.0807 125.759 52.314 125.311 52.314ZM120.747 60V58.866H123.267C122.837 58.39 122.623 57.7273 122.623 56.878C122.623 55.8607 122.889 55.0673 123.421 54.498C123.887 53.994 124.508 53.742 125.283 53.742C126.076 53.742 126.692 53.9893 127.131 54.484C127.504 54.9227 127.691 55.4967 127.691 56.206V57.536C127.681 58.3107 127.453 58.922 127.005 59.37C126.566 59.79 125.983 60 125.255 60H120.747ZM126.487 56.262C126.487 55.3287 126.085 54.862 125.283 54.862C124.825 54.862 124.466 55.0393 124.205 55.394C123.943 55.7393 123.813 56.2247 123.813 56.85C123.813 57.466 123.939 57.956 124.191 58.32C124.443 58.684 124.779 58.866 125.199 58.866C126.057 58.866 126.487 58.418 126.487 57.522V56.262ZM137.089 53.49C136.631 53.49 136.403 53.2567 136.403 52.79C136.403 52.3327 136.631 52.104 137.089 52.104C137.537 52.104 137.761 52.3327 137.761 52.79C137.761 53.2567 137.537 53.49 137.089 53.49ZM138.867 53.49C138.409 53.49 138.181 53.2567 138.181 52.79C138.181 52.3327 138.409 52.104 138.867 52.104C139.315 52.104 139.539 52.3327 139.539 52.79C139.539 53.2567 139.315 53.49 138.867 53.49ZM135.675 60C134.919 60 134.326 59.748 133.897 59.244C133.523 58.8053 133.337 58.2313 133.337 57.522V55.828L134.541 55.184V57.41C134.541 58.3807 134.993 58.866 135.899 58.866H140.547C141.452 58.866 141.905 58.3807 141.905 57.41V54.568L143.109 53.924V57.522C143.109 58.334 142.861 58.964 142.367 59.412C141.928 59.804 141.363 60 140.673 60H135.675ZM145.354 60V51.614L146.558 50.97V60H145.354ZM152.061 59.258C152.061 60.3033 151.786 61.1433 151.235 61.778C150.712 62.3847 150.017 62.688 149.149 62.688C148.589 62.688 148.043 62.548 147.511 62.268V61.218C147.987 61.4793 148.463 61.61 148.939 61.61C149.536 61.61 150.003 61.4093 150.339 61.008C150.675 60.6067 150.843 60.0513 150.843 59.342V54.568L152.061 53.924V59.258ZM161.121 58.866V60H159.385C159.347 60.8027 159.002 61.4653 158.349 61.988C157.798 62.4173 157.173 62.632 156.473 62.632C155.894 62.632 155.348 62.4967 154.835 62.226V61.162C155.329 61.4233 155.819 61.554 156.305 61.554C156.799 61.554 157.229 61.4 157.593 61.092C157.966 60.784 158.157 60.4153 158.167 59.986C157.681 59.9673 157.322 59.9487 157.089 59.93C156.081 59.874 155.32 59.5333 154.807 58.908C154.377 58.3853 154.163 57.7087 154.163 56.878C154.163 55.8607 154.433 55.0673 154.975 54.498C155.46 53.994 156.099 53.742 156.893 53.742C157.723 53.742 158.363 53.9893 158.811 54.484C159.193 54.9227 159.385 55.4967 159.385 56.206V58.866H161.121ZM158.167 56.29C158.167 55.338 157.742 54.862 156.893 54.862C156.407 54.862 156.029 55.0393 155.759 55.394C155.488 55.7393 155.353 56.2247 155.353 56.85C155.353 58.0727 155.95 58.7213 157.145 58.796C157.369 58.824 157.709 58.8473 158.167 58.866V56.29ZM172.802 58.866H173.726V60H172.662C171.915 60 171.332 59.7807 170.912 59.342C170.529 59.7807 169.988 60 169.288 60H160.286V58.866H162.89L162.932 58.712V51.614L164.136 50.97V56.094C165.2 54.526 166.52 53.742 168.098 53.742C169.152 53.742 169.997 54.1107 170.632 54.848C171.173 55.4733 171.444 56.2433 171.444 57.158V57.494C171.444 58.4087 171.896 58.866 172.802 58.866ZM170.226 57.55V57.158C170.226 56.43 170.002 55.8513 169.554 55.422C169.171 55.0487 168.69 54.862 168.112 54.862C167.15 54.862 166.282 55.296 165.508 56.164C164.929 56.8173 164.472 57.634 164.136 58.614V58.866H169.19C169.591 58.866 169.862 58.7727 170.002 58.586C170.151 58.3993 170.226 58.054 170.226 57.55ZM174.459 52.328C174.002 52.328 173.773 52.0947 173.773 51.628C173.773 51.1707 174.002 50.942 174.459 50.942C174.907 50.942 175.131 51.1707 175.131 51.628C175.131 52.0947 174.907 52.328 174.459 52.328ZM176.251 52.328C175.794 52.328 175.565 52.0947 175.565 51.628C175.565 51.1707 175.794 50.942 176.251 50.942C176.699 50.942 176.923 51.1707 176.923 51.628C176.923 52.0947 176.699 52.328 176.251 52.328ZM177.763 58.866H178.687V60H177.623C176.848 60 176.237 59.7527 175.789 59.258C175.341 59.7527 174.73 60 173.955 60H172.891V58.866H173.815C174.73 58.866 175.187 58.3993 175.187 57.466V54.568L176.391 53.924V57.466C176.391 58.3993 176.848 58.866 177.763 58.866ZM182.614 58.866H183.538V60H182.474C181.672 60 181.051 59.7433 180.612 59.23C180.146 59.7433 179.502 60 178.68 60H177.84V58.866H178.582C179.553 58.866 180.038 58.3573 180.038 57.34V51.614L181.256 50.97V57.354C181.256 57.8953 181.359 58.2827 181.564 58.516C181.779 58.7493 182.129 58.866 182.614 58.866ZM182.694 60V58.866H183.436C184.406 58.866 184.892 58.3573 184.892 57.34V51.614L186.11 50.97V57.354C186.11 58.1847 185.862 58.8427 185.368 59.328C184.901 59.776 184.29 60 183.534 60H182.694ZM196.625 52.328C196.168 52.328 195.939 52.0947 195.939 51.628C195.939 51.1707 196.168 50.942 196.625 50.942C197.073 50.942 197.297 51.1707 197.297 51.628C197.297 52.0947 197.073 52.328 196.625 52.328ZM198.403 52.328C197.946 52.328 197.717 52.0947 197.717 51.628C197.717 51.1707 197.946 50.942 198.403 50.942C198.851 50.942 199.075 51.1707 199.075 51.628C199.075 52.0947 198.851 52.328 198.403 52.328ZM199.943 60C199.663 61.7733 198.273 62.66 195.771 62.66C194.297 62.66 193.186 62.2307 192.439 61.372C191.889 60.7373 191.613 59.9533 191.613 59.02C191.613 58.236 191.809 57.564 192.201 57.004L193.363 56.752C192.943 57.4147 192.733 58.1287 192.733 58.894C192.733 59.6967 193.004 60.3407 193.545 60.826C194.077 61.2927 194.819 61.526 195.771 61.526C197.479 61.526 198.445 61.008 198.669 59.972L198.333 59.944C196.056 59.804 194.917 58.782 194.917 56.878C194.917 55.8607 195.183 55.0673 195.715 54.498C196.191 53.994 196.817 53.742 197.591 53.742C198.385 53.742 198.996 53.9893 199.425 54.484C199.808 54.9227 199.999 55.4967 199.999 56.206V58.866H201.749V60H199.943ZM198.795 58.838V56.262C198.795 55.3287 198.394 54.862 197.591 54.862C197.125 54.862 196.761 55.0393 196.499 55.394C196.247 55.7393 196.121 56.2247 196.121 56.85C196.121 57.606 196.345 58.1287 196.793 58.418C197.129 58.642 197.661 58.7773 198.389 58.824L198.795 58.838ZM209.921 58.866H210.859V60H209.795C209.02 60 208.409 59.7527 207.961 59.258C207.485 59.9393 206.789 60.28 205.875 60.28C204.96 60.28 204.269 59.944 203.803 59.272C203.364 59.7573 202.753 60 201.969 60H200.905V58.866H201.829C202.743 58.866 203.201 58.3993 203.201 57.466V57.004C203.201 55.9213 203.467 55.0907 203.999 54.512C204.465 53.9987 205.091 53.742 205.875 53.742C206.771 53.742 207.461 54.0733 207.947 54.736C208.357 55.3053 208.563 56.0613 208.563 57.004V57.466C208.563 58.3993 209.015 58.866 209.921 58.866ZM205.875 59.146C206.332 59.146 206.691 58.9547 206.953 58.572C207.223 58.1893 207.359 57.662 207.359 56.99C207.359 55.5713 206.864 54.862 205.875 54.862C204.895 54.862 204.405 55.5713 204.405 56.99C204.405 58.4273 204.895 59.146 205.875 59.146ZM217.57 58.866V60H210.024V58.866H212.446C211.989 58.278 211.76 57.5547 211.76 56.696C211.76 55.744 212.087 54.988 212.74 54.428C213.272 53.98 213.888 53.7513 214.588 53.742C215.577 53.742 216.347 54.1387 216.898 54.932V56.066C216.301 55.2633 215.577 54.862 214.728 54.862C214.196 54.862 213.767 55.0347 213.44 55.38C213.123 55.716 212.964 56.1687 212.964 56.738C212.964 57.382 213.155 57.9 213.538 58.292C213.93 58.6747 214.448 58.866 215.092 58.866H217.57ZM218.782 50.774L219.104 50.172H219.482C219.389 50.004 219.342 49.8313 219.342 49.654C219.342 49.374 219.445 49.136 219.65 48.94C219.855 48.7347 220.098 48.632 220.378 48.632C220.611 48.632 220.835 48.7067 221.05 48.856V49.472C220.845 49.3133 220.649 49.234 220.462 49.234C220.117 49.234 219.944 49.388 219.944 49.696C219.944 49.8547 220.009 50.0133 220.14 50.172H221.414L221.092 50.774H218.782ZM219.524 60V52.174L220.728 51.53V60H219.524ZM233.734 58.866H234.672V60H233.608C232.852 60 232.25 59.7667 231.802 59.3C231.364 59.748 230.743 59.9813 229.94 60H228.106C227.192 60 226.734 60.4667 226.734 61.4V63.766L225.53 64.41V61.358C225.53 60.5833 225.754 59.972 226.202 59.524C226.604 59.1133 227.136 58.894 227.798 58.866C227.462 58.3247 227.294 57.662 227.294 56.878C227.294 55.8607 227.56 55.0673 228.092 54.498C228.568 53.994 229.194 53.742 229.968 53.742C230.762 53.742 231.373 53.9893 231.802 54.484C232.185 54.9227 232.376 55.4967 232.376 56.206V57.466C232.376 58.3993 232.829 58.866 233.734 58.866ZM231.172 57.564V56.262C231.172 55.3287 230.771 54.862 229.968 54.862C229.502 54.862 229.138 55.0393 228.876 55.394C228.624 55.7393 228.498 56.2247 228.498 56.85C228.498 57.4847 228.62 57.9793 228.862 58.334C229.105 58.6887 229.446 58.866 229.884 58.866C230.743 58.866 231.172 58.432 231.172 57.564ZM243.361 58.866H244.285V60H243.221C242.437 60 241.83 59.7573 241.401 59.272C240.943 59.7573 240.323 60 239.539 60H238.027C237.709 60 237.411 59.9533 237.131 59.86C236.841 59.9533 236.543 60 236.235 60H233.827V58.866H235.633C235.278 58.39 235.101 57.8487 235.101 57.242C235.101 56.6913 235.236 56.2247 235.507 55.842C235.74 54.9833 236.183 54.3253 236.837 53.868C237.369 53.504 237.971 53.322 238.643 53.322C239.632 53.322 240.449 53.658 241.093 54.33C241.699 54.9647 242.003 55.7813 242.003 56.78V57.466C242.003 58.3993 242.455 58.866 243.361 58.866ZM239.497 58.866C239.954 58.866 240.281 58.754 240.477 58.53C240.682 58.2967 240.785 57.9233 240.785 57.41V56.78C240.785 56.0053 240.537 55.4033 240.043 54.974C239.641 54.6193 239.161 54.442 238.601 54.442C237.957 54.442 237.453 54.652 237.089 55.072H237.131C237.747 55.072 238.237 55.2727 238.601 55.674C238.974 56.066 239.161 56.5887 239.161 57.242C239.161 57.8673 238.979 58.4087 238.615 58.866H239.497ZM237.131 58.74C237.896 58.4787 238.279 57.956 238.279 57.172C238.279 56.78 238.171 56.4673 237.957 56.234C237.751 55.9913 237.476 55.87 237.131 55.87C236.785 55.87 236.505 55.9913 236.291 56.234C236.085 56.4673 235.983 56.78 235.983 57.172C235.983 57.956 236.365 58.4787 237.131 58.74ZM248.002 52.314C247.545 52.314 247.316 52.0807 247.316 51.614C247.316 51.1567 247.545 50.928 248.002 50.928C248.45 50.928 248.674 51.1567 248.674 51.614C248.674 52.0807 248.45 52.314 248.002 52.314ZM243.438 60V58.866H245.958C245.529 58.39 245.314 57.7273 245.314 56.878C245.314 55.8607 245.58 55.0673 246.112 54.498C246.579 53.994 247.199 53.742 247.974 53.742C248.767 53.742 249.383 53.9893 249.822 54.484C250.195 54.9227 250.382 55.4967 250.382 56.206V57.536C250.373 58.3107 250.144 58.922 249.696 59.37C249.257 59.79 248.674 60 247.946 60H243.438ZM249.178 56.262C249.178 55.3287 248.777 54.862 247.974 54.862C247.517 54.862 247.157 55.0393 246.896 55.394C246.635 55.7393 246.504 56.2247 246.504 56.85C246.504 57.466 246.63 57.956 246.882 58.32C247.134 58.684 247.47 58.866 247.89 58.866C248.749 58.866 249.178 58.418 249.178 57.522V56.262Z" fill="#253C30" fill-opacity="0.52"/>
</svg>
