<svg width="315" height="84" viewBox="0 0 315 84" fill="none" xmlns="http://www.w3.org/2000/svg">
<path d="M123.67 27.134C123.31 27.134 123.022 27.026 122.806 26.81C122.59 26.594 122.482 26.3 122.482 25.928C122.482 25.58 122.59 25.298 122.806 25.082C123.022 24.866 123.31 24.758 123.67 24.758C124.03 24.758 124.312 24.866 124.516 25.082C124.732 25.286 124.84 25.568 124.84 25.928C124.84 26.732 124.45 27.134 123.67 27.134ZM129.952 32.822H131.572V35H129.736C129.328 35 128.95 34.946 128.602 34.838C128.374 35.99 127.792 36.896 126.856 37.556C126.016 38.132 124.996 38.42 123.796 38.42C122.176 38.42 120.922 37.85 120.034 36.71C119.338 35.822 118.99 34.778 118.99 33.578C118.99 32.63 119.212 31.802 119.656 31.094L121.816 30.644C121.336 31.46 121.096 32.318 121.096 33.218C121.096 34.13 121.354 34.868 121.87 35.432C122.362 35.972 123.004 36.242 123.796 36.242C124.624 36.242 125.266 36.032 125.722 35.612C126.19 35.192 126.424 34.604 126.424 33.848V28.196L128.692 27.008V31.526C128.692 31.994 128.788 32.33 128.98 32.534C129.172 32.726 129.496 32.822 129.952 32.822ZM136.905 32.822H138.525V35H136.689C135.813 35 135.087 34.766 134.511 34.298C133.935 34.766 133.209 35 132.333 35H130.497V32.822H132.117C132.573 32.822 132.897 32.726 133.089 32.534C133.281 32.33 133.377 31.994 133.377 31.526V28.196L135.645 27.008V31.526C135.645 31.994 135.741 32.33 135.933 32.534C136.125 32.726 136.449 32.822 136.905 32.822ZM132.243 36.638C132.603 36.638 132.885 36.74 133.089 36.944C133.305 37.16 133.413 37.448 133.413 37.808C133.413 38.612 133.023 39.014 132.243 39.014C131.883 39.014 131.595 38.906 131.379 38.69C131.163 38.474 131.055 38.18 131.055 37.808C131.055 37.028 131.451 36.638 132.243 36.638ZM135.015 36.638C135.375 36.638 135.657 36.74 135.861 36.944C136.077 37.16 136.185 37.448 136.185 37.808C136.185 38.612 135.795 39.014 135.015 39.014C134.655 39.014 134.367 38.906 134.151 38.69C133.935 38.474 133.827 38.18 133.827 37.808C133.827 37.028 134.223 36.638 135.015 36.638ZM143.848 32.822H145.468V35H143.632C142.756 35 142.03 34.766 141.454 34.298C140.878 34.766 140.152 35 139.276 35H137.44V32.822H139.06C139.516 32.822 139.84 32.726 140.032 32.534C140.224 32.33 140.32 31.994 140.32 31.526V28.196L142.588 27.008V31.526C142.588 31.994 142.684 32.33 142.876 32.534C143.068 32.726 143.392 32.822 143.848 32.822ZM139.186 36.638C139.546 36.638 139.828 36.74 140.032 36.944C140.248 37.16 140.356 37.448 140.356 37.808C140.356 38.612 139.966 39.014 139.186 39.014C138.826 39.014 138.538 38.906 138.322 38.69C138.106 38.474 137.998 38.18 137.998 37.808C137.998 37.028 138.394 36.638 139.186 36.638ZM141.958 36.638C142.318 36.638 142.6 36.74 142.804 36.944C143.02 37.16 143.128 37.448 143.128 37.808C143.128 38.612 142.738 39.014 141.958 39.014C141.598 39.014 141.31 38.906 141.094 38.69C140.878 38.474 140.77 38.18 140.77 37.808C140.77 37.028 141.166 36.638 141.958 36.638ZM147.263 30.032C147.263 28.952 147.599 28.106 148.271 27.494C148.859 26.966 149.615 26.702 150.539 26.702C151.727 26.702 152.651 27.14 153.311 28.016C153.875 28.748 154.157 29.69 154.157 30.842C154.157 32.174 153.803 33.224 153.095 33.992C152.459 34.664 151.649 35 150.665 35C149.705 35 148.919 34.79 148.307 34.37C147.731 34.79 147.035 35 146.219 35H144.383V32.822H146.003C146.459 32.822 146.783 32.726 146.975 32.534C147.167 32.33 147.263 31.994 147.263 31.526V30.032ZM149.531 31.814C149.531 32.486 149.885 32.822 150.593 32.822C151.481 32.822 151.925 32.138 151.925 30.77C151.925 29.462 151.463 28.808 150.539 28.808C149.867 28.808 149.531 29.204 149.531 29.996V31.814ZM167.583 32.822H169.203V35H167.367C166.431 35 165.669 34.736 165.081 34.208C164.421 34.736 163.611 35 162.651 35H155.865L156.999 32.822H159.375V26.936L161.643 25.73V32.822H162.525C163.077 32.822 163.467 32.702 163.695 32.462C163.935 32.222 164.055 31.814 164.055 31.238V24.596L166.323 23.39V31.526C166.323 31.994 166.419 32.33 166.611 32.534C166.803 32.726 167.127 32.822 167.583 32.822ZM178.103 32.822V35H168.131V32.822H170.795C170.459 32.162 170.291 31.43 170.291 30.626C170.291 29.354 170.735 28.346 171.623 27.602C172.343 27.002 173.177 26.702 174.125 26.702C175.409 26.702 176.447 27.254 177.239 28.358V30.356C176.363 29.324 175.409 28.808 174.377 28.808C173.825 28.808 173.381 28.982 173.045 29.33C172.721 29.666 172.559 30.122 172.559 30.698C172.559 31.358 172.763 31.88 173.171 32.264C173.591 32.636 174.161 32.822 174.881 32.822H178.103ZM187.557 24.596L189.825 23.39V31.256C189.825 32.42 189.471 33.35 188.763 34.046C188.103 34.682 187.233 35 186.153 35H179.367L180.501 32.822H182.877V26.936L185.145 25.73V32.822H186.027C186.579 32.822 186.969 32.702 187.197 32.462C187.437 32.222 187.557 31.814 187.557 31.238V24.596ZM185.325 37.394C185.037 37.142 184.749 37.016 184.461 37.016C184.065 37.016 183.867 37.196 183.867 37.556C183.867 37.736 183.945 37.922 184.101 38.114H185.883L185.307 39.158H181.959L182.535 38.114H183.075C182.943 37.874 182.877 37.628 182.877 37.376C182.877 36.992 183.015 36.662 183.291 36.386C183.579 36.11 183.921 35.972 184.317 35.972C184.677 35.972 185.013 36.098 185.325 36.35V37.394ZM193.055 35V24.596L195.323 23.39V35H193.055Z" fill="#253C30"/>
<path d="M53.8916 52.09C53.4342 52.09 53.2056 51.8567 53.2056 51.39C53.2056 50.9327 53.4342 50.704 53.8916 50.704C54.3396 50.704 54.5636 50.9327 54.5636 51.39C54.5636 51.8567 54.3396 52.09 53.8916 52.09ZM55.6696 52.09C55.2122 52.09 54.9836 51.8567 54.9836 51.39C54.9836 50.9327 55.2122 50.704 55.6696 50.704C56.1176 50.704 56.3416 50.9327 56.3416 51.39C56.3416 51.8567 56.1176 52.09 55.6696 52.09ZM58.2736 58.866H59.1976V60H58.1336C57.1722 60 56.4816 59.6453 56.0616 58.936C55.6136 59.3653 55.0582 59.58 54.3956 59.58C53.5742 59.58 52.9209 59.272 52.4356 58.656C52.0342 58.1333 51.8336 57.494 51.8336 56.738C51.8336 55.8327 52.1089 55.1047 52.6596 54.554C53.1262 54.078 53.6956 53.84 54.3676 53.84C54.8809 53.84 55.3242 53.9707 55.6976 54.232V53.63L56.9156 52.986V57.466C56.9156 58.3993 57.3682 58.866 58.2736 58.866ZM55.6976 55.534C55.3522 55.1513 54.9276 54.96 54.4236 54.96C54.0129 54.96 53.6769 55.128 53.4156 55.464C53.1542 55.7907 53.0236 56.22 53.0236 56.752C53.0236 57.2933 53.1542 57.7273 53.4156 58.054C53.6769 58.3807 54.0176 58.544 54.4376 58.544C54.9602 58.544 55.3896 58.3293 55.7256 57.9C55.7069 57.732 55.6976 57.6013 55.6976 57.508V55.534ZM63.2347 58.866H64.1587V60H63.0947C62.32 60 61.7087 59.7527 61.2607 59.258C60.8127 59.7527 60.2014 60 59.4267 60H58.3627V58.866H59.2867C60.2014 58.866 60.6587 58.3993 60.6587 57.466V54.568L61.8627 53.924V57.466C61.8627 58.3993 62.32 58.866 63.2347 58.866ZM59.8887 61.4C60.3367 61.4 60.5607 61.6333 60.5607 62.1C60.5607 62.5573 60.3367 62.786 59.8887 62.786C59.4314 62.786 59.2027 62.5573 59.2027 62.1C59.2027 61.6333 59.4314 61.4 59.8887 61.4ZM61.6667 61.4C62.1147 61.4 62.3387 61.6333 62.3387 62.1C62.3387 62.5573 62.1147 62.786 61.6667 62.786C61.2094 62.786 60.9807 62.5573 60.9807 62.1C60.9807 61.6333 61.2094 61.4 61.6667 61.4ZM65.6079 56.206C65.6079 55.394 65.8506 54.764 66.3359 54.316C66.7653 53.9333 67.3253 53.742 68.0159 53.742C68.9026 53.742 69.5839 54.0687 70.0599 54.722C70.4706 55.2727 70.6759 55.9913 70.6759 56.878C70.6759 57.886 70.4146 58.6747 69.8919 59.244C69.4346 59.748 68.8373 60 68.0999 60C67.2599 60 66.6206 59.7667 66.1819 59.3C65.7339 59.7667 65.1319 60 64.3759 60H63.3119V58.866H64.2359C65.1506 58.866 65.6079 58.3993 65.6079 57.466V56.206ZM66.8119 57.564C66.8119 58.432 67.2366 58.866 68.0859 58.866C68.5246 58.866 68.8653 58.6887 69.1079 58.334C69.3599 57.9793 69.4859 57.4847 69.4859 56.85C69.4859 56.2247 69.3553 55.7393 69.0939 55.394C68.8326 55.0393 68.4733 54.862 68.0159 54.862C67.2133 54.862 66.8119 55.3287 66.8119 56.262V57.564ZM80.76 58.866H81.684V60H80.62C79.8173 60 79.1966 59.7433 78.758 59.23C78.2913 59.7433 77.6473 60 76.826 60H72.01L72.598 58.866H74.642V53.434L75.846 52.79V58.866H76.728C77.6986 58.866 78.184 58.3573 78.184 57.34V51.614L79.402 50.97V57.354C79.402 57.8953 79.5046 58.2827 79.71 58.516C79.9246 58.7493 80.2746 58.866 80.76 58.866ZM88.3853 58.866V60H80.8393V58.866H83.2613C82.8039 58.278 82.5753 57.5547 82.5753 56.696C82.5753 55.744 82.9019 54.988 83.5553 54.428C84.0873 53.98 84.7033 53.7513 85.4033 53.742C86.3926 53.742 87.1626 54.1387 87.7133 54.932V56.066C87.1159 55.2633 86.3926 54.862 85.5433 54.862C85.0113 54.862 84.5819 55.0347 84.2553 55.38C83.9379 55.716 83.7793 56.1687 83.7793 56.738C83.7793 57.382 83.9706 57.9 84.3533 58.292C84.7453 58.6747 85.2633 58.866 85.9073 58.866H88.3853ZM95.5336 51.614L96.7516 50.97V57.354C96.7516 58.1847 96.5043 58.8427 96.0096 59.328C95.5429 59.776 94.9316 60 94.1756 60H89.3596L89.9476 58.866H91.9916V53.434L93.1956 52.79V58.866H94.0776C95.0483 58.866 95.5336 58.3573 95.5336 57.34V51.614ZM93.4056 61.89C93.2003 61.7313 93.0043 61.652 92.8176 61.652C92.4723 61.652 92.2996 61.806 92.2996 62.114C92.2996 62.2727 92.3649 62.4313 92.4956 62.59H93.7696L93.4476 63.192H91.1376L91.4596 62.59H91.8376C91.7443 62.422 91.6976 62.2447 91.6976 62.058C91.6976 61.7873 91.8003 61.5493 92.0056 61.344C92.2109 61.148 92.4536 61.05 92.7336 61.05C92.9669 61.05 93.1909 61.1247 93.4056 61.274V61.89ZM99.2673 60V51.614L100.471 50.97V60H99.2673ZM114.808 51.614L116.026 50.97V57.522C116.026 58.334 115.778 58.964 115.284 59.412C114.845 59.804 114.28 60 113.59 60H108.592C107.836 60 107.243 59.748 106.814 59.244C106.44 58.8053 106.254 58.2313 106.254 57.522V55.828L107.458 55.184V57.41C107.458 58.3807 107.91 58.866 108.816 58.866H113.464C114.36 58.866 114.808 58.3807 114.808 57.41V51.614ZM111.21 53.182C112.012 53.2193 112.414 53.616 112.414 54.372C112.414 54.6987 112.316 54.96 112.12 55.156C111.933 55.352 111.681 55.45 111.364 55.45H109.516L109.838 54.848H111.308C111.644 54.848 111.812 54.68 111.812 54.344C111.812 53.9333 111.55 53.728 111.028 53.728C110.757 53.728 110.51 53.7933 110.286 53.924V53.364L111.462 52.062H112.204L111.21 53.182ZM121.975 58.866H122.899V60H121.835C121.359 60 120.948 59.9067 120.603 59.72C120.519 60.644 120.197 61.3813 119.637 61.932C119.123 62.436 118.479 62.688 117.705 62.688C117.145 62.688 116.599 62.548 116.067 62.268V61.218C116.543 61.4793 117.019 61.61 117.495 61.61C118.092 61.61 118.559 61.4093 118.895 61.008C119.231 60.6067 119.399 60.0513 119.399 59.342V54.568L120.603 53.924V53.938L120.617 53.924V57.746C120.701 58.4927 121.153 58.866 121.975 58.866ZM122.06 60V58.866H122.984C123.899 58.866 124.356 58.3993 124.356 57.466V54.568L125.56 53.924V57.508C125.56 58.3013 125.322 58.9267 124.846 59.384C124.407 59.7947 123.833 60 123.124 60H122.06ZM122.802 62.786C122.345 62.786 122.116 62.5527 122.116 62.086C122.116 61.6287 122.345 61.4 122.802 61.4C123.25 61.4 123.474 61.6287 123.474 62.086C123.474 62.5527 123.25 62.786 122.802 62.786ZM124.58 62.786C124.123 62.786 123.894 62.5527 123.894 62.086C123.894 61.6287 124.123 61.4 124.58 61.4C125.028 61.4 125.252 61.6287 125.252 62.086C125.252 62.5527 125.028 62.786 124.58 62.786ZM131.062 59.258C131.062 60.3033 130.787 61.1433 130.236 61.778C129.713 62.3847 129.018 62.688 128.15 62.688C127.59 62.688 127.044 62.548 126.512 62.268V61.218C126.988 61.4793 127.464 61.61 127.94 61.61C128.537 61.61 129.004 61.4093 129.34 61.008C129.676 60.6067 129.844 60.0513 129.844 59.342V54.568L131.062 53.924V59.258ZM136.02 60C135.208 60 134.582 59.7387 134.144 59.216C133.77 58.768 133.584 58.1987 133.584 57.508V51.614L134.788 50.97V57.466C134.788 58.3993 135.245 58.866 136.16 58.866H137.084V60H136.02ZM139.71 52.328C139.252 52.328 139.024 52.0947 139.024 51.628C139.024 51.1707 139.252 50.942 139.71 50.942C140.158 50.942 140.382 51.1707 140.382 51.628C140.382 52.0947 140.158 52.328 139.71 52.328ZM141.488 52.328C141.03 52.328 140.802 52.0947 140.802 51.628C140.802 51.1707 141.03 50.942 141.488 50.942C141.936 50.942 142.16 51.1707 142.16 51.628C142.16 52.0947 141.936 52.328 141.488 52.328ZM142.356 58.866H144.96V60H141.544C141.18 60 140.862 59.9673 140.592 59.902C140.33 59.9673 140.013 60 139.64 60H136.238V58.866H138.842C138.263 58.2033 137.974 57.4707 137.974 56.668C137.974 55.7533 138.23 55.0253 138.744 54.484C139.21 53.9893 139.826 53.742 140.592 53.742C141.469 53.742 142.146 54.0593 142.622 54.694C143.023 55.2167 143.224 55.8747 143.224 56.668C143.224 57.4707 142.934 58.2033 142.356 58.866ZM140.606 58.74C141.035 58.5907 141.385 58.32 141.656 57.928C141.926 57.5267 142.062 57.088 142.062 56.612C142.062 56.0707 141.926 55.646 141.656 55.338C141.394 55.0207 141.04 54.862 140.592 54.862C140.144 54.862 139.784 55.0207 139.514 55.338C139.252 55.6553 139.122 56.08 139.122 56.612C139.122 57.0787 139.262 57.5127 139.542 57.914C139.822 58.3153 140.176 58.5907 140.606 58.74ZM145.204 52.23C144.747 52.23 144.518 51.9967 144.518 51.53C144.518 51.0727 144.747 50.844 145.204 50.844C145.652 50.844 145.876 51.0727 145.876 51.53C145.876 51.9967 145.652 52.23 145.204 52.23ZM146.982 52.23C146.525 52.23 146.296 51.9967 146.296 51.53C146.296 51.0727 146.525 50.844 146.982 50.844C147.43 50.844 147.654 51.0727 147.654 51.53C147.654 51.9967 147.43 52.23 146.982 52.23ZM144.126 60V58.866H145.05C145.965 58.866 146.422 58.3993 146.422 57.466V54.568L147.626 53.924V57.508C147.626 58.3013 147.388 58.9267 146.912 59.384C146.474 59.7947 145.9 60 145.19 60H144.126ZM154.668 52.23C154.211 52.23 153.982 51.9967 153.982 51.53C153.982 51.0727 154.211 50.844 154.668 50.844C155.116 50.844 155.34 51.0727 155.34 51.53C155.34 51.9967 155.116 52.23 154.668 52.23ZM156.838 58.866H157.762V60H156.698C156.222 60 155.811 59.9067 155.466 59.72C155.382 60.644 155.06 61.3813 154.5 61.932C153.987 62.436 153.343 62.688 152.568 62.688C152.008 62.688 151.462 62.548 150.93 62.268V61.218C151.406 61.4793 151.882 61.61 152.358 61.61C152.955 61.61 153.422 61.4093 153.758 61.008C154.094 60.6067 154.262 60.0513 154.262 59.342V54.568L155.466 53.924V53.938L155.48 53.924V57.746C155.564 58.4927 156.017 58.866 156.838 58.866ZM156.923 60V58.866H157.847C158.762 58.866 159.219 58.3993 159.219 57.466V54.568L160.423 53.924V57.508C160.423 58.3013 160.185 58.9267 159.709 59.384C159.271 59.7947 158.697 60 157.987 60H156.923ZM157.665 62.786C157.208 62.786 156.979 62.5527 156.979 62.086C156.979 61.6287 157.208 61.4 157.665 61.4C158.113 61.4 158.337 61.6287 158.337 62.086C158.337 62.5527 158.113 62.786 157.665 62.786ZM159.443 62.786C158.986 62.786 158.757 62.5527 158.757 62.086C158.757 61.6287 158.986 61.4 159.443 61.4C159.891 61.4 160.115 61.6287 160.115 62.086C160.115 62.5527 159.891 62.786 159.443 62.786ZM165.113 52.23C164.656 52.23 164.427 51.9967 164.427 51.53C164.427 51.0727 164.656 50.844 165.113 50.844C165.561 50.844 165.785 51.0727 165.785 51.53C165.785 51.9967 165.561 52.23 165.113 52.23ZM167.283 58.866H168.207V60H167.143C166.667 60 166.257 59.9067 165.911 59.72C165.827 60.644 165.505 61.3813 164.945 61.932C164.432 62.436 163.788 62.688 163.013 62.688C162.453 62.688 161.907 62.548 161.375 62.268V61.218C161.851 61.4793 162.327 61.61 162.803 61.61C163.401 61.61 163.867 61.4093 164.203 61.008C164.539 60.6067 164.707 60.0513 164.707 59.342V54.568L165.911 53.924V53.938L165.925 53.924V57.746C166.009 58.4927 166.462 58.866 167.283 58.866ZM174.285 58.866H177.981V60H174.173C173.669 60 173.169 59.902 172.675 59.706C172.18 59.902 171.676 60 171.163 60H167.369V58.866H171.065H171.261C170.589 58.3153 169.898 57.508 169.189 56.444V55.828C169.637 55.184 170.169 54.6753 170.785 54.302C171.41 53.9287 172.035 53.742 172.661 53.742C173.286 53.742 173.911 53.9333 174.537 54.316C175.162 54.6893 175.703 55.2027 176.161 55.856V56.444C175.451 57.508 174.756 58.3153 174.075 58.866H174.285ZM170.309 56.15C171.167 57.326 171.956 58.1007 172.675 58.474C173.393 58.0913 174.182 57.312 175.041 56.136C174.341 55.2867 173.547 54.8573 172.661 54.848C171.774 54.848 170.99 55.282 170.309 56.15ZM178.712 52.328C178.255 52.328 178.026 52.0947 178.026 51.628C178.026 51.1707 178.255 50.942 178.712 50.942C179.16 50.942 179.384 51.1707 179.384 51.628C179.384 52.0947 179.16 52.328 178.712 52.328ZM180.504 52.328C180.047 52.328 179.818 52.0947 179.818 51.628C179.818 51.1707 180.047 50.942 180.504 50.942C180.952 50.942 181.176 51.1707 181.176 51.628C181.176 52.0947 180.952 52.328 180.504 52.328ZM182.016 58.866H182.94V60H181.876C181.101 60 180.49 59.7527 180.042 59.258C179.594 59.7527 178.983 60 178.208 60H177.144V58.866H178.068C178.983 58.866 179.44 58.3993 179.44 57.466V54.568L180.644 53.924V57.466C180.644 58.3993 181.101 58.866 182.016 58.866ZM182.093 60V58.866H182.835C183.806 58.866 184.291 58.3573 184.291 57.34V51.614L185.509 50.97V57.354C185.509 58.1847 185.262 58.8427 184.767 59.328C184.301 59.776 183.689 60 182.933 60H182.093ZM196.025 52.328C195.567 52.328 195.339 52.0947 195.339 51.628C195.339 51.1707 195.567 50.942 196.025 50.942C196.473 50.942 196.697 51.1707 196.697 51.628C196.697 52.0947 196.473 52.328 196.025 52.328ZM197.803 52.328C197.345 52.328 197.117 52.0947 197.117 51.628C197.117 51.1707 197.345 50.942 197.803 50.942C198.251 50.942 198.475 51.1707 198.475 51.628C198.475 52.0947 198.251 52.328 197.803 52.328ZM199.343 60C199.063 61.7733 197.672 62.66 195.171 62.66C193.696 62.66 192.585 62.2307 191.839 61.372C191.288 60.7373 191.013 59.9533 191.013 59.02C191.013 58.236 191.209 57.564 191.601 57.004L192.763 56.752C192.343 57.4147 192.133 58.1287 192.133 58.894C192.133 59.6967 192.403 60.3407 192.945 60.826C193.477 61.2927 194.219 61.526 195.171 61.526C196.879 61.526 197.845 61.008 198.069 59.972L197.733 59.944C195.455 59.804 194.317 58.782 194.317 56.878C194.317 55.8607 194.583 55.0673 195.115 54.498C195.591 53.994 196.216 53.742 196.991 53.742C197.784 53.742 198.395 53.9893 198.825 54.484C199.207 54.9227 199.399 55.4967 199.399 56.206V58.866H201.149V60H199.343ZM198.195 58.838V56.262C198.195 55.3287 197.793 54.862 196.991 54.862C196.524 54.862 196.16 55.0393 195.899 55.394C195.647 55.7393 195.521 56.2247 195.521 56.85C195.521 57.606 195.745 58.1287 196.193 58.418C196.529 58.642 197.061 58.7773 197.789 58.824L198.195 58.838ZM201.48 52.132L201.802 51.53H202.18C202.087 51.362 202.04 51.1847 202.04 50.998C202.04 50.7273 202.143 50.494 202.348 50.298C202.553 50.0927 202.796 49.99 203.076 49.99C203.309 49.99 203.533 50.0647 203.748 50.214V50.83C203.543 50.6713 203.347 50.592 203.16 50.592C202.815 50.592 202.642 50.746 202.642 51.054C202.642 51.2127 202.707 51.3713 202.838 51.53H204.112L203.79 52.132H201.48ZM200.304 60V58.866H201.228C202.143 58.866 202.6 58.3993 202.6 57.466V54.568L203.804 53.924V57.508C203.804 58.3013 203.566 58.9267 203.09 59.384C202.651 59.7947 202.077 60 201.368 60H200.304ZM208.576 60C207.764 60 207.139 59.7387 206.7 59.216C206.327 58.768 206.14 58.1987 206.14 57.508V51.614L207.344 50.97V57.466C207.344 58.3993 207.802 58.866 208.716 58.866H209.64V60H208.576ZM212.266 52.328C211.809 52.328 211.58 52.0947 211.58 51.628C211.58 51.1707 211.809 50.942 212.266 50.942C212.714 50.942 212.938 51.1707 212.938 51.628C212.938 52.0947 212.714 52.328 212.266 52.328ZM214.044 52.328C213.587 52.328 213.358 52.0947 213.358 51.628C213.358 51.1707 213.587 50.942 214.044 50.942C214.492 50.942 214.716 51.1707 214.716 51.628C214.716 52.0947 214.492 52.328 214.044 52.328ZM214.912 58.866H217.516V60H214.1C213.736 60 213.419 59.9673 213.148 59.902C212.887 59.9673 212.57 60 212.196 60H208.794V58.866H211.398C210.82 58.2033 210.53 57.4707 210.53 56.668C210.53 55.7533 210.787 55.0253 211.3 54.484C211.767 53.9893 212.383 53.742 213.148 53.742C214.026 53.742 214.702 54.0593 215.178 54.694C215.58 55.2167 215.78 55.8747 215.78 56.668C215.78 57.4707 215.491 58.2033 214.912 58.866ZM213.162 58.74C213.592 58.5907 213.942 58.32 214.212 57.928C214.483 57.5267 214.618 57.088 214.618 56.612C214.618 56.0707 214.483 55.646 214.212 55.338C213.951 55.0207 213.596 54.862 213.148 54.862C212.7 54.862 212.341 55.0207 212.07 55.338C211.809 55.6553 211.678 56.08 211.678 56.612C211.678 57.0787 211.818 57.5127 212.098 57.914C212.378 58.3153 212.733 58.5907 213.162 58.74ZM216.683 60V58.866H218.601C220.496 58.866 221.994 58.2407 223.095 56.99C222.32 55.562 221.378 54.848 220.267 54.848C219.511 54.848 218.732 55.2493 217.929 56.052V54.932C218.713 54.1387 219.544 53.742 220.421 53.742C221.14 53.742 221.835 54.0033 222.507 54.526C223.179 55.0393 223.772 55.7767 224.285 56.738V57.354C222.913 59.118 221.014 60 218.587 60H216.683ZM229.696 59.552C229.341 59.692 228.907 59.762 228.394 59.762C227.563 59.762 226.91 59.4493 226.434 58.824C226.032 58.292 225.832 57.6247 225.832 56.822C225.832 55.8327 226.098 55.058 226.63 54.498C227.106 53.994 227.731 53.742 228.506 53.742C229.299 53.742 229.91 53.9893 230.34 54.484C230.722 54.9227 230.914 55.4967 230.914 56.206V59.258C230.914 60.3127 230.638 61.148 230.088 61.764C229.565 62.3427 228.87 62.632 228.002 62.632C227.423 62.632 226.877 62.4967 226.364 62.226V61.162C226.858 61.4233 227.348 61.554 227.834 61.554C228.384 61.554 228.823 61.3767 229.15 61.022C229.476 60.6767 229.658 60.1867 229.696 59.552ZM229.696 56.262C229.696 55.3287 229.299 54.862 228.506 54.862C228.039 54.862 227.67 55.0347 227.4 55.38C227.138 55.7253 227.008 56.1967 227.008 56.794C227.008 57.382 227.134 57.8533 227.386 58.208C227.647 58.5533 227.997 58.726 228.436 58.726C229.052 58.726 229.472 58.5533 229.696 58.208V56.262ZM235.58 64.41V61.358C235.58 60.5647 235.809 59.9487 236.266 59.51C236.677 59.1087 237.246 58.894 237.974 58.866C237.554 58.39 237.344 57.7273 237.344 56.878C237.344 55.8607 237.61 55.0673 238.142 54.498C238.618 53.994 239.244 53.742 240.018 53.742C240.812 53.742 241.423 53.9893 241.852 54.484C242.235 54.9227 242.426 55.4967 242.426 56.206V57.718C242.417 58.418 242.198 58.9687 241.768 59.37C241.339 59.7713 240.746 59.9813 239.99 60H238.156C237.242 60 236.784 60.4667 236.784 61.4V63.766L235.58 64.41ZM241.222 56.262C241.222 55.3287 240.821 54.862 240.018 54.862C239.552 54.862 239.188 55.0393 238.926 55.394C238.674 55.7393 238.548 56.2247 238.548 56.85C238.548 57.4847 238.67 57.9793 238.912 58.334C239.155 58.6887 239.496 58.866 239.934 58.866C240.793 58.866 241.222 58.432 241.222 57.564V56.262ZM247.24 60C246.428 60 245.803 59.7387 245.364 59.216C244.991 58.768 244.804 58.1987 244.804 57.508V51.614L246.008 50.97V57.466C246.008 58.3993 246.466 58.866 247.38 58.866H248.304V60H247.24ZM251.112 52.328C250.655 52.328 250.426 52.0947 250.426 51.628C250.426 51.1707 250.655 50.942 251.112 50.942C251.56 50.942 251.784 51.1707 251.784 51.628C251.784 52.0947 251.56 52.328 251.112 52.328ZM252.89 52.328C252.433 52.328 252.204 52.0947 252.204 51.628C252.204 51.1707 252.433 50.942 252.89 50.942C253.338 50.942 253.562 51.1707 253.562 51.628C253.562 52.0947 253.338 52.328 252.89 52.328ZM247.458 60V58.866H249.978C249.549 58.39 249.334 57.7273 249.334 56.878C249.334 55.8607 249.6 55.0673 250.132 54.498C250.599 53.994 251.22 53.742 251.994 53.742C252.788 53.742 253.404 53.9893 253.842 54.484C254.216 54.9227 254.402 55.4967 254.402 56.206V57.536C254.393 58.3107 254.164 58.922 253.716 59.37C253.278 59.79 252.694 60 251.966 60H247.458ZM253.198 56.262C253.198 55.3287 252.797 54.862 251.994 54.862C251.537 54.862 251.178 55.0393 250.916 55.394C250.655 55.7393 250.524 56.2247 250.524 56.85C250.524 57.466 250.65 57.956 250.902 58.32C251.154 58.684 251.49 58.866 251.91 58.866C252.769 58.866 253.198 58.418 253.198 57.522V56.262ZM258.853 59.258C258.853 60.3033 258.578 61.1433 258.027 61.778C257.504 62.3847 256.809 62.688 255.941 62.688C255.381 62.688 254.835 62.548 254.303 62.268V61.218C254.779 61.4793 255.255 61.61 255.731 61.61C256.328 61.61 256.795 61.4093 257.131 61.008C257.467 60.6067 257.635 60.0513 257.635 59.342V54.568L258.853 53.924V59.258ZM260.633 50.774L260.955 50.172H261.333C261.239 50.004 261.193 49.8313 261.193 49.654C261.193 49.374 261.295 49.136 261.501 48.94C261.706 48.7347 261.949 48.632 262.229 48.632C262.462 48.632 262.686 48.7067 262.901 48.856V49.472C262.695 49.3133 262.499 49.234 262.313 49.234C261.967 49.234 261.795 49.388 261.795 49.696C261.795 49.8547 261.86 50.0133 261.991 50.172H263.265L262.943 50.774H260.633ZM261.375 60V52.174L262.579 51.53V60H261.375Z" fill="#253C30" fill-opacity="0.52"/>
</svg>
