<svg width="314" height="278" viewBox="0 0 314 278" fill="none" xmlns="http://www.w3.org/2000/svg">
<g filter="url(#filter0_f_554_4562)">
<ellipse cx="167" cy="232" rx="4" ry="1" fill="black"/>
</g>
<g clip-path="url(#clip0_554_4562)">
<g opacity="0.2">
<path d="M226.576 247.694C227.191 247.765 227.817 247.825 228.451 247.876C227.817 247.829 227.191 247.769 226.576 247.694Z" fill="#0C1E0B"/>
</g>
<g opacity="0.2">
<path d="M233.088 248.015C231.511 248.038 229.957 247.991 228.45 247.876C229.953 247.991 231.511 248.035 233.088 248.015Z" fill="#0C1E0B"/>
</g>
<g opacity="0.2">
<path d="M233.088 248.015C234.078 248.003 235.08 247.963 236.082 247.9C235.08 247.964 234.082 248.003 233.088 248.015Z" fill="#0C1E0B"/>
</g>
<path d="M230.262 246.756C229.961 249.56 229.487 252.36 228.85 255.146C227.385 261.542 225.03 267.843 221.721 273.871C202.651 308.645 159.375 321.169 125.056 301.846C97.7306 286.461 84.328 255.524 89.626 225.999C90.9842 218.443 93.5631 210.985 97.4464 203.898C99.2591 200.597 101.29 197.496 103.511 194.604C108.721 187.808 114.979 182.166 121.92 177.788C123.51 176.778 125.141 175.837 126.8 174.967C135.737 170.269 145.577 167.532 155.637 166.962C155.728 166.959 155.815 166.95 155.904 166.947C156.52 166.912 157.133 166.887 157.756 166.872C158.983 166.838 160.21 166.838 161.44 166.867C169.786 167.08 178.186 168.793 186.246 172.114C188.908 173.205 191.539 174.477 194.112 175.925C194.666 176.242 195.214 176.556 195.757 176.884C196.087 177.077 196.41 177.278 196.732 177.482C200.655 179.911 204.265 182.674 207.552 185.714C224.429 201.307 232.704 224.165 230.263 246.754L230.262 246.756Z" fill="#99A4C4"/>
<path d="M230.262 246.756C229.961 249.56 229.487 252.36 228.85 255.146C227.385 261.542 225.03 267.843 221.721 273.871C202.651 308.645 159.375 321.169 125.056 301.846C97.7306 286.461 84.328 255.524 89.626 225.999C90.9842 218.443 93.5631 210.985 97.4464 203.898C99.2591 200.597 101.29 197.496 103.511 194.604C108.721 187.808 114.979 182.166 121.92 177.788C123.51 176.778 125.141 175.837 126.8 174.967C135.737 170.269 145.577 167.532 155.637 166.962C155.728 166.959 155.815 166.95 155.904 166.947C156.52 166.912 157.133 166.887 157.756 166.872C158.983 166.838 160.21 166.838 161.44 166.867C169.786 167.08 178.186 168.793 186.246 172.114C188.908 173.205 191.539 174.477 194.112 175.925C194.666 176.242 195.214 176.556 195.757 176.884C196.087 177.077 196.41 177.278 196.732 177.482C200.655 179.911 204.265 182.674 207.552 185.714C224.429 201.307 232.704 224.165 230.263 246.754L230.262 246.756Z" fill="#3D9635"/>
<g opacity="0.6">
<path d="M221.223 214.411C217.566 207.596 212.777 201.338 206.953 195.956C203.707 192.954 200.142 190.227 196.267 187.827C195.951 187.626 195.631 187.427 195.306 187.235C194.77 186.91 194.229 186.6 193.682 186.289C191.14 184.858 188.544 183.602 185.913 182.526C177.955 179.245 169.66 177.553 161.419 177.343C160.203 177.313 158.99 177.313 157.779 177.348C157.164 177.362 156.559 177.388 155.95 177.421C155.863 177.426 155.775 177.435 155.685 177.437C145.752 177.999 136.035 180.702 127.209 185.342C125.572 186.2 123.96 187.13 122.389 188.128C115.535 192.45 109.356 198.023 104.212 204.734C102.017 207.59 100.01 210.651 98.2208 213.913C98.1115 214.112 98.0031 214.311 97.8965 214.51C99.1044 211.045 100.612 207.638 102.433 204.319C104.1 201.283 105.968 198.429 108.01 195.769C112.803 189.518 118.558 184.33 124.942 180.304C126.405 179.373 127.904 178.508 129.43 177.709C137.651 173.386 146.702 170.87 155.952 170.345C156.037 170.342 156.117 170.334 156.199 170.334C156.765 170.302 157.329 170.277 157.901 170.264C159.031 170.232 160.16 170.232 161.29 170.258C168.967 170.455 176.693 172.028 184.105 175.084C186.554 176.086 188.973 177.26 191.34 178.591C191.85 178.881 192.354 179.169 192.853 179.47C193.156 179.647 193.453 179.833 193.75 180.021C197.358 182.256 200.678 184.798 203.701 187.592C211.773 195.049 217.703 204.313 221.222 214.409L221.223 214.411Z" fill="#EAF7E8"/>
</g>
<path d="M202.828 246.782C200.886 255.559 203.544 262.663 208.763 262.65C213.982 262.636 220.257 255.736 222.199 246.96C224.14 238.183 221.011 230.854 215.792 230.867C210.573 230.881 204.769 238.006 202.828 246.782H202.828Z" fill="#D5EDB7"/>
<path d="M198.925 240.933C196.056 247.441 196.401 255.29 200.031 261.376C201.244 263.348 202.939 265.003 205.232 265.78C205.47 265.861 205.597 266.12 205.516 266.358C205.452 266.546 205.278 266.664 205.09 266.667C203.727 266.683 202.35 266.247 201.138 265.561C193.181 260.624 191.742 247.091 197.998 240.309C198.427 239.847 199.198 240.365 198.925 240.934V240.933Z" fill="#0C1E0B"/>
<path d="M127.739 201.924C131.631 201.652 134.596 198.704 134.361 195.34C134.126 191.976 130.779 189.469 126.887 189.742C122.994 190.014 120.03 192.961 120.265 196.325C120.5 199.69 123.846 202.196 127.739 201.924Z" fill="#D5EDB7"/>
<path d="M130.466 201.919C133.198 200.841 134.7 198.163 133.822 195.937C132.944 193.712 130.018 192.781 127.286 193.859C124.554 194.936 123.052 197.614 123.93 199.84C124.808 202.066 127.734 202.997 130.466 201.919Z" fill="#3D9635"/>
<path d="M127.535 202.678C124.285 203.238 120.533 201.498 119.249 198.311C117.39 193.828 120.954 189.249 125.391 188.44C127.898 187.932 130.64 188.442 132.672 190.031C135.491 192.05 136.352 196.291 134.105 198.986C133.826 199.33 133.283 198.98 133.469 198.588C134.706 196.084 133.788 193.12 131.468 191.717C128.303 189.655 123.293 190.622 121.59 194.077C120.424 196.366 121.476 199.078 123.633 200.446C124.73 201.194 126.079 201.615 127.496 201.748C128.043 201.782 128.071 202.6 127.535 202.678V202.678Z" fill="#0C1E0B"/>
<path d="M136.557 191.427C138.736 193.818 139.096 197.666 137.621 200.544C136.197 203.533 133.235 205.568 130.077 206.316C123.887 207.937 115.985 203.868 116.39 196.861C116.43 196.418 117.078 196.402 117.14 196.838C117.988 202.45 124.387 205.27 129.493 203.882C134.892 202.61 138.535 197.237 135.79 191.956C135.532 191.479 136.205 191.019 136.557 191.427Z" fill="#0C1E0B"/>
<path d="M108.211 212.099C114.968 212.541 120.259 218.93 120.844 225.557C121.88 234.358 116.385 243.566 107.979 246.467C105.931 247.186 103.732 247.463 101.614 247.257C101.35 247.231 101.156 246.996 101.182 246.732C101.205 246.499 101.391 246.321 101.615 246.3C105.58 245.838 109.153 243.957 111.871 241.277C118.578 234.818 120.386 222.642 112.978 216.071C111.547 214.799 109.837 213.849 107.988 213.268C107.323 213.065 107.513 212.047 108.211 212.101V212.099Z" fill="#0C1E0B"/>
<path d="M113.467 231.071C114.493 224.685 110.833 218.786 105.291 217.895C99.75 217.005 94.4258 221.46 93.3994 227.846C92.373 234.233 96.0332 240.132 101.575 241.022C107.116 241.913 112.44 237.458 113.467 231.071Z" fill="#D5EDB7"/>
<path d="M103.235 240.182C106.849 240.225 110.524 237.734 112.412 233.545C114.924 227.968 113.314 221.491 108.818 219.078C108.184 218.736 107.525 218.495 106.854 218.35C104.201 219.446 101.822 221.746 100.381 224.942C97.8307 230.607 99.1361 237.115 103.236 240.183L103.235 240.182Z" fill="#3D9635"/>
<path d="M93.6395 224.995C95.3949 220.371 100.31 216.737 105.424 217.257C111.044 217.694 114.827 223.004 114.637 228.386C114.637 236.056 107.036 243.589 99.2098 241.175C97.9974 240.777 96.8697 240.15 95.9378 239.313C94.9995 238.485 94.2607 237.465 93.7543 236.368C93.6495 236.141 93.7488 235.873 93.9756 235.768C94.1769 235.675 94.411 235.743 94.534 235.918C100.663 244.068 111.677 237.096 111.628 228.348C111.737 223.043 107.509 218.83 102.138 219.983C98.9894 220.623 96.3941 222.752 94.6397 225.494C94.2844 226.069 93.3954 225.62 93.6395 224.995Z" fill="#0C1E0B"/>
<path d="M187.837 226.231C188.882 231.842 187.389 237.913 183.868 242.403C174.203 254.812 154.996 252.485 146.792 239.728C145.265 237.345 144.151 234.711 143.595 231.981C143.545 231.736 143.703 231.498 143.948 231.449C144.171 231.403 144.389 231.531 144.462 231.739C146.293 236.703 149.669 240.988 154.051 243.873C165.354 251.336 181.108 247.378 185.556 234.082C185.781 233.55 185.968 232.78 186.096 232.215C186.212 231.664 186.435 230.855 186.491 230.295C186.684 228.998 186.754 227.677 186.728 226.346C186.711 225.675 187.714 225.563 187.839 226.232L187.837 226.231Z" fill="#0C1E0B"/>
<path d="M167.431 240.988C174.969 239.58 179.894 232.089 178.431 224.255C176.967 216.422 169.671 211.213 162.133 212.621C154.595 214.029 149.671 221.52 151.134 229.354C152.597 237.187 159.894 242.396 167.431 240.988Z" fill="#D5EDB7"/>
<path d="M152.536 231.283C153.862 236.219 158.242 240.167 163.971 240.968C171.6 242.03 178.734 237.105 179.907 229.968C180.074 228.961 180.111 227.962 180.03 226.988C177.709 223.84 174.051 221.575 169.679 220.963C161.931 219.884 154.643 224.409 152.536 231.283Z" fill="#3D9635"/>
<path d="M167.04 212.048C173.612 212.755 179.35 218.256 180.479 224.8C181.899 231.653 177.73 238.97 171.045 241.136C160.909 244.623 149.811 236.503 150.043 225.825C150.113 222.532 151.347 219.267 153.553 216.921C153.724 216.739 154.009 216.73 154.191 216.9C154.357 217.056 154.379 217.308 154.252 217.489C152.529 219.94 151.738 222.91 151.924 225.795C152.387 234.592 161.659 241.242 170.059 238.298C178.899 235.152 180.346 224.17 174.246 217.633C172.319 215.481 169.721 213.914 166.837 213.144C166.173 212.975 166.358 211.968 167.039 212.046L167.04 212.048Z" fill="#0C1E0B"/>
<path d="M186.669 199.357C189.164 197.694 191.021 195.444 191.917 192.717C193.54 187.775 191.562 182.686 187.313 178.456C184.526 175.68 180.728 173.397 176.253 172.057C164.955 168.671 153.618 172.56 150.929 180.745C149.929 183.79 150.267 187.001 151.668 190.007C154.032 195.08 159.5 199.279 166.594 201.405" fill="#3D9635"/>
<path d="M191.386 192.542C192.513 187.946 190.388 183.501 187.221 180.251C180.848 173.757 170.753 170.88 161.889 172.904C157.449 173.957 153.228 176.551 151.355 180.888C151.148 181.381 150.373 181.129 150.502 180.603C151.076 178.131 152.565 175.872 154.49 174.162C166.139 164.314 188.396 170.563 192.876 185.256C193.559 187.752 193.47 190.516 192.447 192.89C192.177 193.512 191.23 193.197 191.386 192.541V192.542Z" fill="#0C1E0B"/>
<path d="M187.401 189.534C188.505 183.039 182.244 176.559 173.419 175.06C164.593 173.561 156.544 177.611 155.441 184.106C154.338 190.601 160.598 197.081 169.424 198.58C178.249 200.079 186.298 196.029 187.401 189.534Z" fill="#D5EDB7"/>
<path d="M184.026 184.718C184.425 179.888 178.619 175.467 171.058 174.843C163.497 174.218 157.045 177.628 156.646 182.457C156.247 187.287 162.053 191.709 169.614 192.333C177.175 192.957 183.628 189.548 184.026 184.718Z" fill="#3D9635"/>
<path d="M160.118 177.619C153.39 182.942 156.761 190.817 163.187 194.578C165.59 196.054 168.376 196.965 171.16 197.39C177.511 198.385 186.503 195.689 186.093 187.943C185.617 182.926 181.34 179.043 177.003 176.928C176.443 176.603 175.531 176.283 174.935 176.016C174.705 175.921 174.597 175.657 174.692 175.428C174.78 175.219 175.006 175.111 175.219 175.165C176.723 175.545 178.228 176.015 179.641 176.72C181.052 177.42 182.415 178.259 183.639 179.301C189.263 183.942 190.795 191.86 184.83 196.96C180.467 200.622 174.325 201.203 168.942 200.024C163.22 198.698 157.658 195.196 155.233 189.656C153.486 185.803 154.291 180.916 157.541 178.101C158.146 177.554 158.811 177.092 159.498 176.689C159.765 176.532 160.107 176.622 160.264 176.888C160.41 177.136 160.341 177.45 160.118 177.618V177.619Z" fill="#0C1E0B"/>
<path d="M217.292 248.529C219.72 241.211 218.627 234.264 214.853 233.012C211.078 231.76 206.05 236.677 203.623 243.995C201.196 251.313 202.288 258.26 206.063 259.512C209.838 260.764 214.865 255.847 217.292 248.529Z" fill="#3D9635"/>
<path d="M221.336 235.554C217.931 230.16 212.251 232.384 208.827 236.478C204.696 241.444 202.444 248.413 203.609 254.839C204.799 260.618 209.212 262.608 214.168 259.229C216.947 257.35 219.05 254.549 220.601 251.598C220.952 250.99 221.202 250.333 221.524 249.703C221.761 249.22 222.514 249.522 222.358 250.032C221.397 253.533 219.668 256.868 217.153 259.517C213.044 263.916 206.433 265.426 202.567 259.827C199.944 255.884 199.915 250.931 200.801 246.472C202.12 240.684 205.22 234.989 210.411 231.835C214.789 229.148 220.221 230.033 222.324 235.033C222.594 235.664 221.693 236.124 221.336 235.554Z" fill="#0C1E0B"/>
<path d="M159.484 312.183C147.346 312.183 135.344 309.058 124.45 302.925C97.3498 287.667 82.8678 256.665 88.4118 225.782C89.8246 217.916 92.5 210.353 96.3633 203.304C102.32 192.448 110.93 183.263 121.262 176.742C122.862 175.727 124.534 174.759 126.226 173.871C135.264 169.121 145.411 166.304 155.569 165.726L155.852 165.711C156.466 165.677 157.094 165.651 157.727 165.635C158.942 165.602 160.203 165.601 161.47 165.632C170.168 165.854 178.663 167.65 186.718 170.972C189.44 172.087 192.133 173.392 194.72 174.849C195.288 175.172 195.848 175.492 196.4 175.827C196.726 176.02 197.061 176.228 197.391 176.435C209.251 183.785 218.709 194.376 224.734 207.06C230.629 219.472 232.967 233.244 231.494 246.889C231.188 249.728 230.704 252.599 230.057 255.422C228.538 262.063 226.098 268.471 222.807 274.467C213.378 291.659 197.895 304.066 179.209 309.404C172.7 311.263 166.072 312.184 159.485 312.184L159.484 312.183ZM159.654 168.084C159.025 168.084 158.402 168.092 157.789 168.109C157.178 168.123 156.575 168.149 155.971 168.182L155.688 168.198C145.902 168.754 136.105 171.474 127.376 176.062C125.743 176.919 124.13 177.851 122.585 178.833C112.603 185.132 104.287 194.005 98.5322 204.494C94.7983 211.307 92.2122 218.616 90.8467 226.219C85.4886 256.067 99.4805 286.027 125.663 300.77C141.89 309.905 160.664 312.126 178.529 307.024C196.574 301.87 211.529 289.886 220.637 273.278C223.819 267.481 226.177 261.288 227.645 254.87C228.271 252.141 228.737 249.367 229.034 246.624C231.964 219.482 219.029 192.755 196.08 178.534C195.761 178.334 195.446 178.138 195.127 177.949C194.584 177.62 194.045 177.313 193.502 177.004C191.007 175.598 188.407 174.338 185.777 173.261C177.999 170.054 169.801 168.32 161.409 168.106C160.821 168.091 160.234 168.085 159.654 168.085V168.084Z" fill="#0C1E0B"/>
<path d="M89.7389 111.294C92.1372 111.294 94.0813 109.349 94.0813 106.951C94.0813 104.553 92.1372 102.609 89.7389 102.609C87.3407 102.609 85.3965 104.553 85.3965 106.951C85.3965 109.349 87.3407 111.294 89.7389 111.294Z" fill="#EAF7E8"/>
<path d="M63.1268 176.431C64.3483 176.431 65.3385 175.441 65.3385 174.219C65.3385 172.997 64.3483 172.007 63.1268 172.007C61.9053 172.007 60.915 172.997 60.915 174.219C60.915 175.441 61.9053 176.431 63.1268 176.431Z" fill="#EAF7E8"/>
<path d="M84.1942 174.219C85.4157 174.219 86.4059 173.229 86.4059 172.007C86.4059 170.786 85.4157 169.796 84.1942 169.796C82.9727 169.796 81.9824 170.786 81.9824 172.007C81.9824 173.229 82.9727 174.219 84.1942 174.219Z" fill="#EAF7E8"/>
<path d="M68.1045 63.7218C69.6319 63.7218 70.8701 62.4836 70.8701 60.9562C70.8701 59.4288 69.6319 58.1906 68.1045 58.1906C66.5771 58.1906 65.3389 59.4288 65.3389 60.9562C65.3389 62.4836 66.5771 63.7218 68.1045 63.7218Z" fill="#EAF7E8"/>
<path d="M102.556 44.4803C103.676 44.4803 104.584 43.5724 104.584 42.4525C104.584 41.3326 103.676 40.4248 102.556 40.4248C101.436 40.4248 100.528 41.3326 100.528 42.4525C100.528 43.5724 101.436 44.4803 102.556 44.4803Z" fill="#EAF7E8"/>
<path d="M104.584 249.51C105.704 249.51 106.612 248.603 106.612 247.483C106.612 246.363 105.704 245.455 104.584 245.455C103.464 245.455 102.557 246.363 102.557 247.483C102.557 248.603 103.464 249.51 104.584 249.51Z" fill="#EAF7E8"/>
<path d="M228.451 42.1746C229.299 42.1746 229.987 41.487 229.987 40.6387C229.987 39.7905 229.299 39.1029 228.451 39.1029C227.603 39.1029 226.915 39.7905 226.915 40.6387C226.915 41.487 227.603 42.1746 228.451 42.1746Z" fill="#EAF7E8"/>
<path d="M256.559 52.3371C258.396 52.3371 259.884 50.8485 259.884 49.0122C259.884 47.1759 258.396 45.6873 256.559 45.6873C254.723 45.6873 253.234 47.1759 253.234 49.0122C253.234 50.8485 254.723 52.3371 256.559 52.3371Z" fill="#EAF7E8"/>
<path d="M256.526 177.535C256.823 175.703 255.58 173.977 253.748 173.68C251.917 173.383 250.191 174.626 249.894 176.458C249.596 178.289 250.84 180.015 252.672 180.312C254.503 180.61 256.229 179.366 256.526 177.535Z" fill="#EAF7E8"/>
<path d="M269.516 203.639C269.819 202.357 269.025 201.072 267.743 200.77C266.461 200.467 265.177 201.261 264.874 202.543C264.571 203.825 265.365 205.109 266.647 205.412C267.929 205.715 269.214 204.921 269.516 203.639Z" fill="#EAF7E8"/>
<path d="M252.152 88.3649C252.454 87.083 251.66 85.7986 250.379 85.496C249.097 85.1935 247.812 85.9874 247.51 87.2692C247.207 88.5511 248.001 89.8356 249.283 90.1381C250.565 90.4407 251.849 89.6468 252.152 88.3649Z" fill="#EAF7E8"/>
<path d="M49.9813 115.824C49.9813 116.219 48.4828 116.55 46.3676 116.68C45.7327 116.719 45.2235 117.228 45.1834 117.863C45.0513 119.978 44.7189 121.478 44.3281 121.478C43.9373 121.478 43.5993 119.979 43.4681 117.863C43.429 117.228 42.9198 116.719 42.2839 116.68C40.1696 116.549 38.6748 116.219 38.6748 115.824C38.6748 115.43 40.1696 115.099 42.2839 114.969C42.9188 114.93 43.4281 114.421 43.4681 113.786C43.6002 111.671 43.9336 110.171 44.3281 110.171C44.7225 110.171 45.0513 111.67 45.1834 113.786C45.2226 114.421 45.7318 114.93 46.3676 114.969C48.4828 115.1 49.9813 115.43 49.9813 115.824Z" fill="#EAF7E8"/>
<path d="M249.122 131.141C249.122 131.535 247.623 131.866 245.508 131.996C244.873 132.036 244.364 132.545 244.324 133.18C244.192 135.295 243.859 136.794 243.469 136.794C243.078 136.794 242.74 135.296 242.609 133.18C242.57 132.545 242.06 132.036 241.425 131.996C239.31 131.865 237.815 131.535 237.815 131.141C237.815 130.747 239.31 130.416 241.425 130.286C242.059 130.246 242.569 129.737 242.609 129.102C242.741 126.987 243.074 125.488 243.469 125.488C243.863 125.488 244.192 126.986 244.324 129.102C244.363 129.737 244.872 130.246 245.508 130.286C247.623 130.417 249.122 130.747 249.122 131.141Z" fill="#EAF7E8"/>
<path d="M255.292 260.321C252.018 269.754 244.162 270.398 226.947 271.804C225.388 271.931 223.727 272.069 221.967 272.222C220.285 272.365 218.511 272.522 216.653 272.698C213.649 272.984 210.876 273.111 208.31 273.111H208.276C191.178 273.111 183.249 267.33 176.711 262.562C175.978 262.026 175.256 261.499 174.533 260.993C173.107 259.985 171.529 258.796 169.862 257.532C162.012 251.598 151.261 243.468 138.701 241.516C128.205 239.884 118.576 244.638 106.379 250.655C101.665 252.98 96.8082 255.379 91.3909 257.67C90.8006 257.916 90.2058 258.166 89.6064 258.412C74.6379 264.543 63.0855 260.462 57.7419 255.104C54.1538 251.5 52.924 247.13 54.4635 243.409C56.0312 239.614 57.895 236.527 60.9767 234.084C64.5703 231.228 69.8255 229.237 78.1969 228.003C83.5259 227.212 87.2325 226.071 89.7394 225.015C89.3705 227.011 89.0908 229.036 88.8986 231.091C86.2833 231.956 83.024 232.757 78.9831 233.352C72.5482 234.301 68.4536 235.637 65.6762 237.358C62.2447 239.481 60.8145 242.19 59.4572 245.474C58.7931 247.087 59.6048 249.314 61.5706 251.285C65.739 255.468 75.0451 258.531 87.5604 253.408C88.4113 253.06 89.2466 252.711 90.0673 252.356C95.0374 250.218 99.5793 247.981 103.989 245.803C116.52 239.619 127.349 234.281 139.531 236.173C153.433 238.331 164.813 246.938 173.121 253.221C174.753 254.455 176.292 255.62 177.644 256.569C178.391 257.094 179.138 257.64 179.895 258.191C186.605 263.087 194.156 268.593 212.502 267.585C213.672 267.522 214.886 267.428 216.145 267.31C219.267 267.015 222.157 266.775 224.777 266.558C225.367 266.509 225.942 266.459 226.508 266.415C243.595 265.018 248.147 264.409 250.178 258.55C250.974 256.264 250.438 255.212 249.966 254.617C248.073 252.243 242.219 251.53 237.416 252.047C234.491 252.366 231.851 251.772 229.63 250.832C229.974 248.984 230.245 247.111 230.436 245.218C232.196 246.182 234.408 246.929 236.836 246.668C242.942 246.01 250.709 246.865 254.199 251.25C255.541 252.941 256.825 255.891 255.291 260.321H255.292Z" fill="#EAF7E8"/>
<path d="M208.276 274.341C190.776 274.341 182.575 268.361 175.987 263.555C175.26 263.023 174.544 262.502 173.828 262C172.381 260.977 170.775 259.767 169.121 258.512C161.363 252.649 150.759 244.634 138.513 242.731C128.404 241.158 118.931 245.834 106.936 251.751L106.795 251.821C102.113 254.13 97.271 256.518 91.87 258.802L91.3781 259.007C90.9454 259.187 90.51 259.37 90.0718 259.549C74.5422 265.909 62.4815 261.597 56.871 255.972C52.9185 252.003 51.594 247.131 53.3266 242.94C56.8911 234.302 61.8821 229.169 78.0166 226.787C82.4756 226.125 86.2587 225.148 89.2611 223.882C89.6774 223.707 90.1566 223.774 90.5091 224.057C90.8607 224.341 91.0292 224.794 90.9473 225.238C90.5874 227.186 90.3096 229.194 90.1219 231.204C90.0764 231.691 89.7476 232.104 89.2839 232.257C86.3188 233.239 82.9137 234.016 79.1616 234.568C65.3892 236.601 62.9588 240.223 60.5922 245.944C60.1285 247.07 60.8536 248.826 62.4405 250.417C66.3411 254.331 75.1371 257.165 87.0949 252.272C87.9375 251.925 88.7665 251.579 89.5809 251.229C94.6229 249.059 99.3096 246.744 103.445 244.702C116.162 238.425 127.145 233.005 139.72 234.959C153.925 237.165 165.445 245.877 173.858 252.238L173.946 252.304C175.537 253.507 177.039 254.643 178.35 255.563C179.027 256.04 179.705 256.533 180.389 257.03L180.619 257.197C187.585 262.278 195.477 268.034 216.029 266.087C219.1 265.796 221.985 265.556 224.677 265.334L225.083 265.3C225.533 265.262 225.976 265.225 226.412 265.19C243.763 263.773 247.313 263.066 249.017 258.148C249.683 256.237 249.19 255.616 249.004 255.382C247.628 253.654 242.594 252.726 237.548 253.268C234.749 253.574 231.922 253.136 229.15 251.965C228.618 251.74 228.315 251.175 228.421 250.607C228.761 248.785 229.027 246.931 229.212 245.094C229.254 244.684 229.498 244.323 229.863 244.131C230.227 243.938 230.664 243.942 231.025 244.141C232.967 245.203 234.878 245.644 236.705 245.447C243.134 244.754 251.361 245.713 255.16 250.485C256.697 252.421 258.167 255.767 256.451 260.722C252.914 270.915 244.268 271.621 227.045 273.028C225.489 273.156 223.829 273.293 222.072 273.445C220.392 273.587 218.622 273.745 216.768 273.921C213.828 274.199 210.971 274.339 208.276 274.339V274.341ZM134.462 239.962C135.924 239.962 137.396 240.071 138.89 240.304C151.747 242.301 162.636 250.532 170.587 256.541C172.243 257.796 173.83 258.993 175.242 259.991C175.967 260.499 176.697 261.03 177.436 261.57C184.063 266.404 191.575 271.883 208.275 271.883C210.894 271.883 213.673 271.746 216.536 271.475C218.398 271.297 220.177 271.14 221.862 270.998C223.622 270.846 225.285 270.707 226.845 270.58C244.011 269.178 251.117 268.597 254.129 259.918C255.479 256.017 254.389 253.468 253.236 252.016C250.059 248.024 242.751 247.269 236.968 247.892C235.157 248.086 233.313 247.808 231.462 247.065C231.336 248.063 231.187 249.062 231.017 250.054C233.102 250.793 235.205 251.052 237.282 250.826C242.266 250.29 248.66 251.009 250.927 253.853C251.951 255.143 252.085 256.812 251.338 258.956C248.961 265.815 242.875 266.313 226.608 267.642C226.172 267.676 225.734 267.713 225.289 267.75L224.88 267.785C222.195 268.006 219.319 268.247 216.262 268.535C194.779 270.57 186.49 264.523 179.175 259.188L178.943 259.02C178.269 258.53 177.603 258.045 176.937 257.576C175.591 256.632 174.073 255.483 172.464 254.267L172.38 254.204C164.172 247.997 152.936 239.499 139.342 237.39C127.536 235.555 116.876 240.816 104.533 246.907C100.371 248.963 95.6531 251.292 90.5528 253.487C89.7266 253.843 88.884 254.196 88.0268 254.547C74.9503 259.901 65.1323 256.603 60.6997 252.154C58.3768 249.826 57.4641 247.087 58.3194 245.009C60.8591 238.868 63.8142 234.351 78.8027 232.138C82.0966 231.654 85.1036 230.991 87.7544 230.169C87.8683 229.085 88.0068 228.003 88.1698 226.931C85.3742 227.901 82.0912 228.669 78.3764 229.22C63.3177 231.443 58.8906 235.901 55.5976 243.88C54.2558 247.125 55.3826 250.997 58.6109 254.239C63.6866 259.33 74.7281 263.179 89.1391 257.277C89.5708 257.1 90.0008 256.92 90.4289 256.742L90.9172 256.538C96.2462 254.284 101.056 251.912 105.706 249.618L105.835 249.554C116.529 244.278 125.278 239.962 134.461 239.962H134.462Z" fill="#0C1E0B"/>
<g opacity="0.3">
<path d="M255.291 260.321C252.017 269.754 244.161 270.398 226.946 271.804C225.388 271.931 223.726 272.069 221.966 272.222C220.285 272.365 218.51 272.522 216.652 272.698C213.649 272.983 210.876 273.111 208.31 273.111C208.535 273.027 208.771 272.968 209.023 272.919C216.073 271.571 212.464 267.634 212.464 267.634L212.504 267.585C213.673 267.521 214.887 267.428 216.146 267.31C219.268 267.015 222.159 266.774 224.778 266.558C225.369 266.508 225.943 266.459 226.509 266.415C243.596 265.018 248.148 264.409 250.179 258.55C250.975 256.264 250.439 255.212 249.967 254.617C248.075 252.243 242.22 251.53 237.418 252.046C234.493 252.366 231.853 251.771 229.631 250.832C229.975 248.984 230.246 247.111 230.437 245.218C232.197 246.182 234.409 246.929 236.837 246.668C242.943 246.01 250.71 246.865 254.201 251.25C255.542 252.941 256.826 255.891 255.292 260.321H255.291Z" fill="#0C1E0B"/>
</g>
<g opacity="0.3">
<path d="M89.7393 225.015C89.3704 227.011 89.0907 229.036 88.8985 231.091C86.2832 231.956 83.0239 232.757 78.983 233.352C72.5482 234.301 68.4535 235.637 65.6761 237.358C65.9266 235.097 63.0116 234.34 60.9766 234.084C64.5702 231.228 69.8254 229.237 78.1969 228.004C83.5258 227.212 87.2324 226.071 89.7393 225.015Z" fill="#0C1E0B"/>
</g>
<path d="M191.528 127.7C191.528 127.7 191.243 131.54 190.363 136.249C189.252 142.177 187.198 149.477 183.574 152.205C180.551 154.482 174.553 152.304 168.994 149.32C162.588 145.884 156.763 141.371 156.763 141.371L182.438 111.714L191.528 127.699L191.528 127.7Z" fill="#EAF7E8"/>
<g opacity="0.3">
<path d="M190.364 136.249C189.252 142.177 187.198 149.477 183.575 152.205C180.551 154.482 174.554 152.304 168.994 149.32L170.872 146.37C170.872 146.37 181.702 149.688 184.715 143.666C187.724 137.644 189.322 132.935 189.322 132.935C189.322 132.935 189.789 134.365 190.364 136.248V136.249Z" fill="#0C1E0B"/>
</g>
<path d="M178.894 144.054C177.861 144.054 176.779 143.818 175.702 143.341C175.206 143.122 174.982 142.542 175.201 142.046C175.421 141.549 176.001 141.326 176.497 141.545C178.294 142.339 180.064 142.254 181.354 141.311C182.336 140.592 182.897 139.448 182.782 138.397C182.672 137.384 181.982 136.571 180.789 136.046C180.293 135.827 180.068 135.248 180.286 134.751C180.505 134.255 181.083 134.029 181.581 134.248C183.427 135.061 184.548 136.459 184.736 138.185C184.928 139.95 184.077 141.755 182.514 142.899C181.463 143.667 180.219 144.055 178.895 144.055L178.894 144.054Z" fill="#0C1E0B"/>
<path d="M180.271 154.639C176.997 154.639 172.607 153.069 167.005 149.912C161.09 146.577 156.069 142.703 155.858 142.54C155.537 142.292 155.334 141.923 155.293 141.519C155.253 141.117 155.381 140.714 155.646 140.408L181.322 110.749C181.636 110.386 182.105 110.197 182.582 110.246C183.059 110.293 183.483 110.569 183.72 110.985L192.807 126.974C192.952 127.228 193.018 127.519 192.996 127.811C192.935 128.639 191.419 148.147 184.461 153.386C183.354 154.22 181.961 154.639 180.271 154.639ZM158.906 141.149C166.573 146.846 178.824 153.938 182.688 151.029C187.448 147.446 189.55 133.633 190.02 128.038L182.187 114.257L158.906 141.149Z" fill="#0C1E0B"/>
<path d="M216.677 180.905C216.539 181.278 216.392 181.641 216.225 182C216.147 182.173 216.068 182.345 215.985 182.511C215.98 182.521 215.975 182.526 215.97 182.536C215.892 182.694 215.808 182.856 215.724 183.012C214.963 184.413 213.993 185.706 212.824 186.877C212.686 187.02 212.539 187.157 212.391 187.295C212.233 187.442 212.077 187.584 211.915 187.732C211.763 187.865 211.605 187.997 211.447 188.126C211.285 188.259 211.118 188.391 210.951 188.519C209.683 187.202 208.36 185.933 206.994 184.71C207.367 184.454 207.722 184.188 208.056 183.908C208.194 183.795 208.331 183.677 208.459 183.559C208.606 183.431 208.744 183.298 208.881 183.165C209.466 182.591 209.983 181.98 210.42 181.332C210.489 181.233 210.557 181.13 210.617 181.027C210.764 180.805 210.897 180.574 211.015 180.343C211.074 180.235 211.128 180.128 211.181 180.019C211.241 179.906 211.294 179.788 211.339 179.675C211.364 179.636 211.378 179.591 211.398 179.552C211.472 179.38 211.541 179.207 211.605 179.035C212.038 177.856 212.259 176.582 212.268 175.265C212.278 173.255 211.796 171.136 210.832 169.056C208.237 163.447 204.825 163.073 196.591 162.178C196.148 162.129 195.696 162.08 195.235 162.026C194.689 161.967 194.129 161.903 193.548 161.835C183.23 160.616 181.308 154.938 180.851 149.019C180.758 147.78 180.723 146.531 180.693 145.308L180.679 144.772C180.654 143.912 180.492 142.781 179.838 142.309C178.968 141.68 177.194 141.921 176.47 142.132C175.045 142.56 173.535 141.759 173.103 140.338C172.67 138.917 173.451 137.413 174.872 136.97C175.354 136.818 179.69 135.555 182.974 137.904C184.341 138.878 185.983 140.839 186.086 144.634L186.096 145.175C186.125 146.33 186.15 147.382 186.204 148.336C186.5 153.414 187.595 155.69 194.188 156.467C194.916 156.551 195.624 156.629 196.301 156.707C196.601 156.737 196.892 156.771 197.181 156.8C205.7 157.729 211.86 158.403 215.739 166.78C216.54 168.505 217.091 170.265 217.396 172.01C217.931 175.087 217.695 178.131 216.678 180.903L216.677 180.905Z" fill="#EAF7E8"/>
<g opacity="0.3">
<path d="M186.203 148.338C183.371 146.622 181.641 148.023 180.849 149.021C180.756 147.782 180.721 146.533 180.691 145.31L180.677 144.774C180.652 143.914 180.49 142.783 179.836 142.311C178.966 141.682 177.192 141.923 176.468 142.134C175.043 142.561 173.533 141.761 173.101 140.34C172.668 138.919 173.449 137.415 174.87 136.972C175.352 136.82 179.688 135.556 182.972 137.906C184.339 138.879 185.981 140.841 186.084 144.636L186.094 145.177C186.123 146.332 186.148 147.384 186.203 148.338Z" fill="#0C1E0B"/>
</g>
<path d="M210.951 189.749C210.627 189.749 210.305 189.621 210.066 189.373C208.856 188.116 207.546 186.856 206.174 185.626C205.893 185.375 205.743 185.007 205.768 184.63C205.793 184.254 205.988 183.91 206.3 183.697C206.653 183.455 206.969 183.217 207.266 182.968C207.401 182.857 207.521 182.749 207.643 182.643C207.783 182.521 207.903 182.405 208.023 182.288C208.557 181.764 209.022 181.21 209.402 180.647C209.467 180.553 209.516 180.474 209.566 180.394C209.699 180.186 209.812 179.992 209.931 179.768C209.986 179.668 210.03 179.578 210.074 179.49C210.121 179.391 210.17 179.286 210.213 179.187C210.227 179.156 210.242 179.125 210.258 179.095C210.265 179.079 210.272 179.065 210.278 179.05C210.341 178.903 210.399 178.756 210.454 178.609C211.437 175.929 211.176 172.719 209.719 169.575C207.413 164.593 204.653 164.293 196.46 163.403L195.631 163.311C194.915 163.232 194.174 163.15 193.403 163.058C179.87 161.459 179.646 152.525 179.466 145.347L179.451 144.808C179.422 143.779 179.196 143.369 179.119 143.307C178.8 143.076 177.616 143.08 176.817 143.314C174.752 143.933 172.556 142.76 171.929 140.698C171.301 138.635 172.458 136.437 174.508 135.799C175.046 135.629 179.911 134.203 183.691 136.906C185.278 138.038 187.199 140.292 187.315 144.602L187.325 145.154C187.512 152.48 187.562 154.448 194.332 155.247C195.328 155.364 196.279 155.468 197.186 155.566L197.315 155.58C205.902 156.516 212.684 157.256 216.855 166.265C219.198 171.321 219.545 176.671 217.832 181.329C217.672 181.765 217.511 182.154 217.34 182.521C217.26 182.697 217.175 182.882 217.084 183.063C217.074 183.083 217.063 183.105 217.05 183.126C216.972 183.28 216.891 183.438 216.809 183.591C215.984 185.108 214.937 186.502 213.692 187.748C213.556 187.89 213.392 188.043 213.229 188.195C213.077 188.338 212.922 188.478 212.764 188.622C212.758 188.627 212.728 188.655 212.722 188.66C212.559 188.802 212.39 188.945 212.222 189.081C212.052 189.22 211.875 189.36 211.698 189.497C211.477 189.666 211.213 189.75 210.951 189.75V189.749ZM208.911 184.796C209.645 185.479 210.359 186.169 211.046 186.86C211.066 186.843 211.087 186.825 211.107 186.807C211.261 186.667 211.406 186.536 211.551 186.4C211.684 186.275 211.817 186.152 211.94 186.025C213.033 184.932 213.938 183.727 214.644 182.428C214.717 182.29 214.796 182.137 214.87 181.989C214.879 181.969 214.891 181.949 214.903 181.928C214.973 181.785 215.039 181.639 215.107 181.492C215.253 181.18 215.387 180.852 215.524 180.481C217.01 176.44 216.69 171.759 214.623 167.3C211.036 159.551 205.471 158.944 197.048 158.026L196.919 158.012C196.005 157.913 195.047 157.808 194.044 157.69C185.159 156.642 185.055 152.585 184.867 145.22L184.857 144.659C184.768 141.373 183.396 139.717 182.261 138.909C179.404 136.864 175.412 138.092 175.243 138.145C174.474 138.385 174.043 139.208 174.279 139.984C174.514 140.755 175.338 141.192 176.117 140.958C176.153 140.948 178.945 140.15 180.558 141.316C181.405 141.928 181.86 143.08 181.907 144.741L181.922 145.277C182.102 152.477 182.272 159.269 193.692 160.618C194.456 160.71 195.191 160.791 195.9 160.87L196.728 160.962C204.936 161.853 209.058 162.302 211.948 168.544C213.681 172.283 213.969 176.161 212.758 179.463C212.686 179.658 212.609 179.85 212.528 180.04C212.519 180.061 212.509 180.082 212.499 180.103C212.483 180.139 212.465 180.18 212.443 180.221C212.395 180.332 212.342 180.445 212.29 180.554C212.287 180.561 212.273 180.589 212.27 180.595C212.213 180.709 212.155 180.823 212.093 180.936C211.948 181.21 211.8 181.462 211.649 181.697C211.579 181.811 211.505 181.928 211.426 182.041C210.968 182.722 210.396 183.402 209.743 184.046C209.577 184.206 209.425 184.351 209.264 184.491C209.153 184.589 209.035 184.695 208.911 184.799V184.796Z" fill="#0C1E0B"/>
<path d="M203.782 147.93C197.883 150.387 193.621 144.813 191.325 136.947C189.034 129.082 186.576 126.299 186.576 126.299C186.576 126.299 187.23 130.149 182.314 131.811C182.314 131.811 180.264 140.065 172.482 145.634C164.7 151.203 159.332 150.795 157.612 152.846C155.892 154.891 156.875 163.636 155.032 167.569C153.188 171.502 150.42 174.451 145.569 177.957C141.44 180.941 135.53 180.046 132.041 177.44C131.431 176.983 130.89 176.476 130.453 175.926C127.503 172.24 131.868 163.391 138.318 160.441C134.262 152.821 133.893 145.699 140.653 139.549L137.457 136.727C137.457 136.727 136.685 136.854 135.579 137.022C133.829 137.287 131.233 137.656 129.513 137.769C127.984 140.999 126.947 144.218 126.691 147.424C126.578 148.845 125.786 150.123 124.547 150.831C121.971 152.306 117.193 154.798 111.22 156.818C107.43 158.096 104.471 157.703 102.303 156.494C99.2652 154.808 97.7703 151.524 97.702 149.017C97.5745 144.711 104.274 139.677 109.618 138.016C109.274 125.185 116.554 116.799 131.189 112.699L134.571 103.792C123.609 93.8966 106.84 74.7096 117.248 66.176C118.064 65.5028 119.092 65.1339 120.148 65.1439C122.37 65.1585 126.47 65.8316 129.656 70.0447C134.842 76.9022 140.441 80.6234 143.189 82.2804C145.938 83.9419 185.102 97.2443 185.102 97.2443C185.102 97.2443 200.258 103.974 206.28 120.073C208.054 124.812 209.077 128.961 209.49 132.52C209.5 132.653 209.515 132.791 209.535 132.938C209.555 133.145 209.574 133.342 209.594 133.543C209.598 133.582 209.598 133.622 209.604 133.662C210.243 141.517 207.756 146.275 203.783 147.932L203.782 147.93Z" fill="#EAF7E8"/>
<path d="M156.263 117.65C156.691 115.4 155.523 113.288 153.656 112.934C151.789 112.579 149.928 114.116 149.501 116.366C149.074 118.617 150.241 120.729 152.109 121.083C153.976 121.438 155.836 119.901 156.263 117.65Z" fill="#3D9635"/>
<path d="M139.469 181.287C135.439 181.287 131.442 179.524 129.301 176.848C128.069 175.309 127.726 173.049 128.335 170.488C129.336 166.284 132.53 162.09 136.347 159.814C132.489 151.789 133.191 145.151 138.487 139.602L137.005 138.29C135.673 138.503 132.719 138.959 130.492 139.166C129.131 142.209 128.368 144.954 128.163 147.538C128.011 149.454 126.934 151.162 125.284 152.106C122.873 153.486 117.9 156.114 111.692 158.211C106.364 160.012 102.795 158.683 100.739 157.252C97.5177 155.009 96.2952 151.433 96.2269 149.053C96.0829 144.013 102.846 138.96 108.136 136.964C108.202 124.317 115.576 115.75 130.073 111.48L132.835 104.198C127.124 98.9422 112.237 84.1332 112.503 72.8777C112.578 69.6803 113.86 67.0395 116.31 65.0282C117.395 64.1382 118.759 63.6417 120.156 63.6627C122.605 63.6791 127.248 64.4133 130.829 69.1474C134.476 73.969 138.89 77.9616 143.95 81.0151C145.866 82.1719 169.892 90.517 185.574 95.8451C185.616 95.8596 185.658 95.8751 185.698 95.8933C186.34 96.1785 201.492 103.061 207.66 119.552C214.426 137.639 210.385 146.771 204.347 149.287C202.054 150.242 199.844 150.226 197.779 149.239C193.549 147.216 191.165 141.662 189.911 137.36C188.936 134.019 187.933 131.634 187.126 130.025C186.434 131.123 185.302 132.18 183.522 132.926C182.796 135.193 180.159 141.95 173.34 146.831C168.571 150.245 164.586 151.529 161.95 152.379C160.399 152.879 159.175 153.273 158.741 153.79C158.189 154.447 157.986 157.429 157.838 159.607C157.625 162.74 157.404 165.981 156.366 168.195C154.461 172.259 151.582 175.432 146.43 179.15C144.369 180.638 141.912 181.286 139.467 181.286L139.469 181.287ZM137.458 135.248C137.815 135.248 138.163 135.379 138.435 135.618L141.631 138.445C141.944 138.723 142.125 139.121 142.128 139.539C142.131 139.958 141.956 140.358 141.645 140.64C136.038 145.74 135.394 151.812 139.619 159.749C139.81 160.108 139.845 160.53 139.714 160.915C139.584 161.3 139.3 161.614 138.931 161.783C134.885 163.633 131.982 167.905 131.205 171.17C130.81 172.828 130.952 174.19 131.604 175.005C134.178 178.224 140.597 179.723 144.706 176.759C149.479 173.315 152.001 170.563 153.697 166.944C154.5 165.23 154.711 162.136 154.896 159.407C155.154 155.613 155.369 153.221 156.483 151.895C157.463 150.728 158.967 150.243 161.047 149.573C163.656 148.732 167.23 147.581 171.625 144.434C178.843 139.267 180.864 131.527 180.884 131.45C181.007 130.964 181.369 130.571 181.844 130.41C185.382 129.216 185.156 126.795 185.119 126.523C185.008 125.874 185.344 125.241 185.938 124.957C186.533 124.672 187.246 124.829 187.682 125.323C187.791 125.447 190.385 128.448 192.744 136.536C194.28 141.802 196.521 145.369 199.053 146.58C200.347 147.2 201.708 147.195 203.215 146.568C207.765 144.671 210.937 136.73 204.899 120.589C199.353 105.759 185.532 99.0725 184.556 98.617C180.202 97.1377 145.216 85.2272 142.428 83.5438C137.046 80.2963 132.353 76.0523 128.478 70.931C125.661 67.2062 122.044 66.6287 120.138 66.6159C119.428 66.5995 118.736 66.8582 118.183 67.3128C116.401 68.7748 115.509 70.6186 115.453 72.9515C115.255 81.3202 125.709 93.8028 135.558 102.693C136.009 103.101 136.165 103.743 135.949 104.311L132.569 113.221C132.404 113.658 132.039 113.992 131.588 114.118C117.473 118.075 110.769 125.879 111.096 137.975C111.114 138.635 110.69 139.227 110.058 139.423C105.08 140.968 99.0799 145.678 99.1747 148.972C99.2266 150.801 100.251 153.323 102.424 154.835C104.574 156.332 107.451 156.534 110.747 155.421C116.718 153.403 121.5 150.876 123.818 149.55C124.622 149.09 125.147 148.252 125.222 147.308C125.472 144.146 126.44 140.821 128.178 137.14C128.407 136.655 128.88 136.333 129.415 136.298C132.116 136.12 137.163 135.278 137.213 135.27C137.295 135.257 137.376 135.25 137.457 135.25L137.458 135.248Z" fill="#0C1E0B"/>
<path d="M209.566 68.0853C208.751 87.9501 191.984 103.398 172.114 102.583C163.021 102.211 154.853 98.4959 148.75 92.6705C141.514 85.7757 137.17 75.9093 137.612 65.1366C137.942 57.0758 140.895 49.7519 145.615 43.9374C152.534 35.4129 163.249 30.1495 175.064 30.6341C194.934 31.4485 210.381 48.216 209.566 68.0862L209.566 68.0853Z" fill="#EAF7E8"/>
<g opacity="0.3">
<path d="M209.567 68.0853C208.752 87.95 191.985 103.398 172.115 102.583C163.022 102.211 154.854 98.4959 148.751 92.6705C148.353 92.2897 147.966 91.9053 147.583 91.5008C153.126 95.5317 159.882 98.0231 167.241 98.3246C187.111 99.139 203.879 83.6923 204.692 63.8266C205.109 53.6533 201.261 44.2944 194.741 37.4679C204.154 44.309 210.079 55.5836 209.567 68.0853Z" fill="#0C1E0B"/>
</g>
<path d="M197.785 68.3306C197.079 85.5581 182.542 98.9507 165.314 98.2447C159.144 97.9915 153.466 95.9628 148.749 92.6698C141.513 85.7749 137.169 75.9086 137.611 65.1359C137.942 57.0751 140.894 49.7512 145.614 43.9367C151.472 38.6168 159.338 35.5096 167.871 35.8594C185.099 36.5654 198.491 51.103 197.785 68.3306Z" fill="#0C1E0B"/>
<g opacity="0.35">
<path d="M197.785 68.3305C197.079 85.558 182.542 98.9506 165.314 98.2446C159.144 97.9914 153.465 95.9627 148.749 92.6697C145.201 89.292 142.348 85.1937 140.42 80.6271C146.338 85.6919 153.937 88.882 162.328 89.2255C178.509 89.8886 192.632 79.7654 197.759 65.2579C197.821 66.269 197.828 67.2929 197.785 68.3295V68.3305Z" fill="#111A28"/>
</g>
<path d="M173.626 104.088C173.103 104.088 172.579 104.077 172.053 104.056C162.951 103.684 154.313 100.018 147.731 93.7364C139.922 86.295 135.696 75.8484 136.138 65.0757C136.471 56.9411 139.353 49.3102 144.47 43.0074C152.009 33.7177 163.181 28.6739 175.123 29.1594C185.127 29.5693 194.372 33.8507 201.156 41.2138C207.94 48.5769 211.449 58.1417 211.039 68.1455C210.63 78.1467 206.348 87.3908 198.985 94.1737C192.008 100.6 183.056 104.089 173.627 104.089L173.626 104.088ZM173.54 32.0762C163.092 32.0762 153.397 36.6855 146.759 44.8657C142.045 50.672 139.391 57.7017 139.084 65.1959C138.677 75.1215 142.571 84.7455 149.766 91.6021C155.83 97.3893 163.788 100.766 172.174 101.11C181.391 101.489 190.202 98.2537 196.986 92.0047C203.769 85.7557 207.714 77.2394 208.091 68.0253C208.469 58.8094 205.235 49.997 198.985 43.2133C192.735 36.4296 184.218 32.4852 175.001 32.1081C174.513 32.0881 174.025 32.078 173.539 32.078L173.54 32.0762Z" fill="#0C1E0B"/>
<path d="M209.833 90.8337C213.033 84.7449 211.668 77.7272 206.783 75.1592C201.898 72.5912 195.343 75.4454 192.142 81.5341C188.941 87.6229 190.307 94.6406 195.192 97.2086C200.077 99.7766 206.632 96.9225 209.833 90.8337Z" fill="#EAF7E8"/>
<g opacity="0.3">
<path d="M209.842 90.8442C206.64 96.9329 200.086 99.7887 195.203 97.2162C192.737 95.9245 191.168 93.4978 190.631 90.6274C190.913 90.8214 191.206 91 191.514 91.1603C196.399 93.7319 202.951 90.8761 206.153 84.7883C207.738 81.7731 208.206 78.5247 207.677 75.7081C211.834 78.624 212.841 85.1408 209.842 90.8433V90.8442Z" fill="#0C1E0B"/>
</g>
<path d="M199.067 99.3832C197.53 99.3832 196.021 99.037 194.63 98.3056C189.153 95.4261 187.553 87.6495 191.065 80.9714C194.577 74.2924 201.889 71.2016 207.366 74.082C212.843 76.9615 214.442 84.7381 210.931 91.4162C208.312 96.3971 203.577 99.3832 199.067 99.3832ZM202.897 75.453C199.291 75.453 195.422 77.9671 193.241 82.1155C190.361 87.5939 191.497 93.8811 195.775 96.1302C200.053 98.3793 205.875 95.7504 208.755 90.2729C211.636 84.7946 210.5 78.5073 206.222 76.2582C205.184 75.7126 204.054 75.4539 202.897 75.4539V75.453Z" fill="#0C1E0B"/>
<path d="M201.916 97.4448C200.886 97.4448 199.882 97.2152 198.959 96.7297C195.115 94.7084 194.12 89.0086 196.741 84.024C197.986 81.6547 199.858 79.7845 202.012 78.7561C204.263 77.6821 206.555 77.6438 208.466 78.6486C210.377 79.6533 211.644 81.5627 212.035 84.0258C212.408 86.3824 211.929 88.9859 210.683 91.3543C208.691 95.142 205.175 97.4448 201.915 97.4448H201.916ZM205.479 79.892C204.64 79.892 203.751 80.1052 202.86 80.5315C201.086 81.3777 199.531 82.9436 198.482 84.9395C196.366 88.9649 196.99 93.4731 199.874 94.9898C202.758 96.5047 206.827 94.4642 208.943 90.4397C209.992 88.4439 210.4 86.2758 210.092 84.3346C209.801 82.5 208.898 81.099 207.55 80.3894C206.919 80.0578 206.218 79.892 205.479 79.892Z" fill="#0C1E0B"/>
<path d="M201.485 75.321C201.448 75.321 201.411 75.3192 201.373 75.3146C200.834 75.2536 200.446 74.7662 200.507 74.227C201.915 61.7809 198.349 50.56 190.467 42.6294C183.363 35.4831 173.477 32.0079 163.341 33.0919C162.801 33.1502 162.316 32.7594 162.259 32.2193C162.201 31.6791 162.591 31.1945 163.131 31.1371C173.863 29.9884 184.334 33.6713 191.861 41.2439C200.173 49.6053 203.937 61.3983 202.461 74.4483C202.404 74.9503 201.979 75.321 201.485 75.321Z" fill="#0C1E0B"/>
<path d="M167.612 103.101C167.069 103.101 166.629 102.661 166.629 102.118C166.629 101.575 167.068 101.134 167.612 101.134C184.402 101.123 190.21 91.952 190.268 91.8591C190.55 91.3973 191.155 91.2488 191.618 91.5312C192.08 91.8126 192.23 92.4139 191.95 92.8784C191.699 93.2956 185.584 103.089 167.614 103.101H167.612Z" fill="#0C1E0B"/>
<g opacity="0.5">
<path d="M178.998 48.0304C161.28 35.1798 142.947 47.6943 143.219 65.6788C143.231 66.4905 144.272 66.8111 144.752 66.1571C152.748 55.2659 163.246 48.5196 178.435 49.5516C179.278 49.609 179.683 48.5268 178.999 48.0304H178.998Z" fill="#EAF7E8"/>
</g>
<g opacity="0.5">
<path d="M189.692 74.5165C188.281 77.2001 185.37 78.4462 183.191 77.3003C181.011 76.1543 180.787 73.4188 182.198 70.7352C183.609 68.0516 186.121 66.4356 188.3 67.5815C190.48 68.7275 191.103 71.8319 189.692 74.5155V74.5165Z" fill="#EAF7E8"/>
</g>
<g opacity="0.5">
<path d="M178.617 86.3717C180.394 85.9139 181.492 84.2154 181.07 82.5779C180.648 80.9405 178.866 79.9843 177.089 80.4421C175.312 80.9 174.214 82.5985 174.636 84.2359C175.058 85.8734 176.84 86.8296 178.617 86.3717Z" fill="#EAF7E8"/>
</g>
<path d="M158.458 135.627C157.785 135.627 157.103 135.477 156.463 135.167L130.75 122.731C128.794 121.79 127.772 119.579 128.323 117.475C128.597 116.415 129.074 114.648 129.776 112.278C130.008 111.498 130.829 111.053 131.609 111.284C132.39 111.515 132.835 112.336 132.604 113.117C131.913 115.445 131.447 117.177 131.177 118.219C130.982 118.964 131.341 119.743 132.032 120.075L157.748 132.513C158.442 132.849 159.266 132.657 159.709 132.056C160.507 130.966 161.28 129.744 162.002 128.427C162.394 127.712 163.289 127.45 164.005 127.843C164.719 128.234 164.98 129.131 164.588 129.845C163.805 131.274 162.962 132.606 162.086 133.802C161.215 134.983 159.855 135.627 158.457 135.627H158.458Z" fill="#0C1E0B"/>
<path d="M167.204 121.546C167.048 121.546 166.888 121.521 166.732 121.468C165.96 121.206 165.546 120.369 165.807 119.599C166.268 118.235 166.696 116.825 167.078 115.406C167.276 114.658 166.909 113.874 166.204 113.55L139.734 101.298C138.961 100.943 138.054 101.159 137.535 101.825C136.592 103.03 135.904 104.425 135.897 104.439C135.538 105.17 134.656 105.473 133.923 105.114C133.192 104.755 132.89 103.871 133.248 103.141C133.282 103.073 134.082 101.452 135.211 100.01C136.573 98.2619 138.942 97.6889 140.969 98.6199L167.44 110.872C169.449 111.796 170.496 114.024 169.928 116.167C169.528 117.651 169.083 119.121 168.602 120.543C168.393 121.158 167.82 121.546 167.205 121.546H167.204Z" fill="#0C1E0B"/>
<path d="M152.506 132.364C151.685 132.364 150.856 132.184 150.076 131.808C149.465 131.513 149.209 130.778 149.505 130.166C149.8 129.555 150.535 129.299 151.147 129.595C152.635 130.316 154.45 129.754 155.28 128.318C158.158 123.344 160.841 116.362 162.184 112.644C162.401 112.045 162.127 111.391 161.548 111.123C160.932 110.838 160.663 110.108 160.948 109.492C161.233 108.876 161.964 108.607 162.58 108.892C164.325 109.7 165.149 111.672 164.496 113.479C163.125 117.274 160.381 124.408 157.408 129.548C156.372 131.341 154.465 132.364 152.506 132.364Z" fill="#0C1E0B"/>
<path d="M141.697 127.619C141.538 127.619 141.376 127.588 141.22 127.522C140.594 127.258 140.302 126.537 140.566 125.911L143.625 118.67L140.68 114.306C140.452 113.968 140.406 113.54 140.557 113.162L144.955 102.162C145.207 101.532 145.921 101.225 146.553 101.477C147.183 101.73 147.489 102.445 147.238 103.075L143.081 113.47L146.035 117.846C146.268 118.19 146.31 118.629 146.149 119.012L142.831 126.867C142.633 127.336 142.177 127.618 141.699 127.618L141.697 127.619Z" fill="#0C1E0B"/>
<path d="M152.658 122.119C152.414 122.119 152.17 122.096 151.926 122.05C150.731 121.823 149.722 121.064 149.085 119.913C148.482 118.822 148.287 117.498 148.537 116.184C148.786 114.871 149.452 113.71 150.413 112.916C151.428 112.078 152.645 111.742 153.84 111.969C155.035 112.195 156.045 112.955 156.681 114.107C157.284 115.198 157.479 116.521 157.23 117.835C156.98 119.149 156.314 120.309 155.353 121.103C154.546 121.77 153.61 122.119 152.658 122.119ZM153.119 113.867C152.619 113.867 152.114 114.062 151.666 114.432C151.057 114.935 150.632 115.687 150.468 116.551C150.304 117.414 150.424 118.27 150.806 118.961C151.154 119.591 151.682 120.002 152.292 120.118C152.903 120.233 153.545 120.045 154.1 119.586C154.708 119.083 155.134 118.331 155.298 117.467C155.462 116.603 155.341 115.747 154.96 115.057C154.611 114.426 154.083 114.015 153.473 113.9C153.355 113.878 153.237 113.866 153.119 113.866V113.867Z" fill="#0C1E0B"/>
<path d="M176.485 134.415C169.512 134.415 163.1 130.769 162.749 130.565C162.705 130.539 162.663 130.512 162.622 130.483C159.888 128.504 159.966 124.975 161.258 122.354C162.672 119.483 165.292 117.963 167.626 118.659C167.697 118.68 167.766 118.706 167.834 118.738C175.772 122.475 184.373 121.045 184.458 121.03C185.105 120.919 185.749 121.246 186.037 121.835L187.901 125.65C188.259 126.382 187.955 127.265 187.223 127.622C186.491 127.98 185.608 127.676 185.251 126.944L183.853 124.085C181.112 124.385 173.795 124.76 166.7 121.463C165.689 121.244 164.517 122.412 163.903 123.658C163.355 124.768 162.833 126.926 164.29 128.049C165.178 128.539 174.734 133.643 181.958 130.373C182.7 130.037 183.574 130.367 183.909 131.108C184.245 131.85 183.915 132.724 183.174 133.06C181.007 134.041 178.716 134.414 176.484 134.414L176.485 134.415Z" fill="#0C1E0B"/>
<path d="M183.355 123.058L182.439 117.121L186.07 121.906C186.579 122.576 186.448 123.529 185.778 124.038C184.897 124.744 183.499 124.166 183.355 123.058V123.058Z" fill="#0C1E0B"/>
<path d="M187.541 128.932C187.448 128.932 187.354 128.922 187.26 128.899C186.599 128.745 186.189 128.084 186.343 127.423C187.234 123.611 190.901 119.99 195.261 118.617C199.748 117.204 204.256 118.251 207.956 121.568C208.461 122.021 208.503 122.798 208.05 123.303C207.597 123.808 206.821 123.852 206.315 123.398C203.288 120.685 199.624 119.818 196 120.961C192.484 122.069 189.429 125.022 188.737 127.983C188.605 128.55 188.099 128.932 187.542 128.932H187.541Z" fill="#0C1E0B"/>
<path d="M121.864 91.4526C121.204 91.4526 120.658 90.9279 120.636 90.2629C120.615 89.5842 121.147 89.0167 121.825 88.9949C135.269 88.5622 135.644 78.1438 135.653 77.7002C135.668 77.0215 136.212 76.4868 136.908 76.4978C137.586 76.5123 138.125 77.0744 138.11 77.7521C138.107 77.8842 137.649 90.9442 121.904 91.4507C121.89 91.4507 121.876 91.4507 121.863 91.4507L121.864 91.4526Z" fill="#0C1E0B"/>
<path d="M128.537 139.017C112.934 139.017 111.989 124.399 111.981 124.249C111.946 123.571 112.467 122.993 113.144 122.958C113.816 122.925 114.399 123.443 114.435 124.119C114.465 124.649 115.333 137.1 129.464 136.541C130.136 136.514 130.714 137.042 130.74 137.721C130.766 138.399 130.239 138.971 129.56 138.997C129.212 139.011 128.87 139.017 128.536 139.017H128.537Z" fill="#0C1E0B"/>
<path d="M110.595 137.264L111.895 140.964L108.648 138.765C108.056 138.364 107.901 137.56 108.302 136.967C108.857 136.089 110.285 136.287 110.595 137.264V137.264Z" fill="#0C1E0B"/>
<path d="M138.922 159.372L141.698 162.347L137.715 161.512C137.018 161.367 136.571 160.683 136.717 159.987C136.896 158.981 138.257 158.614 138.922 159.372Z" fill="#0C1E0B"/>
<path d="M136.141 137.387L134.573 130.986L138.776 136.061L136.141 137.387Z" fill="#0C1E0B"/>
<path d="M140.102 138.183L144.462 138.014L141.205 140.918L140.102 138.183Z" fill="#0C1E0B"/>
<path d="M150.28 157.299C138.089 157.299 134.896 148.852 134.859 148.752C134.63 148.114 134.962 147.409 135.601 147.18C136.237 146.951 136.939 147.28 137.17 147.915C137.318 148.311 140.902 157.423 156.509 154.14C157.172 154.003 157.825 154.425 157.965 155.09C158.104 155.754 157.68 156.406 157.015 156.546C154.513 157.073 152.275 157.299 150.28 157.299L150.28 157.299Z" fill="#0C1E0B"/>
<path d="M138.759 98.7356C140.636 97.5304 142.522 96.3845 144.464 95.3068C143.203 97.0932 142.005 98.9424 140.868 100.797L138.759 98.7356Z" fill="#0C1E0B"/>
<g opacity="0.3">
<path d="M114.744 77.7267C114.744 77.7267 130.386 99.0963 143.897 95.8188L140.75 98.824C140.75 98.824 136.07 98.9734 134.572 102.619L132.511 101.88L120.867 87.6887L116.253 81.4516" fill="#0C1E0B"/>
</g>
<g opacity="0.3">
<path d="M136.599 135.762C136.599 135.762 135.822 136.701 135.656 136.726C135.641 136.726 135.617 136.829 135.582 137.021C133.832 137.286 131.237 137.655 129.516 137.768C127.987 140.998 126.95 144.218 126.694 147.423C126.581 148.844 125.789 150.122 124.55 150.83C121.974 152.305 117.197 154.797 111.224 156.818C107.433 158.096 104.474 157.702 102.306 156.493C101.529 155.373 101.205 154.409 101.205 154.409C101.205 154.409 104.386 154.395 111.897 152.438C119.408 150.481 119.517 143.299 122.834 134.942C126.153 126.586 133.649 128.674 133.649 128.674L136.166 134.151L136.599 135.763L136.599 135.762Z" fill="#0C1E0B"/>
</g>
<g opacity="0.3">
<path d="M203.782 147.929C197.882 150.387 193.62 144.813 191.325 136.947C189.034 129.082 186.576 126.299 186.576 126.299C186.576 126.299 187.23 130.149 182.314 131.81C182.314 131.81 180.264 140.064 172.482 145.634C164.7 151.203 159.332 150.795 157.612 152.846C155.891 154.891 156.875 163.636 155.031 167.569C153.187 171.502 150.42 174.451 145.568 177.957C141.439 180.941 135.53 180.046 132.04 177.44C132.664 176.85 142.005 174.392 145.691 166.404C149.378 158.416 147.166 149.567 152.696 147.356C158.227 145.144 166.569 141.579 168.604 135.926C168.604 135.926 169.228 132.913 166.524 131.811C163.821 130.7 163.142 129.412 163.142 129.412C163.142 129.412 161.175 133.812 160.93 134.151C160.684 134.49 157.489 138.26 152.411 135.886C147.328 133.507 135.024 128.576 132.703 122.038C132.703 122.038 149.79 126.949 161.136 109.581L168.603 112.697L168.244 116.724L166.091 120.071C166.091 120.071 163.633 127.445 170.677 128.92C177.727 130.395 179.693 123.424 179.693 123.424L181.576 112.698C181.576 112.698 189.033 115.884 190.095 122.485C191.161 129.082 194.027 131.786 195.915 137.439C197.748 142.95 210.126 142.704 209.601 133.659C210.24 141.515 207.752 146.272 203.78 147.929H203.782Z" fill="#0C1E0B"/>
</g>
<g opacity="0.3">
<path d="M159.278 99.6566C159.278 99.6566 174.242 113.434 192.659 102.62L190.182 99.6566C190.182 99.6566 175.936 107.017 159.278 99.6566Z" fill="#0C1E0B"/>
</g>
<g opacity="0.3">
<path d="M217.396 172.012C214.028 171.634 212.696 175.522 212.268 175.267C212.278 173.256 211.796 171.137 210.832 169.058C208.237 163.449 204.825 163.075 196.591 162.18C196.148 162.131 195.696 162.082 195.234 162.028C197.442 160.042 195.328 157.609 195.328 157.609L196.301 156.709C196.601 156.738 196.891 156.773 197.181 156.802C205.7 157.731 211.86 158.404 215.739 166.781C216.54 168.506 217.09 170.266 217.396 172.012Z" fill="#0C1E0B"/>
</g>
</g>
<defs>
<filter id="filter0_f_554_4562" x="154" y="222" width="26" height="20" filterUnits="userSpaceOnUse" color-interpolation-filters="sRGB">
<feFlood flood-opacity="0" result="BackgroundImageFix"/>
<feBlend mode="normal" in="SourceGraphic" in2="BackgroundImageFix" result="shape"/>
<feGaussianBlur stdDeviation="4.5" result="effect1_foregroundBlur_554_4562"/>
</filter>
<clipPath id="clip0_554_4562">
<rect width="247" height="220" fill="white" transform="translate(34 29)"/>
</clipPath>
</defs>
</svg>
