<svg width="315" height="278" viewBox="0 0 315 278" fill="none" xmlns="http://www.w3.org/2000/svg">
<g filter="url(#filter0_f_554_4701)">
<path fill-rule="evenodd" clip-rule="evenodd" d="M157.167 225C188.924 225 214.667 227.239 214.667 230C214.667 232.761 188.924 235 157.167 235C125.411 235 99.6675 232.761 99.6675 230C99.6675 227.239 125.411 225 157.167 225Z" fill="#D9E6DE"/>
</g>
<path d="M169.812 227.257H146.086C144.217 227.257 142.484 226.102 141.51 224.206L139.088 219.495H176.809L174.388 224.206C173.413 226.101 171.68 227.257 169.812 227.257Z" fill="#43613F"/>
<path d="M176.809 219.494L174.387 224.206C173.415 226.102 171.681 227.257 169.811 227.257H146.087C144.479 227.257 142.967 226.4 141.961 224.95C150.137 224.99 166.622 224.973 167.558 224.259C167.571 224.249 167.583 224.24 167.595 224.23C168.704 223.348 168.034 221.549 166.617 221.549H140.144L139.089 219.494H176.809Z" fill="#5C8257"/>
<path d="M176.478 204.817H139.419C138.323 204.817 137.434 203.928 137.434 202.832V199.463C137.434 198.367 138.323 197.478 139.419 197.478H176.478C177.575 197.478 178.463 198.367 178.463 199.463V202.832C178.463 203.928 177.575 204.817 176.478 204.817Z" fill="#43613F"/>
<path d="M176.478 212.156H139.419C138.323 212.156 137.434 211.268 137.434 210.171V206.803C137.434 205.706 138.323 204.817 139.419 204.817H176.478C177.575 204.817 178.463 205.706 178.463 206.803V210.171C178.463 211.267 177.575 212.156 176.478 212.156Z" fill="#43613F"/>
<path d="M176.478 219.495H139.419C138.323 219.495 137.434 218.607 137.434 217.51V214.142C137.434 213.045 138.323 212.156 139.419 212.156H176.478C177.575 212.156 178.463 213.045 178.463 214.142V217.51C178.463 218.607 177.575 219.495 176.478 219.495Z" fill="#43613F"/>
<path d="M178.464 199.462V202.831C178.464 203.929 177.574 204.816 176.479 204.816H146.038C158.201 204.816 173.021 204.68 169.861 197.477H176.479C177.574 197.477 178.464 198.367 178.464 199.462Z" fill="#5C8257"/>
<path d="M178.464 206.802V210.171C178.464 211.269 177.574 212.156 176.479 212.156H146.038C158.201 212.156 173.021 212.02 169.861 204.817H176.479C177.574 204.817 178.464 205.707 178.464 206.802Z" fill="#5C8257"/>
<path d="M178.464 214.143V217.511C178.464 218.61 177.574 219.496 176.479 219.496H146.038C158.201 219.496 173.021 219.361 169.861 212.157H176.479C177.574 212.157 178.464 213.047 178.464 214.143Z" fill="#5C8257"/>
<path d="M202.947 126.673C203.02 136.906 199.677 146.354 193.991 153.949C187.029 163.247 183.096 174.462 183.096 186.079V187.552C183.096 193.034 178.652 197.478 173.169 197.478H142.728C137.246 197.478 132.802 193.034 132.802 187.552V186.573C132.802 174.736 128.839 163.294 121.787 153.788C116.233 146.303 112.949 137.035 112.949 127C112.949 102.038 133.274 81.8222 158.278 82.0012C182.773 82.1765 202.773 102.178 202.947 126.673Z" fill="#43A53A"/>
<path d="M202.946 126.672C203.019 136.906 199.677 146.356 193.992 153.95C187.027 163.247 183.096 174.461 183.096 186.078V187.551C183.096 193.033 178.653 197.477 173.17 197.477H142.729C137.246 197.477 132.802 193.033 132.802 187.551V186.571C132.802 178.7 131.049 171.003 127.799 163.936C127.799 163.936 134.642 169.177 138.92 176.228C142.633 182.343 149.274 186.072 156.427 186.072C161.07 186.072 165.427 184.513 168.918 181.833C172.409 179.153 175.039 175.348 176.227 170.861C178.332 162.91 181.631 153.162 186.541 145.026C196.802 128.022 184.781 73.287 130.982 90.976C138.579 85.2782 148.036 81.9297 158.277 82.0024C182.772 82.1778 202.774 102.18 202.946 126.672Z" fill="#3D9635"/>
<path d="M162.304 234.741H153.594C151.435 234.741 149.424 233.447 148.251 231.304L146.037 227.258H169.861L167.647 231.304C166.474 233.447 164.463 234.741 162.304 234.741Z" fill="#43613F"/>
<path d="M202.947 126.673C203.02 136.906 199.677 146.354 193.991 153.949C187.029 163.247 183.096 174.462 183.096 186.079V187.552C183.096 193.034 178.652 197.478 173.169 197.478H142.728C137.246 197.478 132.802 193.034 132.802 187.552V186.573C132.802 174.736 128.839 163.294 121.787 153.788C116.233 146.303 112.949 137.035 112.949 127C112.949 102.038 133.274 81.8222 158.278 82.0012C182.773 82.1765 202.773 102.178 202.947 126.673Z" stroke="#0C1E0B" stroke-width="3" stroke-miterlimit="10" stroke-linecap="round" stroke-linejoin="round"/>
<path d="M176.478 204.817H139.419C138.323 204.817 137.434 203.928 137.434 202.832V199.463C137.434 198.367 138.323 197.478 139.419 197.478H176.478C177.575 197.478 178.463 198.367 178.463 199.463V202.832C178.463 203.928 177.575 204.817 176.478 204.817Z" stroke="#0C1E0B" stroke-width="3" stroke-miterlimit="10" stroke-linecap="round" stroke-linejoin="round"/>
<path d="M176.478 212.156H139.419C138.323 212.156 137.434 211.268 137.434 210.171V206.803C137.434 205.706 138.323 204.817 139.419 204.817H176.478C177.575 204.817 178.463 205.706 178.463 206.803V210.171C178.463 211.267 177.575 212.156 176.478 212.156Z" stroke="#0C1E0B" stroke-width="3" stroke-miterlimit="10" stroke-linecap="round" stroke-linejoin="round"/>
<path d="M176.478 219.495H139.419C138.323 219.495 137.434 218.607 137.434 217.51V214.142C137.434 213.045 138.323 212.156 139.419 212.156H176.478C177.575 212.156 178.463 213.045 178.463 214.142V217.51C178.463 218.607 177.575 219.495 176.478 219.495Z" stroke="#0C1E0B" stroke-width="3" stroke-miterlimit="10" stroke-linecap="round" stroke-linejoin="round"/>
<path d="M169.812 227.257H146.086C144.217 227.257 142.484 226.102 141.51 224.206L139.088 219.495H176.809L174.388 224.206C173.413 226.101 171.68 227.257 169.812 227.257Z" stroke="#0C1E0B" stroke-width="3" stroke-miterlimit="10" stroke-linecap="round" stroke-linejoin="round"/>
<path d="M162.304 234.741H153.594C151.435 234.741 149.424 233.447 148.251 231.304L146.037 227.258H169.861L167.647 231.304C166.474 233.447 164.463 234.741 162.304 234.741Z" stroke="#0C1E0B" stroke-width="3" stroke-miterlimit="10" stroke-linecap="round" stroke-linejoin="round"/>
<path opacity="0.96" d="M139.142 118.275C132.643 129.565 131.36 141.014 123.898 136.719C116.433 132.424 115.653 119.788 122.151 108.495C128.65 97.2049 139.966 91.5335 147.431 95.8284C154.892 100.123 145.64 106.982 139.142 118.275Z" fill="#D5EDB7"/>
<path d="M140.937 202.973C140.269 202.973 139.728 202.432 139.728 201.764V200.651C139.728 199.983 140.269 199.442 140.937 199.442C141.605 199.442 142.147 199.983 142.147 200.651V201.764C142.147 202.432 141.605 202.973 140.937 202.973Z" fill="#5C8257"/>
<path d="M140.937 210.252C140.269 210.252 139.728 209.711 139.728 209.043V207.93C139.728 207.262 140.269 206.721 140.937 206.721C141.605 206.721 142.147 207.262 142.147 207.93V209.043C142.147 209.711 141.605 210.252 140.937 210.252Z" fill="#5C8257"/>
<path d="M140.937 217.531C140.269 217.531 139.728 216.99 139.728 216.322V215.209C139.728 214.541 140.269 214 140.937 214C141.605 214 142.147 214.541 142.147 215.209V216.322C142.147 216.99 141.605 217.531 140.937 217.531Z" fill="#5C8257"/>
<path d="M108.374 58.2722C108.781 58.2722 109.188 58.1168 109.499 57.806C110.121 57.1845 110.121 56.1764 109.499 55.5549L100.456 46.5122C99.8346 45.8906 98.8272 45.8906 98.2053 46.5122C97.5838 47.1337 97.5838 48.1418 98.2053 48.7633L107.248 57.806C107.559 58.1164 107.966 58.2722 108.374 58.2722Z" fill="#3D9635" stroke="#0C1E0B"/>
<path d="M99.3311 58.2722C99.7384 58.2722 100.146 58.1168 100.456 57.806L109.499 48.7633C110.121 48.1418 110.121 47.1337 109.499 46.5122C108.878 45.8906 107.87 45.8906 107.248 46.5122L98.2053 55.5549C97.5838 56.1764 97.5838 57.1845 98.2053 57.806C98.5164 58.1164 98.9238 58.2722 99.3311 58.2722Z" fill="#3D9635" stroke="#0C1E0B"/>
<path d="M74.17 71.8976C77.9399 71.8976 81.0068 68.8307 81.0068 65.0608C81.0068 61.2909 77.9399 58.224 74.17 58.224C70.4001 58.224 67.3332 61.2909 67.3332 65.0608C67.3332 68.8307 70.4001 71.8976 74.17 71.8976ZM74.17 61.4078C76.1843 61.4078 77.8234 63.0465 77.8234 65.0608C77.8234 67.0751 76.1843 68.7138 74.17 68.7138C72.1557 68.7138 70.5166 67.0751 70.5166 65.0608C70.5166 63.0465 72.1557 61.4078 74.17 61.4078Z" fill="#3D9635" stroke="#0C1E0B"/>
<path d="M233.967 58.4169L242.532 49.852C242.934 49.4499 243.092 48.8639 242.944 48.3144C242.797 47.7653 242.368 47.3361 241.819 47.189L230.119 44.0542C229.57 43.9071 228.983 44.064 228.581 44.466C228.179 44.868 228.022 45.4541 228.169 46.0036L231.304 57.7033C231.452 58.2528 231.881 58.6816 232.43 58.8287C232.979 58.9762 233.565 58.8189 233.967 58.4169ZM238.332 49.5506L233.666 54.2163L231.958 47.8429L238.332 49.5506Z" fill="#3D9635" stroke="#0C1E0B"/>
<path d="M86.4296 193.421L77.8648 201.986C77.4627 202.388 77.3055 202.974 77.4529 203.523C77.6 204.072 78.0292 204.502 78.5783 204.649L90.2784 207.783C90.8275 207.93 91.4139 207.774 91.816 207.372C92.218 206.97 92.3753 206.383 92.2278 205.834L89.0927 194.134C88.9452 193.585 88.5164 193.156 87.9673 193.009C87.4178 192.861 86.8317 193.019 86.4296 193.421ZM82.0654 202.287L86.731 197.621L88.4391 203.995L82.0654 202.287Z" fill="#3D9635" stroke="#0C1E0B"/>
<path d="M79.3904 90.5061C79.3904 91.3992 80.1142 92.123 81.0072 92.123C81.9003 92.123 82.624 91.3992 82.624 90.5061C82.624 89.6131 81.9003 88.8893 81.0072 88.8893C80.1142 88.8893 79.3904 89.6131 79.3904 90.5061Z" fill="#3D9635" stroke="#0C1E0B"/>
<path d="M219.939 200.777C219.532 200.777 219.124 200.933 218.814 201.244C218.192 201.865 218.192 202.873 218.814 203.495L227.856 212.537C228.478 213.159 229.486 213.159 230.108 212.537C230.729 211.916 230.729 210.908 230.108 210.286L221.065 201.244C220.754 200.933 220.346 200.777 219.939 200.777Z" fill="#3D9635" stroke="#0C1E0B"/>
<path d="M228.982 200.777C228.575 200.777 228.167 200.933 227.856 201.244L218.814 210.286C218.192 210.908 218.192 211.916 218.814 212.537C219.435 213.159 220.443 213.159 221.065 212.537L230.108 203.495C230.729 202.873 230.729 201.865 230.108 201.244C229.796 200.933 229.389 200.777 228.982 200.777Z" fill="#3D9635" stroke="#0C1E0B"/>
<path d="M248.294 182.065C248.294 181.172 247.57 180.448 246.678 180.448C245.785 180.448 245.061 181.172 245.061 182.065C245.061 182.958 245.785 183.682 246.678 183.682C247.571 183.682 248.294 182.958 248.294 182.065Z" fill="#3D9635" stroke="#0C1E0B"/>
<path d="M181.903 61.7809C182.406 61.825 182.863 61.8852 183.326 62.1025C183.906 62.3753 184.359 62.7683 184.533 63.4092C185.113 65.5492 181.871 71.6004 180.78 73.6C180.626 73.884 180.486 73.8382 180.189 73.9249C179.025 73.361 177.86 72.834 176.662 72.3471C177.668 69.9985 179.584 64.1471 180.957 62.4627C181.201 62.1635 181.568 61.963 181.903 61.7809Z" fill="#3D9635" stroke="#0C1E0B"/>
<path d="M213.706 123.881C216.455 123.826 221.556 123.237 224.051 124.283C224.687 124.55 225.022 124.844 225.294 125.496C225.326 126.511 224.771 127.343 224.104 128.062C220.667 128.647 216.296 128.237 212.766 128.222C212.727 127.123 212.44 125.19 212.959 124.193C213.104 123.915 213.425 123.946 213.706 123.881Z" fill="#3D9635" stroke="#0C1E0B"/>
<path d="M202.563 76.093C203.369 76.0601 204.032 76.1604 204.754 76.5414C205.178 76.7652 205.52 77.1013 205.614 77.5913C206.097 80.1052 200.27 84.8673 198.67 86.8525L198.5 87.0651C197.358 86.4771 196.065 84.7686 195.186 83.8117C197.434 81.3147 199.894 78.1095 202.563 76.093Z" fill="#3D9635" stroke="#0C1E0B"/>
<path d="M209.502 146.434C211.729 147.468 218.822 149.532 219.778 151.503C220.018 151.995 220.053 152.34 219.854 152.854C219.561 153.614 218.669 154.2 217.969 154.532C214.515 154.149 210.63 151.723 207.528 150.211C208.125 148.894 208.608 147.589 209.502 146.434Z" fill="#3D9635" stroke="#0C1E0B"/>
<path d="M131.501 61.6646C132.028 61.6389 132.798 61.5395 133.293 61.7296C134.883 62.3424 137.655 70.8897 138.237 72.8332L136.734 73.673C136.024 73.9762 135.283 74.2201 134.557 74.4824C133.575 72.0263 130.141 65.5332 130.399 63.2624C130.488 62.4803 130.935 62.1266 131.501 61.6646Z" fill="#3D9635" stroke="#0C1E0B"/>
<path d="M218.197 97.9402C218.529 97.9698 218.435 97.9458 218.805 98.0597C219.515 98.2786 220.173 98.9829 220.413 99.6807C220.586 100.18 220.527 100.568 220.294 101.035C219.331 102.958 212.147 105.031 209.975 105.77C209.691 105.869 209.689 105.952 209.465 105.824C208.589 105.319 207.952 103.138 207.587 102.227C210.968 100.63 214.648 99.1128 218.197 97.9402Z" fill="#3D9635" stroke="#0C1E0B"/>
<path d="M111.787 76.2501C114.366 76.8806 118.832 82.3406 121.005 84.3154C120.155 85.1367 119.296 85.9482 118.427 86.7498C118.274 86.9262 118.363 86.8444 118.105 87.0081C117.887 87.146 117.935 87.1773 117.703 87.0979C116.471 86.676 110.216 80.3393 109.782 79.1562C109.631 78.7439 109.618 78.3524 109.78 77.941C110.149 77.0065 110.9 76.5982 111.787 76.2501Z" fill="#3D9635" stroke="#0C1E0B"/>
<path d="M91.1083 124.094C94.6759 123.927 98.2735 124.023 101.845 124.029C101.836 125.33 102.283 127.014 101.553 128.141C100.942 128.588 100.118 128.474 99.3916 128.469C96.9764 128.635 93.6971 129.14 91.3678 128.493C90.5263 128.259 89.603 127.764 89.1759 126.966C88.9468 126.54 88.8484 125.997 89.0846 125.547C89.4893 124.778 90.3104 124.319 91.1083 124.094Z" fill="#3D9635" stroke="#0C1E0B"/>
<path d="M96.1925 97.7115C98.6806 97.8992 104.852 100.724 107.473 101.749C106.793 103.101 106.276 104.584 105.698 105.985C103.707 105.466 96.1208 102.654 94.936 101.046C94.5739 100.554 94.4117 100.022 94.5883 99.4144C94.8443 98.5329 95.4404 98.1535 96.1925 97.7115Z" fill="#3D9635" stroke="#0C1E0B"/>
<path d="M105.431 146.061C105.677 146.048 105.573 146.028 105.821 146.128C106.523 146.41 107.47 149.244 107.772 149.974C104.411 151.456 101.072 153.647 97.4856 154.474C97.3462 154.439 97.2065 154.405 97.0688 154.364C96.3777 154.159 95.8463 153.796 95.5225 153.136C95.2434 152.566 95.1798 151.948 95.4325 151.354C96.3187 149.27 103.209 147.009 105.431 146.061Z" fill="#3D9635" stroke="#0C1E0B"/>
<path d="M157.626 56C158.511 56.004 159.319 56.0955 159.955 56.7853C160.75 57.65 160.473 67.1518 160.367 68.8394C159.923 69.1338 159.396 69.04 158.869 69.0536L155.85 69.1034C155.878 66.7227 155.324 59.0456 155.996 57.2714C156.227 56.661 157.078 56.3056 157.626 56Z" fill="#3D9635" stroke="#0C1E0B"/>
<g style="mix-blend-mode:multiply" opacity="0.21">
<path d="M154.786 82.1294C155.924 82.0419 157.064 81.9987 158.205 82C159.347 82.0005 160.486 82.0452 161.624 82.1339C162.762 82.2232 163.895 82.356 165.023 82.5322C166.151 82.709 167.27 82.929 168.381 83.192C169.492 83.4551 170.592 83.7608 171.679 84.109C172.767 84.4565 173.84 84.8461 174.898 85.2775C175.956 85.7083 176.995 86.1796 178.017 86.6913C179.039 87.2024 180.04 87.7525 181.02 88.3414C191.652 94.7525 198.837 105.03 201.762 117.108C202.108 118.52 202.381 119.947 202.583 121.387C202.784 122.828 202.913 124.276 202.968 125.729C203.023 127.183 203.005 128.636 202.913 130.088C202.821 131.539 202.657 132.983 202.419 134.418C199.668 151.918 188.833 158.713 181.93 173.101C180.747 175.567 179.837 178.372 179.257 181.045C178.632 183.926 178.609 187.489 177.06 190.061C174.179 191.466 167.972 190.876 164.605 190.882C164.344 175.748 169.729 159.357 175.473 145.503C176.677 142.601 178.589 139.977 179.708 137.071C180.026 136.243 180.23 135.209 179.738 134.401C179.414 133.867 178.827 133.616 178.229 133.566C177.206 133.482 176.255 133.88 175.509 134.573C174.084 135.896 172.157 141.028 171.342 142.987C165.346 157.414 159.973 172.653 159.62 188.444L159.552 190.829L156.763 190.821C156.573 179.95 154.297 167.981 150.757 157.712C149.342 153.606 147.587 149.528 145.882 145.538C144.576 142.485 143.332 138.979 141.528 136.189C140.945 135.289 140.389 134.401 139.242 134.263C138.516 134.176 137.58 134.435 137.084 135.003C135.809 136.461 137.675 139.127 138.375 140.597C145.881 156.359 151.428 173.206 151.828 190.825C148.604 190.778 142.729 191.304 139.853 189.899C138.153 187.629 137.703 182.351 136.82 179.451C136.086 177.065 135.196 174.74 134.148 172.476C131.907 167.647 128.792 163.472 125.623 159.248C119.109 150.565 113.95 141.853 113.135 130.699C112.2 117.926 116.113 106.643 124.419 96.9973C132.144 88.0264 143.081 82.9522 154.786 82.1294Z" fill="#43A53A"/>
</g>
<path d="M179.773 135.925C180.284 134.946 179.904 133.738 178.925 133.227C177.945 132.716 176.737 133.096 176.226 134.075L179.773 135.925ZM162 190.5L160 190.544L162 190.5ZM176.226 134.075C173.173 139.927 169.03 149.405 165.697 159.696C162.374 169.954 159.793 181.208 160 190.544L163.999 190.456C163.807 181.792 166.225 171.046 169.502 160.929C172.769 150.845 176.826 141.573 179.773 135.925L176.226 134.075ZM160 190.544C160.052 192.858 160.093 194.842 160.125 196.538L164.124 196.462C164.092 194.761 164.051 192.772 163.999 190.456L160 190.544Z" fill="black"/>
<path d="M136.226 135.925C135.715 134.946 136.095 133.738 137.074 133.227C138.054 132.716 139.262 133.096 139.773 134.075L136.226 135.925ZM153.999 190.5L155.999 190.544L153.999 190.5ZM139.773 134.075C142.826 139.927 146.969 149.405 150.302 159.696C153.625 169.954 156.206 181.208 155.999 190.544L152 190.456C152.192 181.792 149.774 171.046 146.497 160.929C143.23 150.845 139.173 141.573 136.226 135.925L139.773 134.075ZM155.999 190.544C155.947 192.858 155.906 194.842 155.874 196.538L151.875 196.462C151.907 194.761 151.948 192.772 152 190.456L155.999 190.544Z" fill="black"/>
<defs>
<filter id="filter0_f_554_4701" x="89.6675" y="215" width="135" height="30" filterUnits="userSpaceOnUse" color-interpolation-filters="sRGB">
<feFlood flood-opacity="0" result="BackgroundImageFix"/>
<feBlend mode="normal" in="SourceGraphic" in2="BackgroundImageFix" result="shape"/>
<feGaussianBlur stdDeviation="5" result="effect1_foregroundBlur_554_4701"/>
</filter>
</defs>
</svg>
