<svg width="315" height="278" viewBox="0 0 315 278" fill="none" xmlns="http://www.w3.org/2000/svg">
<path fill-rule="evenodd" clip-rule="evenodd" d="M111.544 200.579H93.3716L83.936 217.703H93.3716L111.544 200.579Z" fill="#193C15"/>
<path d="M231.096 217.203L213.985 201.079H230.602L239.486 217.203H231.096Z" fill="#193C15" stroke="#193C15"/>
<path fill-rule="evenodd" clip-rule="evenodd" d="M120.266 79.418C121.446 79.8835 122.792 79.2988 123.257 78.1186L131.123 58.1781C131.588 56.9979 131.004 55.6519 129.824 55.1864H129.824C128.644 54.7209 127.297 55.3053 126.832 56.4855L118.966 76.4266C118.501 77.6062 119.085 78.9525 120.266 79.418Z" fill="black"/>
<path fill-rule="evenodd" clip-rule="evenodd" d="M135.71 40.264H135.71C136.89 40.7295 137.475 42.0755 137.009 43.2554L133.342 52.5522C132.877 53.7325 131.531 54.3169 130.35 53.8514C129.17 53.3862 128.586 52.0399 129.051 50.8596L132.718 41.5631C133.184 40.3829 134.53 39.7984 135.71 40.264Z" fill="black"/>
<path fill-rule="evenodd" clip-rule="evenodd" d="M138.77 32.266C140.723 33.0364 141.682 35.2436 140.911 37.1967C140.141 39.1493 137.934 40.1079 135.981 39.3378C134.028 38.5677 133.07 36.36 133.84 34.4071C134.61 32.4545 136.817 31.496 138.77 32.266Z" fill="black"/>
<path fill-rule="evenodd" clip-rule="evenodd" d="M117.319 84.6184C118.325 83.8452 118.515 82.3899 117.742 81.3845L109.671 70.8839C108.898 69.8782 107.442 69.6881 106.437 70.461H106.437C105.431 71.2342 105.241 72.6894 106.014 73.6948L114.085 84.1954C114.858 85.2011 116.313 85.3916 117.319 84.6184Z" fill="black"/>
<path fill-rule="evenodd" clip-rule="evenodd" d="M91.6683 51.2477C92.674 50.4745 94.1295 50.6649 94.9024 51.6709L102.911 62.0892C103.684 63.0951 103.493 64.5501 102.488 65.3236H102.487C101.482 66.0965 100.026 65.9063 99.2535 64.9004L91.2454 54.4818C90.4722 53.4759 90.6626 52.0209 91.6683 51.2477Z" fill="black"/>
<path fill-rule="evenodd" clip-rule="evenodd" d="M86.3797 44.5126C88.0442 43.2333 90.4302 43.5455 91.7095 45.2097C92.9888 46.8742 92.6765 49.2602 91.0123 50.5395C89.3479 51.8188 86.9619 51.5068 85.6826 49.8424C84.4033 48.1779 84.7155 45.7919 86.3797 44.5126Z" fill="black"/>
<path fill-rule="evenodd" clip-rule="evenodd" d="M102.935 66.0491C104.001 65.2291 105.531 65.4292 106.351 66.4959C107.171 67.5628 106.971 69.0919 105.904 69.9122C104.837 70.7323 103.307 70.5321 102.488 69.4652C101.668 68.3985 101.868 66.8688 102.935 66.0491Z" fill="black"/>
<path fill-rule="evenodd" clip-rule="evenodd" d="M88.6525 87.3725L189.806 87.3543C191.754 87.3189 191.644 91.6398 189.806 91.88L200.176 91.8984C198.43 91.8788 198.007 87.337 200.176 87.3728H231.571C239.622 87.3728 246.209 93.96 246.209 102.011V188.057C246.209 196.108 239.622 202.695 231.571 202.695H88.6525C80.6015 202.695 74.0145 196.108 74.0145 188.057C74.0145 174.521 74.0145 160.987 74.0145 147.452C73.8493 145.131 77.6296 145.074 77.9376 147.452V135.057C77.8331 137.094 74.0222 137.813 74.0145 135.057V102.01C74.0145 93.9597 80.6015 87.3742 88.6525 87.3725Z" fill="#0C1E0B"/>
<path fill-rule="evenodd" clip-rule="evenodd" d="M88.888 90.5779H231.338C237.626 90.5779 242.77 95.7226 242.77 102.01V188.057C242.77 194.345 237.626 199.49 231.338 199.49H88.888C82.6 199.49 77.4556 194.345 77.4556 188.057V102.01C77.4556 95.7224 82.6 90.5779 88.888 90.5779Z" fill="#3D9635"/>
<path fill-rule="evenodd" clip-rule="evenodd" d="M88.888 90.5779H231.338C234.958 90.5779 238.199 92.2836 240.298 94.931C238.558 93.8584 236.513 93.2379 234.33 93.2379H91.8803C85.592 93.2379 80.4476 98.3826 80.4476 104.67V190.716C80.4476 193.384 81.3738 195.846 82.9202 197.796C79.6483 195.779 77.4556 192.161 77.4556 188.056V102.01C77.4556 95.7224 82.6 90.5779 88.888 90.5779Z" fill="#DBF3BD"/>
<path fill-rule="evenodd" clip-rule="evenodd" d="M100.369 100.731H193.278C200.016 100.731 205.53 106.245 205.53 112.983V181.074C205.53 187.813 200.016 193.326 193.278 193.326H100.369C93.6301 193.326 88.1167 187.813 88.1167 181.074V112.983C88.1167 106.245 93.6301 100.731 100.369 100.731Z" fill="#DBF3BD"/>
<path fill-rule="evenodd" clip-rule="evenodd" d="M98.3735 98.736H191.283C198.022 98.736 203.535 104.25 203.535 110.988V179.079C203.535 185.818 198.022 191.331 191.283 191.331H98.3735C91.6347 191.331 86.1216 185.818 86.1216 179.079V110.988C86.1213 104.25 91.6347 98.736 98.3735 98.736Z" fill="#0C1E0B"/>
<path fill-rule="evenodd" clip-rule="evenodd" d="M98.3734 101.941H191.283C196.259 101.941 200.33 106.012 200.33 110.988V179.079C200.33 184.055 196.259 188.126 191.283 188.126H98.3734C93.3976 188.126 89.3267 184.055 89.3267 179.079V110.988C89.3264 106.012 93.3976 101.941 98.3734 101.941Z" fill="#B5CE95"/>
<path fill-rule="evenodd" clip-rule="evenodd" d="M98.3743 105.147H191.284C194.496 105.147 197.125 107.775 197.125 110.988V179.079C197.125 182.292 194.496 184.921 191.284 184.921H98.3743C95.1614 184.921 92.5327 182.292 92.5327 179.079V110.988C92.5327 107.775 95.1614 105.147 98.3743 105.147Z" fill="#D5EDB7"/>
<path fill-rule="evenodd" clip-rule="evenodd" d="M98.374 105.147H191.283C194.496 105.147 197.125 107.775 197.125 110.988V135.866C183.12 146.149 163.798 155.416 141.584 161.663C124.187 166.557 107.338 168.942 92.5327 169.04V110.988C92.5324 107.775 95.1611 105.147 98.374 105.147Z" fill="#BBD59B"/>
<path opacity="0.25" fill-rule="evenodd" clip-rule="evenodd" d="M169.744 112.989C176.905 112.989 182.71 118.794 182.71 125.955C182.71 133.116 176.905 138.921 169.744 138.921C162.583 138.921 156.778 133.116 156.778 125.955C156.778 118.794 162.583 112.989 169.744 112.989Z" fill="#EAFFD0"/>
<path opacity="0.36" fill-rule="evenodd" clip-rule="evenodd" d="M151.457 132.937C155.13 132.937 158.107 135.914 158.107 139.586C158.107 143.258 155.13 146.235 151.457 146.235C147.785 146.235 144.808 143.258 144.808 139.586C144.808 135.914 147.785 132.937 151.457 132.937Z" fill="#EAFFD0"/>
<path fill-rule="evenodd" clip-rule="evenodd" d="M223.407 100.344H227.016C232.972 100.344 237.845 105.217 237.845 111.173V181.94C237.845 187.895 232.972 192.769 227.016 192.769H223.407C217.451 192.769 212.578 187.895 212.578 181.94V111.173C212.578 105.217 217.451 100.344 223.407 100.344Z" fill="#FFFFCC"/>
<path fill-rule="evenodd" clip-rule="evenodd" d="M222.463 98.6932H226.072C232.028 98.6932 236.901 103.566 236.901 109.522V180.289C236.901 186.245 232.028 191.118 226.072 191.118H222.463C216.507 191.118 211.634 186.245 211.634 180.289V109.522C211.634 103.566 216.507 98.6932 222.463 98.6932Z" fill="#0C1E0B"/>
<path fill-rule="evenodd" clip-rule="evenodd" d="M222.463 101.898H226.072C230.265 101.898 233.696 105.329 233.696 109.522V180.289C233.696 184.482 230.265 187.912 226.072 187.912H222.463C218.269 187.912 214.839 184.481 214.839 180.289V109.522C214.839 105.329 218.27 101.898 222.463 101.898Z" fill="#C7EC99"/>
<path fill-rule="evenodd" clip-rule="evenodd" d="M222.463 101.898H226.072C228.712 101.898 231.049 103.258 232.419 105.312C231.075 104.129 229.314 103.409 227.394 103.409H223.784C219.591 103.409 216.161 106.839 216.161 111.032V181.799C216.161 183.353 216.632 184.801 217.438 186.009C215.847 184.61 214.839 182.561 214.839 180.289V109.522C214.839 105.329 218.27 101.898 222.463 101.898Z" fill="#5AA529"/>
<path fill-rule="evenodd" clip-rule="evenodd" d="M220.516 106.808H229.531C230.313 106.808 230.952 107.447 230.952 108.229C230.952 109.01 230.313 109.649 229.531 109.649H220.516C219.735 109.649 219.095 109.01 219.095 108.229C219.095 107.447 219.735 106.808 220.516 106.808Z" fill="#0C1E0B"/>
<path fill-rule="evenodd" clip-rule="evenodd" d="M220.516 106.808H229.531C229.952 106.808 230.331 106.994 230.592 107.287C230.394 107.182 230.169 107.123 229.931 107.123H220.916C220.135 107.123 219.495 107.761 219.495 108.543C219.495 108.904 219.632 109.234 219.855 109.485C219.404 109.246 219.095 108.772 219.095 108.229C219.095 107.447 219.735 106.808 220.516 106.808Z" fill="#DBF3BD"/>
<path fill-rule="evenodd" clip-rule="evenodd" d="M220.516 110.553H229.531C230.313 110.553 230.952 111.192 230.952 111.973C230.952 112.755 230.313 113.394 229.531 113.394H220.516C219.735 113.394 219.095 112.755 219.095 111.973C219.095 111.192 219.735 110.553 220.516 110.553Z" fill="#0C1E0B"/>
<path fill-rule="evenodd" clip-rule="evenodd" d="M220.516 114.298H229.531C230.313 114.298 230.952 114.937 230.952 115.719C230.952 116.5 230.313 117.139 229.531 117.139H220.516C219.735 117.139 219.095 116.5 219.095 115.719C219.095 114.937 219.735 114.298 220.516 114.298Z" fill="#0C1E0B"/>
<path fill-rule="evenodd" clip-rule="evenodd" d="M220.516 110.553H229.531C229.952 110.553 230.331 110.738 230.592 111.032C230.394 110.927 230.169 110.868 229.931 110.868H220.916C220.135 110.868 219.495 111.507 219.495 112.288C219.495 112.649 219.632 112.979 219.855 113.23C219.404 112.991 219.095 112.517 219.095 111.973C219.095 111.192 219.735 110.553 220.516 110.553Z" fill="#DBF3BD"/>
<path fill-rule="evenodd" clip-rule="evenodd" d="M220.516 114.298H229.531C229.952 114.298 230.331 114.484 230.592 114.777C230.394 114.672 230.169 114.612 229.931 114.612H220.916C220.135 114.612 219.495 115.252 219.495 116.033C219.495 116.394 219.632 116.724 219.855 116.975C219.404 116.736 219.095 116.262 219.095 115.719C219.095 114.937 219.735 114.298 220.516 114.298Z" fill="#DBF3BD"/>
<path fill-rule="evenodd" clip-rule="evenodd" d="M221.537 120.205C224.821 118.324 229.009 119.462 230.89 122.746C232.771 126.031 231.633 130.218 228.348 132.099C225.064 133.98 220.877 132.843 218.996 129.558C217.115 126.273 218.253 122.086 221.537 120.205Z" fill="#0C1E0B"/>
<path fill-rule="evenodd" clip-rule="evenodd" d="M222.598 122.059C224.859 120.764 227.741 121.548 229.035 123.808C230.33 126.068 229.547 128.95 227.286 130.245C225.026 131.539 222.144 130.756 220.85 128.496C219.555 126.236 220.338 123.354 222.598 122.059Z" fill="#3D9635"/>
<path fill-rule="evenodd" clip-rule="evenodd" d="M222.599 122.059C223.809 121.366 225.197 121.269 226.425 121.675C225.528 121.614 224.603 121.808 223.764 122.288C221.503 123.582 220.72 126.464 222.015 128.725C222.616 129.775 223.56 130.505 224.625 130.858C223.105 130.754 221.663 129.917 220.849 128.496C219.555 126.236 220.338 123.354 222.599 122.059Z" fill="#DBF3BD"/>
<path fill-rule="evenodd" clip-rule="evenodd" d="M219.486 128.108L229.298 122.489L230.279 124.202L220.467 129.821L219.486 128.108Z" fill="#0C1E0B"/>
<path fill-rule="evenodd" clip-rule="evenodd" d="M226.344 129.489L227.019 129.103L228 130.816L227.325 131.202L226.344 129.489Z" fill="#0C1E0B"/>
<path fill-rule="evenodd" clip-rule="evenodd" d="M221.537 137.423C224.821 135.542 229.009 136.68 230.89 139.964C232.771 143.249 231.633 147.436 228.348 149.317C225.064 151.198 220.877 150.06 218.996 146.776C217.115 143.491 218.253 139.304 221.537 137.423Z" fill="#0C1E0B"/>
<path fill-rule="evenodd" clip-rule="evenodd" d="M222.598 139.277C224.859 137.983 227.741 138.766 229.035 141.026C230.33 143.287 229.547 146.168 227.286 147.463C225.026 148.757 222.144 147.974 220.85 145.714C219.555 143.453 220.338 140.572 222.598 139.277Z" fill="#3D9635"/>
<path fill-rule="evenodd" clip-rule="evenodd" d="M222.599 139.277C223.809 138.584 225.197 138.487 226.425 138.893C225.528 138.832 224.603 139.026 223.764 139.506C221.503 140.801 220.72 143.682 222.015 145.943C222.616 146.993 223.56 147.724 224.625 148.076C223.105 147.972 221.663 147.135 220.849 145.714C219.555 143.453 220.338 140.572 222.599 139.277Z" fill="#DBF3BD"/>
<path fill-rule="evenodd" clip-rule="evenodd" d="M219.486 145.326L229.298 139.707L230.279 141.42L220.467 147.039L219.486 145.326Z" fill="#0C1E0B"/>
<path fill-rule="evenodd" clip-rule="evenodd" d="M226.344 146.707L227.019 146.321L228 148.034L227.325 148.42L226.344 146.707Z" fill="#0C1E0B"/>
<path fill-rule="evenodd" clip-rule="evenodd" d="M221.537 153.581C224.821 151.7 229.009 152.838 230.89 156.123C232.771 159.407 231.633 163.594 228.348 165.476C225.064 167.356 220.877 166.218 218.996 162.934C217.115 159.649 218.253 155.462 221.537 153.581Z" fill="#0C1E0B"/>
<path fill-rule="evenodd" clip-rule="evenodd" d="M222.598 155.435C224.859 154.141 227.741 154.924 229.035 157.184C230.33 159.444 229.547 162.326 227.286 163.621C225.026 164.915 222.144 164.133 220.85 161.872C219.555 159.611 220.338 156.73 222.598 155.435Z" fill="#3D9635"/>
<path fill-rule="evenodd" clip-rule="evenodd" d="M222.599 155.435C223.809 154.742 225.197 154.645 226.425 155.051C225.528 154.99 224.603 155.184 223.764 155.665C221.503 156.959 220.72 159.841 222.015 162.101C222.616 163.151 223.56 163.882 224.625 164.234C223.105 164.13 221.663 163.293 220.849 161.872C219.555 159.611 220.338 156.73 222.599 155.435Z" fill="#DBF3BD"/>
<path fill-rule="evenodd" clip-rule="evenodd" d="M219.486 161.485L229.298 155.865L230.279 157.578L220.467 163.198L219.486 161.485Z" fill="#0C1E0B"/>
<path fill-rule="evenodd" clip-rule="evenodd" d="M226.344 162.865L227.019 162.479L228 164.192L227.325 164.578L226.344 162.865Z" fill="#0C1E0B"/>
<path fill-rule="evenodd" clip-rule="evenodd" d="M207.297 189.685H209.857V202.08H207.297V189.685Z" fill="#0C1E0B"/>
<path fill-rule="evenodd" clip-rule="evenodd" d="M75.765 138.821C76.9742 138.821 77.9543 139.801 77.9543 141.011C77.9543 142.22 76.9742 143.2 75.765 143.2C74.5555 143.2 73.5757 142.22 73.5757 141.011C73.5757 139.801 74.5558 138.821 75.765 138.821Z" fill="#0C1E0B"/>
<path fill-rule="evenodd" clip-rule="evenodd" d="M194.87 86.8074C196.079 86.8074 197.059 87.7875 197.059 88.9967C197.059 90.2059 196.079 91.186 194.87 91.186C193.66 91.186 192.68 90.2059 192.68 88.9967C192.68 87.7875 193.66 86.8074 194.87 86.8074Z" fill="#0C1E0B"/>
<path fill-rule="evenodd" clip-rule="evenodd" d="M202.801 195.939H205.36V202.08H202.801V195.939Z" fill="#0C1E0B"/>
<path fill-rule="evenodd" clip-rule="evenodd" d="M198.305 198.562H200.864V202.08H198.305V198.562Z" fill="#0C1E0B"/>
<path fill-rule="evenodd" clip-rule="evenodd" d="M85.876 97.1325C87.0974 97.1325 88.0872 98.1223 88.0872 99.3437C88.0872 100.565 87.0974 101.555 85.876 101.555C84.6546 101.555 83.6646 100.565 83.6646 99.3437C83.6646 98.1226 84.6546 97.1325 85.876 97.1325Z" fill="#FFFFCC"/>
<path fill-rule="evenodd" clip-rule="evenodd" d="M220.516 173.812H229.531C230.313 173.812 230.952 174.451 230.952 175.233C230.952 176.014 230.313 176.653 229.531 176.653H220.516C219.735 176.653 219.095 176.014 219.095 175.233C219.095 174.451 219.735 173.812 220.516 173.812Z" fill="#0C1E0B"/>
<path fill-rule="evenodd" clip-rule="evenodd" d="M220.516 173.812H229.531C229.952 173.812 230.331 173.997 230.592 174.29C230.394 174.186 230.169 174.126 229.931 174.126H220.916C220.135 174.126 219.495 174.766 219.495 175.546C219.495 175.908 219.632 176.237 219.855 176.489C219.404 176.25 219.095 175.775 219.095 175.232C219.095 174.451 219.735 173.812 220.516 173.812Z" fill="#DBF3BD"/>
<path fill-rule="evenodd" clip-rule="evenodd" d="M220.516 177.556H229.531C230.313 177.556 230.952 178.195 230.952 178.977C230.952 179.758 230.313 180.397 229.531 180.397H220.516C219.735 180.397 219.095 179.758 219.095 178.977C219.095 178.195 219.735 177.556 220.516 177.556Z" fill="#0C1E0B"/>
<path fill-rule="evenodd" clip-rule="evenodd" d="M220.516 181.301H229.531C230.313 181.301 230.952 181.941 230.952 182.722C230.952 183.503 230.313 184.143 229.531 184.143H220.516C219.735 184.143 219.095 183.503 219.095 182.722C219.095 181.941 219.735 181.301 220.516 181.301Z" fill="#0C1E0B"/>
<path fill-rule="evenodd" clip-rule="evenodd" d="M220.516 177.556H229.531C229.952 177.556 230.331 177.741 230.592 178.035C230.394 177.931 230.169 177.871 229.931 177.871H220.916C220.135 177.871 219.495 178.51 219.495 179.292C219.495 179.652 219.632 179.983 219.855 180.234C219.404 179.995 219.095 179.521 219.095 178.977C219.095 178.195 219.735 177.556 220.516 177.556Z" fill="#DBF3BD"/>
<path fill-rule="evenodd" clip-rule="evenodd" d="M220.516 181.301H229.531C229.952 181.301 230.331 181.487 230.592 181.779C230.394 181.675 230.169 181.616 229.931 181.616H220.916C220.135 181.616 219.495 182.255 219.495 183.036C219.495 183.396 219.632 183.727 219.855 183.978C219.404 183.739 219.095 183.265 219.095 182.722C219.095 181.941 219.735 181.301 220.516 181.301Z" fill="#DBF3BD"/>
<path fill-rule="evenodd" clip-rule="evenodd" d="M87.4517 189.685H90.0108V202.08H87.4517V189.685Z" fill="#0C1E0B"/>
<path fill-rule="evenodd" clip-rule="evenodd" d="M82.9556 195.939H85.515V200.627H82.9556V195.939Z" fill="#0C1E0B"/>
<path fill-rule="evenodd" clip-rule="evenodd" d="M56.3614 217.304H157.558C158.491 217.304 159.253 218.066 159.253 218.999C159.253 219.931 158.491 220.693 157.558 220.693H56.3614C55.4292 220.693 54.6665 219.931 54.6665 218.999C54.6668 218.066 55.4295 217.304 56.3614 217.304Z" fill="#193C15"/>
<path fill-rule="evenodd" clip-rule="evenodd" d="M259.071 217.304H212.919C211.987 217.304 211.224 218.066 211.224 218.999C211.224 219.931 211.987 220.693 212.919 220.693H259.071C260.003 220.693 260.766 219.931 260.766 218.999C260.765 218.066 260.003 217.304 259.071 217.304Z" fill="#193C15"/>
<path fill-rule="evenodd" clip-rule="evenodd" d="M121.495 73.7465C131.371 73.7465 139.821 79.8469 143.286 88.4843H99.7036C103.169 79.8469 111.619 73.7465 121.495 73.7465Z" fill="#3D9635"/>
<path fill-rule="evenodd" clip-rule="evenodd" d="M121.496 73.7465C123.806 73.7465 126.037 74.0806 128.146 74.7025C129.052 76.0286 129.553 77.4867 129.553 79.0167C129.553 83.024 126.117 86.5346 120.968 88.4843H102.264C101.509 88.1985 100.79 87.8783 100.114 87.5286C103.803 79.4007 111.988 73.7465 121.496 73.7465Z" fill="#5AA529"/>
<path fill-rule="evenodd" clip-rule="evenodd" d="M121.495 73.7465C121.82 73.7465 122.142 73.7533 122.463 73.7661C122.765 74.5736 122.925 75.415 122.925 76.2793C122.925 82.4061 114.895 87.3728 104.988 87.3728C103.389 87.3728 101.839 87.2426 100.363 86.9999C104.162 79.1569 112.196 73.7465 121.495 73.7465Z" fill="#5AA529"/>
<path d="M121.495 72.1442C126.689 72.1442 131.516 73.726 135.521 76.4342C139.642 79.2213 142.89 83.2059 144.769 87.8897L145.65 90.0869H97.3384L98.2194 87.8897C100.098 83.2059 103.347 79.2213 107.468 76.4342C111.473 73.726 116.3 72.1442 121.495 72.1442ZM133.73 79.0885C130.24 76.728 126.029 75.3494 121.495 75.3494C116.96 75.3494 112.749 76.728 109.259 79.0885C106.325 81.0728 103.898 83.7492 102.215 86.8817H140.774C139.09 83.7495 136.664 81.0728 133.73 79.0885Z" fill="black"/>
<path fill-rule="evenodd" clip-rule="evenodd" d="M115.895 78.7714C117.857 78.2539 119.595 78.3959 119.778 79.0882C119.96 79.7807 118.518 80.7617 116.556 81.2792C114.594 81.7963 112.856 81.655 112.673 80.9624C112.491 80.2701 113.933 79.2891 115.895 78.7714Z" fill="#DBF3BD"/>
<path fill-rule="evenodd" clip-rule="evenodd" d="M56.3614 217.304H184.558C185.491 217.304 186.253 218.066 186.253 218.999C186.253 219.931 185.491 220.693 184.558 220.693H56.3614C55.4292 220.693 54.6665 219.931 54.6665 218.999C54.6668 218.066 55.4295 217.304 56.3614 217.304Z" fill="#193C15"/>
<path d="M127.923 204.757L149.343 199.017C150.913 196.867 152.113 194.427 152.873 191.807L120.843 200.387C122.913 202.277 125.313 203.757 127.923 204.747V204.757Z" fill="#0C1E0B"/>
<path d="M126.693 166.817C122.853 167.847 119.553 169.877 116.953 172.557C114.303 176.877 113.113 182.077 113.903 187.347L151.173 177.357C146.403 168.817 136.413 164.207 126.693 166.817Z" fill="#0C1E0B"/>
<path d="M115.194 192.177C115.754 193.597 116.444 194.927 117.254 196.177L153.354 186.507C153.344 185.047 153.214 183.557 152.974 182.057L115.194 192.177Z" fill="#0C1E0B"/>
<path d="M152.393 237.947L144.513 240.057L147.523 251.277C148.383 254.487 151.703 256.407 154.913 255.537C155.283 255.437 155.643 255.297 155.973 255.137C156.333 254.057 156.393 252.867 156.083 251.687L152.403 237.937L152.393 237.947Z" fill="#3D9635"/>
<path d="M123.593 214.027L129.513 236.117L163.373 227.047L157.453 204.957L123.593 214.027ZM142.073 213.017C142.283 213.817 141.813 214.637 141.013 214.857L139.433 215.277C138.903 215.417 138.583 215.967 138.723 216.497L141.253 225.947C141.463 226.747 140.993 227.567 140.193 227.787L139.283 228.027C138.483 228.237 137.663 227.767 137.443 226.967L134.913 217.517C134.773 216.987 134.223 216.667 133.693 216.807L132.173 217.217C131.373 217.427 130.553 216.957 130.333 216.157L130.233 215.787C130.023 214.987 130.493 214.167 131.293 213.947L140.133 211.577C140.933 211.367 141.753 211.837 141.973 212.637L142.073 213.007V213.017ZM155.353 222.327C155.303 223.117 154.643 223.917 153.883 224.127L152.433 224.517C151.673 224.717 150.703 224.347 150.273 223.687L143.003 212.397C142.783 212.057 142.733 211.667 142.863 211.337C142.993 211.007 143.293 210.757 143.683 210.647L144.893 210.327C145.663 210.117 146.613 210.507 147.023 211.187L149.173 214.757C149.523 215.347 150.103 216.317 150.453 216.907C150.463 216.927 151.323 218.377 152.093 219.857C152.093 219.767 152.093 219.677 152.093 219.587C152.093 219.557 152.023 217.087 152.073 215.297L152.233 209.787C152.253 208.997 152.893 208.187 153.663 207.977L154.773 207.677C155.163 207.567 155.553 207.637 155.823 207.867C156.093 208.097 156.243 208.457 156.213 208.867L155.363 222.347L155.353 222.327Z" fill="#3D9635"/>
<path d="M140.133 211.597L131.293 213.967C130.493 214.177 130.023 215.007 130.233 215.807L130.333 216.177C130.543 216.977 131.373 217.457 132.173 217.237L133.693 216.827C134.223 216.687 134.773 217.007 134.913 217.537L137.443 226.987C137.653 227.787 138.483 228.267 139.283 228.047L140.193 227.807C140.993 227.597 141.463 226.767 141.253 225.967L138.723 216.517C138.583 215.987 138.893 215.437 139.433 215.297L141.013 214.877C141.813 214.667 142.283 213.837 142.073 213.037L141.973 212.667C141.753 211.867 140.933 211.397 140.133 211.607V211.597Z" fill="#EAF7E8"/>
<path d="M155.814 207.857C155.544 207.637 155.154 207.567 154.764 207.677L153.654 207.977C152.894 208.187 152.244 208.997 152.224 209.787L152.064 215.297C152.014 217.087 152.084 219.567 152.084 219.587C152.084 219.687 152.084 219.777 152.084 219.857C151.314 218.377 150.454 216.917 150.444 216.907C150.094 216.317 149.514 215.347 149.164 214.757L147.014 211.187C146.604 210.507 145.644 210.117 144.884 210.327L143.674 210.657C143.284 210.757 142.984 211.017 142.854 211.347C142.724 211.677 142.774 212.067 142.994 212.407L150.264 223.697C150.694 224.357 151.664 224.737 152.424 224.527L153.874 224.137C154.634 223.937 155.294 223.127 155.344 222.337L156.194 208.867C156.214 208.457 156.074 208.097 155.804 207.867L155.814 207.857Z" fill="#EAF7E8"/>
<path d="M161.344 257.317C163.894 254.627 165.044 250.707 164.014 246.857L160.314 233.037L169.704 230.517C171.704 229.977 172.894 227.927 172.354 225.927L165.054 198.687C164.524 196.687 162.454 195.497 160.464 196.037L160.034 196.147C162.874 190.437 163.734 183.717 161.954 177.087C158.084 162.657 143.194 154.057 128.754 157.927C114.324 161.787 105.724 176.687 109.594 191.117C111.374 197.747 115.474 203.137 120.794 206.667L120.364 206.777C118.364 207.317 117.174 209.377 117.714 211.367L125.014 238.607C125.554 240.607 127.614 241.797 129.604 241.257L138.994 238.737L142.694 252.557C144.164 258.057 149.564 261.457 155.064 260.587C156.654 260.317 159.104 259.537 161.334 257.317H161.344ZM116.954 172.557C119.804 167.897 124.364 164.277 130.044 162.757C140.994 159.827 152.254 165.687 156.314 175.987L151.174 177.367L113.904 187.347C113.114 182.077 114.304 176.877 116.954 172.557ZM117.254 196.177C116.444 194.937 115.754 193.597 115.194 192.177L152.974 182.057L157.614 180.817C157.844 182.327 157.914 183.827 157.824 185.307L153.344 186.507L117.254 196.177ZM152.884 191.807L156.834 190.747C155.984 193.417 154.644 195.897 152.884 198.067L149.344 199.017L127.924 204.757C125.314 203.757 122.904 202.277 120.844 200.397L152.884 191.817V191.807ZM129.514 236.117L123.594 214.027L122.864 211.287L160.544 201.187L167.194 226.017L163.384 227.037L129.524 236.107L129.514 236.117ZM155.974 255.147C155.634 255.307 155.284 255.447 154.914 255.547C151.704 256.407 148.384 254.497 147.524 251.287L144.514 240.067L143.814 237.467L155.464 234.347L159.164 248.167C159.924 251.007 158.514 253.917 155.964 255.157L155.974 255.147Z" fill="#193C15"/>
<path d="M175.798 266.71C166.958 266.71 156.978 260.35 156.448 260.01C155.658 259.5 155.428 258.45 155.938 257.66C156.448 256.87 157.498 256.64 158.288 257.15C162.398 259.79 174.448 265.84 180.798 262.13C182.548 261.11 183.818 259.38 184.608 256.96C181.198 256.38 177.968 254.2 175.958 250.88C174.138 247.87 174.188 244.63 176.078 242.21C177.958 239.81 181.228 238.75 184.028 239.62C186.898 240.52 188.658 243.19 188.878 246.94C189.008 249.25 188.978 251.37 188.778 253.28C191.658 252.2 193.378 249.17 193.518 244.84C193.798 236.56 196.248 217.3 213.058 217.3H213.078C214.018 217.3 214.778 218.06 214.778 219C214.778 219.94 214.018 220.7 213.078 220.7C213.078 220.7 213.068 220.7 213.058 220.7C199.218 220.7 197.158 237.66 196.918 244.96C196.708 251.12 193.748 255.54 188.988 256.78C188.698 256.85 188.408 256.92 188.118 256.97C187.128 260.75 185.238 263.46 182.488 265.07C180.478 266.24 178.168 266.71 175.778 266.71H175.798ZM182.038 242.72C180.828 242.72 179.538 243.31 178.768 244.31C177.748 245.61 177.788 247.32 178.878 249.12C180.398 251.63 182.828 253.27 185.338 253.64C185.588 251.75 185.638 249.58 185.498 247.15C185.368 244.85 184.488 243.33 183.018 242.87C182.708 242.77 182.368 242.72 182.028 242.72H182.038Z" fill="#193C15"/>
</svg>
