<svg width="315" height="84" viewBox="0 0 315 84" fill="none" xmlns="http://www.w3.org/2000/svg">
<path d="M82.0269 27.134C81.6669 27.134 81.3789 27.026 81.1629 26.81C80.9469 26.594 80.8389 26.3 80.8389 25.928C80.8389 25.58 80.9469 25.298 81.1629 25.082C81.3789 24.866 81.6669 24.758 82.0269 24.758C82.3869 24.758 82.6689 24.866 82.8729 25.082C83.0889 25.286 83.1969 25.568 83.1969 25.928C83.1969 26.732 82.8069 27.134 82.0269 27.134ZM88.3089 32.822H89.9289V35H88.0929C87.6849 35 87.3069 34.946 86.9589 34.838C86.7309 35.99 86.1489 36.896 85.2129 37.556C84.3729 38.132 83.3529 38.42 82.1529 38.42C80.5329 38.42 79.2789 37.85 78.3909 36.71C77.6949 35.822 77.3469 34.778 77.3469 33.578C77.3469 32.63 77.5689 31.802 78.0129 31.094L80.1729 30.644C79.6929 31.46 79.4529 32.318 79.4529 33.218C79.4529 34.13 79.7109 34.868 80.2269 35.432C80.7189 35.972 81.3609 36.242 82.1529 36.242C82.9809 36.242 83.6229 36.032 84.0789 35.612C84.5469 35.192 84.7809 34.604 84.7809 33.848V28.196L87.0489 27.008V31.526C87.0489 31.994 87.1449 32.33 87.3369 32.534C87.5289 32.726 87.8529 32.822 88.3089 32.822ZM95.2616 32.822H96.8816V35H95.0456C94.1696 35 93.4436 34.766 92.8676 34.298C92.2916 34.766 91.5656 35 90.6896 35H88.8536V32.822H90.4736C90.9296 32.822 91.2536 32.726 91.4456 32.534C91.6376 32.33 91.7336 31.994 91.7336 31.526V28.196L94.0016 27.008V31.526C94.0016 31.994 94.0976 32.33 94.2896 32.534C94.4816 32.726 94.8056 32.822 95.2616 32.822ZM90.5996 36.638C90.9596 36.638 91.2416 36.74 91.4456 36.944C91.6616 37.16 91.7696 37.448 91.7696 37.808C91.7696 38.612 91.3796 39.014 90.5996 39.014C90.2396 39.014 89.9516 38.906 89.7356 38.69C89.5196 38.474 89.4116 38.18 89.4116 37.808C89.4116 37.028 89.8076 36.638 90.5996 36.638ZM93.3716 36.638C93.7316 36.638 94.0136 36.74 94.2176 36.944C94.4336 37.16 94.5416 37.448 94.5416 37.808C94.5416 38.612 94.1516 39.014 93.3716 39.014C93.0116 39.014 92.7236 38.906 92.5076 38.69C92.2916 38.474 92.1836 38.18 92.1836 37.808C92.1836 37.028 92.5796 36.638 93.3716 36.638ZM102.205 32.822H103.825V35H101.989C101.113 35 100.387 34.766 99.8109 34.298C99.2349 34.766 98.5089 35 97.6329 35H95.7969V32.822H97.4169C97.8729 32.822 98.1969 32.726 98.3889 32.534C98.5809 32.33 98.6769 31.994 98.6769 31.526V28.196L100.945 27.008V31.526C100.945 31.994 101.041 32.33 101.233 32.534C101.425 32.726 101.749 32.822 102.205 32.822ZM97.5429 36.638C97.9029 36.638 98.1849 36.74 98.3889 36.944C98.6049 37.16 98.7129 37.448 98.7129 37.808C98.7129 38.612 98.3229 39.014 97.5429 39.014C97.1829 39.014 96.8949 38.906 96.6789 38.69C96.4629 38.474 96.3549 38.18 96.3549 37.808C96.3549 37.028 96.7509 36.638 97.5429 36.638ZM100.315 36.638C100.675 36.638 100.957 36.74 101.161 36.944C101.377 37.16 101.485 37.448 101.485 37.808C101.485 38.612 101.095 39.014 100.315 39.014C99.9549 39.014 99.6669 38.906 99.4509 38.69C99.2349 38.474 99.1269 38.18 99.1269 37.808C99.1269 37.028 99.5229 36.638 100.315 36.638ZM114.188 32.822H115.79V35H113.954C113.09 35 112.382 34.778 111.83 34.334C111.182 35.018 110.33 35.36 109.274 35.36C108.194 35.36 107.342 35.018 106.718 34.334C106.142 34.778 105.428 35 104.576 35H102.74V32.822H104.36C104.816 32.822 105.14 32.726 105.332 32.534C105.524 32.33 105.62 31.994 105.62 31.526V31.004C105.62 29.6 105.986 28.508 106.718 27.728C107.354 27.044 108.206 26.702 109.274 26.702C110.486 26.702 111.422 27.146 112.082 28.034C112.634 28.79 112.91 29.78 112.91 31.004V31.526C112.91 31.994 113.006 32.33 113.198 32.534C113.402 32.726 113.732 32.822 114.188 32.822ZM109.274 33.182C110.186 33.182 110.642 32.438 110.642 30.95C110.642 29.522 110.186 28.808 109.274 28.808C108.35 28.808 107.888 29.522 107.888 30.95C107.888 32.438 108.35 33.182 109.274 33.182ZM114.711 35V32.822H116.331C116.787 32.822 117.111 32.726 117.303 32.534C117.495 32.33 117.591 31.994 117.591 31.526V28.196L119.859 27.008V31.634C119.859 32.726 119.523 33.578 118.851 34.19C118.263 34.73 117.495 35 116.547 35H114.711ZM115.683 39.014C115.323 39.014 115.035 38.906 114.819 38.69C114.603 38.474 114.495 38.18 114.495 37.808C114.495 37.028 114.891 36.638 115.683 36.638C116.043 36.638 116.325 36.74 116.529 36.944C116.745 37.16 116.853 37.448 116.853 37.808C116.853 38.612 116.463 39.014 115.683 39.014ZM118.455 39.014C118.095 39.014 117.807 38.906 117.591 38.69C117.375 38.474 117.267 38.18 117.267 37.808C117.267 37.028 117.663 36.638 118.455 36.638C118.815 36.638 119.097 36.74 119.301 36.944C119.517 37.16 119.625 37.448 119.625 37.808C119.625 38.612 119.235 39.014 118.455 39.014ZM121.654 35L122.788 32.822H125.632C126.244 32.822 126.55 32.468 126.55 31.76C126.55 30.428 125.914 29.408 124.642 28.7L125.758 26.792C127.798 27.992 128.818 29.66 128.818 31.796C128.818 33.932 127.894 35 126.046 35H121.654ZM134.984 35C133.892 35 133.046 34.652 132.446 33.956C131.93 33.356 131.672 32.582 131.672 31.634V24.578L133.94 23.39V31.526C133.94 31.994 134.036 32.33 134.228 32.534C134.42 32.726 134.744 32.822 135.2 32.822H136.82V35H134.984ZM139.964 27.062C140.864 27.134 141.656 27.404 142.34 27.872C143.564 28.7 144.176 29.894 144.176 31.454V31.688C144.176 32.768 143.84 33.614 143.168 34.226C142.58 34.742 141.818 35 140.882 35H135.734V32.822H140.648C141.488 32.822 141.908 32.408 141.908 31.58V31.472C141.908 30.824 141.656 30.296 141.152 29.888C140.66 29.48 140.012 29.276 139.208 29.276C138.608 29.276 137.972 29.396 137.3 29.636V27.458L140.954 23.39H143.24L139.964 27.062ZM152.259 23.552L151.683 24.596H148.335L148.911 23.552H149.451C149.319 23.312 149.253 23.066 149.253 22.814C149.253 22.43 149.391 22.1 149.667 21.824C149.955 21.548 150.297 21.41 150.693 21.41C151.053 21.41 151.389 21.536 151.701 21.788V22.832C151.413 22.58 151.125 22.454 150.837 22.454C150.441 22.454 150.243 22.634 150.243 22.994C150.243 23.174 150.321 23.36 150.477 23.552H152.259ZM153.807 24.596L156.075 23.39V31.256C156.075 32.42 155.721 33.35 155.013 34.046C154.353 34.682 153.483 35 152.403 35H145.617L146.751 32.822H149.127V26.936L151.395 25.73V32.822H152.277C152.829 32.822 153.219 32.702 153.447 32.462C153.687 32.222 153.807 31.814 153.807 31.238V24.596ZM159.305 35V24.596L161.573 23.39V35H159.305ZM168.875 34.478C168.503 34.55 168.119 34.586 167.723 34.586C166.619 34.586 165.737 34.172 165.077 33.344C164.537 32.648 164.267 31.808 164.267 30.824C164.267 29.504 164.627 28.466 165.347 27.71C165.983 27.038 166.823 26.702 167.867 26.702C168.935 26.702 169.769 27.044 170.369 27.728C170.885 28.316 171.143 29.084 171.143 30.032V33.884C171.143 35.3 170.771 36.416 170.027 37.232C169.331 38 168.383 38.384 167.183 38.384C166.427 38.384 165.689 38.18 164.969 37.772V35.81C165.617 36.182 166.265 36.368 166.913 36.368C168.077 36.368 168.731 35.738 168.875 34.478ZM168.893 29.996C168.893 29.204 168.551 28.808 167.867 28.808C167.435 28.808 167.093 28.982 166.841 29.33C166.601 29.678 166.481 30.152 166.481 30.752C166.481 32.024 166.937 32.66 167.849 32.66C168.329 32.66 168.677 32.54 168.893 32.3V29.996ZM182.855 27.134C182.495 27.134 182.207 27.026 181.991 26.81C181.775 26.594 181.667 26.3 181.667 25.928C181.667 25.58 181.775 25.298 181.991 25.082C182.207 24.866 182.495 24.758 182.855 24.758C183.215 24.758 183.497 24.866 183.701 25.082C183.917 25.286 184.025 25.568 184.025 25.928C184.025 26.732 183.635 27.134 182.855 27.134ZM189.137 32.822H190.757V35H188.921C188.513 35 188.135 34.946 187.787 34.838C187.559 35.99 186.977 36.896 186.041 37.556C185.201 38.132 184.181 38.42 182.981 38.42C181.361 38.42 180.107 37.85 179.219 36.71C178.523 35.822 178.175 34.778 178.175 33.578C178.175 32.63 178.397 31.802 178.841 31.094L181.001 30.644C180.521 31.46 180.281 32.318 180.281 33.218C180.281 34.13 180.539 34.868 181.055 35.432C181.547 35.972 182.189 36.242 182.981 36.242C183.809 36.242 184.451 36.032 184.907 35.612C185.375 35.192 185.609 34.604 185.609 33.848V28.196L187.877 27.008V31.526C187.877 31.994 187.973 32.33 188.165 32.534C188.357 32.726 188.681 32.822 189.137 32.822ZM196.09 32.822H197.71V35H195.874C194.998 35 194.272 34.766 193.696 34.298C193.12 34.766 192.394 35 191.518 35H189.682V32.822H191.302C191.758 32.822 192.082 32.726 192.274 32.534C192.466 32.33 192.562 31.994 192.562 31.526V28.196L194.83 27.008V31.526C194.83 31.994 194.926 32.33 195.118 32.534C195.31 32.726 195.634 32.822 196.09 32.822ZM191.428 36.638C191.788 36.638 192.07 36.74 192.274 36.944C192.49 37.16 192.598 37.448 192.598 37.808C192.598 38.612 192.208 39.014 191.428 39.014C191.068 39.014 190.78 38.906 190.564 38.69C190.348 38.474 190.24 38.18 190.24 37.808C190.24 37.028 190.636 36.638 191.428 36.638ZM194.2 36.638C194.56 36.638 194.842 36.74 195.046 36.944C195.262 37.16 195.37 37.448 195.37 37.808C195.37 38.612 194.98 39.014 194.2 39.014C193.84 39.014 193.552 38.906 193.336 38.69C193.12 38.474 193.012 38.18 193.012 37.808C193.012 37.028 193.408 36.638 194.2 36.638ZM199.721 22.778C198.989 22.778 198.623 22.406 198.623 21.662C198.623 21.338 198.719 21.08 198.911 20.888C199.115 20.684 199.385 20.582 199.721 20.582C200.441 20.582 200.801 20.942 200.801 21.662C200.801 22.406 200.441 22.778 199.721 22.778ZM198.353 25.424C197.993 25.424 197.705 25.316 197.489 25.1C197.273 24.884 197.165 24.59 197.165 24.218C197.165 23.87 197.273 23.588 197.489 23.372C197.705 23.156 197.993 23.048 198.353 23.048C198.713 23.048 198.995 23.156 199.199 23.372C199.415 23.576 199.523 23.858 199.523 24.218C199.523 25.022 199.133 25.424 198.353 25.424ZM199.937 24.218C199.937 23.87 200.045 23.588 200.261 23.372C200.477 23.156 200.765 23.048 201.125 23.048C201.485 23.048 201.767 23.156 201.971 23.372C202.187 23.576 202.295 23.858 202.295 24.218C202.295 25.022 201.905 25.424 201.125 25.424C200.765 25.424 200.477 25.316 200.261 25.1C200.045 24.884 199.937 24.59 199.937 24.218ZM203.033 32.822H204.653V35H202.817C201.941 35 201.215 34.766 200.639 34.298C200.063 34.766 199.337 35 198.461 35H196.625V32.822H198.245C198.701 32.822 199.025 32.726 199.217 32.534C199.409 32.33 199.505 31.994 199.505 31.526V28.196L201.773 27.008V31.526C201.773 31.994 201.869 32.33 202.061 32.534C202.253 32.726 202.577 32.822 203.033 32.822ZM203.568 35V32.822H206.25C208.362 32.822 210.042 32.192 211.29 30.932C210.474 29.504 209.484 28.79 208.32 28.79C207.36 28.79 206.31 29.312 205.17 30.356V28.358C206.178 27.254 207.318 26.702 208.59 26.702C209.526 26.702 210.438 27.044 211.326 27.728C212.214 28.412 213 29.384 213.684 30.644V31.544C212.82 32.648 211.74 33.5 210.444 34.1C209.16 34.7 207.756 35 206.232 35H203.568ZM219.517 35C218.425 35 217.579 34.652 216.979 33.956C216.463 33.356 216.205 32.582 216.205 31.634V24.578L218.473 23.39V31.526C218.473 31.994 218.569 32.33 218.761 32.534C218.953 32.726 219.277 32.822 219.733 32.822H221.353V35H219.517ZM226.676 32.822H228.296V35H226.46C225.584 35 224.858 34.766 224.282 34.298C223.706 34.766 222.98 35 222.104 35H220.268V32.822H221.888C222.344 32.822 222.668 32.726 222.86 32.534C223.052 32.33 223.148 31.994 223.148 31.526V28.196L225.416 27.008V31.526C225.416 31.994 225.512 32.33 225.704 32.534C225.896 32.726 226.22 32.822 226.676 32.822ZM224.39 36.638C224.75 36.638 225.032 36.74 225.236 36.944C225.452 37.16 225.56 37.448 225.56 37.808C225.56 38.612 225.17 39.014 224.39 39.014C224.03 39.014 223.742 38.906 223.526 38.69C223.31 38.474 223.202 38.18 223.202 37.808C223.202 37.46 223.31 37.178 223.526 36.962C223.742 36.746 224.03 36.638 224.39 36.638ZM227.211 35V32.822H228.345C228.897 32.822 229.287 32.702 229.515 32.462C229.755 32.222 229.875 31.814 229.875 31.238V24.596L232.125 23.39V31.256C232.125 32.42 231.771 33.35 231.063 34.046C230.415 34.682 229.551 35 228.471 35H227.211ZM235.365 35V24.596L237.633 23.39V35H235.365Z" fill="#253C30"/>
<path d="M104.676 58.866H105.6V60H104.536C103.752 60 103.145 59.7573 102.716 59.272C102.259 59.7573 101.647 60 100.882 60H95.8841C95.1281 60 94.5355 59.748 94.1061 59.244C93.7328 58.8053 93.5461 58.2313 93.5461 57.522V55.828L94.7501 55.184V57.41C94.7501 58.3807 95.2028 58.866 96.1081 58.866H100.756C101.652 58.866 102.1 58.3807 102.1 57.41V51.614L103.318 50.97V57.466C103.318 58.3993 103.771 58.866 104.676 58.866ZM98.5021 53.182C99.3048 53.2193 99.7061 53.616 99.7061 54.372C99.7061 54.6987 99.6081 54.96 99.4121 55.156C99.2255 55.352 98.9735 55.45 98.6561 55.45H96.8081L97.1301 54.848H98.6001C98.9361 54.848 99.1041 54.68 99.1041 54.344C99.1041 53.9333 98.8428 53.728 98.3201 53.728C98.0495 53.728 97.8021 53.7933 97.5781 53.924V53.364L98.7541 52.062H99.4961L98.5021 53.182ZM106.719 50.564C106.308 50.564 106.103 50.354 106.103 49.934C106.103 49.5233 106.308 49.318 106.719 49.318C107.129 49.318 107.335 49.5233 107.335 49.934C107.335 50.354 107.129 50.564 106.719 50.564ZM105.837 52.23C105.379 52.23 105.151 51.9967 105.151 51.53C105.151 51.0727 105.379 50.844 105.837 50.844C106.285 50.844 106.509 51.0727 106.509 51.53C106.509 51.9967 106.285 52.23 105.837 52.23ZM107.615 52.23C107.157 52.23 106.929 51.9967 106.929 51.53C106.929 51.0727 107.157 50.844 107.615 50.844C108.063 50.844 108.287 51.0727 108.287 51.53C108.287 51.9967 108.063 52.23 107.615 52.23ZM104.759 60V58.866H105.683C106.597 58.866 107.055 58.3993 107.055 57.466V54.568L108.259 53.924V57.508C108.259 58.3013 108.021 58.9267 107.545 59.384C107.106 59.7947 106.532 60 105.823 60H104.759ZM113.209 60C112.397 60 111.771 59.7387 111.333 59.216C110.959 58.768 110.773 58.1987 110.773 57.508V51.614L111.977 50.97V57.466C111.977 58.3993 112.434 58.866 113.349 58.866H114.273V60H113.209ZM122.555 58.866H123.465V60H122.541C121.785 60 121.178 59.916 120.721 59.748C120.263 59.5707 119.839 59.2627 119.447 58.824C118.271 59.608 116.899 60 115.331 60H113.427V58.866H115.345C117.239 58.866 118.737 58.2407 119.839 56.99C119.064 55.562 118.121 54.848 117.011 54.848C116.255 54.848 115.475 55.2493 114.673 56.052V54.932C115.457 54.1387 116.287 53.742 117.165 53.742C117.883 53.742 118.579 54.0033 119.251 54.526C119.923 55.0393 120.515 55.7767 121.029 56.738V57.354C120.739 57.718 120.464 58.012 120.203 58.236C120.707 58.656 121.491 58.866 122.555 58.866ZM122.628 60V58.866H123.552C124.467 58.866 124.924 58.3993 124.924 57.466V54.568L126.128 53.924V57.508C126.128 58.3013 125.89 58.9267 125.414 59.384C124.975 59.7947 124.401 60 123.692 60H122.628ZM124.882 62.786C124.425 62.786 124.196 62.5527 124.196 62.086C124.196 61.6287 124.425 61.4 124.882 61.4C125.33 61.4 125.554 61.6287 125.554 62.086C125.554 62.5527 125.33 62.786 124.882 62.786ZM132.1 51.124L131.778 51.726H129.468L129.79 51.124H130.168C130.075 50.956 130.028 50.7787 130.028 50.592C130.028 50.3213 130.131 50.088 130.336 49.892C130.541 49.6867 130.784 49.584 131.064 49.584C131.297 49.584 131.521 49.6587 131.736 49.808V50.424C131.531 50.2653 131.335 50.186 131.148 50.186C130.803 50.186 130.63 50.34 130.63 50.648C130.63 50.8067 130.695 50.9653 130.826 51.124H132.1ZM133.836 51.614L135.054 50.97V57.354C135.054 58.1847 134.807 58.8427 134.312 59.328C133.845 59.776 133.234 60 132.478 60H127.662L128.25 58.866H130.294V53.434L131.498 52.79V58.866H132.38C133.351 58.866 133.836 58.3573 133.836 57.34V51.614ZM144.589 53.49C144.132 53.49 143.903 53.2567 143.903 52.79C143.903 52.3327 144.132 52.104 144.589 52.104C145.037 52.104 145.261 52.3327 145.261 52.79C145.261 53.2567 145.037 53.49 144.589 53.49ZM146.367 53.49C145.91 53.49 145.681 53.2567 145.681 52.79C145.681 52.3327 145.91 52.104 146.367 52.104C146.815 52.104 147.039 52.3327 147.039 52.79C147.039 53.2567 146.815 53.49 146.367 53.49ZM143.175 60C142.419 60 141.826 59.748 141.397 59.244C141.024 58.8053 140.837 58.2313 140.837 57.522V55.828L142.041 55.184V57.41C142.041 58.3807 142.494 58.866 143.399 58.866H148.047C148.952 58.866 149.405 58.3807 149.405 57.41V54.568L150.609 53.924V57.522C150.609 58.334 150.362 58.964 149.867 59.412C149.428 59.804 148.864 60 148.173 60H143.175ZM155.291 60C154.479 60 153.853 59.7387 153.415 59.216C153.041 58.768 152.855 58.1987 152.855 57.508V51.614L154.059 50.97V57.466C154.059 58.3993 154.516 58.866 155.431 58.866H156.355V60H155.291ZM157.805 56.206C157.805 55.394 158.047 54.764 158.533 54.316C158.962 53.9333 159.522 53.742 160.213 53.742C161.099 53.742 161.781 54.0687 162.257 54.722C162.667 55.2727 162.873 55.9913 162.873 56.878C162.873 57.886 162.611 58.6747 162.089 59.244C161.631 59.748 161.034 60 160.297 60C159.457 60 158.817 59.7667 158.379 59.3C157.931 59.7667 157.329 60 156.573 60H155.509V58.866H156.433C157.347 58.866 157.805 58.3993 157.805 57.466V56.206ZM159.009 57.564C159.009 58.432 159.433 58.866 160.283 58.866C160.721 58.866 161.062 58.6887 161.305 58.334C161.557 57.9793 161.683 57.4847 161.683 56.85C161.683 56.2247 161.552 55.7393 161.291 55.394C161.029 55.0393 160.67 54.862 160.213 54.862C159.41 54.862 159.009 55.3287 159.009 56.262V57.564ZM171.725 58.866V60H169.989C169.951 60.8027 169.606 61.4653 168.953 61.988C168.402 62.4173 167.777 62.632 167.077 62.632C166.498 62.632 165.952 62.4967 165.439 62.226V61.162C165.933 61.4233 166.423 61.554 166.909 61.554C167.403 61.554 167.833 61.4 168.197 61.092C168.57 60.784 168.761 60.4153 168.771 59.986C168.285 59.9673 167.926 59.9487 167.693 59.93C166.685 59.874 165.924 59.5333 165.411 58.908C164.981 58.3853 164.767 57.7087 164.767 56.878C164.767 55.8607 165.037 55.0673 165.579 54.498C166.064 53.994 166.703 53.742 167.497 53.742C168.327 53.742 168.967 53.9893 169.415 54.484C169.797 54.9227 169.989 55.4967 169.989 56.206V58.866H171.725ZM168.771 56.29C168.771 55.338 168.346 54.862 167.497 54.862C167.011 54.862 166.633 55.0393 166.363 55.394C166.092 55.7393 165.957 56.2247 165.957 56.85C165.957 58.0727 166.554 58.7213 167.749 58.796C167.973 58.824 168.313 58.8473 168.771 58.866V56.29ZM175.664 58.866H176.588V60H175.524C174.721 60 174.1 59.7433 173.662 59.23C173.195 59.7433 172.551 60 171.73 60H170.89V58.866H171.632C172.602 58.866 173.088 58.3573 173.088 57.34V51.614L174.306 50.97V57.354C174.306 57.8953 174.408 58.2827 174.614 58.516C174.828 58.7493 175.178 58.866 175.664 58.866ZM182.659 58.866H186.355V60H182.547C182.043 60 181.544 59.902 181.049 59.706C180.554 59.902 180.05 60 179.537 60H175.743V58.866H179.439H179.635C178.963 58.3153 178.272 57.508 177.563 56.444V55.828C178.011 55.184 178.543 54.6753 179.159 54.302C179.784 53.9287 180.41 53.742 181.035 53.742C181.66 53.742 182.286 53.9333 182.911 54.316C183.536 54.6893 184.078 55.2027 184.535 55.856V56.444C183.826 57.508 183.13 58.3153 182.449 58.866H182.659ZM178.683 56.15C179.542 57.326 180.33 58.1007 181.049 58.474C181.768 58.0913 182.556 57.312 183.415 56.136C182.715 55.2867 181.922 54.8573 181.035 54.848C180.148 54.848 179.364 55.282 178.683 56.15ZM194.534 58.866H195.472V60H194.408C193.634 60 193.022 59.7527 192.574 59.258C192.098 59.9393 191.403 60.28 190.488 60.28C189.574 60.28 188.883 59.944 188.416 59.272C187.978 59.7573 187.366 60 186.582 60H185.518V58.866H186.442C187.357 58.866 187.814 58.3993 187.814 57.466V57.004C187.814 55.9213 188.08 55.0907 188.612 54.512C189.079 53.9987 189.704 53.742 190.488 53.742C191.384 53.742 192.075 54.0733 192.56 54.736C192.971 55.3053 193.176 56.0613 193.176 57.004V57.466C193.176 58.3993 193.629 58.866 194.534 58.866ZM190.488 59.146C190.946 59.146 191.305 58.9547 191.566 58.572C191.837 58.1893 191.972 57.662 191.972 56.99C191.972 55.5713 191.478 54.862 190.488 54.862C189.508 54.862 189.018 55.5713 189.018 56.99C189.018 58.4273 189.508 59.146 190.488 59.146ZM194.638 60V58.866H195.38C196.35 58.866 196.836 58.3573 196.836 57.34V51.614L198.054 50.97V57.354C198.054 58.1847 197.806 58.8427 197.312 59.328C196.845 59.776 196.234 60 195.478 60H194.638ZM200.57 60V51.614L201.774 50.97V60H200.57ZM208.816 52.23C208.359 52.23 208.13 51.9967 208.13 51.53C208.13 51.0727 208.359 50.844 208.816 50.844C209.264 50.844 209.488 51.0727 209.488 51.53C209.488 51.9967 209.264 52.23 208.816 52.23ZM210.986 58.866H211.91V60H210.846C210.37 60 209.959 59.9067 209.614 59.72C209.53 60.644 209.208 61.3813 208.648 61.932C208.135 62.436 207.491 62.688 206.716 62.688C206.156 62.688 205.61 62.548 205.078 62.268V61.218C205.554 61.4793 206.03 61.61 206.506 61.61C207.103 61.61 207.57 61.4093 207.906 61.008C208.242 60.6067 208.41 60.0513 208.41 59.342V54.568L209.614 53.924V53.938L209.628 53.924V57.746C209.712 58.4927 210.165 58.866 210.986 58.866ZM213.731 52.23C213.274 52.23 213.045 51.9967 213.045 51.53C213.045 51.0727 213.274 50.844 213.731 50.844C214.179 50.844 214.403 51.0727 214.403 51.53C214.403 51.9967 214.179 52.23 213.731 52.23ZM215.943 58.866H216.867V60H215.803C215.029 60 214.417 59.7527 213.969 59.258C213.521 59.7527 212.91 60 212.135 60H211.071V58.866H211.995C212.91 58.866 213.367 58.3993 213.367 57.466V54.568L214.571 53.924V57.466C214.571 58.3993 215.029 58.866 215.943 58.866ZM218.778 54.078C218.788 54.078 218.802 54.078 218.82 54.078C218.839 54.078 218.853 54.078 218.862 54.078C219.917 54.078 220.771 54.4047 221.424 55.058C222.022 55.646 222.32 56.3973 222.32 57.312V57.55C222.32 58.3527 222.073 58.978 221.578 59.426C221.14 59.8087 220.575 60 219.884 60H216.02V58.866H219.772C220.668 58.866 221.116 58.3947 221.116 57.452V57.326C221.116 56.6353 220.846 56.1033 220.304 55.73C219.875 55.4407 219.352 55.296 218.736 55.296C218.242 55.296 217.742 55.3847 217.238 55.562V54.372L220.304 50.97H221.536L218.778 54.078Z" fill="#253C30" fill-opacity="0.52"/>
</svg>
