<svg width="314" height="278" viewBox="0 0 314 278" fill="none" xmlns="http://www.w3.org/2000/svg">
<path d="M276.702 166.719L275.518 167.661L244.228 165.117L232.109 149.619L232.053 148.092L231.926 148.066C231.507 147.98 231.049 147.753 230.446 147.441C230.222 147.325 229.98 147.269 229.705 147.269C229.549 147.269 229.401 147.287 229.271 147.302C229.165 147.315 229.065 147.327 228.981 147.327C228.803 147.327 228.726 147.277 228.664 147.122C228.464 146.627 228.829 145.812 229.719 144.766C230.452 143.903 230.639 143.354 230.385 142.806C230.374 142.782 230.363 142.746 230.352 142.699L230.302 142.471L230.103 142.594C229.704 142.84 229.245 143.167 228.877 143.43L228.861 143.442C228.413 143.762 227.991 144.064 227.777 144.157C227.483 144.285 226.844 144.371 226.186 144.371C225.314 144.371 224.585 144.223 224.237 143.975C223.645 143.554 223.193 142.347 223.027 141.848L223.006 141.784L222.945 141.753C222.485 141.517 221.827 140.893 221.478 140.362C221.286 140.069 221.075 139.776 220.87 139.493C220.456 138.919 220.066 138.377 219.869 137.899C219.77 137.657 219.658 137.137 219.528 136.535C219.269 135.339 218.948 133.85 218.458 133.246C218.084 132.786 217.689 132.708 217.34 132.64C216.973 132.568 216.655 132.506 216.338 132.015C216.17 131.756 215.983 131.493 215.803 131.238C215.328 130.569 214.79 129.81 214.928 129.516C215.129 129.088 214.897 128.795 214.651 128.485C214.533 128.336 214.398 128.166 214.28 127.952C214.16 127.736 214.203 127.601 214.261 127.415C214.352 127.123 214.466 126.759 213.884 126.136C213.592 125.822 213.35 125.625 213.173 125.481C212.809 125.184 212.733 125.123 212.811 124.624C212.851 124.363 212.968 124.052 213.298 124.052C213.491 124.052 213.717 124.16 213.92 124.349C214.163 124.576 214.354 124.682 214.521 124.682C214.626 124.682 214.718 124.64 214.787 124.561C214.951 124.371 214.978 123.971 214.874 123.262C214.789 122.681 214.866 122.406 214.928 122.185C215.023 121.849 215.058 121.631 214.678 121.073C214.367 120.616 214.099 120.421 213.862 120.248C213.598 120.055 213.39 119.903 213.17 119.415C212.712 118.399 212.687 117.352 212.816 117.244C212.987 117.168 213.29 116.99 213.389 116.652C213.465 116.39 213.398 116.1 213.191 115.79C212.791 115.193 211.698 114.575 210.54 113.92C210.263 113.763 209.985 113.606 209.721 113.451C209.142 113.111 208.527 112.341 207.984 111.662C207.322 110.834 206.751 110.119 206.241 110.119C206.197 110.119 206.154 110.124 206.112 110.134C205.723 110.231 205.534 110.463 205.396 110.631C205.31 110.737 205.259 110.797 205.209 110.797C205.17 110.797 205.075 110.772 204.872 110.605C204.54 110.332 204.475 109.905 204.406 109.452C204.33 108.948 204.25 108.426 203.763 108.163C203.463 108.002 203.178 107.908 202.948 107.832C202.813 107.788 202.649 107.734 202.593 107.694C202.601 107.678 202.619 107.652 202.655 107.613C202.794 107.463 203.102 107.319 203.374 107.193C203.781 107.003 204.102 106.853 204.135 106.607C204.145 106.529 204.129 106.412 203.994 106.298C203.525 105.903 201.993 105.285 201.126 105.216C200.78 105.188 200.506 105.073 200.265 104.971C200.04 104.876 199.827 104.786 199.599 104.786C199.48 104.786 199.367 104.81 199.254 104.859C199.231 104.869 199.21 104.874 199.19 104.874C199.111 104.874 199.037 104.797 198.988 104.733C198.763 104.433 198.635 103.781 198.735 103.441C198.769 103.326 198.816 103.217 198.865 103.102C199.044 102.682 199.246 102.206 198.75 101.421C198.178 100.517 197.587 99.583 196.858 98.961C196.151 98.3585 196.036 98.1638 196.036 97.5718C196.036 96.8296 195.715 96.3376 195.26 95.7235C195.056 95.4485 195.092 95.1784 195.134 94.8657C195.176 94.544 195.225 94.1794 195 93.7875C194.872 93.5648 194.751 93.3883 194.634 93.2175C194.58 93.1378 194.526 93.0589 194.472 92.9764L194.423 92.9013H185.271C184.999 92.787 183.679 91.1588 183.392 89.6924C183.135 88.3809 182.735 87.5289 182.619 87.2991L182.578 87.2182L171.116 86.0582L170.59 86.0003L150.407 83.777L139.723 74.576L120.886 58.2281C120.815 58.1571 120.133 57.5108 118.199 56.6751C117.84 56.5204 117.439 56.3482 117.019 56.1683C114.082 54.9088 112.66 54.2809 112.519 54.1144C112.078 53.6319 102.985 46.6678 102.591 46.5108L102.583 46.5072L102.573 46.5046C102.159 46.3926 88.391 43.0524 88.252 43.0187L88.1752 43L88.1122 43.0477C86.9627 43.918 85.8798 44.565 85.141 44.823C84.54 45.0329 80.852 45.9194 74.4761 47.3871L74.3519 47.4157L74.1409 47.4642C69.445 48.5442 64.7961 49.5941 63.483 49.89L63.2343 49.946L73.5576 63.7411C69.3125 64.6916 67.648 70.117 67.6317 70.1716L58.8636 70.9988L55.6727 75.4548L50.4976 79.5106L37.5736 76.0094L37.5239 76.1572C37.2564 76.9524 36.9159 77.8626 36.5864 78.7427C36.1155 80.0011 35.6707 81.1896 35.4463 82.0122L35.3954 82.1983L35.588 82.2195C36.5123 82.3215 37.8903 82.5041 38.732 82.6837L38.767 82.6911L38.7323 82.6838C37.8866 82.5035 36.4867 82.3189 35.5449 82.2156L35.3964 82.1994L35.3575 82.3765C35.3515 82.4029 35.3456 82.4292 35.3409 82.4534C35.1735 83.3201 35.1064 83.9546 35.0473 84.5145C34.9691 85.254 34.9075 85.8381 34.6447 86.6224C34.447 87.2126 33.8221 88.1994 33.2178 89.1538C32.1965 90.767 31.583 91.7831 31.6757 92.291C31.7409 92.6478 31.9631 92.7227 32.138 92.7227H32.1381C32.3008 92.7227 32.4921 92.6604 32.7135 92.5881C33.0139 92.4903 33.3878 92.3684 33.8031 92.3684C34.0487 92.3684 34.2801 92.4095 34.5107 92.4941C34.7831 92.5941 35.0501 92.6426 35.3269 92.6426C35.6529 92.6426 35.9406 92.5742 36.1942 92.5138C36.4023 92.4644 36.5989 92.4176 36.7809 92.4176C37.0055 92.4176 37.2828 92.476 37.6363 92.9089C38.573 94.0563 40.9466 97.4735 41.8972 100.154C42.8138 102.738 42.9333 102.842 44.0762 103.835L44.2056 103.947C44.7753 104.443 44.8502 105.032 44.9369 105.713C45.0251 106.406 45.1251 107.191 45.8349 107.897C46.4875 108.547 46.6648 109.133 46.8524 109.753C47.0358 110.36 47.2255 110.987 47.8555 111.693C48.6595 112.592 49.4962 114.579 50.3054 116.5C50.725 117.497 51.1214 118.438 51.496 119.183C52.1016 120.389 52.7138 120.682 53.161 120.896C53.5261 121.071 53.7093 121.159 53.7401 121.68C53.7663 122.122 53.6328 122.517 53.5037 122.9C53.2753 123.577 53.0389 124.277 54.0591 124.841C54.1782 124.907 54.2956 124.97 54.4113 125.033C55.6677 125.714 56.6602 126.251 57.4945 128.327C57.9195 129.385 58.0676 130.085 58.1864 130.648C58.33 131.328 58.4338 131.819 58.9182 132.476C58.9878 132.57 59.0538 132.659 59.1164 132.742C59.8179 133.681 60.0295 133.964 59.8232 135.538C59.7302 136.249 59.4214 136.718 59.149 137.132C58.7681 137.71 58.4392 138.21 59.1686 138.935C59.381 139.147 59.6276 139.381 59.8887 139.628C60.1699 139.895 60.4609 140.171 60.7659 140.471L60.898 140.601L61.013 140.456C61.3645 140.013 62.0133 139.802 62.6375 139.681C61.9999 139.805 61.3359 140.024 60.9884 140.494L60.9044 140.608L61.0039 140.708C62.0728 141.784 62.8192 142.714 63.3527 143.635C64.2671 145.212 65.8986 146.216 67.7877 147.378C68.3637 147.732 68.9594 148.099 69.5644 148.5C69.9276 148.741 70.2612 148.957 70.5665 149.155C72.3975 150.342 73.1554 150.833 73.1554 152.01C73.1554 153.607 73.9681 154.829 75.2796 156.284L75.3354 156.345L75.3632 156.343L75.3848 156.513C75.408 156.695 75.3575 156.94 75.3087 157.178C75.2412 157.506 75.1713 157.845 75.2662 158.119C75.3969 158.496 75.7332 158.733 76.03 158.942L76.1194 159.005C76.4972 159.275 76.676 159.527 76.6663 159.778C76.6606 159.92 76.5923 160.062 76.5199 160.213L76.4842 160.287C76.1735 160.948 76.1969 161.562 76.547 161.93C76.6729 162.062 76.8273 162.149 76.9767 162.233C77.145 162.328 77.304 162.418 77.386 162.557C77.5106 162.769 77.4406 163.053 77.3665 163.353C77.2836 163.688 77.1902 164.067 77.3907 164.386C77.4464 165.014 77.8541 165.504 78.2488 165.978C78.4926 166.272 78.7447 166.575 78.9021 166.901C79.2141 167.548 79.2535 168.321 79.2883 169.004C79.3419 170.057 79.3973 171.147 79.1279 172.177C79.0418 172.507 78.9192 172.845 78.8008 173.172C78.5088 173.978 78.2071 174.81 78.382 175.657C77.8261 176.09 77.3953 177.229 77.7361 177.787C77.8837 178.029 78.0966 178.206 78.3025 178.376C78.3854 178.445 78.4682 178.514 78.5461 178.586C78.6526 178.686 78.993 179.038 78.8976 179.386C78.8806 179.448 78.8493 179.511 78.8161 179.577C78.7793 179.651 78.7411 179.728 78.7155 179.816C78.5567 180.358 78.9606 180.795 79.317 181.181C79.3973 181.268 79.4767 181.354 79.5483 181.439C79.8467 181.797 79.9958 182.303 79.9372 182.761C79.9069 182.998 79.8058 183.328 79.4965 183.55C79.4436 183.588 79.3863 183.622 79.3289 183.657C79.1404 183.772 78.9267 183.902 78.8399 184.144C78.6956 184.547 79.0023 184.886 79.2487 185.159C79.2957 185.211 79.342 185.262 79.3844 185.312C79.6021 185.572 79.7299 185.901 79.7444 186.238C79.8064 187.691 80.7439 188.837 81.6504 189.944C82.1787 190.59 82.725 191.257 83.0959 191.98C83.2812 192.342 83.4392 192.727 83.5921 193.1C83.7661 193.525 83.9463 193.964 84.1702 194.379C84.8801 195.693 85.9854 196.707 87.0543 197.688C87.7334 198.311 88.5461 198.948 89.4249 198.948C89.5842 198.948 89.7423 198.926 89.8952 198.884C89.9183 198.877 89.9434 198.874 89.9696 198.874C90.2153 198.874 90.545 199.153 90.6985 199.414C90.7722 199.539 90.8298 199.675 90.8909 199.818C90.9772 200.02 91.0665 200.23 91.2073 200.416C91.6066 200.945 92.2865 201.127 92.8864 201.288L92.9209 201.297C93.7304 201.514 94.5385 201.806 94.9666 202.46C95.0388 202.571 95.0989 202.69 95.1626 202.817C95.2684 203.027 95.3778 203.244 95.55 203.426C95.6313 203.511 95.7209 203.583 95.8076 203.652C95.8993 203.726 95.9859 203.795 96.0561 203.876C96.2127 204.055 96.2919 204.292 96.3757 204.544C96.4609 204.799 96.5489 205.063 96.7263 205.286C96.9606 205.58 97.335 205.756 97.7275 205.756C97.8693 205.756 98.0066 205.733 98.1357 205.687C98.1731 205.673 98.2076 205.667 98.2384 205.667C98.4756 205.667 98.6044 206.127 98.6234 206.555C98.6264 206.621 98.6283 206.689 98.6304 206.758C98.6448 207.254 98.6611 207.816 99.0695 208.166C99.282 208.348 99.5523 208.425 99.8136 208.5C100.122 208.588 100.389 208.664 100.501 208.888C100.597 209.081 100.54 209.326 100.479 209.586C100.408 209.885 100.328 210.224 100.497 210.527C100.625 210.757 100.844 210.874 101.055 210.988C101.182 211.056 101.302 211.12 101.394 211.204C101.727 211.509 101.7 212.036 101.67 212.594C101.637 213.239 101.602 213.906 102.165 214.255C102.293 214.335 102.432 214.379 102.566 214.421C102.721 214.471 102.868 214.517 102.966 214.612C103.174 214.813 103.115 215.104 102.993 215.56C102.911 215.862 102.828 216.174 102.874 216.48C102.935 216.884 103.209 217.179 103.474 217.464C103.709 217.717 103.931 217.955 103.988 218.249C104.055 218.591 103.889 218.932 103.714 219.292C103.662 219.397 103.611 219.503 103.566 219.608C103.311 220.199 103.371 220.952 103.913 221.188C105.271 221.78 106.139 223.055 106.566 225.086C106.612 225.304 106.654 225.525 106.696 225.745C106.787 226.223 106.881 226.718 107.016 227.193L107.067 227.37L107.066 227.37L107.116 227.517C107.207 227.789 107.306 228.027 107.417 228.245C107.967 229.33 108.925 230.156 109.779 230.845C110.859 231.716 111.993 232.546 113.15 233.314C115.625 234.956 116.961 237.405 116.813 240.034L116.809 240.108C116.795 240.335 116.78 240.57 116.85 240.803C116.93 241.075 117.16 241.359 117.494 241.381C117.507 241.382 117.521 241.382 117.534 241.382C117.728 241.382 117.896 241.293 118.044 241.214C118.084 241.192 118.124 241.171 118.164 241.152C118.243 241.114 118.329 241.092 118.401 241.092C118.468 241.092 118.516 241.11 118.543 241.145C118.652 241.288 118.729 241.44 118.811 241.6C118.927 241.829 119.047 242.065 119.265 242.268C119.423 242.416 119.587 242.57 119.691 242.751C119.771 242.891 119.817 243.05 119.867 243.219C119.892 243.307 119.918 243.395 119.948 243.481C120.124 243.979 120.451 244.413 120.767 244.832C121.201 245.408 121.611 245.952 121.609 246.609C121.607 246.829 121.558 247.049 121.506 247.282C121.434 247.605 121.359 247.939 121.419 248.284C121.481 248.644 121.677 248.944 121.866 249.233C121.948 249.358 122.025 249.476 122.093 249.599C122.284 249.949 122.4 250.342 122.448 250.803L122.468 251L122.659 250.945C123.22 250.781 123.947 250.38 124.148 249.786C124.162 249.746 124.174 249.706 124.186 249.666C124.225 249.537 124.262 249.415 124.339 249.308C124.514 249.063 124.826 249 125.128 248.939C125.279 248.908 125.421 248.879 125.556 248.829C125.943 248.686 126.255 248.336 126.352 247.938C126.385 247.8 126.396 247.66 126.408 247.512C126.429 247.238 126.449 246.98 126.609 246.773C126.808 246.516 127.134 246.444 127.479 246.367C127.823 246.291 128.178 246.212 128.362 245.926C128.549 245.635 128.457 245.252 128.321 245.013C128.195 244.792 128.019 244.616 127.828 244.422C127.783 244.377 127.738 244.332 127.694 244.286C127.498 244.082 127.265 243.804 127.209 243.472C127.189 243.356 127.195 243.253 127.226 243.164C127.275 243.02 127.39 242.913 127.501 242.809C127.559 242.755 127.615 242.703 127.664 242.644C127.972 242.278 127.953 241.751 127.906 241.242C127.884 240.998 127.856 240.694 127.965 240.438C128.132 240.048 128.583 239.834 128.882 239.693C129.087 239.596 129.221 239.283 129.158 239.049C129.118 238.902 129.019 238.78 128.924 238.662C128.895 238.627 128.866 238.592 128.839 238.557C128.687 238.355 128.638 238.161 128.701 238.01C128.74 237.914 128.824 237.84 128.897 237.774C129.357 237.362 129.801 236.92 130.216 236.459L130.265 236.405L130.258 236.332C130.255 236.308 130.249 236.278 130.23 236.232L130.299 236.384L130.464 236.266C130.801 236.024 131.109 235.862 131.333 235.81C131.348 235.806 131.368 235.804 131.391 235.804C131.74 235.804 132.604 236.206 133.701 236.878L133.818 236.949L133.906 236.853L133.819 236.952L133.968 237.058C134.2 237.225 136.256 238.681 136.972 238.681C136.996 238.681 137.018 238.68 137.039 238.677C137.352 238.635 137.621 238.449 137.859 238.286C138.08 238.133 138.308 237.976 138.535 237.976C138.624 237.976 138.709 238.001 138.795 238.051C139.034 238.191 139.159 238.412 139.268 238.607C139.382 238.809 139.481 238.984 139.675 238.984C139.741 238.984 139.801 238.963 139.855 238.941C140.068 238.853 140.425 238.661 140.804 238.457C141.451 238.108 142.185 237.712 142.638 237.589C142.978 237.497 145.472 237.424 148.315 237.424C152.118 237.424 153.677 237.544 153.867 237.655C153.976 237.719 154.129 237.813 154.31 237.925C155.274 238.518 156.339 239.156 156.782 239.205C156.897 239.217 157.351 239.287 158.039 239.392L158.066 239.396C160.285 239.736 166.18 240.639 167.738 240.639C167.998 240.639 168.088 240.615 168.145 240.589C168.695 240.329 171.849 239.749 172.944 239.749C173.077 239.749 173.146 239.758 173.18 239.765C173.563 239.85 174.549 241.242 175.341 242.361C175.767 242.963 176.17 243.531 176.36 243.721C176.741 244.1 177.817 244.141 178.262 244.141C178.372 244.141 178.928 244.137 179.095 244.059L179.106 244.053L179.117 244.046C179.149 244.025 179.284 243.947 179.455 243.849C181.897 242.451 182.01 242.209 182.058 242.106L182.063 242.095L182.066 242.084C182.072 242.063 182.082 242.017 182.093 241.949L182.061 242.188L182.502 241.334C182.789 240.78 183.185 239.898 183.443 238.841C183.736 237.645 184.7 236.575 185.721 235.441C186.366 234.725 187.033 233.984 187.61 233.141C189.103 230.958 191.233 228.689 191.255 228.666L203.042 222.165C203.178 222.152 216.702 220.832 220.746 220.045C221.906 219.82 223.521 219.567 225.396 219.274C230.234 218.517 236.256 217.575 239.587 216.324C244.173 214.601 270.755 203.62 271.014 203.513L275.99 201.673L282.666 175.151L276.702 166.719Z" fill="#D9E6DE"/>
<path d="M272.203 158.256L271.073 159.16L241.212 156.72L229.647 141.858L229.594 140.394L229.473 140.368C229.073 140.286 228.636 140.068 228.061 139.769C227.847 139.658 227.616 139.604 227.354 139.604C227.204 139.604 227.063 139.621 226.939 139.636C226.838 139.648 226.743 139.66 226.662 139.66C226.493 139.66 226.419 139.612 226.359 139.464C226.169 138.988 226.518 138.207 227.366 137.204C228.066 136.376 228.245 135.849 228.002 135.325C227.992 135.301 227.981 135.266 227.971 135.221L227.923 135.003L227.733 135.121C227.352 135.356 226.915 135.671 226.563 135.923L226.548 135.934C226.121 136.241 225.718 136.53 225.514 136.619C225.233 136.742 224.623 136.825 223.996 136.825C223.163 136.825 222.467 136.683 222.135 136.445C221.57 136.042 221.139 134.884 220.98 134.405L220.96 134.344L220.903 134.314C220.463 134.088 219.835 133.489 219.502 132.98C219.319 132.7 219.117 132.419 218.923 132.147C218.527 131.596 218.154 131.076 217.967 130.618C217.872 130.386 217.765 129.888 217.641 129.31C217.395 128.163 217.088 126.736 216.62 126.157C216.263 125.715 215.886 125.64 215.553 125.575C215.203 125.506 214.9 125.447 214.597 124.976C214.436 124.727 214.258 124.475 214.086 124.231C213.633 123.589 213.12 122.861 213.251 122.579C213.443 122.169 213.222 121.888 212.987 121.591C212.874 121.447 212.746 121.285 212.633 121.08C212.519 120.872 212.559 120.743 212.615 120.564C212.702 120.284 212.81 119.935 212.255 119.338C211.976 119.037 211.746 118.848 211.577 118.71C211.229 118.425 211.157 118.366 211.231 117.888C211.269 117.638 211.381 117.339 211.696 117.339C211.88 117.339 212.096 117.443 212.289 117.624C212.522 117.842 212.704 117.944 212.863 117.944C212.963 117.944 213.051 117.903 213.117 117.827C213.274 117.646 213.299 117.262 213.2 116.582C213.118 116.024 213.192 115.761 213.251 115.549C213.342 115.226 213.376 115.018 213.013 114.483C212.716 114.045 212.46 113.857 212.234 113.691C211.982 113.507 211.783 113.361 211.574 112.893C211.137 111.918 211.113 110.914 211.235 110.811C211.399 110.738 211.688 110.567 211.783 110.243C211.855 109.992 211.792 109.714 211.593 109.416C211.212 108.844 210.168 108.251 209.064 107.623C208.799 107.472 208.535 107.322 208.282 107.173C207.73 106.847 207.143 106.109 206.625 105.458C205.993 104.664 205.448 103.978 204.962 103.978C204.92 103.978 204.878 103.983 204.839 103.993C204.467 104.086 204.287 104.307 204.155 104.469C204.073 104.571 204.024 104.628 203.976 104.628C203.94 104.628 203.849 104.604 203.655 104.444C203.338 104.183 203.276 103.772 203.211 103.338C203.137 102.855 203.062 102.355 202.596 102.103C202.31 101.948 202.038 101.858 201.819 101.785C201.69 101.743 201.534 101.691 201.48 101.652C201.488 101.637 201.505 101.612 201.54 101.575C201.672 101.431 201.966 101.293 202.226 101.172C202.614 100.99 202.92 100.846 202.952 100.61C202.962 100.535 202.946 100.423 202.817 100.313C202.37 99.9353 200.908 99.3421 200.08 99.2759C199.75 99.2495 199.489 99.1387 199.259 99.0412C199.044 98.9499 198.841 98.8637 198.623 98.8637C198.509 98.8637 198.402 98.8867 198.294 98.9337C198.272 98.9433 198.252 98.9479 198.232 98.9479C198.157 98.9479 198.087 98.8743 198.04 98.8127C197.825 98.5248 197.703 97.8997 197.799 97.5741C197.832 97.4634 197.876 97.3593 197.922 97.249C198.093 96.846 198.287 96.3892 197.813 95.6368C197.267 94.7702 196.703 93.874 196.007 93.2775C195.333 92.6998 195.223 92.513 195.223 91.9453C195.223 91.2335 194.916 90.7617 194.482 90.1729C194.288 89.9091 194.322 89.6501 194.362 89.3501C194.403 89.0416 194.449 88.692 194.234 88.3161C194.112 88.1026 193.997 87.9333 193.885 87.7695C193.833 87.6931 193.782 87.6174 193.73 87.5383L193.684 87.4663H184.95C184.69 87.3566 183.431 85.7952 183.157 84.389C182.911 83.1312 182.53 82.3142 182.419 82.0938L182.38 82.0162L171.442 80.9038L170.94 80.8483L151.679 78.7162L141.483 69.8925L123.508 54.215C123.44 54.147 122.789 53.5271 120.943 52.7257C120.601 52.5774 120.218 52.4123 119.817 52.2397C117.014 51.0319 115.657 50.4298 115.523 50.2701C115.102 49.8073 106.425 43.1289 106.049 42.9783L106.04 42.975L106.031 42.9725C105.636 42.8651 92.4971 39.6619 92.3645 39.6295L92.2911 39.6116L92.2311 39.6573C91.1342 40.492 90.1007 41.1124 89.3957 41.3598C88.822 41.5611 85.3027 42.4113 79.2181 43.8188L79.0996 43.8462L78.8981 43.8928C74.4168 44.9283 69.9803 45.9351 68.7272 46.2192L68.4898 46.2729L78.3414 59.5022C74.2903 60.4137 72.7019 65.6166 72.6863 65.669L64.3189 66.4622L61.2739 70.7354L56.3353 74.6249L44.0018 71.2673L43.9544 71.409C43.6993 72.1717 43.3742 73.0445 43.0598 73.8885C42.6103 75.0952 42.1859 76.235 41.9717 77.0239L41.9232 77.2023L42.1069 77.2227C42.989 77.3204 44.3039 77.4956 45.1072 77.6677L45.1414 77.6751C45.2048 77.6887 45.267 77.702 45.3284 77.715C45.2664 77.7019 45.2039 77.6886 45.141 77.6751L45.1074 77.6679C44.3004 77.495 42.9644 77.318 42.0658 77.219L41.9241 77.2034L41.887 77.3733C41.8813 77.3984 41.8756 77.4238 41.8712 77.447C41.7114 78.2782 41.6474 78.8867 41.5909 79.4235C41.5163 80.1327 41.4574 80.6929 41.2067 81.445C41.0181 82.011 40.4217 82.9575 39.8452 83.8726C38.8704 85.4196 38.285 86.3941 38.3736 86.8812C38.4357 87.2233 38.6479 87.2951 38.8147 87.2951H38.8148C38.97 87.2951 39.1525 87.2354 39.3639 87.1661C39.6506 87.0722 40.0074 86.9552 40.4037 86.9552C40.638 86.9552 40.8589 86.9947 41.079 87.0758C41.339 87.1716 41.5938 87.2182 41.858 87.2182C42.1691 87.2182 42.4435 87.1526 42.6857 87.0947C42.8843 87.0473 43.0719 87.0024 43.2456 87.0024C43.4599 87.0024 43.7246 87.0584 44.0619 87.4736C44.9558 88.5739 47.2208 91.8509 48.1281 94.4212C49.0029 96.8999 49.1169 96.9993 50.2075 97.9515L50.331 98.0594C50.8747 98.5352 50.9462 99.0995 51.0289 99.7529C51.113 100.417 51.2085 101.17 51.8859 101.847C52.5086 102.47 52.6778 103.032 52.8569 103.627C53.0319 104.209 53.213 104.81 53.8143 105.487C54.5814 106.35 55.38 108.255 56.1521 110.098C56.5525 111.053 56.9308 111.955 57.2883 112.67C57.8662 113.826 58.4505 114.108 58.8772 114.313C59.2256 114.481 59.4005 114.565 59.4299 115.065C59.4548 115.488 59.3275 115.867 59.2042 116.234C58.9862 116.884 58.7607 117.555 59.7343 118.096C59.8479 118.159 59.9599 118.22 60.0704 118.28C61.2693 118.933 62.2165 119.448 63.0127 121.439C63.4183 122.453 63.5596 123.125 63.673 123.664C63.8102 124.316 63.9092 124.787 64.3714 125.418C64.4378 125.508 64.5008 125.593 64.5604 125.673C65.23 126.573 65.432 126.845 65.235 128.355C65.1462 129.036 64.8515 129.486 64.5916 129.882C64.2281 130.437 63.9142 130.916 64.6103 131.612C64.813 131.815 65.0483 132.039 65.2975 132.277C65.5659 132.532 65.8435 132.797 66.1346 133.085L66.2607 133.21L66.3704 133.071C66.5112 132.892 66.7037 132.755 66.9218 132.645C66.6912 132.762 66.4907 132.912 66.3469 133.107L66.2668 133.216L66.3619 133.312C67.3819 134.344 68.0942 135.236 68.6033 136.119C69.476 137.631 71.0329 138.594 72.8357 139.709C73.3854 140.048 73.9539 140.4 74.5312 140.785C74.8778 141.016 75.1962 141.223 75.4875 141.413C77.2348 142.551 77.9581 143.022 77.9581 144.15C77.9581 145.682 78.7337 146.854 79.9853 148.249L80.0385 148.308L80.065 148.306L80.0857 148.469C80.1078 148.644 80.0596 148.879 80.0131 149.106C79.9486 149.421 79.8819 149.747 79.9724 150.009C80.0972 150.371 80.4181 150.598 80.7013 150.798L80.7867 150.859C81.1472 151.117 81.3179 151.36 81.3086 151.6C81.3032 151.737 81.238 151.873 81.1689 152.017L81.1348 152.089C80.8382 152.722 80.8607 153.311 81.1947 153.664C81.3149 153.791 81.4622 153.874 81.6048 153.955C81.7654 154.046 81.9171 154.132 81.9954 154.265C82.1143 154.469 82.0475 154.741 81.9768 155.029C81.8977 155.35 81.8085 155.713 81.9999 156.019C82.0531 156.621 82.4421 157.091 82.8188 157.546C83.0515 157.827 83.2921 158.118 83.4422 158.431C83.74 159.051 83.7776 159.793 83.8107 160.448C83.8618 161.458 83.9146 162.503 83.6576 163.491C83.5754 163.807 83.4584 164.131 83.3454 164.444C83.0668 165.218 82.7789 166.016 82.9458 166.828C82.4153 167.243 82.0042 168.335 82.3294 168.871C82.4703 169.103 82.6734 169.272 82.8699 169.436C82.949 169.501 83.028 169.567 83.1025 169.637C83.2041 169.733 83.5289 170.07 83.4379 170.404C83.4217 170.463 83.3919 170.523 83.3601 170.587C83.325 170.658 83.2886 170.732 83.2642 170.816C83.1126 171.336 83.4981 171.755 83.8382 172.125C83.9149 172.209 83.9907 172.291 84.0589 172.373C84.3436 172.716 84.486 173.202 84.43 173.64C84.4011 173.868 84.3047 174.184 84.0095 174.397C83.959 174.433 83.9043 174.467 83.8496 174.5C83.6696 174.61 83.4657 174.735 83.3828 174.967C83.245 175.353 83.5377 175.679 83.773 175.94C83.8178 175.99 83.862 176.039 83.9025 176.087C84.1103 176.336 84.2322 176.651 84.246 176.975C84.3052 178.369 85.1998 179.467 86.065 180.529C86.5691 181.148 87.0904 181.788 87.4444 182.482C87.6212 182.828 87.772 183.198 87.9179 183.556C88.084 183.963 88.2559 184.385 88.4696 184.782C89.1471 186.042 90.202 187.015 91.222 187.955C91.87 188.553 92.6456 189.163 93.4842 189.163C93.6362 189.163 93.7871 189.143 93.933 189.102C93.9551 189.096 93.979 189.093 94.004 189.093C94.2385 189.093 94.5531 189.361 94.6996 189.611C94.77 189.731 94.8249 189.86 94.8832 189.998C94.9656 190.192 95.0508 190.393 95.1852 190.572C95.5662 191.079 96.2151 191.253 96.7875 191.408L96.8205 191.416C97.593 191.625 98.3642 191.904 98.7728 192.532C98.8417 192.638 98.8991 192.752 98.9598 192.873C99.0608 193.075 99.1652 193.283 99.3296 193.457C99.4071 193.54 99.4926 193.609 99.5754 193.675C99.6629 193.745 99.7455 193.812 99.8125 193.889C99.9619 194.061 100.038 194.289 100.118 194.53C100.199 194.775 100.283 195.028 100.452 195.242C100.676 195.524 101.033 195.692 101.408 195.692C101.543 195.692 101.674 195.67 101.797 195.626C101.833 195.613 101.866 195.607 101.895 195.607C102.122 195.607 102.245 196.048 102.263 196.458C102.265 196.522 102.267 196.587 102.269 196.653C102.283 197.129 102.299 197.668 102.688 198.003C102.891 198.178 103.149 198.252 103.398 198.323C103.693 198.408 103.947 198.481 104.054 198.696C104.146 198.881 104.091 199.116 104.033 199.366C103.966 199.652 103.89 199.977 104.05 200.267C104.173 200.488 104.381 200.601 104.583 200.709C104.704 200.775 104.818 200.836 104.907 200.917C105.225 201.21 105.198 201.715 105.17 202.25C105.138 202.868 105.105 203.508 105.642 203.843C105.765 203.919 105.897 203.962 106.025 204.003C106.173 204.05 106.313 204.094 106.406 204.185C106.605 204.378 106.549 204.657 106.432 205.094C106.355 205.384 106.275 205.683 106.319 205.976C106.377 206.364 106.639 206.647 106.891 206.92C107.115 207.162 107.327 207.391 107.382 207.674C107.446 208.001 107.288 208.328 107.12 208.673C107.071 208.775 107.022 208.875 106.979 208.976C106.736 209.543 106.793 210.265 107.31 210.491C108.606 211.059 109.435 212.282 109.842 214.23C109.886 214.439 109.926 214.65 109.966 214.862C110.053 215.32 110.143 215.794 110.272 216.25L110.32 216.42L110.32 216.42L110.367 216.561C110.454 216.822 110.548 217.05 110.654 217.259C111.179 218.3 112.093 219.092 112.908 219.752C113.939 220.587 115.021 221.384 116.125 222.12C118.488 223.694 119.762 226.044 119.621 228.564L119.617 228.635C119.604 228.853 119.59 229.078 119.656 229.302C119.733 229.563 119.953 229.835 120.271 229.856C120.284 229.857 120.297 229.857 120.309 229.857C120.495 229.857 120.655 229.771 120.796 229.696C120.834 229.675 120.872 229.655 120.911 229.636C120.986 229.6 121.068 229.579 121.137 229.579C121.201 229.579 121.246 229.596 121.272 229.63C121.376 229.767 121.45 229.913 121.527 230.066C121.639 230.285 121.753 230.512 121.961 230.707C122.112 230.849 122.269 230.996 122.367 231.17C122.443 231.304 122.488 231.457 122.535 231.619C122.56 231.703 122.584 231.788 122.613 231.87C122.781 232.348 123.093 232.763 123.395 233.166C123.809 233.718 124.2 234.24 124.197 234.869C124.196 235.08 124.149 235.291 124.1 235.515C124.031 235.825 123.959 236.145 124.016 236.476C124.076 236.821 124.263 237.109 124.444 237.387C124.522 237.506 124.595 237.62 124.659 237.737C124.842 238.072 124.953 238.45 124.998 238.892L125.017 239.081L125.2 239.027C125.735 238.871 126.429 238.486 126.621 237.916C126.634 237.878 126.646 237.84 126.657 237.802C126.695 237.678 126.73 237.56 126.803 237.458C126.97 237.224 127.268 237.163 127.556 237.104C127.7 237.074 127.836 237.047 127.964 236.999C128.333 236.862 128.631 236.526 128.724 236.144C128.755 236.012 128.766 235.878 128.777 235.736C128.797 235.473 128.817 235.226 128.97 235.027C129.159 234.781 129.47 234.711 129.8 234.638C130.127 234.565 130.466 234.489 130.642 234.215C130.821 233.936 130.733 233.569 130.603 233.34C130.483 233.128 130.315 232.958 130.132 232.773C130.089 232.729 130.047 232.686 130.005 232.642C129.817 232.446 129.596 232.18 129.542 231.862C129.523 231.751 129.528 231.651 129.558 231.566C129.605 231.428 129.714 231.326 129.82 231.226C129.876 231.173 129.929 231.124 129.976 231.067C130.27 230.717 130.252 230.211 130.207 229.723C130.186 229.489 130.16 229.198 130.264 228.952C130.422 228.578 130.853 228.373 131.138 228.238C131.334 228.145 131.462 227.845 131.402 227.62C131.364 227.479 131.27 227.362 131.178 227.249C131.151 227.215 131.124 227.182 131.098 227.148C130.953 226.954 130.906 226.768 130.965 226.623C131.003 226.532 131.083 226.46 131.153 226.397C131.592 226.002 132.015 225.578 132.412 225.136L132.458 225.084L132.451 225.014C132.449 224.992 132.443 224.962 132.425 224.919L132.491 225.064L132.648 224.951C132.969 224.719 133.264 224.564 133.478 224.514C133.492 224.51 133.511 224.508 133.533 224.508C133.866 224.508 134.69 224.893 135.738 225.538L135.849 225.606L135.933 225.514L135.85 225.609L135.992 225.711C136.213 225.87 138.175 227.267 138.859 227.267C138.882 227.267 138.903 227.266 138.923 227.263C139.221 227.223 139.478 227.045 139.705 226.888C139.916 226.742 140.134 226.591 140.35 226.591C140.436 226.591 140.517 226.614 140.599 226.663C140.827 226.797 140.946 227.009 141.05 227.196C141.159 227.39 141.253 227.557 141.439 227.557C141.502 227.557 141.558 227.538 141.61 227.516C141.814 227.432 142.154 227.248 142.516 227.052C143.133 226.717 143.833 226.338 144.266 226.22C144.591 226.131 146.971 226.062 149.683 226.062C153.313 226.062 154.801 226.176 154.982 226.283C155.086 226.344 155.232 226.435 155.405 226.542C156.324 227.111 157.341 227.722 157.764 227.769C157.873 227.781 158.307 227.848 158.964 227.949L158.989 227.953C161.107 228.279 166.732 229.145 168.22 229.145C168.467 229.145 168.553 229.121 168.608 229.097C169.132 228.847 172.142 228.291 173.187 228.291C173.314 228.291 173.38 228.299 173.412 228.306C173.778 228.388 174.719 229.723 175.475 230.796C175.882 231.373 176.266 231.918 176.447 232.1C176.811 232.464 177.838 232.503 178.263 232.503C178.367 232.503 178.898 232.5 179.057 232.424L179.068 232.419L179.078 232.412C179.108 232.392 179.237 232.318 179.401 232.224C181.732 230.883 181.839 230.651 181.885 230.551L181.889 230.542L181.893 230.531C181.899 230.511 181.907 230.467 181.918 230.402L181.887 230.631L182.309 229.812C182.582 229.28 182.96 228.434 183.207 227.421C183.487 226.274 184.406 225.247 185.381 224.16C185.996 223.473 186.632 222.763 187.183 221.955C188.608 219.861 190.641 217.685 190.661 217.663L201.91 211.429C202.04 211.416 214.946 210.15 218.805 209.396C219.912 209.179 221.453 208.937 223.242 208.656C227.859 207.93 233.606 207.027 236.785 205.827C241.161 204.175 266.529 193.644 266.776 193.541L271.525 191.777L277.895 166.344L272.203 158.256Z" fill="#3D9635"/>
<path d="M104.146 116.741C103.968 119.196 103.742 123.538 105.83 123.978C108.352 124.209 106.963 119.699 107.87 118.881C108.043 118.482 108.363 118.482 108.389 118.986V122.825C108.373 124.062 109.186 124.419 109.826 124.671C110.487 124.629 110.927 124.65 111.185 125.3C111.295 127.503 111.394 129.706 111.494 131.909C111.494 131.909 113.036 132.37 113.109 128.195C113.178 125.741 112.622 123.706 112.947 123.223C112.957 122.762 113.55 122.72 113.975 122.972C114.636 123.433 114.929 124 115.952 123.769C117.515 123.328 118.443 122.594 118.469 121.377C118.38 120.244 118.254 119.09 117.767 117.958C117.835 117.748 117.457 117.224 117.536 117.013C117.814 117.454 118.233 117.412 118.328 117.013C118.071 116.133 117.657 115.314 116.99 114.937C116.434 114.454 115.616 114.559 115.322 115.587C115.202 116.72 115.753 118.126 116.607 119.258C116.786 119.699 117.032 120.433 116.922 121.104C116.471 121.335 116.025 121.251 115.647 120.853C115.647 120.853 114.394 119.909 114.394 119.72C114.73 117.601 114.473 117.349 114.289 116.762C114.164 115.965 113.77 115.692 113.466 115.168C113.156 114.811 112.737 114.811 112.537 115.168C111.987 116.112 112.239 118.147 112.637 119.069C112.915 119.909 113.361 120.433 113.157 120.433C112.983 120.916 112.632 120.79 112.375 120.244C112.008 119.112 111.945 117.412 111.945 116.657C111.83 115.713 111.704 113.699 111.085 113.175C110.707 112.671 110.141 112.923 109.941 113.406C109.905 114.328 109.905 115.272 110.005 116.133C110.44 117.643 110.561 118.986 110.775 120.538C110.828 122.615 109.58 121.44 109.632 120.391C109.926 119.069 109.837 116.951 109.59 116.426C109.385 115.881 109.144 115.755 108.641 115.86C108.242 115.818 107.23 116.93 106.947 118.776C106.947 118.776 106.7 119.72 106.601 120.58C106.454 121.524 105.83 122.195 105.395 120.433C105.007 119.154 104.781 116.007 104.146 116.741Z" fill="#EAF7E8"/>
<path d="M111.004 126.81C108.775 127.923 106.615 128.93 104.422 129.978C104.512 128.488 107.559 125.803 109.63 125.761C110.983 125.803 110.637 126.286 111.004 126.81Z" fill="#EAF7E8"/>
<path d="M119.392 112.923C119.266 112.923 119.13 113.007 118.973 113.049C118.438 113.196 117.924 113.678 118.091 114.58C118.726 118.441 119.13 121.377 119.764 125.216C119.874 125.678 119.487 126.265 119.004 126.223C118.17 125.657 117.965 124.503 116.549 124.566C115.522 124.587 114.352 125.699 114.2 126.769C114.043 127.629 113.974 128.552 114.2 129.286C114.929 130.167 115.805 130.062 116.549 129.874C117.168 129.622 117.687 128.992 117.908 129.139C118.044 129.391 117.887 131.405 114.976 132.936C113.177 133.733 111.756 133.943 110.985 132.475C110.518 131.552 111.022 128.069 109.857 128.867C106.391 137.803 117.966 139.062 119.261 129.244C119.345 128.971 119.607 128.699 119.785 128.761C119.874 128.803 119.932 128.909 119.953 129.118C119.686 137.992 111.006 138.58 109.532 135.81C109.155 135.139 109.05 133.691 109.013 132.81C108.945 132.265 108.808 131.95 108.656 131.824C108.305 131.573 107.833 132.265 107.728 133.461C107.581 134.426 107.623 134.698 107.623 135.601C108.084 142.649 119.266 139.628 121.091 133.817C121.983 130.817 121.07 128.573 121.374 128.279C121.374 128.279 121.38 128.279 121.39 128.279C121.39 128.279 121.39 128.279 121.401 128.279H121.411C121.422 128.279 121.438 128.258 121.438 128.258C122.57 129.454 124.112 128.405 124.459 128.006C124.616 127.796 124.972 127.671 125.235 127.923C126.095 128.552 127.616 128.258 127.93 127.167C128.109 126.097 128.266 124.985 128.308 123.832C127.731 123.999 127.28 124.147 127.102 124.335C127.059 124.377 127.023 124.44 127.012 124.503C126.97 124.796 126.923 125.132 126.871 125.447C126.871 125.468 126.85 125.51 126.845 125.531C126.824 125.573 126.776 125.594 126.735 125.615C126.535 125.741 126.2 125.657 126.168 125.363C125.906 124.167 124.804 123.978 124.133 125.867C123.672 126.244 122.864 126.307 122.775 125.782C122.89 124.503 122.371 124.335 121.349 124.923C121.023 122.405 120.688 120.013 120.357 117.496C120.792 117.496 121.17 117.811 121.569 117.328C121.144 116.007 120.253 113.321 119.749 113.07H119.739C119.718 113.048 119.686 113.007 119.66 112.986C119.66 112.986 119.639 112.986 119.628 112.965C119.618 112.965 119.607 112.965 119.597 112.965C119.576 112.944 119.544 112.944 119.539 112.923C119.486 112.923 119.439 112.902 119.392 112.923ZM116.282 126.706C116.497 126.685 116.759 126.769 116.896 127.083C116.99 127.356 116.896 127.629 116.769 127.755C116.769 127.755 116.769 127.755 116.759 127.755C116.67 127.902 116.376 127.839 116.156 127.839C115.889 127.839 115.763 127.776 115.611 127.566C115.532 127.335 115.752 127.104 115.857 126.916C115.857 126.916 115.857 126.916 115.868 126.916C115.878 126.916 115.889 126.874 115.904 126.853C115.994 126.789 116.125 126.727 116.282 126.706Z" fill="#EAF7E8"/>
<path d="M127.185 112.713C126.892 112.734 126.624 112.818 126.404 112.923C125.832 113.489 125.696 114.349 126.141 114.916C126.582 115.105 127.023 115.566 126.724 115.797C125.486 117.119 122.245 119.342 122.083 119.761V119.783C122.093 119.783 122.093 119.804 122.093 119.804H122.104H122.109H122.119C122.287 119.929 124.306 119.929 124.537 119.825V119.804H124.542C125.24 119.552 128.538 115.776 128.538 115.776C128.376 115.629 128.208 115.524 128.041 115.377C127.857 115.23 127.872 115.062 128.041 114.916C128.853 114.433 128.601 113.384 128.176 112.902C127.82 112.734 127.484 112.692 127.185 112.713ZM127.034 113.867C127.238 113.846 127.474 114.055 127.594 114.307C127.726 114.58 127.658 114.853 127.458 114.916C127.248 114.958 126.981 114.769 126.845 114.496C126.714 114.203 126.787 113.93 126.997 113.888C127.007 113.888 127.012 113.867 127.034 113.867Z" fill="#EAF7E8"/>
<path d="M104.654 133.146C103.422 135.118 103.312 138.055 103.993 138.936C104.355 139.356 104.948 139.544 105.394 139.397C106.165 139.062 106.511 137.488 106.322 136.922C106.065 136.502 105.861 136.439 105.598 136.796C105.058 137.887 104.827 137.132 104.78 136.502C104.691 135.328 104.806 134.258 104.927 133.398C105.063 132.538 104.927 132.789 104.654 133.146Z" fill="#EAF7E8"/>
<path d="M157.446 129.999C156.261 127.419 154.604 124.881 154.08 123.916C153.55 122.93 149.58 117.182 148.992 116.51C147.697 114.979 151.09 117.161 148.562 114.098C147.608 113.279 147.55 113.237 146.737 112.566C146.349 112.272 145.353 111.769 145.19 112.608C145.095 113.384 145.142 113.804 145.274 114.433C145.374 114.853 145.987 115.587 146.291 115.985C150.325 121.398 153.896 126.853 157.342 133.733C157.887 133.481 157.772 130.44 157.446 129.999Z" fill="#EAF7E8"/>
<path d="M152.211 138.601C151.97 138.852 152.783 140.006 153.847 139.985C155.615 139.796 157.178 138.789 158.615 136.167C158.998 135.559 159.685 134.258 159.706 133.23C159.832 127.293 159.407 122.678 158.516 118.377C158.452 117.958 158.489 117.475 158.557 117.349C158.673 117.203 159.061 117.349 159.265 117.013C159.575 116.699 158.468 114.14 157.839 113.154C157.613 112.713 157.534 112.42 157.162 113.196C156.774 113.846 156.506 114.979 156.543 116.007C157.388 121.839 157.645 126.978 158.206 132.81C158.243 133.377 158.169 134.216 157.791 134.53C156.396 135.999 154.388 137.782 152.211 138.601Z" fill="#EAF7E8"/>
<path d="M176.129 138.558C174.849 139.293 174.849 140.153 175.887 140.174C177.66 139.964 179.753 139.817 181.2 137.635C181.583 137.027 182.039 135.37 182.055 134.363C182.191 128.426 181.981 122.615 181.095 118.314C181.037 117.916 180.838 116.95 180.917 116.804C181.037 116.531 181.609 116.846 181.803 116.51C182.118 116.216 180.324 113.888 179.684 112.902C179.469 112.461 179.39 112.168 179.018 112.965C178.619 113.594 178.494 114.748 178.651 115.755C179.584 122.111 180.287 128.258 180.429 133.88C180.356 134.425 180.324 134.719 180.072 135.369C179.527 136.104 178.903 136.985 178.342 137.404C177.754 137.824 176.527 138.244 176.129 138.558Z" fill="#EAF7E8"/>
<path d="M177.072 132.873C177.051 131.384 177.114 130.104 177.051 128.992C177.004 127.901 176.49 123.727 176.333 122.846C176.16 121.943 175.981 120.601 175.74 119.531C175.651 119.112 175.441 117.769 175.52 117.643C175.615 117.349 176.023 117.664 176.207 117.307C176.506 116.992 175.205 113.615 174.534 112.65C174.303 112.209 173.863 112.356 173.338 113.07C172.83 113.531 173.019 114.58 173.207 115.587C174.481 122.216 175.431 129.16 175.226 135.495C175.153 136.02 177.093 133.88 177.072 132.873Z" fill="#EAF7E8"/>
<path d="M167.695 124.65C166.892 124.629 165.214 123.097 164.726 122.195C164.543 121.671 164.674 121.168 164.821 120.874C165.12 120.685 165.576 120.454 165.911 120.685C165.911 120.685 166.268 121.167 166.2 121.23C166.635 121.44 166.824 121.314 166.871 121.126C166.898 120.832 166.735 120.643 166.735 120.307C166.919 119.363 167.983 119.237 168.387 119.825C168.681 120.181 168.791 120.936 168.833 121.461C168.822 121.734 168.397 121.419 168.156 121.482C167.905 121.545 167.852 121.818 167.831 122.069C167.779 122.761 167.705 123.832 167.695 124.65Z" fill="#EAF7E8"/>
<path d="M152.936 134.53C153.162 132.495 152.863 128.384 152.842 127.188C152.768 124.377 152.297 118.943 152.087 118.041C151.835 116.321 152.784 118.23 152.648 117.223C152.343 115.524 151.4 114.37 150.283 112.797C149.926 112.293 149.942 112.188 149.38 112.923C148.772 114.307 149.302 115.272 149.454 116.363C150.256 119.887 150.728 123.139 150.943 126.349C151.163 129.559 151.232 133.565 151.032 136.964C151.635 136.964 152.6 135.978 152.936 134.53Z" fill="#EAF7E8"/>
<path d="M179.8 131.279C178.399 128.909 176.264 126.139 175.698 125.195C175.126 124.251 170.317 117.203 169.714 116.573C167.952 114.748 170.522 116.279 169.384 114.832C168.413 113.783 168.125 113.448 167.302 112.818C166.892 112.566 166.636 112.041 166.499 112.902C166.447 113.678 166.384 114.559 166.436 115.209C166.436 115.587 166.803 116.237 167.139 116.636C171.382 121.881 176.044 128.279 179.778 134.992C180.314 134.74 180.13 131.698 179.8 131.279Z" fill="#EAF7E8"/>
<path d="M162.732 159.201H162.722C161.479 159.516 161.516 160.816 162.323 161.382C149.154 161.382 128.947 161.173 124.63 161.173C122.197 161.173 114.534 160.879 114.393 160.879C116.029 163.271 118.415 163.753 121.526 163.816C127.378 163.816 154.467 163.753 162.166 163.753C161.62 164.718 162.218 166.271 162.654 166.564C162.664 166.564 162.675 166.585 162.685 166.585C162.701 166.606 162.711 166.606 162.732 166.606H162.753C163.267 166.732 163.493 166.355 163.671 166.103C164.484 166.166 169.147 166.229 169.582 166.082C169.87 166.502 170.164 166.9 170.71 166.837C171.669 166.627 172.425 166.523 172.456 164.572C172.456 164.572 172.356 161.257 170.175 161.467C169.655 161.53 168.213 161.676 168.213 161.676C166.535 161.488 165.297 161.467 163.414 161.383C163.593 161.173 163.891 160.271 163.519 159.956C163.425 159.872 163.278 159.83 163.068 159.83H163.047H163.031C163.021 159.83 163 159.809 162.99 159.789C162.99 159.789 162.984 159.789 162.984 159.768C162.89 159.662 162.832 159.306 162.774 159.201H162.764H162.743H162.732ZM163.624 163.942C163.624 163.942 163.624 163.942 163.635 163.942C165.544 164.026 167.348 163.963 169.278 164.047C169.582 164.32 169.425 164.907 169.225 165.012C169.225 165.033 169.204 165.033 169.199 165.033H169.178C169.157 165.033 169.147 165.033 169.147 165.033C168.522 165.012 168.166 165.012 167.542 164.991C167.542 164.949 167.521 164.928 167.521 164.886C167.369 164.446 166.304 164.488 166.047 164.844H166.037L166.026 164.865C166.021 164.865 166.021 164.886 166.011 164.907C166.011 164.907 166.011 164.928 166.011 164.949C166 164.97 166 164.991 166 165.012C165.156 165.096 164.4 164.991 163.546 164.928C163.309 164.634 163.335 164.089 163.624 163.942Z" fill="#EAF7E8"/>
<path d="M129.419 114.727C128.139 118.377 130.158 122.405 131.553 122.027C132.565 122.426 133.2 120.496 133.62 118.398C133.908 117.811 134.118 117.748 134.264 118.041C134.223 120.853 134.464 121.482 135.182 122.321C136.792 123.559 138.125 122.489 138.219 122.363C138.324 122.279 139.473 121.126 139.473 121.126C139.74 120.832 140.112 120.811 140.516 121.083C140.888 121.419 140.841 122.027 141.66 122.426C142.341 122.72 143.81 122.51 144.156 121.902C144.618 121.126 144.717 120.853 144.927 120.559C145.263 120.119 145.813 120.307 145.813 120.454C145.766 120.706 145.451 120.937 145.656 121.377C146.054 121.671 146.143 121.482 146.38 121.419C147.193 121.02 147.806 119.258 147.806 119.258C147.833 118.587 147.471 118.65 147.219 118.797C146.915 118.985 146.894 119.048 146.579 119.237C146.186 119.279 145.409 119.552 145.037 118.965C144.639 118.251 144.639 117.244 144.334 116.531C144.334 116.489 143.82 115.42 144.303 115.335C144.539 115.377 145.053 115.524 145.142 115.084C145.399 114.664 144.597 113.447 144.051 112.86C143.569 112.335 142.908 112.272 142.278 112.797C141.838 113.196 141.896 113.678 141.806 114.098C141.697 114.601 141.728 115.209 142.231 115.86C142.677 116.741 143.49 117.874 143.217 119.447C143.217 119.447 142.741 120.202 141.917 120.119C141.581 120.034 141.015 119.888 140.716 117.706C140.501 116.027 140.779 113.678 140.065 112.608C139.809 111.937 139.63 111.286 139.006 112.441C138.828 112.881 138.125 113.552 138.639 114.937C139.059 115.818 139.237 117.224 139.038 118.818C138.749 119.279 138.681 119.426 138.293 119.888C137.748 120.454 137.166 120.307 136.714 120.097C136.284 119.804 135.959 119.657 135.77 118.776C135.797 117.328 135.87 114.979 135.613 114.475C135.235 113.678 134.59 113.972 134.323 114.203C133.001 115.398 132.345 117.434 131.957 119.048C131.59 120.223 131.197 119.888 130.929 119.405C130.268 118.797 130.221 113.93 129.419 114.727Z" fill="#EAF7E8"/>
<path d="M133.747 122.3C133.741 122.321 133.731 122.321 133.71 122.321L133.699 122.342C133.615 122.384 133.505 122.531 133.285 122.699C132.902 123.14 132.85 123.433 132.871 124.272C132.886 124.377 133.573 126.286 134.166 127.65C134.559 129.076 134.932 130.67 134.659 132.202C133.741 134.216 131.868 135.999 130.07 136.985C129.147 137.279 128.365 137.195 128.155 136.985V136.964C127.616 136.628 127.605 135.999 127.637 135.873H127.647C129.158 134.803 130.904 133.964 132.262 131.111C132.655 130.02 132.782 129.37 132.388 127.67C132.226 127.062 132.021 126.538 131.601 126.097C131.601 126.097 131.612 126.097 131.612 126.076C131.868 125.95 132.535 126.453 132.645 126.139C132.482 125.321 131.937 124.251 131.323 123.705C130.778 123.202 130.196 123.16 129.692 123.601C129.141 123.915 129.026 125.027 129.283 126.013C129.582 126.726 130.395 126.853 130.972 128.321V128.342C130.982 128.425 131.161 129.453 130.872 129.873C130.637 130.608 127.626 132.978 127.416 133.104L127.395 133.125C127.395 133.125 127.395 133.125 127.395 133.146H127.385H127.379H127.369H127.358C127.358 133.125 127.348 133.125 127.348 133.125C127.348 133.062 127.369 132.894 127.348 132.642C127.337 132.223 127.516 131.216 127.505 131.027H127.495V131.006H127.484C126.498 131.656 126.162 133.628 125.979 134.216C123.462 135.936 120.609 137.237 118.962 139.02C118.102 140.342 124.872 137.467 125.654 137.132C125.664 137.132 125.675 137.132 125.685 137.153C125.832 137.3 125.832 137.866 126.288 138.39C126.996 139.355 128.486 139.943 129.939 139.586C132.377 138.705 133.783 137.027 135.225 135.18C135.425 134.887 135.75 134.656 136.038 134.887C137.019 137.09 139.856 138.642 143.522 138.81C144.367 137.782 143.968 137.258 143.622 137.069C143.512 136.985 141.797 136.314 141.535 135.642C141.372 135.034 141.77 134.488 142.594 134.069C144.938 133.796 147.262 133.46 149.501 132.747C149.517 131.992 149.963 130.859 150.256 130.377C150.466 130.041 150.597 129.999 150.65 129.957C150.65 129.957 150.66 129.957 150.66 129.936C150.67 129.936 150.67 129.936 150.67 129.936V129.915C150.67 129.915 150.67 129.894 150.66 129.873L150.272 129.642L142.767 129.6C142.678 129.579 142.605 129.517 142.557 129.495H142.552C142.552 129.474 142.552 129.474 142.552 129.474H142.542L142.531 129.453H142.52V129.432V129.411V129.39C142.52 129.369 142.531 129.369 142.531 129.369C142.567 129.306 142.662 129.265 142.767 129.223C144.571 128.992 147.749 128.467 147.954 125.383C147.928 123.789 147.283 122.761 145.316 122.468C143.879 122.593 142.856 123.978 143.013 125.51C142.95 125.908 143.16 126.726 142.741 126.81C139.977 127.083 136.966 128.803 136.856 130.041H136.851H136.83H136.819L136.798 130.062C136.798 130.062 136.798 130.062 136.793 130.062H136.783H136.772H136.762L136.73 130.041C136.552 129.999 136.321 129.705 136.363 129.286C136.258 127.145 135.555 124.733 134.464 122.866C134.082 122.468 133.908 122.321 133.793 122.3H133.783H133.762H133.751H133.747M144.718 125.048C144.896 125.027 145.106 125.069 145.306 125.195C145.61 125.363 145.788 125.615 145.767 125.825V125.846V125.867H145.757C145.757 125.888 145.746 125.888 145.746 125.888V125.909C145.731 125.909 145.72 125.93 145.699 125.95C145.552 126.097 145.232 126.076 144.912 125.888C144.619 125.719 144.435 125.447 144.451 125.279V125.258C144.461 125.216 144.472 125.195 144.482 125.195C144.493 125.174 144.493 125.174 144.503 125.153C144.513 125.132 144.519 125.132 144.54 125.111C144.577 125.069 144.655 125.048 144.718 125.048ZM137.737 131.384C137.758 131.384 137.79 131.384 137.816 131.384H137.827C138.661 131.615 139.899 131.636 140.968 131.74C141.839 131.803 142.269 132.474 141.456 132.768C140.654 133.041 139.878 133.251 139.878 134.425C139.977 134.992 139.961 135.307 139.867 135.432C139.867 135.453 139.846 135.474 139.835 135.474C139.835 135.474 139.835 135.474 139.835 135.495H139.83H139.82V135.516H139.799C139.788 135.516 139.772 135.537 139.762 135.537C139.751 135.559 139.73 135.559 139.73 135.559C139.531 135.579 139.253 135.37 139.038 135.286C138.556 134.908 137.155 134.069 136.956 132.202C136.93 131.782 137.245 131.426 137.737 131.384Z" fill="#EAF7E8"/>
<path d="M113.607 114.769C114.478 115.168 116.098 114.999 116.03 113.615C116.03 113.489 116.003 113.07 115.993 112.965C115.825 112.545 115.332 112.629 115.227 113.07C115.191 113.196 115.28 113.426 115.159 113.51C115.081 113.573 114.808 113.531 114.813 113.154C114.813 113.027 114.729 112.881 114.671 112.818C114.624 112.776 114.588 112.755 114.478 112.755C114.362 112.776 114.362 112.797 114.309 112.902C114.268 113.006 114.241 113.112 114.241 113.216C114.22 113.363 114.163 113.405 114.063 113.426C113.964 113.426 113.984 113.447 113.885 113.384C113.837 113.321 113.759 113.3 113.759 113.195C113.759 113.112 113.738 112.923 113.717 112.86C113.664 112.797 113.591 112.755 113.502 112.734C113.025 112.734 112.993 113.279 113.025 113.489C112.982 113.531 112.967 114.496 113.607 114.769Z" fill="#EAF7E8"/>
<path d="M138.964 125.51C139.83 125.909 141.886 125.678 141.393 124.335C141.393 124.21 141.361 123.789 141.34 123.685C141.167 123.265 140.69 123.37 140.574 123.789C140.548 123.937 140.642 124.168 140.517 124.251C140.443 124.314 140.166 124.251 140.17 123.874C140.17 123.748 140.087 123.622 140.029 123.559C139.976 123.517 139.945 123.496 139.835 123.496C139.72 123.517 139.72 123.538 139.652 123.643C139.631 123.727 139.588 123.832 139.588 123.958C139.573 124.104 139.521 124.147 139.415 124.168C139.311 124.168 139.342 124.189 139.243 124.125C139.185 124.062 139.117 124.041 139.117 123.937C139.117 123.832 139.101 123.664 139.059 123.601C139.017 123.538 138.938 123.496 138.849 123.475C138.382 123.475 138.356 124.02 138.372 124.23C138.346 124.251 138.325 125.216 138.964 125.51Z" fill="#EAF7E8"/>
<path d="M153.754 121.062C154.614 121.461 156.24 121.272 156.172 119.888C156.172 119.783 156.146 119.363 156.135 119.237C155.951 118.839 155.464 118.923 155.369 119.363C155.327 119.489 155.416 119.72 155.291 119.783C155.228 119.867 154.944 119.825 154.955 119.426C154.955 119.321 154.871 119.175 154.813 119.09C154.766 119.069 154.73 119.069 154.625 119.069C154.509 119.069 154.509 119.09 154.441 119.195C154.409 119.3 154.373 119.405 154.373 119.531C154.362 119.657 154.31 119.699 154.2 119.72C154.095 119.72 154.11 119.741 154.032 119.678C153.975 119.636 153.906 119.594 153.906 119.489C153.906 119.384 153.875 119.216 153.848 119.133C153.796 119.09 153.723 119.069 153.639 119.048C153.167 119.048 153.13 119.594 153.161 119.783C153.13 119.825 153.109 120.79 153.754 121.062Z" fill="#EAF7E8"/>
<path d="M161.407 132.202C159.902 133.901 160.563 136.712 160.904 137.321C161.407 138.307 161.806 138.957 162.766 139.439C163.657 140.111 164.339 139.691 164.717 139.23C165.597 138.307 165.618 135.978 166.028 135.516C166.327 134.657 167.05 134.803 167.407 135.181C167.763 135.663 168.167 135.999 168.671 136.272C169.494 136.985 170.486 137.132 171.456 136.46C172.127 136.104 172.562 135.601 172.94 134.657C173.386 133.482 173.145 127.209 173.05 124.041C173.008 123.79 172.195 119.678 172.195 119.636C172.195 119.594 172.08 117.538 171.996 117.056C171.975 116.846 171.928 116.783 172.138 116.804C172.358 117.014 172.379 117.035 172.521 117.077C172.741 117.119 172.94 116.741 172.809 116.384C172.127 115.126 171.43 113.846 170.742 112.608C170.585 112.42 170.365 112.252 170.097 112.629C169.851 112.86 169.583 113.238 169.594 113.762C169.657 114.664 169.814 115.587 169.872 116.489C170.15 118.02 170.423 119.573 170.7 121.126C170.958 124.419 171.031 127.44 171.288 130.733C171.246 132.118 170.821 133.985 170.396 134.153C170.396 134.153 169.793 134.53 169.373 134.132C169.064 134.006 167.858 132.118 167.858 132.118C167.239 131.552 166.825 131.698 166.384 132.118C165.167 133.293 164.632 135.474 163.804 136.985C163.584 137.321 162.986 137.614 162.325 136.964C160.626 134.656 161.622 131.363 161.407 132.202Z" fill="#EAF7E8"/>
<path d="M154.142 112.965C154.914 113.279 155.459 114.832 155.28 115.608C155.123 116.552 154.719 117.601 154.42 117.454C154.106 117.328 154.635 116.51 154.336 115.65C154.153 115.084 153.104 114.077 153.214 113.762C152.994 113.133 153.665 112.839 154.142 112.965Z" fill="#EAF7E8"/>
<path d="M163.902 133.146C164.065 131.279 163.792 130.104 163.739 128.992C163.692 127.901 162.497 118.902 162.245 118.062C161.951 116.489 163.414 117.853 163.246 116.929C162.743 115.776 161.484 114.077 161.096 113.07C160.845 112.629 160.949 112.251 160.415 112.964C159.932 114.58 159.753 115.881 159.937 116.909C161.211 123.538 162.512 129.58 162.313 135.873C162.911 135.873 163.603 134.509 163.902 133.146Z" fill="#EAF7E8"/>
<path d="M177.13 115.189C177.854 115.566 178.263 117.517 178.185 118.083C178.048 119.112 177.675 120.223 177.403 120.076C177.115 119.95 177.461 118.545 177.319 118.126C177.151 117.517 176.197 116.405 176.296 116.069C176.102 115.377 176.716 115.084 177.13 115.189Z" fill="#EAF7E8"/>
<path d="M124.641 129.58C125.308 129.831 125.711 131.279 125.632 131.698C125.496 132.453 125.14 133.251 124.888 133.167C124.605 133.062 124.946 132.034 124.804 131.719C124.752 130.943 123.813 130.545 123.834 130.209C123.655 129.601 124.216 129.495 124.641 129.58Z" fill="#EAF7E8"/>
<path d="M106.579 112.482C107.575 112.776 107.633 114.244 107.57 114.685C107.434 115.461 107.077 116.3 106.815 116.195C106.553 116.112 106.81 115.041 106.673 114.706C106.532 114.223 105.687 113.405 105.787 113.154C105.593 112.629 106.165 112.377 106.579 112.482Z" fill="#EAF7E8"/>
<path d="M126.268 119.405C125.496 119.804 125.208 121.041 125.685 121.775C126.12 122.384 126.833 122.154 126.923 122.154C127.673 122.258 128.119 120.748 128.119 120.748C128.119 120.748 128.14 120.328 127.258 121.126C126.881 121.209 126.833 121.062 126.734 120.853C126.661 120.454 126.671 120.076 126.85 119.678C126.986 119.3 126.698 119.133 126.268 119.405Z" fill="#EAF7E8"/>
<path d="M131.999 111.916C131.621 112.168 130.85 112.965 130.835 113.888C130.803 114.391 130.708 114.391 131.044 114.727C131.296 115.084 131.542 115.041 132.03 114.769C132.308 114.58 132.403 114.433 132.502 114.098C132.623 113.51 131.889 114.37 131.789 113.72C131.632 113.112 132.098 112.881 132.549 112.272C132.56 111.874 132.549 111.601 131.999 111.916Z" fill="#EAF7E8"/>
<path d="M136.631 112.734C136.463 113.112 136.264 115.021 136.295 115.021C136.159 115.587 136.898 115.839 137.224 115.105C137.722 113.762 137.722 113.196 137.748 112.608C137.601 111.748 137.014 111.79 136.631 112.734Z" fill="#EAF7E8"/>
<path d="M165.77 127.566C165.875 127.481 169.876 124.629 169.876 124.629C170.286 124.482 170.197 126.097 170.013 126.076C170.086 126.412 166.058 129.139 165.77 129.034C165.576 129.16 165.376 127.922 165.77 127.566Z" fill="#EAF7E8"/>
<path d="M169.426 127.545C170.139 127.902 170.418 129.957 170.339 130.524C170.365 131.615 169.657 132.496 169.384 132.37C169.091 132.223 169.416 131.006 169.28 130.566C169.112 129.958 168.508 128.824 168.613 128.489C168.414 127.796 168.996 127.419 169.426 127.545Z" fill="#EAF7E8"/>
<path d="M145.593 136.439C145.866 136.041 146.731 135.453 146.731 135.453C147.146 135.244 147.539 135.601 147.508 135.601C147.576 135.978 147.261 136.356 147.361 136.88C147.44 137.09 147.508 137.342 147.896 137.237C148.54 136.733 149.123 136.691 149.758 136.691C150.256 136.691 150.261 137.53 149.962 137.53C148.787 137.782 148.252 138.118 147.419 138.432C147.02 138.663 146.684 138.369 146.684 138.328C146.684 138.307 146.453 138.118 146.611 137.593C146.648 137.173 146.475 136.943 146.118 136.964C145.85 137.132 145.62 137.215 145.489 136.922C145.441 136.691 145.42 136.566 145.593 136.439Z" fill="#EAF7E8"/>
<path d="M173.642 137.551C173.809 137.782 173.93 137.971 173.631 138.328C173.343 138.601 173.154 138.726 172.865 138.999C172.74 139.23 172.656 139.565 173.054 139.67C173.799 139.88 175.535 138.768 175.535 138.726C175.829 138.537 175.729 138.118 175.698 138.118C175.535 137.929 175.173 138.034 174.927 138.034C174.801 138.034 174.418 137.95 174.602 137.636C174.754 137.405 174.811 137.279 174.916 137.027C175.026 136.754 174.937 136.587 174.502 136.44C174.082 136.356 173.909 136.419 173.432 136.44C173.175 136.502 173.086 136.629 173.039 136.922C173.054 137.384 173.343 137.363 173.642 137.551Z" fill="#EAF7E8"/>
<path d="M124.034 233.38L123.917 232.231C123.883 231.898 123.803 231.62 123.672 231.38C123.622 231.289 123.56 231.194 123.488 231.083C123.284 230.769 123.03 230.379 122.943 229.872C122.859 229.384 122.956 228.949 123.033 228.599C123.075 228.41 123.111 228.248 123.112 228.124C123.114 227.764 122.815 227.366 122.47 226.906C122.147 226.475 121.782 225.989 121.573 225.395C121.539 225.296 121.511 225.203 121.481 225.101C121.45 224.992 121.416 224.877 121.387 224.825C121.348 224.757 121.231 224.647 121.129 224.551C120.865 224.303 120.709 224.037 120.59 223.807C120.41 223.877 120.181 223.933 119.932 223.916C119.326 223.876 118.79 223.423 118.603 222.788C118.498 222.429 118.517 222.106 118.533 221.846L118.537 221.775C118.661 219.549 117.517 217.459 115.397 216.046C114.272 215.296 113.169 214.485 112.12 213.634C111.24 212.922 110.252 212.062 109.655 210.88C109.532 210.636 109.423 210.373 109.323 210.075L109.054 209.272L109.095 209.252C109.018 208.921 108.955 208.592 108.894 208.27C108.855 208.063 108.816 207.857 108.773 207.652C108.423 205.977 107.747 204.941 106.705 204.485C105.833 204.103 105.505 202.975 105.958 201.918C106.008 201.803 106.061 201.694 106.112 201.588C106.19 201.425 106.317 201.165 106.311 201.083C106.291 201.018 106.127 200.841 106.019 200.723C105.731 200.412 105.337 199.986 105.242 199.355C105.173 198.896 105.284 198.48 105.373 198.146C105.382 198.115 105.397 198.058 105.412 197.998C105.274 197.952 105.105 197.889 104.935 197.783C103.995 197.197 104.05 196.156 104.086 195.467C104.097 195.243 104.117 194.875 104.07 194.759C104.04 194.739 103.972 194.702 103.92 194.675C103.674 194.542 103.302 194.342 103.065 193.915C102.755 193.354 102.888 192.783 102.968 192.441C102.973 192.422 102.978 192.401 102.983 192.379C102.952 192.37 102.921 192.361 102.894 192.353C102.592 192.267 102.218 192.159 101.882 191.87C101.223 191.304 101.2 190.48 101.184 189.935C101.182 189.869 101.18 189.811 101.178 189.753C101.178 189.753 101.178 189.753 101.178 189.753C100.546 189.769 99.9254 189.485 99.5402 188.999C99.283 188.674 99.1665 188.323 99.073 188.042C99.0261 187.9 98.9679 187.725 98.9238 187.674C98.9039 187.651 98.8406 187.6 98.7897 187.559C98.6953 187.483 98.578 187.389 98.4623 187.266C98.2176 187.007 98.0745 186.721 97.9596 186.492C97.9069 186.387 97.8616 186.296 97.8171 186.228C97.5558 185.827 96.9474 185.617 96.3289 185.45L96.2975 185.442C95.6678 185.272 94.8078 185.04 94.2607 184.312C94.0673 184.055 93.9532 183.786 93.8615 183.57C93.8118 183.452 93.7687 183.351 93.7245 183.275C93.7077 183.247 93.6781 183.213 93.6484 183.184C93.5014 183.211 93.3518 183.225 93.2015 183.225C92.0864 183.225 91.1572 182.506 90.3952 181.804C89.3264 180.819 88.2212 179.8 87.4798 178.421C87.2459 177.986 87.0659 177.544 86.8917 177.117C86.7518 176.774 86.6077 176.421 86.4465 176.105C86.1313 175.488 85.6375 174.881 85.1599 174.295C84.2561 173.185 83.2316 171.928 83.1612 170.268C83.1549 170.119 83.0989 169.975 83.0035 169.86C82.9705 169.821 82.9341 169.781 82.8973 169.74C82.6183 169.43 82.0452 168.794 82.3439 167.956C82.5221 167.456 82.914 167.217 83.1481 167.074C83.1887 167.049 83.2246 167.028 83.2574 167.004C83.3065 166.969 83.338 166.9 83.3508 166.798C83.3787 166.579 83.3015 166.317 83.1586 166.145C83.0995 166.074 83.0336 166.003 82.9674 165.93C82.5785 165.507 81.9325 164.804 82.2107 163.85C82.2462 163.728 82.2916 163.626 82.3305 163.546C82.3132 163.525 82.2925 163.502 82.2697 163.48C82.214 163.428 82.1466 163.372 82.0755 163.313C81.8495 163.125 81.5709 162.893 81.3604 162.546C80.8842 161.762 81.2048 160.546 81.8173 159.801C81.7633 158.941 82.0499 158.146 82.3072 157.432C82.4149 157.133 82.5251 156.827 82.5979 156.547C82.8238 155.679 82.7742 154.697 82.7261 153.747C82.6954 153.14 82.6635 152.512 82.4356 152.037C82.328 151.813 82.1192 151.561 81.9174 151.317C81.5339 150.853 81.0631 150.285 80.939 149.522C80.6962 148.984 80.8306 148.437 80.9142 148.096C80.9264 148.047 80.9417 147.984 80.954 147.928C80.9446 147.923 80.9355 147.917 80.9268 147.912C80.7596 147.818 80.5317 147.689 80.3289 147.475C79.7594 146.873 79.6831 145.951 80.1249 145.007L80.1613 144.931C80.1679 144.917 80.1749 144.902 80.182 144.887C80.1494 144.857 80.1024 144.818 80.0361 144.77L79.9533 144.711C79.6303 144.483 79.1397 144.136 78.9306 143.529C78.7685 143.059 78.8658 142.585 78.9438 142.204C78.96 142.125 78.9836 142.01 78.9964 141.922C77.7168 140.476 76.8725 139.142 76.8725 137.409C76.8725 136.767 76.5544 136.508 74.7668 135.344C74.466 135.148 74.1485 134.942 73.8033 134.711C73.2397 134.336 72.6795 133.989 72.1378 133.654C70.2359 132.478 68.5993 131.466 67.6254 129.779C67.1516 128.957 66.4789 128.117 65.5083 127.135L65.2873 126.914C64.9997 126.63 64.7259 126.369 64.461 126.117C64.2058 125.873 63.9683 125.647 63.7598 125.439C62.6021 124.281 63.2756 123.253 63.6373 122.701C63.8708 122.345 64.0911 122.009 64.1562 121.51C64.311 120.322 64.247 120.236 63.6335 119.411C63.573 119.33 63.509 119.244 63.4413 119.151C62.8764 118.381 62.7505 117.782 62.6046 117.088C62.492 116.553 62.3644 115.946 61.9845 114.996C61.2957 113.274 60.5431 112.864 59.4038 112.244C59.2914 112.183 59.1774 112.121 59.0617 112.056C57.5044 111.191 57.9474 109.872 58.1603 109.237C58.2683 108.916 58.3614 108.639 58.3456 108.37C58.345 108.36 58.3444 108.351 58.3436 108.342C58.3126 108.327 58.2775 108.31 58.2459 108.295C57.7754 108.068 56.9878 107.689 56.2873 106.288C55.9176 105.549 55.5344 104.635 55.1287 103.667C54.4167 101.968 53.6097 100.042 52.9313 99.2789C52.2122 98.4698 51.9865 97.7199 51.8052 97.1172C51.6368 96.5576 51.5151 96.1535 51.0353 95.6737C50.1635 94.8018 50.0397 93.8255 49.9495 93.1125C49.8691 92.4778 49.8208 92.1862 49.5193 91.9223L49.3963 91.8149C48.1873 90.7595 47.9979 90.5255 47.088 87.9471C46.2156 85.4752 44.0223 82.3052 43.1558 81.2387C43.0351 81.0902 42.9723 81.0625 42.9717 81.0622C42.9746 81.0639 42.9684 81.064 42.9626 81.064C42.8837 81.064 42.7345 81.0996 42.5903 81.134C42.3182 81.1991 41.9808 81.2798 41.5749 81.2798C41.2147 81.2798 40.8691 81.217 40.5186 81.088C40.3871 81.0396 40.2608 81.017 40.1207 81.017C39.8525 81.017 39.5753 81.1077 39.3308 81.1879C39.0772 81.2709 38.8152 81.3567 38.5318 81.3567C37.9025 81.3567 37.4192 80.9354 37.3008 80.2836C37.1635 79.5292 37.6515 78.6582 38.8831 76.7036C39.4092 75.8685 40.0044 74.9238 40.1622 74.4502C40.3854 73.7808 40.4375 73.2848 40.5096 72.5985C40.5532 72.1841 40.601 71.729 40.692 71.1637L40.6198 71.1557L40.8668 70.246L41.0115 69.5851L41.0559 69.5901C41.2956 68.8241 41.6517 67.8683 42.0245 66.8672C42.3365 66.0296 42.6591 65.1636 42.9101 64.4132L43.1983 63.5524L55.8732 67.003L60.404 63.4348L63.5951 58.9564L71.8184 58.1768C72.3096 56.8994 73.8159 53.6296 76.7507 52.3488L66.8261 39.0214L68.2668 38.6949C69.5189 38.4112 73.9526 37.4051 78.4344 36.3693L78.754 36.2954C86.8091 34.4323 88.5351 33.9705 88.8471 33.8611C89.4669 33.6437 90.4446 33.0516 91.4621 32.2773L91.8266 32L92.2716 32.1083C92.4038 32.1405 105.547 35.3446 105.959 35.4566L106.054 35.4875C106.663 35.7316 114.878 42.1347 115.766 42.9246C116.115 43.1509 118.451 44.1572 119.852 44.7611C120.253 44.9339 120.637 45.0993 120.979 45.2479C122.826 46.0491 123.588 46.7092 123.769 46.8829L141.728 62.5462L151.733 71.2046L171.248 73.3647L182.616 74.5208L182.853 74.9912C182.976 75.2349 183.397 76.1352 183.662 77.4938C183.842 78.4167 184.6 79.5182 184.965 79.9221H193.836L194.121 80.3593C194.169 80.4333 194.217 80.5044 194.266 80.5762C194.382 80.7462 194.511 80.9364 194.648 81.1764C194.997 81.7873 194.924 82.3447 194.875 82.7138C194.864 82.799 194.849 82.9129 194.851 82.9624C195.341 83.6277 195.743 84.2553 195.743 85.2038C195.743 85.4895 195.743 85.4951 196.247 85.9266C197.035 86.6022 197.632 87.5504 198.21 88.4677C198.907 89.575 198.576 90.3548 198.379 90.8209C198.339 90.9145 198.306 90.9933 198.287 91.0591C198.277 91.113 198.288 91.2161 198.309 91.3196C198.702 91.3128 199.03 91.45 199.29 91.5606C199.49 91.6453 199.661 91.7182 199.862 91.7342C200.798 91.809 202.438 92.4387 203.053 92.959C203.365 93.2233 203.516 93.5931 203.465 93.9734C203.415 94.3556 203.197 94.6121 202.928 94.8044C203.539 95.2665 203.647 95.9843 203.722 96.4765C203.734 96.5595 203.748 96.6495 203.764 96.7346C203.923 96.6285 204.12 96.5327 204.362 96.4723C204.465 96.4465 204.572 96.4334 204.679 96.4334C205.553 96.4334 206.21 97.2599 206.971 98.2169C207.422 98.7839 207.983 99.4897 208.408 99.7401C208.657 99.887 208.917 100.035 209.179 100.184C210.42 100.889 211.492 101.499 211.979 102.23C212.397 102.857 212.369 103.389 212.271 103.725C212.177 104.052 211.978 104.336 211.698 104.554C211.718 104.835 211.798 105.319 212.024 105.823C212.147 106.098 212.212 106.145 212.427 106.303C212.678 106.487 213.02 106.738 213.395 107.291C213.888 108.018 213.896 108.477 213.742 109.025C213.696 109.192 213.655 109.336 213.712 109.725C213.814 110.424 213.853 111.136 213.442 111.611C213.222 111.865 212.917 112.005 212.581 112.005C212.56 112.005 212.539 112.005 212.518 112.003C212.532 112.019 212.547 112.034 212.562 112.05C213.318 112.865 213.266 113.512 213.106 114.039C213.175 114.149 213.254 114.248 213.335 114.352C213.58 114.662 214.017 115.216 213.778 115.969C213.895 116.227 214.255 116.737 214.46 117.027C214.636 117.277 214.819 117.536 214.989 117.799C215.107 117.983 215.132 117.988 215.426 118.046C215.799 118.119 216.422 118.242 216.962 118.911C217.507 119.585 217.807 120.835 218.143 122.4C218.245 122.874 218.36 123.407 218.428 123.573C218.579 123.944 218.926 124.427 219.292 124.937C219.494 125.219 219.7 125.506 219.892 125.799C220.171 126.226 220.701 126.711 220.988 126.859L221.337 127.039L221.46 127.411C221.766 128.335 222.12 128.908 222.319 129.05C222.403 129.11 222.838 129.28 223.713 129.28C224.336 129.28 224.8 129.19 224.91 129.142C225.043 129.082 225.497 128.756 225.797 128.541L225.811 128.53C226.175 128.269 226.625 127.946 227.029 127.696L228.181 126.984L228.47 128.293C228.918 129.325 228.332 130.23 227.697 130.981C227.28 131.473 227.063 131.826 226.951 132.062C226.99 132.06 227.03 132.059 227.071 132.059C227.46 132.059 227.822 132.145 228.149 132.315C228.649 132.575 229.055 132.779 229.352 132.84L230.091 132.993L230.158 134.827L241.347 149.207L270.539 151.592L272.085 150.354L278.481 159.439L271.919 185.64L266.788 187.545C266.065 187.846 241.144 198.189 236.786 199.835C233.53 201.064 227.739 201.975 223.085 202.706C221.307 202.986 219.772 203.227 218.677 203.441C214.993 204.161 203.464 205.311 201.871 205.468L190.881 211.559C190.48 211.995 188.793 213.858 187.564 215.663C186.983 216.516 186.329 217.246 185.696 217.952C184.791 218.963 183.936 219.917 183.705 220.868C183.439 221.958 183.033 222.866 182.74 223.436L180.183 228.407L180.569 225.558C180.275 225.736 179.928 225.941 179.519 226.176C179.389 226.251 179.282 226.312 179.238 226.339L179.195 226.369L179.127 226.402C179.02 226.453 178.789 226.563 177.981 226.563C176.823 226.563 176.021 226.348 175.598 225.925C175.378 225.705 175.052 225.247 174.538 224.517C174.075 223.861 173.244 222.682 172.883 222.35C171.899 222.359 169.092 222.89 168.669 223.079L168.656 223.086C168.468 223.17 168.26 223.205 167.938 223.205C166.565 223.205 162.22 222.563 158.587 222.004L158.542 221.997C157.975 221.909 157.485 221.834 157.394 221.824C156.854 221.764 156.063 221.325 154.701 220.481C154.574 220.403 154.463 220.334 154.373 220.28C154.161 220.244 153.165 220.122 149.402 220.122C146.475 220.122 144.503 220.199 144.181 220.256C143.833 220.355 143.131 220.736 142.617 221.015C142.22 221.23 141.877 221.416 141.634 221.516C141.529 221.559 141.364 221.617 141.157 221.617C140.501 221.617 140.209 221.096 140.068 220.846C140.046 220.806 140.022 220.763 139.998 220.724C139.957 220.752 139.915 220.781 139.88 220.805C139.609 220.992 139.238 221.249 138.749 221.316C138.693 221.323 138.636 221.327 138.577 221.327C137.782 221.327 136.324 220.399 135.241 219.62L135.035 219.479C134.049 218.872 133.499 218.644 133.293 218.584C133.198 218.625 133.042 218.71 132.835 218.859L132.707 218.952C132.353 219.345 131.977 219.726 131.588 220.086C131.699 220.229 131.829 220.42 131.895 220.669C132.055 221.267 131.743 221.962 131.201 222.22C131.083 222.276 130.769 222.425 130.72 222.523C130.696 222.587 130.714 222.795 130.725 222.907C130.766 223.36 130.843 224.204 130.31 224.84C130.233 224.932 130.157 225.003 130.09 225.066C130.089 225.068 130.087 225.069 130.085 225.071C130.12 225.133 130.185 225.22 130.304 225.345C130.343 225.386 130.382 225.426 130.421 225.466C130.63 225.678 130.846 225.896 131.019 226.2C131.271 226.644 131.407 227.325 131.036 227.905C130.682 228.458 130.086 228.59 129.692 228.678C129.573 228.705 129.398 228.744 129.327 228.778C129.312 228.838 129.302 228.966 129.295 229.055C129.283 229.216 129.269 229.396 129.222 229.589C129.066 230.234 128.583 230.778 127.961 231.009C127.775 231.078 127.594 231.115 127.434 231.147C127.352 231.164 127.235 231.188 127.168 231.211C127.16 231.236 127.151 231.266 127.143 231.291C127.129 231.337 127.115 231.384 127.099 231.431C126.809 232.292 125.898 232.835 125.142 233.055L124.034 233.38ZM120.854 222.035C121.168 222.035 121.45 222.169 121.628 222.403C121.776 222.598 121.874 222.791 121.961 222.961C122.052 223.141 122.123 223.282 122.228 223.381C122.404 223.546 122.624 223.753 122.783 224.033C122.906 224.248 122.968 224.463 123.024 224.653C123.044 224.724 123.064 224.794 123.088 224.862C123.215 225.223 123.477 225.572 123.754 225.942C124.208 226.547 124.722 227.232 124.718 228.131C124.716 228.429 124.658 228.692 124.601 228.947C124.544 229.203 124.495 229.423 124.525 229.598C124.556 229.78 124.685 229.978 124.834 230.207C124.917 230.334 125.002 230.466 125.081 230.611C125.183 230.798 125.267 230.993 125.335 231.199C125.459 231.105 125.548 231.006 125.578 230.918C125.588 230.888 125.597 230.858 125.606 230.829C125.653 230.672 125.717 230.46 125.867 230.25C126.218 229.759 126.756 229.648 127.112 229.576C127.231 229.551 127.332 229.531 127.402 229.505C127.521 229.461 127.632 229.336 127.661 229.214C127.678 229.145 127.685 229.047 127.694 228.933C127.719 228.616 127.753 228.184 128.051 227.796C128.418 227.319 128.952 227.199 129.342 227.112C129.434 227.092 129.559 227.064 129.642 227.036C129.636 227.022 129.63 227.007 129.622 226.994C129.554 226.874 129.433 226.751 129.279 226.595C129.232 226.548 129.186 226.501 129.141 226.454C128.896 226.198 128.559 225.793 128.468 225.254C128.426 225.009 128.443 224.776 128.516 224.563C128.628 224.237 128.845 224.034 128.988 223.899C129.025 223.864 129.062 223.83 129.078 223.811C129.183 223.686 129.141 223.227 129.125 223.054C129.099 222.764 129.06 222.328 129.242 221.897C129.45 221.407 129.863 221.112 130.203 220.926C130.193 220.913 130.184 220.901 130.174 220.889C129.857 220.466 129.772 219.988 129.941 219.577C130.048 219.315 130.227 219.154 130.334 219.058C130.752 218.683 131.155 218.279 131.532 217.859L131.579 217.806L132.029 218.21L132.104 218.177L131.739 217.671L131.896 217.558C132.313 217.257 132.689 217.067 133.012 216.991C133.088 216.973 133.167 216.964 133.25 216.964C133.438 216.964 134.01 216.964 135.876 218.112L135.987 218.181L135.638 218.748L135.648 218.757L136.037 218.216L136.178 218.318C137.169 219.03 138.219 219.645 138.567 219.719C138.676 219.687 138.835 219.577 138.966 219.486C139.234 219.301 139.601 219.047 140.068 219.047C140.297 219.047 140.518 219.108 140.724 219.229C141.036 219.413 141.226 219.659 141.357 219.87C141.508 219.791 141.681 219.697 141.852 219.605C142.539 219.232 143.25 218.847 143.772 218.704C144.437 218.523 148.895 218.518 149.401 218.518C154.543 218.518 154.896 218.726 155.107 218.85C155.215 218.913 155.366 219.007 155.546 219.118C155.964 219.377 157.238 220.166 157.581 220.231C157.691 220.243 158.03 220.295 158.786 220.411L158.829 220.418C160.731 220.711 166.512 221.601 167.938 221.601C167.996 221.601 168.033 221.599 168.056 221.598C168.863 221.272 171.824 220.746 172.905 220.746C173.07 220.746 173.197 220.757 173.304 220.781C173.885 220.911 174.396 221.53 175.849 223.592C176.159 224.032 176.579 224.628 176.723 224.78C176.843 224.856 177.303 224.959 177.981 224.959C178.18 224.959 178.363 224.948 178.459 224.936C178.515 224.903 178.595 224.857 178.719 224.786C180.57 223.721 180.891 223.425 180.936 223.376C180.922 223.392 180.893 223.433 180.873 223.476L180.908 223.491L181.313 222.703C181.567 222.21 181.917 221.426 182.145 220.489C182.472 219.147 183.457 218.047 184.5 216.883C185.098 216.215 185.716 215.526 186.237 214.761C187.68 212.643 189.707 210.465 189.792 210.373L189.879 210.281L201.384 203.904L201.55 203.888C201.679 203.875 214.567 202.609 218.37 201.866C219.493 201.647 221.042 201.403 222.835 201.122C227.417 200.401 233.118 199.505 236.22 198.334C240.599 196.681 265.938 186.161 266.185 186.059L266.214 186.047L270.567 184.431L276.745 159.764L271.756 152.676L271.044 153.245L240.513 150.751L228.573 135.405L228.531 134.268C228.191 134.142 227.832 133.961 227.409 133.741C227.309 133.689 227.205 133.666 227.072 133.666C226.971 133.666 226.86 133.679 226.753 133.692C226.634 133.707 226.51 133.722 226.38 133.722C225.885 133.722 225.513 133.473 225.332 133.021C225.034 132.275 225.349 131.337 226.296 130.158C225.977 130.381 225.743 130.531 225.553 130.614C224.975 130.867 223.999 130.887 223.714 130.887C223.121 130.887 222.031 130.818 221.386 130.358C220.755 129.907 220.302 128.95 220.016 128.149C219.498 127.811 218.903 127.221 218.548 126.679C218.376 126.415 218.18 126.142 217.991 125.879C217.565 125.285 217.165 124.728 216.942 124.182C216.826 123.899 216.727 123.45 216.575 122.742C216.382 121.845 216.061 120.351 215.713 119.921C215.54 119.706 215.398 119.678 215.116 119.622C214.723 119.545 214.128 119.428 213.64 118.671C213.488 118.435 213.315 118.19 213.148 117.953C212.473 116.996 211.936 116.236 212.222 115.544C212.186 115.488 212.121 115.406 212.075 115.348C211.949 115.188 211.792 114.989 211.648 114.726C211.369 114.219 211.497 113.807 211.566 113.586C211.58 113.541 211.601 113.475 211.601 113.455C211.601 113.455 211.584 113.357 211.385 113.144C211.144 112.884 210.946 112.721 210.787 112.591C210.318 112.208 210.022 111.892 210.155 111.025C210.294 110.119 210.897 109.796 211.414 109.796C211.652 109.796 211.895 109.862 212.128 109.987C212.126 109.977 212.125 109.968 212.123 109.958C212.025 109.287 212.106 108.915 212.196 108.592C212.212 108.535 212.222 108.496 212.225 108.476C212.218 108.452 212.186 108.369 212.066 108.193C211.847 107.87 211.675 107.744 211.477 107.598C211.185 107.384 210.855 107.142 210.559 106.481C210.549 106.458 209.581 104.181 210.434 103.458L210.522 103.384L210.627 103.337C210.674 103.316 210.706 103.293 210.723 103.278C210.715 103.25 210.693 103.197 210.643 103.121C210.367 102.707 209.314 102.108 208.385 101.581C208.116 101.427 207.848 101.275 207.592 101.124C206.911 100.722 206.275 99.9226 205.714 99.217C205.392 98.8116 204.917 98.2147 204.672 98.0602C204.615 98.091 204.571 98.1417 204.496 98.2349C204.367 98.394 204.126 98.6901 203.694 98.6901C203.351 98.6901 203.068 98.4934 202.861 98.322C202.308 97.8655 202.212 97.2291 202.134 96.7178C202.081 96.3625 202.037 96.1252 201.931 96.0678C201.708 95.9469 201.483 95.8725 201.285 95.807C201.034 95.724 200.872 95.6665 200.729 95.5639L200.148 95.1472L200.495 94.5219C200.539 94.4437 200.595 94.3675 200.668 94.2887C200.847 94.0946 201.1 93.9486 201.353 93.8231C200.838 93.596 200.166 93.3699 199.734 93.3353C199.274 93.2984 198.921 93.1486 198.663 93.0393C198.55 92.9911 198.395 92.9255 198.341 92.9255C198.21 92.9822 198.081 93.0099 197.95 93.0099C197.766 93.0099 197.412 92.9505 197.115 92.5525C196.749 92.0633 196.58 91.172 196.746 90.6066C196.792 90.453 196.849 90.3177 196.899 90.1984C197.047 89.8503 197.101 89.7212 196.851 89.3237C196.337 88.5076 195.806 87.6638 195.202 87.1463C194.479 86.5262 194.138 86.1326 194.138 85.2045C194.138 84.7511 193.951 84.4475 193.553 83.9083C193.167 83.384 193.237 82.8546 193.283 82.5043C193.321 82.2212 193.328 82.1023 193.255 81.9736C193.159 81.8064 193.067 81.6691 192.972 81.5281H184.505L184.355 81.465C183.718 81.1962 182.383 79.3221 182.086 77.8017C181.928 76.9908 181.707 76.3787 181.561 76.0278L171.078 74.9617L151.06 72.7459L140.675 63.7587L122.677 48.0614L122.657 48.0421C122.652 48.0368 122.068 47.4713 120.34 46.7213C119.999 46.5733 119.616 46.4085 119.217 46.2362C115.216 44.5122 114.867 44.3212 114.648 44.0728C114.051 43.4964 106.425 37.621 105.453 36.9847C104.328 36.7019 94.3625 34.271 92.1873 33.7408C91.1051 34.541 90.1152 35.1181 89.3785 35.3766C88.7689 35.5904 85.3161 36.426 79.1161 37.8601L78.7959 37.9341C75.1172 38.7843 71.471 39.6145 69.5877 40.042L79.4406 53.2732L78.2347 53.5445C74.6731 54.3458 73.1867 59.1113 73.1721 59.1594L73.0157 59.6744L72.4792 59.7273L64.4769 60.486L61.578 64.5542L56.2315 68.7649L44.2347 65.4989C44.0162 66.1201 43.7695 66.7825 43.5291 67.428C43.211 68.2822 42.9055 69.1025 42.6828 69.7761C43.4742 69.8767 44.3748 70.0097 44.9925 70.1421L45.2121 70.1891L44.8799 71.7598L44.657 71.7122C44.0401 71.5801 43.0936 71.4445 42.2894 71.3457C42.1969 71.906 42.1495 72.3573 42.1066 72.7658C42.0301 73.4945 41.964 74.123 41.6855 74.9584C41.4663 75.6159 40.872 76.5595 40.2426 77.5584C39.8707 78.1486 39.314 79.0321 39.0434 79.5946C39.3381 79.5038 39.7034 79.4119 40.1208 79.4119C40.4516 79.4119 40.7633 79.4675 41.0738 79.582C41.2458 79.6453 41.4052 79.6748 41.5751 79.6748C41.7916 79.6748 41.9977 79.6256 42.2161 79.5733C42.4412 79.5196 42.6948 79.4591 42.9626 79.4591C43.5114 79.4591 43.9822 79.7102 44.4019 80.2268C45.3234 81.361 47.6603 84.7453 48.6021 87.4133C49.4067 89.6931 49.4459 89.7274 50.4524 90.606L50.5761 90.7141C51.3497 91.3912 51.452 92.1988 51.5423 92.9113C51.62 93.5252 51.6871 94.0556 52.1705 94.539C52.9359 95.3043 53.1519 96.0217 53.3425 96.6547C53.5062 97.1989 53.6474 97.6684 54.1311 98.2127C54.9871 99.1756 55.7751 101.056 56.6094 103.046C57.0045 103.989 57.3776 104.879 57.7233 105.571C58.1785 106.481 58.5668 106.668 58.9422 106.849C59.3427 107.042 59.891 107.306 59.9482 108.277C59.9823 108.856 59.8159 109.351 59.6821 109.749C59.4513 110.437 59.4807 110.453 59.8411 110.653C59.9524 110.715 60.0624 110.775 60.1708 110.834C61.4055 111.506 62.5714 112.141 63.4749 114.4C63.9066 115.479 64.0619 116.219 64.1754 116.758C64.3047 117.373 64.376 117.712 64.7356 118.202C64.8007 118.291 64.8626 118.374 64.9212 118.453C65.6793 119.472 65.9777 119.956 65.7479 121.718C65.6354 122.581 65.2566 123.159 64.98 123.581C64.8812 123.732 64.7163 123.984 64.7158 124.063C64.7159 124.063 64.7318 124.141 64.8948 124.304C65.0896 124.499 65.3202 124.718 65.5644 124.951C65.7029 125.083 65.843 125.216 65.9861 125.354C66.0764 125.295 66.1734 125.24 66.2772 125.187L66.7379 126.097C67.761 127.142 68.4863 128.059 69.0156 128.977C69.7873 130.314 71.2644 131.227 72.9748 132.285C73.535 132.631 74.1071 132.985 74.6935 133.376C75.0334 133.603 75.3461 133.806 75.6326 133.993C77.4707 135.19 78.4777 135.846 78.4777 137.41C78.4777 138.61 79.0639 139.559 80.0864 140.731L80.4812 140.696L80.5989 141.627C80.6376 141.934 80.5732 142.249 80.5164 142.527C80.4853 142.678 80.4333 142.932 80.4505 143.014C80.4886 143.124 80.7066 143.278 80.8816 143.402L80.9685 143.464C81.5596 143.888 81.8478 144.367 81.8275 144.89C81.8157 145.193 81.7018 145.431 81.6103 145.622L81.5763 145.693C81.4025 146.064 81.4335 146.307 81.4944 146.371C81.5317 146.41 81.6257 146.464 81.7167 146.515C81.9288 146.635 82.2178 146.799 82.4051 147.119C82.6882 147.603 82.5638 148.11 82.4731 148.479C82.444 148.597 82.3965 148.791 82.4053 148.865L82.4992 149.016L82.5162 149.207C82.5474 149.561 82.8421 149.917 83.1539 150.294C83.4053 150.597 83.6899 150.941 83.8826 151.343C84.2503 152.108 84.294 152.972 84.3292 153.666C84.3834 154.737 84.4395 155.845 84.1513 156.952C84.0601 157.303 83.9371 157.644 83.8182 157.974C83.5654 158.675 83.3276 159.335 83.449 159.926L83.5491 160.413L83.1575 160.719C82.8851 160.933 82.6843 161.532 82.7395 161.724C82.8126 161.838 82.9465 161.949 83.1007 162.078C83.1884 162.151 83.2776 162.225 83.3688 162.311C83.8683 162.78 84.0724 163.35 83.9294 163.874C83.8932 164.008 83.8399 164.115 83.797 164.202C83.7797 164.237 83.7569 164.283 83.7521 164.299C83.7271 164.385 84.0317 164.716 84.1464 164.841C84.23 164.932 84.3134 165.023 84.3937 165.119C84.8222 165.635 85.0278 166.339 84.9435 167.001C84.8745 167.546 84.6089 168.01 84.1959 168.307C84.1223 168.36 84.0522 168.403 83.9903 168.441C83.9713 168.453 83.9499 168.466 83.9289 168.479C83.9778 168.541 84.0413 168.611 84.0866 168.662C84.141 168.722 84.1903 168.777 84.2357 168.831C84.5561 169.215 84.7441 169.701 84.7653 170.2C84.8132 171.328 85.5862 172.277 86.4047 173.281C86.9354 173.933 87.484 174.606 87.8767 175.376C88.0687 175.752 88.2259 176.137 88.3779 176.51C88.5368 176.9 88.7005 177.301 88.894 177.661C89.5078 178.803 90.5121 179.729 91.4835 180.624C91.9863 181.087 92.6359 181.619 93.2015 181.619C93.2812 181.619 93.3599 181.609 93.4355 181.588C93.5276 181.562 93.6238 181.549 93.7214 181.549C94.3069 181.549 94.8515 182.023 95.1097 182.464C95.2062 182.629 95.2741 182.789 95.3396 182.943C95.4062 183.1 95.4688 183.248 95.5443 183.349C95.7592 183.634 96.2443 183.765 96.7134 183.891L96.7452 183.9C97.6289 184.138 98.6057 184.497 99.163 185.353C99.2565 185.497 99.3268 185.637 99.3947 185.773C99.4767 185.936 99.5474 186.077 99.6309 186.166C99.6708 186.208 99.7314 186.257 99.7956 186.309C99.9021 186.394 100.022 186.491 100.135 186.621C100.39 186.915 100.5 187.245 100.597 187.536C100.659 187.723 100.717 187.9 100.799 188.002C100.87 188.092 100.995 188.149 101.125 188.149C101.168 188.149 101.208 188.142 101.243 188.129C101.366 188.085 101.49 188.063 101.612 188.063C102.143 188.063 102.729 188.488 102.782 189.682C102.785 189.747 102.787 189.814 102.789 189.882C102.797 190.183 102.808 190.55 102.929 190.654C102.999 190.714 103.171 190.763 103.337 190.811C103.712 190.919 104.226 191.066 104.49 191.597C104.711 192.041 104.608 192.484 104.532 192.808C104.508 192.909 104.469 193.074 104.475 193.142C104.505 193.167 104.61 193.223 104.681 193.262C104.833 193.344 105.005 193.436 105.167 193.586C105.763 194.134 105.722 194.919 105.689 195.55C105.666 195.996 105.658 196.342 105.784 196.421C105.822 196.444 105.905 196.471 105.986 196.497C106.184 196.56 106.454 196.646 106.683 196.868C107.235 197.403 107.048 198.1 106.925 198.561C106.869 198.771 106.811 198.988 106.83 199.116C106.852 199.259 107.02 199.441 107.198 199.634C107.461 199.919 107.789 200.273 107.888 200.779C108.002 201.37 107.757 201.876 107.56 202.283C107.514 202.376 107.472 202.464 107.434 202.551C107.341 202.769 107.354 202.96 107.378 203.028C108.913 203.712 109.884 205.118 110.345 207.324C110.39 207.539 110.431 207.755 110.472 207.971C110.555 208.412 110.642 208.868 110.762 209.29L110.846 209.565C110.92 209.788 111 209.982 111.088 210.156C111.542 211.055 112.381 211.779 113.131 212.387C114.142 213.206 115.204 213.988 116.288 214.711C118.893 216.447 120.297 219.056 120.14 221.868L120.136 221.942C120.129 222.056 120.122 222.165 120.129 222.25C120.13 222.249 120.132 222.248 120.133 222.247C120.184 222.22 120.232 222.195 120.28 222.172C120.464 222.082 120.663 222.035 120.854 222.035ZM127.185 231.165C127.185 231.165 127.185 231.165 127.185 231.165V231.165ZM178.509 224.927C178.509 224.927 178.509 224.927 178.509 224.928C178.509 224.928 178.509 224.928 178.509 224.927ZM144.194 220.253C144.193 220.253 144.191 220.254 144.19 220.254C144.191 220.254 144.193 220.253 144.194 220.253ZM131.382 218.425C131.389 218.454 131.397 218.474 131.4 218.481L131.577 218.405L131.382 218.425ZM103.018 192.189C103.018 192.189 103.018 192.189 103.018 192.189V192.189ZM82.7416 161.731C82.7416 161.731 82.7416 161.731 82.7416 161.731C82.7416 161.731 82.7416 161.731 82.7416 161.731ZM228.45 128.251C228.453 128.256 228.455 128.261 228.457 128.265C228.455 128.26 228.453 128.255 228.45 128.251ZM213.697 116.176C213.697 116.176 213.697 116.177 213.696 116.177C213.697 116.177 213.697 116.176 213.697 116.176ZM197.692 91.456C197.691 91.4564 197.689 91.4571 197.688 91.4576C197.689 91.4569 197.691 91.4564 197.692 91.456ZM185.093 80.0493C185.093 80.0493 185.094 80.0494 185.094 80.0496C185.094 80.0496 185.094 80.0494 185.093 80.0493ZM115.776 42.934C115.797 42.9529 115.813 42.9682 115.825 42.9797C115.805 42.9596 115.788 42.9444 115.776 42.934Z" fill="#193C15"/>
</svg>
