<svg width="266" height="46" viewBox="0 0 266 46" fill="none" xmlns="http://www.w3.org/2000/svg">
<path d="M29.8848 7.134C29.5248 7.134 29.2368 7.026 29.0208 6.81C28.8048 6.594 28.6968 6.3 28.6968 5.928C28.6968 5.58 28.8048 5.298 29.0208 5.082C29.2368 4.866 29.5248 4.758 29.8848 4.758C30.2448 4.758 30.5268 4.866 30.7308 5.082C30.9468 5.286 31.0548 5.568 31.0548 5.928C31.0548 6.732 30.6648 7.134 29.8848 7.134ZM36.1668 12.822H37.7868V15H35.9508C35.5428 15 35.1648 14.946 34.8168 14.838C34.5888 15.99 34.0068 16.896 33.0708 17.556C32.2308 18.132 31.2108 18.42 30.0108 18.42C28.3908 18.42 27.1368 17.85 26.2488 16.71C25.5528 15.822 25.2048 14.778 25.2048 13.578C25.2048 12.63 25.4268 11.802 25.8708 11.094L28.0308 10.644C27.5508 11.46 27.3108 12.318 27.3108 13.218C27.3108 14.13 27.5688 14.868 28.0848 15.432C28.5768 15.972 29.2188 16.242 30.0108 16.242C30.8388 16.242 31.4808 16.032 31.9368 15.612C32.4048 15.192 32.6388 14.604 32.6388 13.848V8.196L34.9068 7.008V11.526C34.9068 11.994 35.0028 12.33 35.1948 12.534C35.3868 12.726 35.7108 12.822 36.1668 12.822ZM43.1195 12.822H44.7395V15H42.9035C42.0275 15 41.3015 14.766 40.7255 14.298C40.1495 14.766 39.4235 15 38.5475 15H36.7115V12.822H38.3315C38.7875 12.822 39.1115 12.726 39.3035 12.534C39.4955 12.33 39.5915 11.994 39.5915 11.526V8.196L41.8595 7.008V11.526C41.8595 11.994 41.9555 12.33 42.1475 12.534C42.3395 12.726 42.6635 12.822 43.1195 12.822ZM38.4575 16.638C38.8175 16.638 39.0995 16.74 39.3035 16.944C39.5195 17.16 39.6275 17.448 39.6275 17.808C39.6275 18.612 39.2375 19.014 38.4575 19.014C38.0975 19.014 37.8095 18.906 37.5935 18.69C37.3775 18.474 37.2695 18.18 37.2695 17.808C37.2695 17.028 37.6655 16.638 38.4575 16.638ZM41.2295 16.638C41.5895 16.638 41.8715 16.74 42.0755 16.944C42.2915 17.16 42.3995 17.448 42.3995 17.808C42.3995 18.612 42.0095 19.014 41.2295 19.014C40.8695 19.014 40.5815 18.906 40.3655 18.69C40.1495 18.474 40.0415 18.18 40.0415 17.808C40.0415 17.028 40.4375 16.638 41.2295 16.638ZM62.1948 12.822H63.8148V15H61.9788C61.1028 15 60.3768 14.766 59.8008 14.298C59.2248 14.766 58.4988 15 57.6228 15H49.8468C48.9708 15 48.2448 14.766 47.6688 14.298C47.0928 14.766 46.3668 15 45.4908 15H43.6548V12.822H45.2748C45.7308 12.822 46.0548 12.726 46.2468 12.534C46.4388 12.33 46.5348 11.994 46.5348 11.526V9.15L48.8028 7.962V11.526C48.8028 12.294 49.1088 12.72 49.7208 12.804C50.2968 11.052 51.1368 9.63 52.2408 8.538C53.4648 7.314 54.8688 6.702 56.4528 6.702C57.8688 6.702 59.0028 7.194 59.8548 8.178C60.5748 9.006 60.9348 10.032 60.9348 11.256V11.634C60.9348 12.426 61.3548 12.822 62.1948 12.822ZM57.5328 12.822C57.9648 12.822 58.2588 12.732 58.4148 12.552C58.5828 12.36 58.6668 12.012 58.6668 11.508V11.256C58.6668 10.536 58.4628 9.948 58.0548 9.492C57.6468 9.036 57.1188 8.808 56.4708 8.808C55.5348 8.808 54.6588 9.168 53.8428 9.888C53.0388 10.608 52.4028 11.586 51.9348 12.822H57.5328ZM81.2671 12.822H82.8871V15H81.0511C80.1751 15 79.4491 14.766 78.8731 14.298C78.2971 14.766 77.5711 15 76.6951 15H68.9191C68.0431 15 67.3171 14.766 66.7411 14.298C66.1651 14.766 65.4391 15 64.5631 15H62.7271V12.822H64.3471C64.8031 12.822 65.1271 12.726 65.3191 12.534C65.5111 12.33 65.6071 11.994 65.6071 11.526V9.15L67.8751 7.962V11.526C67.8751 12.294 68.1811 12.72 68.7931 12.804C69.3691 11.052 70.2091 9.63 71.3131 8.538C72.5371 7.314 73.9411 6.702 75.5251 6.702C76.9411 6.702 78.0751 7.194 78.9271 8.178C79.6471 9.006 80.0071 10.032 80.0071 11.256V11.634C80.0071 12.426 80.4271 12.822 81.2671 12.822ZM76.6051 12.822C77.0371 12.822 77.3311 12.732 77.4871 12.552C77.6551 12.36 77.7391 12.012 77.7391 11.508V11.256C77.7391 10.536 77.5351 9.948 77.1271 9.492C76.7191 9.036 76.1911 8.808 75.5431 8.808C74.6071 8.808 73.7311 9.168 72.9151 9.888C72.1111 10.608 71.4751 11.586 71.0071 12.822H76.6051ZM87.3794 5.19C87.0194 5.19 86.7314 5.082 86.5154 4.866C86.2994 4.65 86.1914 4.356 86.1914 3.984C86.1914 3.636 86.2994 3.354 86.5154 3.138C86.7314 2.922 87.0194 2.814 87.3794 2.814C87.7394 2.814 88.0214 2.922 88.2254 3.138C88.4414 3.342 88.5494 3.624 88.5494 3.984C88.5494 4.788 88.1594 5.19 87.3794 5.19ZM93.5354 12.822H95.0474V15H93.5174C92.5694 15 91.8074 14.898 91.2314 14.694C90.6674 14.478 90.1394 14.106 89.6474 13.578C88.1474 14.526 86.4194 15 84.4634 15H81.7994V12.822H84.4814C86.5934 12.822 88.2734 12.192 89.5214 10.932C88.7054 9.504 87.7154 8.79 86.5514 8.79C85.5914 8.79 84.5414 9.312 83.4014 10.356V8.358C84.4094 7.254 85.5494 6.702 86.8214 6.702C87.7574 6.702 88.6694 7.044 89.5574 7.728C90.4454 8.412 91.2314 9.384 91.9154 10.644V11.544C91.7234 11.796 91.4714 12.078 91.1594 12.39C91.6394 12.678 92.4314 12.822 93.5354 12.822ZM95.6734 5.424C95.3134 5.424 95.0254 5.316 94.8094 5.1C94.5934 4.884 94.4854 4.59 94.4854 4.218C94.4854 3.87 94.5934 3.588 94.8094 3.372C95.0254 3.156 95.3134 3.048 95.6734 3.048C96.0334 3.048 96.3154 3.156 96.5194 3.372C96.7354 3.576 96.8434 3.858 96.8434 4.218C96.8434 5.022 96.4534 5.424 95.6734 5.424ZM98.4274 5.424C98.0674 5.424 97.7794 5.316 97.5634 5.1C97.3474 4.872 97.2394 4.578 97.2394 4.218C97.2394 3.87 97.3474 3.588 97.5634 3.372C97.7914 3.156 98.0794 3.048 98.4274 3.048C98.7874 3.048 99.0694 3.156 99.2734 3.372C99.4894 3.576 99.5974 3.858 99.5974 4.218C99.5974 5.022 99.2074 5.424 98.4274 5.424ZM100.371 12.822H101.991V15H100.155C99.2794 15 98.5534 14.766 97.9774 14.298C97.4014 14.766 96.6754 15 95.7994 15H93.9634V12.822H95.5834C96.0394 12.822 96.3634 12.726 96.5554 12.534C96.7474 12.33 96.8434 11.994 96.8434 11.526V8.196L99.1114 7.008V11.526C99.1114 11.994 99.2074 12.33 99.3994 12.534C99.5914 12.726 99.9154 12.822 100.371 12.822ZM112.355 12.822H113.957V15H112.121C111.257 15 110.549 14.778 109.997 14.334C109.349 15.018 108.497 15.36 107.441 15.36C106.361 15.36 105.509 15.018 104.885 14.334C104.309 14.778 103.595 15 102.743 15H100.907V12.822H102.527C102.983 12.822 103.307 12.726 103.499 12.534C103.691 12.33 103.787 11.994 103.787 11.526V11.004C103.787 9.6 104.153 8.508 104.885 7.728C105.521 7.044 106.373 6.702 107.441 6.702C108.653 6.702 109.589 7.146 110.249 8.034C110.801 8.79 111.077 9.78 111.077 11.004V11.526C111.077 11.994 111.173 12.33 111.365 12.534C111.569 12.726 111.899 12.822 112.355 12.822ZM107.441 13.182C108.353 13.182 108.809 12.438 108.809 10.95C108.809 9.522 108.353 8.808 107.441 8.808C106.517 8.808 106.055 9.522 106.055 10.95C106.055 12.438 106.517 13.182 107.441 13.182ZM112.877 15V12.822H114.011C114.563 12.822 114.953 12.702 115.181 12.462C115.421 12.222 115.541 11.814 115.541 11.238V4.596L117.791 3.39V11.256C117.791 12.42 117.437 13.35 116.729 14.046C116.081 14.682 115.217 15 114.137 15H112.877ZM121.032 15V4.596L123.3 3.39V15H121.032ZM130.602 14.478C130.23 14.55 129.846 14.586 129.45 14.586C128.346 14.586 127.464 14.172 126.804 13.344C126.264 12.648 125.994 11.808 125.994 10.824C125.994 9.504 126.354 8.466 127.074 7.71C127.71 7.038 128.55 6.702 129.594 6.702C130.662 6.702 131.496 7.044 132.096 7.728C132.612 8.316 132.87 9.084 132.87 10.032V13.884C132.87 15.3 132.498 16.416 131.754 17.232C131.058 18 130.11 18.384 128.91 18.384C128.154 18.384 127.416 18.18 126.696 17.772V15.81C127.344 16.182 127.992 16.368 128.64 16.368C129.804 16.368 130.458 15.738 130.602 14.478ZM130.62 9.996C130.62 9.204 130.278 8.808 129.594 8.808C129.162 8.808 128.82 8.982 128.568 9.33C128.328 9.678 128.208 10.152 128.208 10.752C128.208 12.024 128.664 12.66 129.576 12.66C130.056 12.66 130.404 12.54 130.62 12.3V9.996ZM144.582 7.134C144.222 7.134 143.934 7.026 143.718 6.81C143.502 6.594 143.394 6.3 143.394 5.928C143.394 5.58 143.502 5.298 143.718 5.082C143.934 4.866 144.222 4.758 144.582 4.758C144.942 4.758 145.224 4.866 145.428 5.082C145.644 5.286 145.752 5.568 145.752 5.928C145.752 6.732 145.362 7.134 144.582 7.134ZM150.864 12.822H152.484V15H150.648C150.24 15 149.862 14.946 149.514 14.838C149.286 15.99 148.704 16.896 147.768 17.556C146.928 18.132 145.908 18.42 144.708 18.42C143.088 18.42 141.834 17.85 140.946 16.71C140.25 15.822 139.902 14.778 139.902 13.578C139.902 12.63 140.124 11.802 140.568 11.094L142.728 10.644C142.248 11.46 142.008 12.318 142.008 13.218C142.008 14.13 142.266 14.868 142.782 15.432C143.274 15.972 143.916 16.242 144.708 16.242C145.536 16.242 146.178 16.032 146.634 15.612C147.102 15.192 147.336 14.604 147.336 13.848V8.196L149.604 7.008V11.526C149.604 11.994 149.7 12.33 149.892 12.534C150.084 12.726 150.408 12.822 150.864 12.822ZM157.817 12.822H159.437V15H157.601C156.725 15 155.999 14.766 155.423 14.298C154.847 14.766 154.121 15 153.245 15H151.409V12.822H153.029C153.485 12.822 153.809 12.726 154.001 12.534C154.193 12.33 154.289 11.994 154.289 11.526V8.196L156.557 7.008V11.526C156.557 11.994 156.653 12.33 156.845 12.534C157.037 12.726 157.361 12.822 157.817 12.822ZM153.155 16.638C153.515 16.638 153.797 16.74 154.001 16.944C154.217 17.16 154.325 17.448 154.325 17.808C154.325 18.612 153.935 19.014 153.155 19.014C152.795 19.014 152.507 18.906 152.291 18.69C152.075 18.474 151.967 18.18 151.967 17.808C151.967 17.028 152.363 16.638 153.155 16.638ZM155.927 16.638C156.287 16.638 156.569 16.74 156.773 16.944C156.989 17.16 157.097 17.448 157.097 17.808C157.097 18.612 156.707 19.014 155.927 19.014C155.567 19.014 155.279 18.906 155.063 18.69C154.847 18.474 154.739 18.18 154.739 17.808C154.739 17.028 155.135 16.638 155.927 16.638ZM158.352 15V12.822H159.972C160.428 12.822 160.752 12.726 160.944 12.534C161.136 12.33 161.232 11.994 161.232 11.526V8.196L163.5 7.008V11.634C163.5 12.726 163.164 13.578 162.492 14.19C161.904 14.73 161.136 15 160.188 15H158.352ZM159.324 19.014C158.964 19.014 158.676 18.906 158.46 18.69C158.244 18.474 158.136 18.18 158.136 17.808C158.136 17.028 158.532 16.638 159.324 16.638C159.684 16.638 159.966 16.74 160.17 16.944C160.386 17.16 160.494 17.448 160.494 17.808C160.494 18.612 160.104 19.014 159.324 19.014ZM162.096 19.014C161.736 19.014 161.448 18.906 161.232 18.69C161.016 18.474 160.908 18.18 160.908 17.808C160.908 17.028 161.304 16.638 162.096 16.638C162.456 16.638 162.738 16.74 162.942 16.944C163.158 17.16 163.266 17.448 163.266 17.808C163.266 18.612 162.876 19.014 162.096 19.014ZM171.152 13.884C171.152 15.276 170.768 16.404 170 17.268C169.292 18.072 168.356 18.474 167.192 18.474C166.436 18.474 165.698 18.282 164.978 17.898V15.918C165.602 16.266 166.214 16.44 166.814 16.44C167.474 16.44 167.984 16.224 168.344 15.792C168.716 15.372 168.902 14.784 168.902 14.028V8.214L171.152 7.008V13.884ZM177.711 15C176.619 15 175.773 14.652 175.173 13.956C174.657 13.356 174.399 12.582 174.399 11.634V4.578L176.667 3.39V11.526C176.667 11.994 176.763 12.33 176.955 12.534C177.147 12.726 177.471 12.822 177.927 12.822H179.547V15H177.711ZM188.685 2.778C187.965 2.778 187.605 2.412 187.605 1.68C187.605 0.972 187.965 0.618 188.685 0.618C189.393 0.618 189.747 0.972 189.747 1.68C189.747 2.412 189.393 2.778 188.685 2.778ZM187.317 5.424C186.957 5.424 186.669 5.316 186.453 5.1C186.237 4.884 186.129 4.59 186.129 4.218C186.129 3.87 186.237 3.588 186.453 3.372C186.669 3.156 186.957 3.048 187.317 3.048C187.677 3.048 187.959 3.156 188.163 3.372C188.379 3.576 188.487 3.858 188.487 4.218C188.487 5.022 188.097 5.424 187.317 5.424ZM190.089 5.424C189.729 5.424 189.441 5.316 189.225 5.1C189.009 4.884 188.901 4.59 188.901 4.218C188.901 3.87 189.009 3.588 189.225 3.372C189.441 3.156 189.729 3.048 190.089 3.048C190.449 3.048 190.731 3.156 190.935 3.372C191.151 3.576 191.259 3.858 191.259 4.218C191.259 5.022 190.869 5.424 190.089 5.424ZM178.461 15V12.822H180.369C180.825 12.822 181.149 12.726 181.341 12.534C181.545 12.33 181.647 11.994 181.647 11.526V9.15L183.915 7.962V11.526C183.915 11.994 184.011 12.33 184.203 12.534C184.395 12.726 184.719 12.822 185.175 12.822H186.399C186.855 12.822 187.179 12.726 187.371 12.534C187.563 12.33 187.659 11.994 187.659 11.526V8.682L189.927 7.476V11.526C189.927 11.994 190.023 12.33 190.215 12.534C190.419 12.726 190.749 12.822 191.205 12.822H192.429C192.885 12.822 193.209 12.726 193.401 12.534C193.593 12.33 193.689 11.994 193.689 11.526V8.196L195.957 7.008V11.238C195.957 11.814 196.071 12.222 196.299 12.462C196.539 12.702 196.935 12.822 197.487 12.822H199.143V15H197.361C196.353 15 195.543 14.712 194.931 14.136C194.391 14.7 193.665 14.988 192.753 15H190.971C190.083 15 189.357 14.736 188.793 14.208C188.277 14.724 187.593 14.988 186.741 15H184.959C184.071 15 183.345 14.736 182.781 14.208C182.217 14.736 181.491 15 180.603 15H178.461ZM199.771 5.424C199.411 5.424 199.123 5.316 198.907 5.1C198.691 4.884 198.583 4.59 198.583 4.218C198.583 3.87 198.691 3.588 198.907 3.372C199.123 3.156 199.411 3.048 199.771 3.048C200.131 3.048 200.413 3.156 200.617 3.372C200.833 3.576 200.941 3.858 200.941 4.218C200.941 5.022 200.551 5.424 199.771 5.424ZM202.525 5.424C202.165 5.424 201.877 5.316 201.661 5.1C201.445 4.872 201.337 4.578 201.337 4.218C201.337 3.87 201.445 3.588 201.661 3.372C201.889 3.156 202.177 3.048 202.525 3.048C202.885 3.048 203.167 3.156 203.371 3.372C203.587 3.576 203.695 3.858 203.695 4.218C203.695 5.022 203.305 5.424 202.525 5.424ZM204.469 12.822H206.089V15H204.253C203.377 15 202.651 14.766 202.075 14.298C201.499 14.766 200.773 15 199.897 15H198.061V12.822H199.681C200.137 12.822 200.461 12.726 200.653 12.534C200.845 12.33 200.941 11.994 200.941 11.526V8.196L203.209 7.008V11.526C203.209 11.994 203.305 12.33 203.497 12.534C203.689 12.726 204.013 12.822 204.469 12.822ZM205.004 15V12.822H206.912C207.368 12.822 207.692 12.726 207.884 12.534C208.088 12.33 208.19 11.994 208.19 11.526V9.15L210.458 7.962V11.526C210.458 11.994 210.554 12.33 210.746 12.534C210.938 12.726 211.262 12.822 211.718 12.822H212.942C213.398 12.822 213.722 12.726 213.914 12.534C214.106 12.33 214.202 11.994 214.202 11.526V8.682L216.47 7.476V11.526C216.47 11.994 216.566 12.33 216.758 12.534C216.962 12.726 217.292 12.822 217.748 12.822H218.972C219.428 12.822 219.752 12.726 219.944 12.534C220.136 12.33 220.232 11.994 220.232 11.526V8.196L222.5 7.008V11.634C222.5 12.702 222.176 13.542 221.528 14.154C220.964 14.694 220.22 14.976 219.296 15H217.514C216.626 15 215.9 14.736 215.336 14.208C214.82 14.724 214.136 14.988 213.284 15H211.502C210.614 15 209.888 14.736 209.324 14.208C208.76 14.736 208.034 15 207.146 15H205.004ZM232.675 4.596L234.943 3.39V11.256C234.943 12.42 234.589 13.35 233.881 14.046C233.221 14.682 232.351 15 231.271 15H224.485L225.619 12.822H227.995V6.936L230.263 5.73V12.822H231.145C231.697 12.822 232.087 12.702 232.315 12.462C232.555 12.222 232.675 11.814 232.675 11.238V4.596ZM238.172 15V4.596L240.44 3.39V15H238.172Z" fill="#253C30"/>
<path d="M15.6864 38.866H16.6104V40H15.5464C14.7624 40 14.1557 39.7573 13.7264 39.272C13.2691 39.7573 12.6577 40 11.8924 40H6.89439C6.13839 40 5.54572 39.748 5.11639 39.244C4.74305 38.8053 4.55639 38.2313 4.55639 37.522V35.828L5.76039 35.184V37.41C5.76039 38.3807 6.21305 38.866 7.11839 38.866H11.7664C12.6624 38.866 13.1104 38.3807 13.1104 37.41V31.614L14.3284 30.97V37.466C14.3284 38.3993 14.7811 38.866 15.6864 38.866ZM9.51239 33.182C10.3151 33.2193 10.7164 33.616 10.7164 34.372C10.7164 34.6987 10.6184 34.96 10.4224 35.156C10.2357 35.352 9.98372 35.45 9.66639 35.45H7.81839L8.14039 34.848H9.61039C9.94639 34.848 10.1144 34.68 10.1144 34.344C10.1144 33.9333 9.85305 33.728 9.33039 33.728C9.05972 33.728 8.81239 33.7933 8.58839 33.924V33.364L9.76439 32.062H10.5064L9.51239 33.182ZM23.315 38.866V40H15.769V38.866H18.191C17.7336 38.278 17.505 37.5547 17.505 36.696C17.505 35.744 17.8316 34.988 18.485 34.428C19.017 33.98 19.633 33.7513 20.333 33.742C21.3223 33.742 22.0923 34.1387 22.643 34.932V36.066C22.0456 35.2633 21.3223 34.862 20.473 34.862C19.941 34.862 19.5116 35.0347 19.185 35.38C18.8676 35.716 18.709 36.1687 18.709 36.738C18.709 37.382 18.9003 37.9 19.283 38.292C19.675 38.6747 20.193 38.866 20.837 38.866H23.315ZM28.7133 39.552C28.3586 39.692 27.9246 39.762 27.4113 39.762C26.5806 39.762 25.9273 39.4493 25.4513 38.824C25.0499 38.292 24.8493 37.6247 24.8493 36.822C24.8493 35.8327 25.1153 35.058 25.6473 34.498C26.1233 33.994 26.7486 33.742 27.5233 33.742C28.3166 33.742 28.9279 33.9893 29.3573 34.484C29.7399 34.9227 29.9313 35.4967 29.9313 36.206V39.258C29.9313 40.3127 29.6559 41.148 29.1053 41.764C28.5826 42.3427 27.8873 42.632 27.0193 42.632C26.4406 42.632 25.8946 42.4967 25.3813 42.226V41.162C25.8759 41.4233 26.3659 41.554 26.8513 41.554C27.4019 41.554 27.8406 41.3767 28.1673 41.022C28.4939 40.6767 28.6759 40.1867 28.7133 39.552ZM28.7133 36.262C28.7133 35.3287 28.3166 34.862 27.5233 34.862C27.0566 34.862 26.6879 35.0347 26.4173 35.38C26.1559 35.7253 26.0253 36.1967 26.0253 36.794C26.0253 37.382 26.1513 37.8533 26.4033 38.208C26.6646 38.5533 27.0146 38.726 27.4533 38.726C28.0693 38.726 28.4893 38.5533 28.7133 38.208V36.262ZM36.6563 38.866H37.5803V40H36.5163C36.0403 40 35.6296 39.9067 35.2843 39.72C35.2003 40.644 34.8783 41.3813 34.3183 41.932C33.805 42.436 33.161 42.688 32.3863 42.688C31.8263 42.688 31.2803 42.548 30.7483 42.268V41.218C31.2243 41.4793 31.7003 41.61 32.1763 41.61C32.7736 41.61 33.2403 41.4093 33.5763 41.008C33.9123 40.6067 34.0803 40.0513 34.0803 39.342V34.568L35.2843 33.924V33.938L35.2983 33.924V37.746C35.3823 38.4927 35.835 38.866 36.6563 38.866ZM44.4416 30.942C44.031 30.942 43.8256 30.732 43.8256 30.312C43.8256 29.9013 44.031 29.696 44.4416 29.696C44.8523 29.696 45.0576 29.9013 45.0576 30.312C45.0576 30.732 44.8523 30.942 44.4416 30.942ZM43.5596 32.608C43.1023 32.608 42.8736 32.3747 42.8736 31.908C42.8736 31.4507 43.1023 31.222 43.5596 31.222C44.0076 31.222 44.2316 31.4507 44.2316 31.908C44.2316 32.3747 44.0076 32.608 43.5596 32.608ZM45.3376 32.608C44.8803 32.608 44.6516 32.3747 44.6516 31.908C44.6516 31.4507 44.8803 31.222 45.3376 31.222C45.7856 31.222 46.0096 31.4507 46.0096 31.908C46.0096 32.3747 45.7856 32.608 45.3376 32.608ZM36.7416 40V38.866H38.0016C38.907 38.866 39.3596 38.3993 39.3596 37.466V35.506L40.5636 34.862V37.466C40.5636 38.3993 41.021 38.866 41.9356 38.866H42.5796C43.4943 38.866 43.9516 38.3993 43.9516 37.466V35.03L45.1556 34.4V37.466C45.1556 38.3993 45.6083 38.866 46.5136 38.866H47.1716C48.0863 38.866 48.5436 38.3993 48.5436 37.466V34.568L49.7476 33.924V37.34C49.7476 38.3573 50.233 38.866 51.2036 38.866H52.3656V40H51.1056C50.2656 40 49.6263 39.7153 49.1876 39.146C48.7956 39.706 48.1843 39.9907 47.3536 40H46.3876C45.5663 40 44.955 39.7247 44.5536 39.174C44.1523 39.7153 43.555 39.9907 42.7616 40H41.7956C40.993 40 40.3816 39.7247 39.9616 39.174C39.5603 39.7247 38.949 40 38.1276 40H36.7416ZM53.8169 36.206C53.8169 35.394 54.0596 34.764 54.5449 34.316C54.9743 33.9333 55.5343 33.742 56.2249 33.742C57.1116 33.742 57.7929 34.0687 58.2689 34.722C58.6796 35.2727 58.8849 35.9913 58.8849 36.878C58.8849 37.886 58.6236 38.6747 58.1009 39.244C57.6436 39.748 57.0463 40 56.3089 40C55.4689 40 54.8296 39.7667 54.3909 39.3C53.9429 39.7667 53.3409 40 52.5849 40H51.5209V38.866H52.4449C53.3596 38.866 53.8169 38.3993 53.8169 37.466V36.206ZM55.0209 37.564C55.0209 38.432 55.4456 38.866 56.2949 38.866C56.7336 38.866 57.0743 38.6887 57.3169 38.334C57.5689 37.9793 57.6949 37.4847 57.6949 36.85C57.6949 36.2247 57.5643 35.7393 57.3029 35.394C57.0416 35.0393 56.6823 34.862 56.2249 34.862C55.4223 34.862 55.0209 35.3287 55.0209 36.262V37.564ZM71.0045 38.866V40H69.2685C69.2312 40.8027 68.8859 41.4653 68.2325 41.988C67.6819 42.4173 67.0565 42.632 66.3565 42.632C65.7779 42.632 65.2319 42.4967 64.7185 42.226V41.162C65.2132 41.4233 65.7032 41.554 66.1885 41.554C66.6832 41.554 67.1125 41.4 67.4765 41.092C67.8499 40.784 68.0412 40.4153 68.0505 39.986C67.5652 39.9673 67.2059 39.9487 66.9725 39.93C65.9645 39.874 65.2039 39.5333 64.6905 38.908C64.2612 38.3853 64.0465 37.7087 64.0465 36.878C64.0465 35.8607 64.3172 35.0673 64.8585 34.498C65.3439 33.994 65.9832 33.742 66.7765 33.742C67.6072 33.742 68.2465 33.9893 68.6945 34.484C69.0772 34.9227 69.2685 35.4967 69.2685 36.206V38.866H71.0045ZM68.0505 36.29C68.0505 35.338 67.6259 34.862 66.7765 34.862C66.2912 34.862 65.9132 35.0393 65.6425 35.394C65.3719 35.7393 65.2365 36.2247 65.2365 36.85C65.2365 38.0727 65.8339 38.7213 67.0285 38.796C67.2525 38.824 67.5932 38.8473 68.0505 38.866V36.29ZM79.1854 38.866H80.1234V40H79.0594C78.2847 40 77.6734 39.7527 77.2254 39.258C76.7494 39.9393 76.054 40.28 75.1394 40.28C74.2247 40.28 73.534 39.944 73.0674 39.272C72.6287 39.7573 72.0174 40 71.2334 40H70.1694V38.866H71.0934C72.008 38.866 72.4654 38.3993 72.4654 37.466V37.004C72.4654 35.9213 72.7314 35.0907 73.2634 34.512C73.73 33.9987 74.3554 33.742 75.1394 33.742C76.0354 33.742 76.726 34.0733 77.2114 34.736C77.622 35.3053 77.8274 36.0613 77.8274 37.004V37.466C77.8274 38.3993 78.28 38.866 79.1854 38.866ZM75.1394 39.146C75.5967 39.146 75.956 38.9547 76.2174 38.572C76.488 38.1893 76.6234 37.662 76.6234 36.99C76.6234 35.5713 76.1287 34.862 75.1394 34.862C74.1594 34.862 73.6694 35.5713 73.6694 36.99C73.6694 38.4273 74.1594 39.146 75.1394 39.146ZM81.9485 32.23C81.4912 32.23 81.2625 31.9967 81.2625 31.53C81.2625 31.0727 81.4912 30.844 81.9485 30.844C82.3965 30.844 82.6205 31.0727 82.6205 31.53C82.6205 31.9967 82.3965 32.23 81.9485 32.23ZM84.1605 38.866H85.0845V40H84.0205C83.2458 40 82.6345 39.7527 82.1865 39.258C81.7385 39.7527 81.1272 40 80.3525 40H79.2885V38.866H80.2125C81.1272 38.866 81.5845 38.3993 81.5845 37.466V34.568L82.7885 33.924V37.466C82.7885 38.3993 83.2458 38.866 84.1605 38.866ZM84.2377 40V38.866H84.9797C85.9504 38.866 86.4357 38.3573 86.4357 37.34V31.614L87.6537 30.97V37.354C87.6537 38.1847 87.4064 38.8427 86.9117 39.328C86.445 39.776 85.8337 40 85.0777 40H84.2377ZM95.8732 40C95.0612 40 94.4359 39.7387 93.9972 39.216C93.6239 38.768 93.4372 38.1987 93.4372 37.508V31.614L94.6412 30.97V37.466C94.6412 38.3993 95.0986 38.866 96.0132 38.866H96.9372V40H95.8732ZM105.625 38.866H106.549V40H105.485C104.701 40 104.095 39.7573 103.665 39.272C103.208 39.7573 102.587 40 101.803 40H100.291C99.9739 40 99.6752 39.9533 99.3952 39.86C99.1059 39.9533 98.8072 40 98.4992 40H96.0912V38.866H97.8972C97.5426 38.39 97.3652 37.8487 97.3652 37.242C97.3652 36.6913 97.5006 36.2247 97.7712 35.842C98.0046 34.9833 98.4479 34.3253 99.1012 33.868C99.6332 33.504 100.235 33.322 100.907 33.322C101.897 33.322 102.713 33.658 103.357 34.33C103.964 34.9647 104.267 35.7813 104.267 36.78V37.466C104.267 38.3993 104.72 38.866 105.625 38.866ZM101.761 38.866C102.219 38.866 102.545 38.754 102.741 38.53C102.947 38.2967 103.049 37.9233 103.049 37.41V36.78C103.049 36.0053 102.802 35.4033 102.307 34.974C101.906 34.6193 101.425 34.442 100.865 34.442C100.221 34.442 99.7172 34.652 99.3532 35.072H99.3952C100.011 35.072 100.501 35.2727 100.865 35.674C101.239 36.066 101.425 36.5887 101.425 37.242C101.425 37.8673 101.243 38.4087 100.879 38.866H101.761ZM99.3952 38.74C100.161 38.4787 100.543 37.956 100.543 37.172C100.543 36.78 100.436 36.4673 100.221 36.234C100.016 35.9913 99.7406 35.87 99.3952 35.87C99.0499 35.87 98.7699 35.9913 98.5552 36.234C98.3499 36.4673 98.2472 36.78 98.2472 37.172C98.2472 37.956 98.6299 38.4787 99.3952 38.74ZM105.703 40V38.866H107.621C109.515 38.866 111.013 38.2407 112.115 36.99C111.34 35.562 110.397 34.848 109.287 34.848C108.531 34.848 107.751 35.2493 106.949 36.052V34.932C107.733 34.1387 108.563 33.742 109.441 33.742C110.159 33.742 110.855 34.0033 111.527 34.526C112.199 35.0393 112.791 35.7767 113.305 36.738V37.354C111.933 39.118 110.033 40 107.607 40H105.703ZM109.805 42.786C109.347 42.786 109.119 42.5527 109.119 42.086C109.119 41.6287 109.347 41.4 109.805 41.4C110.253 41.4 110.477 41.6287 110.477 42.086C110.477 42.5527 110.253 42.786 109.805 42.786ZM117.707 40C116.895 40 116.27 39.7387 115.831 39.216C115.458 38.768 115.271 38.1987 115.271 37.508V31.614L116.475 30.97V37.466C116.475 38.3993 116.933 38.866 117.847 38.866H118.771V40H117.707ZM119.493 32.328C119.036 32.328 118.807 32.0947 118.807 31.628C118.807 31.1707 119.036 30.942 119.493 30.942C119.941 30.942 120.165 31.1707 120.165 31.628C120.165 32.0947 119.941 32.328 119.493 32.328ZM121.285 32.328C120.828 32.328 120.599 32.0947 120.599 31.628C120.599 31.1707 120.828 30.942 121.285 30.942C121.733 30.942 121.957 31.1707 121.957 31.628C121.957 32.0947 121.733 32.328 121.285 32.328ZM122.797 38.866H123.721V40H122.657C121.883 40 121.271 39.7527 120.823 39.258C120.375 39.7527 119.764 40 118.989 40H117.925V38.866H118.849C119.764 38.866 120.221 38.3993 120.221 37.466V34.568L121.425 33.924V37.466C121.425 38.3993 121.883 38.866 122.797 38.866ZM132.002 38.866H132.912V40H131.988C131.232 40 130.626 39.916 130.168 39.748C129.711 39.5707 129.286 39.2627 128.894 38.824C127.718 39.608 126.346 40 124.778 40H122.874V38.866H124.792C126.687 38.866 128.185 38.2407 129.286 36.99C128.512 35.562 127.569 34.848 126.458 34.848C125.702 34.848 124.923 35.2493 124.12 36.052V34.932C124.904 34.1387 125.735 33.742 126.612 33.742C127.331 33.742 128.026 34.0033 128.698 34.526C129.37 35.0393 129.963 35.7767 130.476 36.738V37.354C130.187 37.718 129.912 38.012 129.65 38.236C130.154 38.656 130.938 38.866 132.002 38.866ZM133.154 32.23C132.696 32.23 132.468 31.9967 132.468 31.53C132.468 31.0727 132.696 30.844 133.154 30.844C133.602 30.844 133.826 31.0727 133.826 31.53C133.826 31.9967 133.602 32.23 133.154 32.23ZM134.932 32.23C134.474 32.23 134.246 31.9967 134.246 31.53C134.246 31.0727 134.474 30.844 134.932 30.844C135.38 30.844 135.604 31.0727 135.604 31.53C135.604 31.9967 135.38 32.23 134.932 32.23ZM132.076 40V38.866H133C133.914 38.866 134.372 38.3993 134.372 37.466V34.568L135.576 33.924V37.508C135.576 38.3013 135.338 38.9267 134.862 39.384C134.423 39.7947 133.849 40 133.14 40H132.076ZM149.435 40C149.342 40.8213 148.894 41.4793 148.091 41.974C147.345 42.4313 146.393 42.66 145.235 42.66C143.761 42.66 142.65 42.2307 141.903 41.372C141.353 40.7373 141.077 39.9533 141.077 39.02C141.077 38.236 141.273 37.564 141.665 37.004L142.827 36.752C142.407 37.4147 142.197 38.1287 142.197 38.894C142.197 39.7247 142.468 40.378 143.009 40.854C143.541 41.33 144.283 41.568 145.235 41.568C146.038 41.568 146.701 41.428 147.223 41.148C147.746 40.868 148.063 40.4853 148.175 40H146.775L147.363 38.866H149.477V40H149.435ZM144.297 45.138C143.84 45.138 143.611 44.9047 143.611 44.438C143.611 43.9807 143.84 43.752 144.297 43.752C144.745 43.752 144.969 43.9807 144.969 44.438C144.969 44.9047 144.745 45.138 144.297 45.138ZM146.075 45.138C145.618 45.138 145.389 44.9047 145.389 44.438C145.389 43.9807 145.618 43.752 146.075 43.752C146.523 43.752 146.747 43.9807 146.747 44.438C146.747 44.9047 146.523 45.138 146.075 45.138ZM153.516 38.866H154.44V40H153.376C152.573 40 151.952 39.7433 151.514 39.23C151.047 39.7433 150.403 40 149.582 40H148.742V38.866H149.484C150.454 38.866 150.94 38.3573 150.94 37.34V31.614L152.158 30.97V37.354C152.158 37.8953 152.26 38.2827 152.466 38.516C152.68 38.7493 153.03 38.866 153.516 38.866ZM153.595 40V38.866H154.337C155.308 38.866 155.793 38.3573 155.793 37.34V31.614L157.011 30.97V37.354C157.011 38.1847 156.764 38.8427 156.269 39.328C155.802 39.776 155.191 40 154.435 40H153.595ZM159.527 40V31.614L160.731 30.97V40H159.527ZM171.343 32.328C170.886 32.328 170.657 32.0947 170.657 31.628C170.657 31.1707 170.886 30.942 171.343 30.942C171.791 30.942 172.015 31.1707 172.015 31.628C172.015 32.0947 171.791 32.328 171.343 32.328ZM173.121 32.328C172.664 32.328 172.435 32.0947 172.435 31.628C172.435 31.1707 172.664 30.942 173.121 30.942C173.569 30.942 173.793 31.1707 173.793 31.628C173.793 32.0947 173.569 32.328 173.121 32.328ZM174.619 39.244C174.619 40.3453 174.218 41.1993 173.415 41.806C172.678 42.3753 171.67 42.66 170.391 42.66C168.917 42.66 167.806 42.2307 167.059 41.372C166.509 40.7373 166.233 39.9533 166.233 39.02C166.233 38.236 166.429 37.564 166.821 37.004L167.983 36.752C167.563 37.4147 167.353 38.1287 167.353 38.894C167.353 39.6967 167.624 40.3407 168.165 40.826C168.697 41.2927 169.439 41.526 170.391 41.526C172.314 41.526 173.308 40.812 173.373 39.384C173.093 39.636 172.669 39.762 172.099 39.762C171.278 39.762 170.625 39.4447 170.139 38.81C169.738 38.2687 169.537 37.606 169.537 36.822C169.537 35.8327 169.803 35.058 170.335 34.498C170.811 33.994 171.437 33.742 172.211 33.742C173.005 33.742 173.616 33.9893 174.045 34.484C174.428 34.9227 174.619 35.4967 174.619 36.206V39.244ZM173.415 36.262C173.415 35.3287 173.014 34.862 172.211 34.862C171.754 34.862 171.395 35.0347 171.133 35.38C170.872 35.716 170.741 36.1873 170.741 36.794C170.741 37.3913 170.867 37.8627 171.119 38.208C171.371 38.5533 171.712 38.726 172.141 38.726C172.785 38.726 173.21 38.5487 173.415 38.194V36.262ZM183.538 38.866V40H181.802C181.764 40.8027 181.419 41.4653 180.766 41.988C180.215 42.4173 179.59 42.632 178.89 42.632C178.311 42.632 177.765 42.4967 177.252 42.226V41.162C177.746 41.4233 178.236 41.554 178.722 41.554C179.216 41.554 179.646 41.4 180.01 41.092C180.383 40.784 180.574 40.4153 180.584 39.986C180.098 39.9673 179.739 39.9487 179.506 39.93C178.498 39.874 177.737 39.5333 177.224 38.908C176.794 38.3853 176.58 37.7087 176.58 36.878C176.58 35.8607 176.85 35.0673 177.392 34.498C177.877 33.994 178.516 33.742 179.31 33.742C180.14 33.742 180.78 33.9893 181.228 34.484C181.61 34.9227 181.802 35.4967 181.802 36.206V38.866H183.538ZM180.584 36.29C180.584 35.338 180.159 34.862 179.31 34.862C178.824 34.862 178.446 35.0393 178.176 35.394C177.905 35.7393 177.77 36.2247 177.77 36.85C177.77 38.0727 178.367 38.7213 179.562 38.796C179.786 38.824 180.126 38.8473 180.584 38.866V36.29ZM182.703 40V38.866H183.963C184.868 38.866 185.321 38.3993 185.321 37.466V35.506L186.525 34.862V37.466C186.525 38.3993 186.982 38.866 187.897 38.866H188.541C189.455 38.866 189.913 38.3993 189.913 37.466V35.03L191.117 34.4V37.466C191.117 38.3993 191.569 38.866 192.475 38.866H193.133C194.047 38.866 194.505 38.3993 194.505 37.466V34.568L195.709 33.924V37.34C195.709 38.3573 196.194 38.866 197.165 38.866H198.327V40H197.067C196.227 40 195.587 39.7153 195.149 39.146C194.757 39.706 194.145 39.9907 193.315 40H192.349C191.527 40 190.916 39.7247 190.515 39.174C190.113 39.7153 189.516 39.9907 188.723 40H187.757C186.954 40 186.343 39.7247 185.923 39.174C185.521 39.7247 184.91 40 184.089 40H182.703ZM197.482 40V38.866H198.224C199.195 38.866 199.68 38.3573 199.68 37.34V31.614L200.898 30.97V37.354C200.898 38.1847 200.651 38.8427 200.156 39.328C199.689 39.776 199.078 40 198.322 40H197.482ZM203.414 40V31.614L204.618 30.97V40H203.414ZM214.152 33.49C213.695 33.49 213.466 33.2567 213.466 32.79C213.466 32.3327 213.695 32.104 214.152 32.104C214.6 32.104 214.824 32.3327 214.824 32.79C214.824 33.2567 214.6 33.49 214.152 33.49ZM215.93 33.49C215.473 33.49 215.244 33.2567 215.244 32.79C215.244 32.3327 215.473 32.104 215.93 32.104C216.378 32.104 216.602 32.3327 216.602 32.79C216.602 33.2567 216.378 33.49 215.93 33.49ZM212.738 40C211.982 40 211.389 39.748 210.96 39.244C210.587 38.8053 210.4 38.2313 210.4 37.522V35.828L211.604 35.184V37.41C211.604 38.3807 212.057 38.866 212.962 38.866H217.61C218.515 38.866 218.968 38.3807 218.968 37.41V34.568L220.172 33.924V37.522C220.172 38.334 219.925 38.964 219.43 39.412C218.991 39.804 218.427 40 217.736 40H212.738ZM224.854 40C224.042 40 223.416 39.7387 222.978 39.216C222.604 38.768 222.418 38.1987 222.418 37.508V31.614L223.622 30.97V37.466C223.622 38.3993 224.079 38.866 224.994 38.866H225.918V40H224.854ZM227.368 36.206C227.368 35.394 227.61 34.764 228.096 34.316C228.525 33.9333 229.085 33.742 229.776 33.742C230.662 33.742 231.344 34.0687 231.82 34.722C232.23 35.2727 232.436 35.9913 232.436 36.878C232.436 37.886 232.174 38.6747 231.652 39.244C231.194 39.748 230.597 40 229.86 40C229.02 40 228.38 39.7667 227.942 39.3C227.494 39.7667 226.892 40 226.136 40H225.072V38.866H225.996C226.91 38.866 227.368 38.3993 227.368 37.466V36.206ZM228.572 37.564C228.572 38.432 228.996 38.866 229.846 38.866C230.284 38.866 230.625 38.6887 230.868 38.334C231.12 37.9793 231.246 37.4847 231.246 36.85C231.246 36.2247 231.115 35.7393 230.854 35.394C230.592 35.0393 230.233 34.862 229.776 34.862C228.973 34.862 228.572 35.3287 228.572 36.262V37.564ZM241.288 38.866V40H239.552C239.514 40.8027 239.169 41.4653 238.516 41.988C237.965 42.4173 237.34 42.632 236.64 42.632C236.061 42.632 235.515 42.4967 235.002 42.226V41.162C235.496 41.4233 235.986 41.554 236.472 41.554C236.966 41.554 237.396 41.4 237.76 41.092C238.133 40.784 238.324 40.4153 238.334 39.986C237.848 39.9673 237.489 39.9487 237.256 39.93C236.248 39.874 235.487 39.5333 234.974 38.908C234.544 38.3853 234.33 37.7087 234.33 36.878C234.33 35.8607 234.6 35.0673 235.142 34.498C235.627 33.994 236.266 33.742 237.06 33.742C237.89 33.742 238.53 33.9893 238.978 34.484C239.36 34.9227 239.552 35.4967 239.552 36.206V38.866H241.288ZM238.334 36.29C238.334 35.338 237.909 34.862 237.06 34.862C236.574 34.862 236.196 35.0393 235.926 35.394C235.655 35.7393 235.52 36.2247 235.52 36.85C235.52 38.0727 236.117 38.7213 237.312 38.796C237.536 38.824 237.876 38.8473 238.334 38.866V36.29ZM245.227 38.866H246.151V40H245.087C244.284 40 243.663 39.7433 243.225 39.23C242.758 39.7433 242.114 40 241.293 40H240.453V38.866H241.195C242.165 38.866 242.651 38.3573 242.651 37.34V31.614L243.869 30.97V37.354C243.869 37.8953 243.971 38.2827 244.177 38.516C244.391 38.7493 244.741 38.866 245.227 38.866ZM252.222 38.866H255.918V40H252.11C251.606 40 251.107 39.902 250.612 39.706C250.117 39.902 249.613 40 249.1 40H245.306V38.866H249.002H249.198C248.526 38.3153 247.835 37.508 247.126 36.444V35.828C247.574 35.184 248.106 34.6753 248.722 34.302C249.347 33.9287 249.973 33.742 250.598 33.742C251.223 33.742 251.849 33.9333 252.474 34.316C253.099 34.6893 253.641 35.2027 254.098 35.856V36.444C253.389 37.508 252.693 38.3153 252.012 38.866H252.222ZM248.246 36.15C249.105 37.326 249.893 38.1007 250.612 38.474C251.331 38.0913 252.119 37.312 252.978 36.136C252.278 35.2867 251.485 34.8573 250.598 34.848C249.711 34.848 248.927 35.282 248.246 36.15ZM257.377 36.206C257.377 35.394 257.62 34.764 258.105 34.316C258.535 33.9333 259.095 33.742 259.785 33.742C260.672 33.742 261.353 34.0687 261.829 34.722C262.24 35.2727 262.445 35.9913 262.445 36.878C262.445 37.886 262.184 38.6747 261.661 39.244C261.204 39.748 260.607 40 259.869 40C259.029 40 258.39 39.7667 257.951 39.3C257.503 39.7667 256.901 40 256.145 40H255.081V38.866H256.005C256.92 38.866 257.377 38.3993 257.377 37.466V36.206ZM258.581 37.564C258.581 38.432 259.006 38.866 259.855 38.866C260.294 38.866 260.635 38.6887 260.877 38.334C261.129 37.9793 261.255 37.4847 261.255 36.85C261.255 36.2247 261.125 35.7393 260.863 35.394C260.602 35.0393 260.243 34.862 259.785 34.862C258.983 34.862 258.581 35.3287 258.581 36.262V37.564Z" fill="#253C30" fill-opacity="0.52"/>
</svg>
