<svg width="16" height="16" viewBox="0 0 16 16" fill="none" xmlns="http://www.w3.org/2000/svg">
<path fill-rule="evenodd" clip-rule="evenodd" d="M1.98617 6.84731C2.9097 5.4654 4.84568 3.33334 7.99998 3.33334C11.1543 3.33334 13.0903 5.4654 14.0138 6.84731C14.3237 7.31104 14.4787 7.54291 14.4646 7.97128C14.4505 8.39966 14.2726 8.63126 13.9168 9.09446C12.8574 10.4738 10.742 12.6667 7.99998 12.6667C5.25801 12.6667 3.14257 10.4738 2.08315 9.09446C1.72739 8.63126 1.5495 8.39966 1.5354 7.97128C1.5213 7.54291 1.67625 7.31104 1.98617 6.84731ZM7.99998 10.6667C9.47274 10.6667 10.6666 9.47277 10.6666 8.00001C10.6666 6.52725 9.47274 5.33334 7.99998 5.33334C6.52722 5.33334 5.33331 6.52725 5.33331 8.00001C5.33331 9.47277 6.52722 10.6667 7.99998 10.6667Z" fill="#3D9635"/>
</svg>
