<svg width="34" height="34" viewBox="0 0 34 34" fill="none" xmlns="http://www.w3.org/2000/svg">
<g clip-path="url(#clip0_2_6609)">
<path d="M10.3277 14.8689C7.80708 16.8005 7.32951 20.4097 9.26106 22.9304C11.1926 25.4511 14.8019 25.9286 17.3225 23.9971C17.6513 23.7451 17.7136 23.2744 17.4617 22.9456C17.2097 22.6168 16.7389 22.5545 16.4102 22.8065C14.5471 24.2341 11.8794 23.8811 10.4517 22.018C9.02402 20.1549 9.37701 17.4872 11.2401 16.0596C11.5689 15.8076 11.6312 15.3369 11.3792 15.0081C11.1273 14.6793 10.6565 14.617 10.3277 14.8689Z" fill="white"/>
<path d="M16.6778 10.003C16.349 10.255 16.2867 10.7257 16.5386 11.0545C16.7906 11.3833 17.2613 11.4456 17.5901 11.1936C19.4532 9.76597 22.1209 10.119 23.5486 11.9821C24.9763 13.8452 24.6233 16.5129 22.7602 17.9405C22.4314 18.1925 22.3691 18.6632 22.621 18.992C22.873 19.3208 23.3438 19.3831 23.6725 19.1312C26.1932 17.1996 26.6708 13.5904 24.7392 11.0697C22.8077 8.54903 19.1984 8.07146 16.6778 10.003Z" fill="white"/>
<path d="M13.369 18.8377C13.0402 19.0896 12.9779 19.5604 13.2298 19.8892C13.4818 20.218 13.9525 20.2803 14.2813 20.0283L20.6313 15.1624C20.9601 14.9105 21.0224 14.4397 20.7705 14.1109C20.5185 13.7821 20.0478 13.7198 19.719 13.9718L13.369 18.8377Z" fill="white"/>
</g>
<defs>
<clipPath id="clip0_2_6609">
<rect width="24" height="24" fill="white" transform="translate(0.17627 14.7739) rotate(-37.4625)"/>
</clipPath>
</defs>
</svg>
