<svg width="20" height="21" viewBox="0 0 20 21" fill="none" xmlns="http://www.w3.org/2000/svg">
<path d="M10 0.45459C4.47715 0.45459 0 4.93174 0 10.4546C0 15.9774 4.47715 20.4546 10 20.4546C15.5228 20.4546 20 15.9774 20 10.4546C19.9936 4.93441 15.5202 0.461019 10 0.45459Z" fill="white"/>
<path d="M15.7722 7.28796L10.068 15.0288C9.93197 15.2093 9.72912 15.3275 9.50503 15.357C9.28094 15.3865 9.05441 15.3247 8.87634 15.1855L4.80301 11.9288C4.44356 11.6411 4.38536 11.1166 4.67301 10.7571C4.96066 10.3977 5.48523 10.3395 5.84468 10.6271L9.24134 13.3446L14.4305 6.30213C14.6007 6.04679 14.8974 5.90562 15.2029 5.93466C15.5083 5.96371 15.7731 6.15827 15.8921 6.44111C16.0111 6.72394 15.965 7.04928 15.7722 7.28796Z" fill="#3D9635"/>
</svg>
