<svg width="314" height="209" viewBox="0 0 314 209" fill="none" xmlns="http://www.w3.org/2000/svg">
<path d="M143.23 50.5317C142.154 50.5317 141.615 49.9756 141.615 48.8633C141.615 47.787 142.154 47.2488 143.23 47.2488C144.324 47.2488 144.871 47.787 144.871 48.8633C144.871 49.9756 144.324 50.5317 143.23 50.5317ZM141.185 54.4873C140.647 54.4873 140.216 54.3259 139.893 54.003C139.57 53.6621 139.409 53.2226 139.409 52.6844C139.409 52.1642 139.57 51.7426 139.893 51.4197C140.216 51.0968 140.647 50.9353 141.185 50.9353C141.723 50.9353 142.145 51.0968 142.45 51.4197C142.772 51.7247 142.934 52.1462 142.934 52.6844C142.934 53.8864 142.351 54.4873 141.185 54.4873ZM143.553 52.6844C143.553 51.5184 144.145 50.9353 145.329 50.9353C145.867 50.9353 146.289 51.0968 146.594 51.4197C146.916 51.7247 147.078 52.1462 147.078 52.6844C147.078 53.8864 146.495 54.4873 145.329 54.4873C144.791 54.4873 144.36 54.3259 144.037 54.003C143.714 53.6801 143.553 53.2405 143.553 52.6844ZM154.532 63.7441H156.415V67.0001H154.209C152.881 67.0001 151.796 66.6502 150.953 65.9506C150.092 66.6502 148.997 67.0001 147.67 67.0001H138.063C136.539 67.0001 135.346 66.4888 134.484 65.4662C133.713 64.5693 133.327 63.4122 133.327 61.995V59.2502L136.691 57.4742V61.7797C136.691 62.4973 136.835 63.0085 137.122 63.3135C137.427 63.6005 137.92 63.7441 138.602 63.7441H147.374C148.056 63.7441 148.54 63.5916 148.827 63.2866C149.114 62.9816 149.258 62.4793 149.258 61.7797V56.8284L152.648 55.0524V61.8066C152.648 62.5062 152.792 63.0085 153.079 63.3135C153.366 63.6005 153.85 63.7441 154.532 63.7441ZM172.345 63.7441H174.605V67.0001H172.318C170.901 67.0001 169.761 66.8476 168.9 66.5426C168.057 66.2197 167.268 65.6636 166.532 64.8742C164.29 66.2915 161.707 67.0001 158.783 67.0001H154.8V63.7441H158.809C161.967 63.7441 164.478 62.8022 166.344 60.9186C165.124 58.7838 163.644 57.7164 161.904 57.7164C160.469 57.7164 158.899 58.4968 157.195 60.0575V57.0706C158.702 55.4202 160.406 54.595 162.308 54.595C163.707 54.595 165.07 55.1062 166.398 56.1288C167.725 57.1513 168.9 58.6044 169.923 60.4881V61.8335C169.636 62.2102 169.259 62.6318 168.793 63.0982C169.51 63.5288 170.694 63.7441 172.345 63.7441ZM172.985 67.0001V63.7441H175.406C176.088 63.7441 176.573 63.6005 176.86 63.3135C177.147 63.0085 177.29 62.5062 177.29 61.8066V56.8284L180.681 55.0524V61.9681C180.681 63.6005 180.178 64.8742 179.174 65.7892C178.295 66.5964 177.147 67.0001 175.729 67.0001H172.985ZM178.689 73.0008C178.151 73.0008 177.721 72.8393 177.398 72.5164C177.075 72.1935 176.913 71.754 176.913 71.1979C176.913 70.6776 177.075 70.2561 177.398 69.9332C177.721 69.6102 178.151 69.4488 178.689 69.4488C179.228 69.4488 179.649 69.6013 179.954 69.9062C180.277 70.2292 180.438 70.6597 180.438 71.1979C180.438 72.3998 179.855 73.0008 178.689 73.0008Z" fill="#253C30"/>
<path d="M134.695 94.7601C134.695 96.3067 134.268 97.5601 133.415 98.5201C132.628 99.4134 131.588 99.8601 130.295 99.8601C129.455 99.8601 128.635 99.6467 127.835 99.2201V97.0201C128.528 97.4067 129.208 97.6001 129.875 97.6001C130.608 97.6001 131.175 97.3601 131.575 96.8801C131.988 96.4134 132.195 95.7601 132.195 94.9201V88.4601L134.695 87.1201V94.7601ZM147.802 93.5801V96.0001H145.342C145.249 97.2001 144.715 98.1601 143.742 98.8801C142.942 99.4667 142.009 99.7601 140.942 99.7601C140.102 99.7601 139.282 99.5334 138.482 99.0801V96.9001C139.202 97.3134 139.922 97.5201 140.642 97.5201C141.202 97.5201 141.695 97.3667 142.122 97.0601C142.562 96.7534 142.802 96.3867 142.842 95.9601C142.735 95.9467 142.569 95.9334 142.342 95.9201C142.115 95.8934 141.942 95.8734 141.822 95.8601C140.449 95.7134 139.389 95.1734 138.642 94.2401C138.015 93.4534 137.702 92.5001 137.702 91.3801C137.702 89.9134 138.102 88.7534 138.902 87.9001C139.609 87.1534 140.542 86.7801 141.702 86.7801C142.889 86.7801 143.815 87.1601 144.482 87.9201C145.055 88.5734 145.342 89.4267 145.342 90.4801V93.5801H147.802ZM142.842 90.4401C142.842 89.5601 142.462 89.1201 141.702 89.1201C140.689 89.1201 140.182 89.8467 140.182 91.3001C140.182 92.5934 140.769 93.3134 141.942 93.4601C142.129 93.5001 142.429 93.5334 142.842 93.5601V90.4401ZM164.025 93.5801H165.825V96.0001H163.785C162.825 96.0001 162.038 95.7534 161.425 95.2601C160.812 95.7534 160.045 96.0001 159.125 96.0001H146.605V93.5801H150.185L150.425 92.9001V84.4401L152.945 83.1001V88.8601C154.305 87.4734 155.865 86.7801 157.625 86.7801C159.212 86.7801 160.472 87.3267 161.405 88.4201C162.205 89.3401 162.605 90.4801 162.605 91.8401V92.2601C162.605 93.1401 163.078 93.5801 164.025 93.5801ZM159.025 93.5801C159.465 93.5801 159.752 93.4934 159.885 93.3201C160.032 93.1467 160.105 92.7801 160.105 92.2201V91.8401C160.105 91.0401 159.872 90.3867 159.405 89.8801C158.952 89.3734 158.365 89.1201 157.645 89.1201C156.725 89.1201 155.845 89.4601 155.005 90.1401C154.178 90.8201 153.492 91.7601 152.945 92.9601V93.5801H159.025ZM166.532 85.3601C166.132 85.3601 165.812 85.2401 165.572 85.0001C165.332 84.7601 165.212 84.4334 165.212 84.0201C165.212 83.6334 165.332 83.3201 165.572 83.0801C165.812 82.8401 166.132 82.7201 166.532 82.7201C166.932 82.7201 167.246 82.8401 167.472 83.0801C167.712 83.3067 167.832 83.6201 167.832 84.0201C167.832 84.9134 167.399 85.3601 166.532 85.3601ZM169.592 85.3601C169.192 85.3601 168.872 85.2401 168.632 85.0001C168.392 84.7467 168.272 84.4201 168.272 84.0201C168.272 83.6334 168.392 83.3201 168.632 83.0801C168.886 82.8401 169.206 82.7201 169.592 82.7201C169.992 82.7201 170.306 82.8401 170.532 83.0801C170.772 83.3067 170.892 83.6201 170.892 84.0201C170.892 84.9134 170.459 85.3601 169.592 85.3601ZM171.752 93.5801H173.552V96.0001H171.512C170.539 96.0001 169.732 95.7401 169.092 95.2201C168.452 95.7401 167.646 96.0001 166.672 96.0001H164.632V93.5801H166.432C166.939 93.5801 167.299 93.4734 167.512 93.2601C167.726 93.0334 167.832 92.6601 167.832 92.1401V88.4401L170.352 87.1201V92.1401C170.352 92.6601 170.459 93.0334 170.672 93.2601C170.886 93.4734 171.246 93.5801 171.752 93.5801ZM175.547 90.4801C175.547 89.2801 175.921 88.3401 176.667 87.6601C177.321 87.0734 178.161 86.7801 179.187 86.7801C180.507 86.7801 181.534 87.2667 182.267 88.2401C182.894 89.0534 183.207 90.1001 183.207 91.3801C183.207 92.8601 182.814 94.0267 182.027 94.8801C181.321 95.6267 180.421 96.0001 179.327 96.0001C178.261 96.0001 177.387 95.7667 176.707 95.3001C176.067 95.7667 175.294 96.0001 174.387 96.0001H172.347V93.5801H174.147C174.654 93.5801 175.014 93.4734 175.227 93.2601C175.441 93.0334 175.547 92.6601 175.547 92.1401V90.4801ZM178.067 92.4601C178.067 93.2067 178.461 93.5801 179.247 93.5801C180.234 93.5801 180.727 92.8201 180.727 91.3001C180.727 89.8467 180.214 89.1201 179.187 89.1201C178.441 89.1201 178.067 89.5601 178.067 90.4401V92.4601Z" fill="#253C30"/>
<rect x="131" y="112" width="52" height="2" rx="1" fill="#D8ECE2"/>
<path d="M46.1862 137.866H47.1102V139H46.0462C45.0848 139 44.3942 138.645 43.9742 137.936C43.5262 138.365 42.9708 138.58 42.3082 138.58C41.4868 138.58 40.8335 138.272 40.3482 137.656C39.9468 137.133 39.7462 136.494 39.7462 135.738C39.7462 134.833 40.0215 134.105 40.5722 133.554C41.0388 133.078 41.6082 132.84 42.2802 132.84C42.7935 132.84 43.2368 132.971 43.6102 133.232V132.63L44.8282 131.986V136.466C44.8282 137.399 45.2808 137.866 46.1862 137.866ZM43.6102 134.534C43.2648 134.151 42.8402 133.96 42.3362 133.96C41.9255 133.96 41.5895 134.128 41.3282 134.464C41.0668 134.791 40.9362 135.22 40.9362 135.752C40.9362 136.293 41.0668 136.727 41.3282 137.054C41.5895 137.381 41.9302 137.544 42.3502 137.544C42.8728 137.544 43.3022 137.329 43.6382 136.9C43.6195 136.732 43.6102 136.601 43.6102 136.508V134.534ZM51.1473 137.866H52.0713V139H51.0073C50.2326 139 49.6213 138.753 49.1733 138.258C48.7253 138.753 48.114 139 47.3393 139H46.2753V137.866H47.1993C48.114 137.866 48.5713 137.399 48.5713 136.466V133.568L49.7753 132.924V136.466C49.7753 137.399 50.2326 137.866 51.1473 137.866ZM47.8013 140.4C48.2493 140.4 48.4733 140.633 48.4733 141.1C48.4733 141.557 48.2493 141.786 47.8013 141.786C47.344 141.786 47.1153 141.557 47.1153 141.1C47.1153 140.633 47.344 140.4 47.8013 140.4ZM49.5793 140.4C50.0273 140.4 50.2513 140.633 50.2513 141.1C50.2513 141.557 50.0273 141.786 49.5793 141.786C49.122 141.786 48.8933 141.557 48.8933 141.1C48.8933 140.633 49.122 140.4 49.5793 140.4ZM55.9985 137.866H56.9225V139H55.8585C55.0559 139 54.4352 138.743 53.9965 138.23C53.5299 138.743 52.8859 139 52.0645 139H51.2245V137.866H51.9665C52.9372 137.866 53.4225 137.357 53.4225 136.34V130.614L54.6405 129.97V136.354C54.6405 136.895 54.7432 137.283 54.9485 137.516C55.1632 137.749 55.5132 137.866 55.9985 137.866ZM63.624 137.866V139H56.078V137.866H58.5C58.0427 137.278 57.814 136.555 57.814 135.696C57.814 134.744 58.1407 133.988 58.794 133.428C59.326 132.98 59.942 132.751 60.642 132.742C61.6314 132.742 62.4014 133.139 62.952 133.932V135.066C62.3547 134.263 61.6314 133.862 60.782 133.862C60.25 133.862 59.8207 134.035 59.494 134.38C59.1767 134.716 59.018 135.169 59.018 135.738C59.018 136.382 59.2094 136.9 59.592 137.292C59.984 137.675 60.502 137.866 61.146 137.866H63.624ZM70.9179 138.258C70.9179 139.303 70.6426 140.143 70.0919 140.778C69.5693 141.385 68.8739 141.688 68.0059 141.688C67.4459 141.688 66.8999 141.548 66.3679 141.268V140.218C66.8439 140.479 67.3199 140.61 67.7959 140.61C68.3933 140.61 68.8599 140.409 69.1959 140.008C69.5319 139.607 69.6999 139.051 69.6999 138.342V133.568L70.9179 132.924V138.258ZM76.8837 138.552C76.529 138.692 76.095 138.762 75.5817 138.762C74.751 138.762 74.0977 138.449 73.6217 137.824C73.2204 137.292 73.0197 136.625 73.0197 135.822C73.0197 134.833 73.2857 134.058 73.8177 133.498C74.2937 132.994 74.919 132.742 75.6937 132.742C76.487 132.742 77.0984 132.989 77.5277 133.484C77.9104 133.923 78.1017 134.497 78.1017 135.206V138.258C78.1017 139.313 77.8264 140.148 77.2757 140.764C76.753 141.343 76.0577 141.632 75.1897 141.632C74.611 141.632 74.065 141.497 73.5517 141.226V140.162C74.0464 140.423 74.5364 140.554 75.0217 140.554C75.5724 140.554 76.011 140.377 76.3377 140.022C76.6644 139.677 76.8464 139.187 76.8837 138.552ZM76.8837 135.262C76.8837 134.329 76.487 133.862 75.6937 133.862C75.227 133.862 74.8584 134.035 74.5877 134.38C74.3264 134.725 74.1957 135.197 74.1957 135.794C74.1957 136.382 74.3217 136.853 74.5737 137.208C74.835 137.553 75.185 137.726 75.6237 137.726C76.2397 137.726 76.6597 137.553 76.8837 137.208V135.262ZM79.3607 139L79.9487 137.866H82.4407C82.814 137.866 83.0754 137.773 83.2247 137.586C83.3834 137.399 83.4627 137.077 83.4627 136.62C83.4627 135.379 82.8887 134.445 81.7407 133.82L82.3567 132.784C83.822 133.643 84.5874 134.828 84.6527 136.34C84.6714 136.881 84.7927 137.273 85.0167 137.516C85.25 137.749 85.6187 137.866 86.1227 137.866H86.9487V139H86.0247C85.25 139 84.6434 138.753 84.2047 138.258C83.8967 138.753 83.3787 139 82.6507 139H79.3607ZM87.1932 131.23C86.7358 131.23 86.5072 130.997 86.5072 130.53C86.5072 130.073 86.7358 129.844 87.1932 129.844C87.6412 129.844 87.8652 130.073 87.8652 130.53C87.8652 130.997 87.6412 131.23 87.1932 131.23ZM88.9712 131.23C88.5138 131.23 88.2852 130.997 88.2852 130.53C88.2852 130.073 88.5138 129.844 88.9712 129.844C89.4192 129.844 89.6432 130.073 89.6432 130.53C89.6432 130.997 89.4192 131.23 88.9712 131.23ZM86.1152 139V137.866H87.0392C87.9538 137.866 88.4112 137.399 88.4112 136.466V133.568L89.6152 132.924V136.508C89.6152 137.301 89.3772 137.927 88.9012 138.384C88.4625 138.795 87.8885 139 87.1792 139H86.1152ZM103.475 139C103.381 139.821 102.933 140.479 102.131 140.974C101.384 141.431 100.432 141.66 99.2747 141.66C97.8001 141.66 96.6894 141.231 95.9427 140.372C95.3921 139.737 95.1167 138.953 95.1167 138.02C95.1167 137.236 95.3127 136.564 95.7047 136.004L96.8667 135.752C96.4467 136.415 96.2367 137.129 96.2367 137.894C96.2367 138.725 96.5074 139.378 97.0487 139.854C97.5807 140.33 98.3227 140.568 99.2747 140.568C100.077 140.568 100.74 140.428 101.263 140.148C101.785 139.868 102.103 139.485 102.215 139H100.815L101.403 137.866H103.517V139H103.475ZM98.3367 144.138C97.8794 144.138 97.6507 143.905 97.6507 143.438C97.6507 142.981 97.8794 142.752 98.3367 142.752C98.7847 142.752 99.0087 142.981 99.0087 143.438C99.0087 143.905 98.7847 144.138 98.3367 144.138ZM100.115 144.138C99.6574 144.138 99.4287 143.905 99.4287 143.438C99.4287 142.981 99.6574 142.752 100.115 142.752C100.563 142.752 100.787 142.981 100.787 143.438C100.787 143.905 100.563 144.138 100.115 144.138ZM107.555 137.866H108.479V139H107.415C106.613 139 105.992 138.743 105.553 138.23C105.087 138.743 104.443 139 103.621 139H102.781V137.866H103.523C104.494 137.866 104.979 137.357 104.979 136.34V130.614L106.197 129.97V136.354C106.197 136.895 106.3 137.283 106.505 137.516C106.72 137.749 107.07 137.866 107.555 137.866ZM107.635 139V137.866H108.377C109.347 137.866 109.833 137.357 109.833 136.34V130.614L111.051 129.97V136.354C111.051 137.185 110.803 137.843 110.309 138.328C109.842 138.776 109.231 139 108.475 139H107.635ZM113.567 139V130.614L114.771 129.97V139H113.567ZM128.631 139C128.538 139.821 128.09 140.479 127.287 140.974C126.54 141.431 125.588 141.66 124.431 141.66C122.956 141.66 121.846 141.231 121.099 140.372C120.548 139.737 120.273 138.953 120.273 138.02C120.273 137.236 120.469 136.564 120.861 136.004L122.023 135.752C121.603 136.415 121.393 137.129 121.393 137.894C121.393 138.725 121.664 139.378 122.205 139.854C122.737 140.33 123.479 140.568 124.431 140.568C125.234 140.568 125.896 140.428 126.419 140.148C126.942 139.868 127.259 139.485 127.371 139H125.971L126.559 137.866H128.673V139H128.631ZM131.409 131.328C130.952 131.328 130.723 131.095 130.723 130.628C130.723 130.171 130.952 129.942 131.409 129.942C131.857 129.942 132.081 130.171 132.081 130.628C132.081 131.095 131.857 131.328 131.409 131.328ZM133.187 131.328C132.73 131.328 132.501 131.095 132.501 130.628C132.501 130.171 132.73 129.942 133.187 129.942C133.635 129.942 133.859 130.171 133.859 130.628C133.859 131.095 133.635 131.328 133.187 131.328ZM134.055 137.866H136.659V139H133.243C132.879 139 132.562 138.967 132.291 138.902C132.03 138.967 131.713 139 131.339 139H127.937V137.866H130.541C129.963 137.203 129.673 136.471 129.673 135.668C129.673 134.753 129.93 134.025 130.443 133.484C130.91 132.989 131.526 132.742 132.291 132.742C133.169 132.742 133.845 133.059 134.321 133.694C134.723 134.217 134.923 134.875 134.923 135.668C134.923 136.471 134.634 137.203 134.055 137.866ZM132.305 137.74C132.735 137.591 133.085 137.32 133.355 136.928C133.626 136.527 133.761 136.088 133.761 135.612C133.761 135.071 133.626 134.646 133.355 134.338C133.094 134.021 132.739 133.862 132.291 133.862C131.843 133.862 131.484 134.021 131.213 134.338C130.952 134.655 130.821 135.08 130.821 135.612C130.821 136.079 130.961 136.513 131.241 136.914C131.521 137.315 131.876 137.591 132.305 137.74ZM140.6 137.866H141.524V139H140.46C139.657 139 139.037 138.743 138.598 138.23C138.131 138.743 137.487 139 136.666 139H135.826V137.866H136.568C137.539 137.866 138.024 137.357 138.024 136.34V130.614L139.242 129.97V136.354C139.242 136.895 139.345 137.283 139.55 137.516C139.765 137.749 140.115 137.866 140.6 137.866ZM141.758 131.23C141.3 131.23 141.072 130.997 141.072 130.53C141.072 130.073 141.3 129.844 141.758 129.844C142.206 129.844 142.43 130.073 142.43 130.53C142.43 130.997 142.206 131.23 141.758 131.23ZM143.536 131.23C143.078 131.23 142.85 130.997 142.85 130.53C142.85 130.073 143.078 129.844 143.536 129.844C143.984 129.844 144.208 130.073 144.208 130.53C144.208 130.997 143.984 131.23 143.536 131.23ZM140.68 139V137.866H141.604C142.518 137.866 142.976 137.399 142.976 136.466V133.568L144.18 132.924V136.508C144.18 137.301 143.942 137.927 143.466 138.384C143.027 138.795 142.453 139 141.744 139H140.68ZM150.563 137.362C151.077 137.362 151.343 137.628 151.361 138.16C151.361 138.421 151.277 138.641 151.109 138.818C150.951 138.986 150.741 139.07 150.479 139.07C149.901 139.07 149.611 138.715 149.611 138.006V136.2L150.199 136.032L150.213 137.362H150.563ZM161.471 139C161.377 139.821 160.929 140.479 160.127 140.974C159.38 141.431 158.428 141.66 157.271 141.66C155.796 141.66 154.685 141.231 153.939 140.372C153.388 139.737 153.113 138.953 153.113 138.02C153.113 137.236 153.309 136.564 153.701 136.004L154.863 135.752C154.443 136.415 154.233 137.129 154.233 137.894C154.233 138.725 154.503 139.378 155.045 139.854C155.577 140.33 156.319 140.568 157.271 140.568C158.073 140.568 158.736 140.428 159.259 140.148C159.781 139.868 160.099 139.485 160.211 139H158.811L159.399 137.866H161.513V139H161.471ZM156.333 144.138C155.875 144.138 155.647 143.905 155.647 143.438C155.647 142.981 155.875 142.752 156.333 142.752C156.781 142.752 157.005 142.981 157.005 143.438C157.005 143.905 156.781 144.138 156.333 144.138ZM158.111 144.138C157.653 144.138 157.425 143.905 157.425 143.438C157.425 142.981 157.653 142.752 158.111 142.752C158.559 142.752 158.783 142.981 158.783 143.438C158.783 143.905 158.559 144.138 158.111 144.138ZM163.535 133.078C163.545 133.078 163.559 133.078 163.577 133.078C163.596 133.078 163.61 133.078 163.619 133.078C164.674 133.078 165.528 133.405 166.181 134.058C166.779 134.646 167.077 135.397 167.077 136.312V136.55C167.077 137.353 166.83 137.978 166.335 138.426C165.897 138.809 165.332 139 164.641 139H160.777V137.866H164.529C165.425 137.866 165.873 137.395 165.873 136.452V136.326C165.873 135.635 165.603 135.103 165.061 134.73C164.632 134.441 164.109 134.296 163.493 134.296C162.999 134.296 162.499 134.385 161.995 134.562V133.372L165.061 129.97H166.293L163.535 133.078ZM171.102 131.23C170.644 131.23 170.416 130.997 170.416 130.53C170.416 130.073 170.644 129.844 171.102 129.844C171.55 129.844 171.774 130.073 171.774 130.53C171.774 130.997 171.55 131.23 171.102 131.23ZM168.064 139L168.652 137.866H171.144C171.517 137.866 171.778 137.773 171.928 137.586C172.086 137.399 172.166 137.077 172.166 136.62C172.166 135.379 171.592 134.445 170.444 133.82L171.06 132.784C172.525 133.643 173.29 134.828 173.356 136.34C173.374 136.881 173.496 137.273 173.72 137.516C173.953 137.749 174.322 137.866 174.826 137.866H175.652V139H174.728C173.953 139 173.346 138.753 172.908 138.258C172.6 138.753 172.082 139 171.354 139H168.064ZM174.818 139V137.866H175.56C176.531 137.866 177.016 137.357 177.016 136.34V130.614L178.234 129.97V136.354C178.234 137.185 177.987 137.843 177.492 138.328C177.026 138.776 176.414 139 175.658 139H174.818ZM180.75 139V130.614L181.954 129.97V139H180.75ZM192.511 130.824C192.072 130.824 191.853 130.605 191.853 130.166C191.853 129.737 192.072 129.522 192.511 129.522C192.931 129.522 193.141 129.737 193.141 130.166C193.141 130.605 192.931 130.824 192.511 130.824ZM191.629 132.49C191.171 132.49 190.943 132.257 190.943 131.79C190.943 131.333 191.171 131.104 191.629 131.104C192.077 131.104 192.301 131.333 192.301 131.79C192.301 132.257 192.077 132.49 191.629 132.49ZM192.721 131.79C192.721 131.333 192.949 131.104 193.407 131.104C193.855 131.104 194.079 131.333 194.079 131.79C194.079 132.257 193.855 132.49 193.407 132.49C192.949 132.49 192.721 132.257 192.721 131.79ZM198.881 137.866H199.525V139H198.741C197.957 139 197.345 138.757 196.907 138.272C196.468 138.757 195.857 139 195.073 139H190.075C189.319 139 188.726 138.748 188.297 138.244C187.923 137.805 187.737 137.231 187.737 136.522V134.828L188.941 134.184V136.41C188.941 137.381 189.393 137.866 190.299 137.866H194.947C195.852 137.866 196.305 137.381 196.305 136.41V133.568L197.509 132.924V136.466C197.509 137.399 197.966 137.866 198.881 137.866ZM207.817 137.866H208.727V139H207.803C207.047 139 206.441 138.916 205.983 138.748C205.526 138.571 205.101 138.263 204.709 137.824C203.533 138.608 202.161 139 200.593 139H198.689V137.866H200.607C202.502 137.866 204 137.241 205.101 135.99C204.327 134.562 203.384 133.848 202.273 133.848C201.517 133.848 200.738 134.249 199.935 135.052V133.932C200.719 133.139 201.55 132.742 202.427 132.742C203.146 132.742 203.841 133.003 204.513 133.526C205.185 134.039 205.778 134.777 206.291 135.738V136.354C206.002 136.718 205.727 137.012 205.465 137.236C205.969 137.656 206.753 137.866 207.817 137.866ZM212.763 137.866H213.687V139H212.623C211.848 139 211.237 138.753 210.789 138.258C210.341 138.753 209.729 139 208.955 139H207.891V137.866H208.815C209.729 137.866 210.187 137.399 210.187 136.466V133.568L211.391 132.924V136.466C211.391 137.399 211.848 137.866 212.763 137.866ZM210.705 140.4C211.153 140.4 211.377 140.629 211.377 141.086C211.377 141.553 211.153 141.786 210.705 141.786C210.247 141.786 210.019 141.553 210.019 141.086C210.019 140.629 210.247 140.4 210.705 140.4ZM212.84 139V137.866H213.582C214.552 137.866 215.038 137.357 215.038 136.34V130.614L216.256 129.97V136.354C216.256 137.185 216.008 137.843 215.514 138.328C215.047 138.776 214.436 139 213.68 139H212.84ZM218.772 139V130.614L219.976 129.97V139H218.772ZM224.778 143.41V140.358C224.778 139.565 225.007 138.949 225.464 138.51C225.875 138.109 226.444 137.894 227.172 137.866C226.752 137.39 226.542 136.727 226.542 135.878C226.542 134.861 226.808 134.067 227.34 133.498C227.816 132.994 228.441 132.742 229.216 132.742C230.009 132.742 230.621 132.989 231.05 133.484C231.433 133.923 231.624 134.497 231.624 135.206V136.718C231.615 137.418 231.395 137.969 230.966 138.37C230.537 138.771 229.944 138.981 229.188 139H227.354C226.439 139 225.982 139.467 225.982 140.4V142.766L224.778 143.41ZM230.42 135.262C230.42 134.329 230.019 133.862 229.216 133.862C228.749 133.862 228.385 134.039 228.124 134.394C227.872 134.739 227.746 135.225 227.746 135.85C227.746 136.485 227.867 136.979 228.11 137.334C228.353 137.689 228.693 137.866 229.132 137.866C229.991 137.866 230.42 137.432 230.42 136.564V135.262ZM236.438 139C235.626 139 235.001 138.739 234.562 138.216C234.189 137.768 234.002 137.199 234.002 136.508V130.614L235.206 129.97V136.466C235.206 137.399 235.664 137.866 236.578 137.866H237.502V139H236.438ZM244.384 131.23C243.927 131.23 243.698 130.997 243.698 130.53C243.698 130.073 243.927 129.844 244.384 129.844C244.832 129.844 245.056 130.073 245.056 130.53C245.056 130.997 244.832 131.23 244.384 131.23ZM249.172 137.866H250.096V139H249.032C248.286 139 247.702 138.781 247.282 138.342C246.9 138.781 246.358 139 245.658 139H236.656V137.866H239.26L239.302 137.712V130.614L240.506 129.97V135.094C241.57 133.526 242.891 132.742 244.468 132.742C245.523 132.742 246.368 133.111 247.002 133.848C247.544 134.473 247.814 135.243 247.814 136.158V136.494C247.814 137.409 248.267 137.866 249.172 137.866ZM246.596 136.55V136.158C246.596 135.43 246.372 134.851 245.924 134.422C245.542 134.049 245.061 133.862 244.482 133.862C243.521 133.862 242.653 134.296 241.878 135.164C241.3 135.817 240.842 136.634 240.506 137.614V137.866H245.56C245.962 137.866 246.232 137.773 246.372 137.586C246.522 137.399 246.596 137.054 246.596 136.55ZM252.118 131.23C251.66 131.23 251.432 130.997 251.432 130.53C251.432 130.073 251.66 129.844 252.118 129.844C252.566 129.844 252.79 130.073 252.79 130.53C252.79 130.997 252.566 131.23 252.118 131.23ZM249.262 139V137.866H250.186C251.1 137.866 251.558 137.399 251.558 136.466V133.568L252.762 132.924V136.508C252.762 137.301 252.524 137.927 252.048 138.384C251.609 138.795 251.035 139 250.326 139H249.262ZM261.679 138.664C260.793 139.196 260.256 139.56 260.069 139.756C259.696 140.12 259.509 140.573 259.509 141.114C259.509 141.711 259.715 142.192 260.125 142.556C260.536 142.929 261.068 143.116 261.721 143.116C262.748 143.107 263.607 142.859 264.297 142.374V143.508C263.495 144.003 262.617 144.25 261.665 144.25C260.629 144.25 259.799 143.909 259.173 143.228C258.632 142.649 258.361 141.935 258.361 141.086C258.361 140.451 258.529 139.91 258.865 139.462C259.201 139.023 259.794 138.561 260.643 138.076C259.878 137.516 259.094 136.639 258.291 135.444V134.828C258.749 134.175 259.285 133.666 259.901 133.302C260.517 132.929 261.143 132.742 261.777 132.742C262.403 132.742 263.028 132.933 263.653 133.316C264.279 133.689 264.815 134.203 265.263 134.856V135.444C264.787 136.163 263.999 136.961 262.897 137.838C263.103 137.857 263.266 137.866 263.387 137.866H267.083L267.097 139H263.289C262.739 139 262.202 138.888 261.679 138.664ZM259.411 135.15C260.251 136.298 261.017 137.059 261.707 137.432C262.613 136.816 263.425 136.046 264.143 135.122C263.453 134.282 262.664 133.857 261.777 133.848C260.881 133.848 260.093 134.282 259.411 135.15ZM268.552 135.206C268.552 134.394 268.794 133.764 269.28 133.316C269.709 132.933 270.269 132.742 270.96 132.742C271.846 132.742 272.528 133.069 273.004 133.722C273.414 134.273 273.62 134.991 273.62 135.878C273.62 136.886 273.358 137.675 272.836 138.244C272.378 138.748 271.781 139 271.044 139C270.204 139 269.564 138.767 269.126 138.3C268.678 138.767 268.076 139 267.32 139H266.256V137.866H267.18C268.094 137.866 268.552 137.399 268.552 136.466V135.206ZM269.756 136.564C269.756 137.432 270.18 137.866 271.03 137.866C271.468 137.866 271.809 137.689 272.052 137.334C272.304 136.979 272.43 136.485 272.43 135.85C272.43 135.225 272.299 134.739 272.038 134.394C271.776 134.039 271.417 133.862 270.96 133.862C270.157 133.862 269.756 134.329 269.756 135.262V136.564ZM54.9556 158.328C54.9556 158.319 54.9556 158.309 54.9556 158.3C54.9743 157.833 55.2216 157.6 55.6976 157.6C56.1923 157.6 56.4396 157.843 56.4396 158.328C56.4396 158.823 56.1923 159.07 55.6976 159.07C55.203 159.07 54.9556 158.823 54.9556 158.328ZM67.5015 150.614L68.7195 149.97V156.522C68.7195 157.334 68.4722 157.964 67.9775 158.412C67.5388 158.804 66.9742 159 66.2835 159H61.2855C60.5295 159 59.9368 158.748 59.5075 158.244C59.1342 157.805 58.9475 157.231 58.9475 156.522V154.828L60.1515 154.184V156.41C60.1515 157.381 60.6042 157.866 61.5095 157.866H66.1575C67.0535 157.866 67.5015 157.381 67.5015 156.41V150.614ZM63.9035 152.182C64.7062 152.219 65.1075 152.616 65.1075 153.372C65.1075 153.699 65.0095 153.96 64.8135 154.156C64.6268 154.352 64.3748 154.45 64.0575 154.45H62.2095L62.5315 153.848H64.0015C64.3375 153.848 64.5055 153.68 64.5055 153.344C64.5055 152.933 64.2442 152.728 63.7215 152.728C63.4508 152.728 63.2035 152.793 62.9795 152.924V152.364L64.1555 151.062H64.8975L63.9035 152.182ZM70.1185 159L70.7065 157.866H73.1985C73.5718 157.866 73.8332 157.773 73.9825 157.586C74.1412 157.399 74.2205 157.077 74.2205 156.62C74.2205 155.379 73.6465 154.445 72.4985 153.82L73.1145 152.784C74.5798 153.643 75.3452 154.828 75.4105 156.34C75.4292 156.881 75.5505 157.273 75.7745 157.516C76.0078 157.749 76.3765 157.866 76.8805 157.866H77.7065V159H76.7825C76.0078 159 75.4012 158.753 74.9625 158.258C74.6545 158.753 74.1365 159 73.4085 159H70.1185ZM86.407 157.866H87.331V159H86.267C85.483 159 84.8763 158.757 84.447 158.272C83.9896 158.757 83.369 159 82.585 159H81.073C80.7556 159 80.457 158.953 80.177 158.86C79.8876 158.953 79.589 159 79.281 159H76.873V157.866H78.679C78.3243 157.39 78.147 156.849 78.147 156.242C78.147 155.691 78.2823 155.225 78.553 154.842C78.7863 153.983 79.2296 153.325 79.883 152.868C80.415 152.504 81.017 152.322 81.689 152.322C82.6783 152.322 83.495 152.658 84.139 153.33C84.7456 153.965 85.049 154.781 85.049 155.78V156.466C85.049 157.399 85.5016 157.866 86.407 157.866ZM82.543 157.866C83.0003 157.866 83.327 157.754 83.523 157.53C83.7283 157.297 83.831 156.923 83.831 156.41V155.78C83.831 155.005 83.5836 154.403 83.089 153.974C82.6876 153.619 82.207 153.442 81.647 153.442C81.003 153.442 80.499 153.652 80.135 154.072H80.177C80.793 154.072 81.283 154.273 81.647 154.674C82.0203 155.066 82.207 155.589 82.207 156.242C82.207 156.867 82.025 157.409 81.661 157.866H82.543ZM80.177 157.74C80.9423 157.479 81.325 156.956 81.325 156.172C81.325 155.78 81.2176 155.467 81.003 155.234C80.7976 154.991 80.5223 154.87 80.177 154.87C79.8316 154.87 79.5516 154.991 79.337 155.234C79.1316 155.467 79.029 155.78 79.029 156.172C79.029 156.956 79.4116 157.479 80.177 157.74ZM86.4843 159V157.866H88.4023C90.297 157.866 91.795 157.241 92.8963 155.99C92.1216 154.562 91.179 153.848 90.0683 153.848C89.3123 153.848 88.533 154.249 87.7303 155.052V153.932C88.5143 153.139 89.345 152.742 90.2223 152.742C90.941 152.742 91.6363 153.003 92.3083 153.526C92.9803 154.039 93.573 154.777 94.0863 155.738V156.354C92.7143 158.118 90.815 159 88.3883 159H86.4843ZM90.5863 161.786C90.129 161.786 89.9003 161.553 89.9003 161.086C89.9003 160.629 90.129 160.4 90.5863 160.4C91.0343 160.4 91.2583 160.629 91.2583 161.086C91.2583 161.553 91.0343 161.786 90.5863 161.786ZM99.497 158.552C99.1423 158.692 98.7083 158.762 98.195 158.762C97.3643 158.762 96.711 158.449 96.235 157.824C95.8336 157.292 95.633 156.625 95.633 155.822C95.633 154.833 95.899 154.058 96.431 153.498C96.907 152.994 97.5323 152.742 98.307 152.742C99.1003 152.742 99.7116 152.989 100.141 153.484C100.524 153.923 100.715 154.497 100.715 155.206V158.258C100.715 159.313 100.44 160.148 99.889 160.764C99.3663 161.343 98.671 161.632 97.803 161.632C97.2243 161.632 96.6783 161.497 96.165 161.226V160.162C96.6596 160.423 97.1496 160.554 97.635 160.554C98.1856 160.554 98.6243 160.377 98.951 160.022C99.2776 159.677 99.4596 159.187 99.497 158.552ZM99.497 155.262C99.497 154.329 99.1003 153.862 98.307 153.862C97.8403 153.862 97.4716 154.035 97.201 154.38C96.9396 154.725 96.809 155.197 96.809 155.794C96.809 156.382 96.935 156.853 97.187 157.208C97.4483 157.553 97.7983 157.726 98.237 157.726C98.853 157.726 99.273 157.553 99.497 157.208V155.262ZM117.492 157.866H118.416V159H117.352C116.568 159 115.961 158.757 115.532 158.272C115.074 158.757 114.463 159 113.698 159H108.7C107.944 159 107.351 158.748 106.922 158.244C106.548 157.805 106.362 157.231 106.362 156.522V154.828L107.566 154.184V156.41C107.566 157.381 108.018 157.866 108.924 157.866H113.572C114.468 157.866 114.916 157.381 114.916 156.41V150.614L116.134 149.97V156.466C116.134 157.399 116.586 157.866 117.492 157.866ZM111.318 152.182C112.12 152.219 112.522 152.616 112.522 153.372C112.522 153.699 112.424 153.96 112.228 154.156C112.041 154.352 111.789 154.45 111.472 154.45H109.624L109.946 153.848H111.416C111.752 153.848 111.92 153.68 111.92 153.344C111.92 152.933 111.658 152.728 111.136 152.728C110.865 152.728 110.618 152.793 110.394 152.924V152.364L111.57 151.062H112.312L111.318 152.182ZM119.142 151.328C118.685 151.328 118.456 151.095 118.456 150.628C118.456 150.171 118.685 149.942 119.142 149.942C119.59 149.942 119.814 150.171 119.814 150.628C119.814 151.095 119.59 151.328 119.142 151.328ZM120.934 151.328C120.477 151.328 120.248 151.095 120.248 150.628C120.248 150.171 120.477 149.942 120.934 149.942C121.382 149.942 121.606 150.171 121.606 150.628C121.606 151.095 121.382 151.328 120.934 151.328ZM122.446 157.866H123.37V159H122.306C121.531 159 120.92 158.753 120.472 158.258C120.024 158.753 119.413 159 118.638 159H117.574V157.866H118.498C119.413 157.866 119.87 157.399 119.87 156.466V153.568L121.074 152.924V156.466C121.074 157.399 121.531 157.866 122.446 157.866ZM126.177 151.328C125.72 151.328 125.491 151.095 125.491 150.628C125.491 150.171 125.72 149.942 126.177 149.942C126.625 149.942 126.849 150.171 126.849 150.628C126.849 151.095 126.625 151.328 126.177 151.328ZM127.955 151.328C127.498 151.328 127.269 151.095 127.269 150.628C127.269 150.171 127.498 149.942 127.955 149.942C128.403 149.942 128.627 150.171 128.627 150.628C128.627 151.095 128.403 151.328 127.955 151.328ZM122.523 159V157.866H125.043C124.614 157.39 124.399 156.727 124.399 155.878C124.399 154.861 124.665 154.067 125.197 153.498C125.664 152.994 126.285 152.742 127.059 152.742C127.853 152.742 128.469 152.989 128.907 153.484C129.281 153.923 129.467 154.497 129.467 155.206V156.536C129.458 157.311 129.229 157.922 128.781 158.37C128.343 158.79 127.759 159 127.031 159H122.523ZM128.263 155.262C128.263 154.329 127.862 153.862 127.059 153.862C126.602 153.862 126.243 154.039 125.981 154.394C125.72 154.739 125.589 155.225 125.589 155.85C125.589 156.466 125.715 156.956 125.967 157.32C126.219 157.684 126.555 157.866 126.975 157.866C127.834 157.866 128.263 157.418 128.263 156.522V155.262ZM135.29 158.552C134.935 158.692 134.501 158.762 133.988 158.762C133.157 158.762 132.504 158.449 132.028 157.824C131.627 157.292 131.426 156.625 131.426 155.822C131.426 154.833 131.692 154.058 132.224 153.498C132.7 152.994 133.325 152.742 134.1 152.742C134.893 152.742 135.505 152.989 135.934 153.484C136.317 153.923 136.508 154.497 136.508 155.206V158.258C136.508 159.313 136.233 160.148 135.682 160.764C135.159 161.343 134.464 161.632 133.596 161.632C133.017 161.632 132.471 161.497 131.958 161.226V160.162C132.453 160.423 132.943 160.554 133.428 160.554C133.979 160.554 134.417 160.377 134.744 160.022C135.071 159.677 135.253 159.187 135.29 158.552ZM135.29 155.262C135.29 154.329 134.893 153.862 134.1 153.862C133.633 153.862 133.265 154.035 132.994 154.38C132.733 154.725 132.602 155.197 132.602 155.794C132.602 156.382 132.728 156.853 132.98 157.208C133.241 157.553 133.591 157.726 134.03 157.726C134.646 157.726 135.066 157.553 135.29 157.208V155.262ZM145.585 157.866H146.509V159H145.445C144.969 159 144.558 158.907 144.213 158.72C144.129 159.644 143.807 160.381 143.247 160.932C142.733 161.436 142.089 161.688 141.315 161.688C140.755 161.688 140.209 161.548 139.677 161.268V160.218C140.153 160.479 140.629 160.61 141.105 160.61C141.702 160.61 142.169 160.409 142.505 160.008C142.841 159.607 143.009 159.051 143.009 158.342V153.568L144.213 152.924V152.938L144.227 152.924V156.746C144.311 157.493 144.763 157.866 145.585 157.866ZM150.234 151.314C149.777 151.314 149.548 151.081 149.548 150.614C149.548 150.157 149.777 149.928 150.234 149.928C150.682 149.928 150.906 150.157 150.906 150.614C150.906 151.081 150.682 151.314 150.234 151.314ZM145.67 159V157.866H148.19C147.761 157.39 147.546 156.727 147.546 155.878C147.546 154.861 147.812 154.067 148.344 153.498C148.811 152.994 149.431 152.742 150.206 152.742C150.999 152.742 151.615 152.989 152.054 153.484C152.427 153.923 152.614 154.497 152.614 155.206V156.536C152.605 157.311 152.376 157.922 151.928 158.37C151.489 158.79 150.906 159 150.178 159H145.67ZM151.41 155.262C151.41 154.329 151.009 153.862 150.206 153.862C149.749 153.862 149.389 154.039 149.128 154.394C148.867 154.739 148.736 155.225 148.736 155.85C148.736 156.466 148.862 156.956 149.114 157.32C149.366 157.684 149.702 157.866 150.122 157.866C150.981 157.866 151.41 157.418 151.41 156.522V155.262ZM158.436 158.552C158.082 158.692 157.648 158.762 157.134 158.762C156.304 158.762 155.65 158.449 155.174 157.824C154.773 157.292 154.572 156.625 154.572 155.822C154.572 154.833 154.838 154.058 155.37 153.498C155.846 152.994 156.472 152.742 157.246 152.742C158.04 152.742 158.651 152.989 159.08 153.484C159.463 153.923 159.654 154.497 159.654 155.206V158.258C159.654 159.313 159.379 160.148 158.828 160.764C158.306 161.343 157.61 161.632 156.742 161.632C156.164 161.632 155.618 161.497 155.104 161.226V160.162C155.599 160.423 156.089 160.554 156.574 160.554C157.125 160.554 157.564 160.377 157.89 160.022C158.217 159.677 158.399 159.187 158.436 158.552ZM158.436 155.262C158.436 154.329 158.04 153.862 157.246 153.862C156.78 153.862 156.411 154.035 156.14 154.38C155.879 154.725 155.748 155.197 155.748 155.794C155.748 156.382 155.874 156.853 156.126 157.208C156.388 157.553 156.738 157.726 157.176 157.726C157.792 157.726 158.212 157.553 158.436 157.208V155.262ZM165.315 158.328C165.315 158.319 165.315 158.309 165.315 158.3C165.334 157.833 165.581 157.6 166.057 157.6C166.552 157.6 166.799 157.843 166.799 158.328C166.799 158.823 166.552 159.07 166.057 159.07C165.562 159.07 165.315 158.823 165.315 158.328ZM170.525 151.09C170.068 151.09 169.839 150.857 169.839 150.39C169.839 149.933 170.068 149.704 170.525 149.704C170.973 149.704 171.197 149.933 171.197 150.39C171.197 150.857 170.973 151.09 170.525 151.09ZM172.303 151.09C171.846 151.09 171.617 150.857 171.617 150.39C171.617 149.933 171.846 149.704 172.303 149.704C172.751 149.704 172.975 149.933 172.975 150.39C172.975 150.857 172.751 151.09 172.303 151.09ZM174.907 157.866H175.831V159H174.767C173.806 159 173.115 158.645 172.695 157.936C172.247 158.365 171.692 158.58 171.029 158.58C170.208 158.58 169.554 158.272 169.069 157.656C168.668 157.133 168.467 156.494 168.467 155.738C168.467 154.833 168.742 154.105 169.293 153.554C169.76 153.078 170.329 152.84 171.001 152.84C171.514 152.84 171.958 152.971 172.331 153.232V152.63L173.549 151.986V156.466C173.549 157.399 174.002 157.866 174.907 157.866ZM172.331 154.534C171.986 154.151 171.561 153.96 171.057 153.96C170.646 153.96 170.31 154.128 170.049 154.464C169.788 154.791 169.657 155.22 169.657 155.752C169.657 156.293 169.788 156.727 170.049 157.054C170.31 157.381 170.651 157.544 171.071 157.544C171.594 157.544 172.023 157.329 172.359 156.9C172.34 156.732 172.331 156.601 172.331 156.508V154.534ZM174.996 159V157.866H175.738C176.709 157.866 177.194 157.357 177.194 156.34V150.614L178.412 149.97V156.354C178.412 157.185 178.165 157.843 177.67 158.328C177.203 158.776 176.592 159 175.836 159H174.996ZM187.466 157.866V159H185.73C185.693 159.803 185.347 160.465 184.694 160.988C184.143 161.417 183.518 161.632 182.818 161.632C182.239 161.632 181.693 161.497 181.18 161.226V160.162C181.675 160.423 182.165 160.554 182.65 160.554C183.145 160.554 183.574 160.4 183.938 160.092C184.311 159.784 184.503 159.415 184.512 158.986C184.027 158.967 183.667 158.949 183.434 158.93C182.426 158.874 181.665 158.533 181.152 157.908C180.723 157.385 180.508 156.709 180.508 155.878C180.508 154.861 180.779 154.067 181.32 153.498C181.805 152.994 182.445 152.742 183.238 152.742C184.069 152.742 184.708 152.989 185.156 153.484C185.539 153.923 185.73 154.497 185.73 155.206V157.866H187.466ZM184.512 155.29C184.512 154.338 184.087 153.862 183.238 153.862C182.753 153.862 182.375 154.039 182.104 154.394C181.833 154.739 181.698 155.225 181.698 155.85C181.698 157.073 182.295 157.721 183.49 157.796C183.714 157.824 184.055 157.847 184.512 157.866V155.29ZM196.165 157.866H197.089V159H196.025C195.241 159 194.634 158.757 194.205 158.272C193.747 158.757 193.127 159 192.343 159H190.831C190.513 159 190.215 158.953 189.935 158.86C189.645 158.953 189.347 159 189.039 159H186.631V157.866H188.437C188.082 157.39 187.905 156.849 187.905 156.242C187.905 155.691 188.04 155.225 188.311 154.842C188.544 153.983 188.987 153.325 189.641 152.868C190.173 152.504 190.775 152.322 191.447 152.322C192.436 152.322 193.253 152.658 193.897 153.33C194.503 153.965 194.807 154.781 194.807 155.78V156.466C194.807 157.399 195.259 157.866 196.165 157.866ZM192.301 157.866C192.758 157.866 193.085 157.754 193.281 157.53C193.486 157.297 193.589 156.923 193.589 156.41V155.78C193.589 155.005 193.341 154.403 192.847 153.974C192.445 153.619 191.965 153.442 191.405 153.442C190.761 153.442 190.257 153.652 189.893 154.072H189.935C190.551 154.072 191.041 154.273 191.405 154.674C191.778 155.066 191.965 155.589 191.965 156.242C191.965 156.867 191.783 157.409 191.419 157.866H192.301ZM189.935 157.74C190.7 157.479 191.083 156.956 191.083 156.172C191.083 155.78 190.975 155.467 190.761 155.234C190.555 154.991 190.28 154.87 189.935 154.87C189.589 154.87 189.309 154.991 189.095 155.234C188.889 155.467 188.787 155.78 188.787 156.172C188.787 156.956 189.169 157.479 189.935 157.74ZM196.242 159V157.866H197.502C198.407 157.866 198.86 157.399 198.86 156.466V154.506L200.064 153.862V156.466C200.064 157.399 200.521 157.866 201.436 157.866H202.08C202.995 157.866 203.452 157.399 203.452 156.466V154.03L204.656 153.4V156.466C204.656 157.399 205.109 157.866 206.014 157.866H206.672C207.587 157.866 208.044 157.399 208.044 156.466V153.568L209.248 152.924V156.508C209.248 157.301 209.01 157.922 208.534 158.37C208.114 158.781 207.554 158.991 206.854 159H205.888C205.067 159 204.455 158.725 204.054 158.174C203.653 158.715 203.055 158.991 202.262 159H201.296C200.493 159 199.882 158.725 199.462 158.174C199.061 158.725 198.449 159 197.628 159H196.242ZM215.216 158.552C214.861 158.692 214.427 158.762 213.914 158.762C213.083 158.762 212.43 158.449 211.954 157.824C211.552 157.292 211.352 156.625 211.352 155.822C211.352 154.833 211.618 154.058 212.15 153.498C212.626 152.994 213.251 152.742 214.026 152.742C214.819 152.742 215.43 152.989 215.86 153.484C216.242 153.923 216.434 154.497 216.434 155.206V158.258C216.434 159.313 216.158 160.148 215.608 160.764C215.085 161.343 214.39 161.632 213.522 161.632C212.943 161.632 212.397 161.497 211.884 161.226V160.162C212.378 160.423 212.868 160.554 213.354 160.554C213.904 160.554 214.343 160.377 214.67 160.022C214.996 159.677 215.178 159.187 215.216 158.552ZM215.216 155.262C215.216 154.329 214.819 153.862 214.026 153.862C213.559 153.862 213.19 154.035 212.92 154.38C212.658 154.725 212.528 155.197 212.528 155.794C212.528 156.382 212.654 156.853 212.906 157.208C213.167 157.553 213.517 157.726 213.956 157.726C214.572 157.726 214.992 157.553 215.216 157.208V155.262ZM223.298 151.09C222.841 151.09 222.612 150.857 222.612 150.39C222.612 149.933 222.841 149.704 223.298 149.704C223.746 149.704 223.97 149.933 223.97 150.39C223.97 150.857 223.746 151.09 223.298 151.09ZM225.076 151.09C224.619 151.09 224.39 150.857 224.39 150.39C224.39 149.933 224.619 149.704 225.076 149.704C225.524 149.704 225.748 149.933 225.748 150.39C225.748 150.857 225.524 151.09 225.076 151.09ZM227.68 157.866H228.604V159H227.54C226.579 159 225.888 158.645 225.468 157.936C225.02 158.365 224.465 158.58 223.802 158.58C222.981 158.58 222.328 158.272 221.842 157.656C221.441 157.133 221.24 156.494 221.24 155.738C221.24 154.833 221.516 154.105 222.066 153.554C222.533 153.078 223.102 152.84 223.774 152.84C224.288 152.84 224.731 152.971 225.104 153.232V152.63L226.322 151.986V156.466C226.322 157.399 226.775 157.866 227.68 157.866ZM225.104 154.534C224.759 154.151 224.334 153.96 223.83 153.96C223.42 153.96 223.084 154.128 222.822 154.464C222.561 154.791 222.43 155.22 222.43 155.752C222.43 156.293 222.561 156.727 222.822 157.054C223.084 157.381 223.424 157.544 223.844 157.544C224.367 157.544 224.796 157.329 225.132 156.9C225.114 156.732 225.104 156.601 225.104 156.508V154.534ZM235.315 157.866V159H227.769V157.866H230.191C229.734 157.278 229.505 156.555 229.505 155.696C229.505 154.744 229.832 153.988 230.485 153.428C231.017 152.98 231.633 152.751 232.333 152.742C233.323 152.742 234.093 153.139 234.643 153.932V155.066C234.046 154.263 233.323 153.862 232.473 153.862C231.941 153.862 231.512 154.035 231.185 154.38C230.868 154.716 230.709 155.169 230.709 155.738C230.709 156.382 230.901 156.9 231.283 157.292C231.675 157.675 232.193 157.866 232.837 157.866H235.315ZM240.7 157.866H241.624V159H240.56C240.084 159 239.673 158.907 239.328 158.72C239.244 159.644 238.922 160.381 238.362 160.932C237.848 161.436 237.204 161.688 236.43 161.688C235.87 161.688 235.324 161.548 234.792 161.268V160.218C235.268 160.479 235.744 160.61 236.22 160.61C236.817 160.61 237.284 160.409 237.62 160.008C237.956 159.607 238.124 159.051 238.124 158.342V153.568L239.328 152.924V152.938L239.342 152.924V156.746C239.426 157.493 239.878 157.866 240.7 157.866ZM240.785 159V157.866H242.045C242.95 157.866 243.403 157.399 243.403 156.466V154.506L244.607 153.862V156.466C244.607 157.399 245.064 157.866 245.979 157.866H246.623C247.538 157.866 247.995 157.399 247.995 156.466V154.03L249.199 153.4V156.466C249.199 157.399 249.652 157.866 250.557 157.866H251.215C252.13 157.866 252.587 157.399 252.587 156.466V153.568L253.791 152.924V156.34C253.791 157.357 254.276 157.866 255.247 157.866H256.409V159H255.149C254.309 159 253.67 158.715 253.231 158.146C252.839 158.706 252.228 158.991 251.397 159H250.431C249.61 159 248.998 158.725 248.597 158.174C248.196 158.715 247.598 158.991 246.805 159H245.839C245.036 159 244.425 158.725 244.005 158.174C243.604 158.725 242.992 159 242.171 159H240.785ZM255.564 159V157.866H256.488C257.403 157.866 257.86 157.399 257.86 156.466V153.568L259.064 152.924V156.508C259.064 157.301 258.826 157.927 258.35 158.384C257.912 158.795 257.338 159 256.628 159H255.564ZM257.818 161.786C257.361 161.786 257.132 161.553 257.132 161.086C257.132 160.629 257.361 160.4 257.818 160.4C258.266 160.4 258.49 160.629 258.49 161.086C258.49 161.553 258.266 161.786 257.818 161.786Z" fill="#253C30" fill-opacity="0.52"/>
</svg>
