<svg width="297" height="210" viewBox="0 0 297 210" fill="none" xmlns="http://www.w3.org/2000/svg">
<path d="M111.453 67.0126L113.148 63.7566H117.4C118.315 63.7566 118.772 63.2274 118.772 62.169C118.772 60.1957 117.822 58.6798 115.92 57.6214L117.588 54.7421C120.387 56.3746 121.894 58.5901 122.109 61.3886C122.181 62.2856 122.378 62.9045 122.701 63.2454C123.042 63.5862 123.616 63.7566 124.423 63.7566H126.468V67.0126H124.235C122.907 67.0126 121.786 66.6449 120.871 65.9094C120.207 66.6449 119.257 67.0126 118.019 67.0126H111.453ZM124.856 67.0126V63.7566H127.278C127.96 63.7566 128.444 63.6131 128.731 63.3261C129.018 63.0211 129.162 62.5188 129.162 61.8192V56.841L132.552 55.065V61.9806C132.552 63.6131 132.05 64.8868 131.045 65.8017C130.166 66.609 129.018 67.0126 127.601 67.0126H124.856ZM126.309 73.0134C125.771 73.0134 125.34 72.8519 125.018 72.529C124.695 72.2061 124.533 71.7666 124.533 71.2105C124.533 70.0444 125.125 69.4614 126.309 69.4614C126.847 69.4614 127.269 69.6138 127.574 69.9188C127.897 70.2417 128.058 70.6723 128.058 71.2105C128.058 72.4124 127.475 73.0134 126.309 73.0134ZM130.453 73.0134C129.915 73.0134 129.484 72.8519 129.162 72.529C128.839 72.2061 128.677 71.7666 128.677 71.2105C128.677 70.0444 129.269 69.4614 130.453 69.4614C130.991 69.4614 131.413 69.6138 131.718 69.9188C132.041 70.2417 132.202 70.6723 132.202 71.2105C132.202 72.4124 131.619 73.0134 130.453 73.0134ZM135.235 67.0126L136.93 63.7566H141.182C142.097 63.7566 142.554 63.2274 142.554 62.169C142.554 60.1957 141.603 58.6798 139.702 57.6214L141.37 54.7421C144.169 56.3746 145.676 58.5901 145.891 61.3886C145.963 62.2856 146.16 62.9045 146.483 63.2454C146.824 63.5862 147.398 63.7566 148.205 63.7566H150.25V67.0126H148.017C146.689 67.0126 145.568 66.6449 144.653 65.9094C143.989 66.6449 143.039 67.0126 141.801 67.0126H135.235ZM166.183 63.7566H168.443V67.0126H166.156C164.739 67.0126 163.599 66.8601 162.738 66.5552C161.895 66.2323 161.106 65.6761 160.37 64.8868C158.128 66.304 155.545 67.0126 152.621 67.0126H148.638V63.7566H152.647C155.805 63.7566 158.316 62.8148 160.182 60.9312C158.962 58.7964 157.482 57.729 155.742 57.729C154.307 57.729 152.737 58.5094 151.033 60.0701V57.0832C152.54 55.4328 154.244 54.6075 156.146 54.6075C157.545 54.6075 158.908 55.1188 160.236 56.1414C161.563 57.1639 162.738 58.617 163.761 60.5006V61.8461C163.474 62.2228 163.097 62.6444 162.631 63.1108C163.348 63.5414 164.532 63.7566 166.183 63.7566ZM158.729 69.4614C159.267 69.4614 159.689 69.6138 159.994 69.9188C160.317 70.2417 160.478 70.6723 160.478 71.2105C160.478 72.4124 159.895 73.0134 158.729 73.0134C158.191 73.0134 157.76 72.8519 157.437 72.529C157.114 72.2061 156.953 71.7666 156.953 71.2105C156.953 70.6902 157.114 70.2686 157.437 69.9457C157.76 69.6228 158.191 69.4614 158.729 69.4614ZM166.823 67.0126V63.7566H168.518C169.343 63.7566 169.926 63.5772 170.267 63.2185C170.626 62.8597 170.805 62.2497 170.805 61.3886V51.4592L174.169 49.6563V61.4155C174.169 63.1557 173.64 64.546 172.581 65.5865C171.613 66.5372 170.321 67.0126 168.706 67.0126H166.823ZM179.013 67.0126V51.4592L182.403 49.6563V67.0126H179.013Z" fill="#443818"/>
<path d="M121.11 94.3526C121.11 96.0593 120.523 97.4326 119.35 98.4726C118.31 99.3793 117.003 99.8326 115.43 99.8326C113.536 99.8326 112.07 99.206 111.03 97.9526C110.23 96.9926 109.83 95.8526 109.83 94.5326C109.83 93.4926 110.07 92.5726 110.55 91.7726L113.03 91.2126C112.483 92.0793 112.21 93.0726 112.21 94.1926C112.21 95.1793 112.496 95.9593 113.07 96.5326C113.656 97.1193 114.443 97.4126 115.43 97.4126C116.403 97.4126 117.176 97.1393 117.75 96.5926C118.323 96.046 118.61 95.2993 118.61 94.3526V84.4526L121.11 83.1126V94.3526ZM134.202 93.5926V96.0126H131.742C131.649 97.2126 131.116 98.1726 130.142 98.8926C129.342 99.4793 128.409 99.7726 127.342 99.7726C126.502 99.7726 125.682 99.546 124.882 99.0926V96.9126C125.602 97.326 126.322 97.5326 127.042 97.5326C127.602 97.5326 128.096 97.3793 128.522 97.0726C128.962 96.766 129.202 96.3993 129.242 95.9726C129.136 95.9593 128.969 95.946 128.742 95.9326C128.516 95.906 128.342 95.886 128.222 95.8726C126.849 95.726 125.789 95.186 125.042 94.2526C124.416 93.466 124.102 92.5126 124.102 91.3926C124.102 89.926 124.502 88.766 125.302 87.9126C126.009 87.166 126.942 86.7926 128.102 86.7926C129.289 86.7926 130.216 87.1726 130.882 87.9326C131.456 88.586 131.742 89.4393 131.742 90.4926V93.5926H134.202ZM129.242 90.4526C129.242 89.5726 128.862 89.1326 128.102 89.1326C127.089 89.1326 126.582 89.8593 126.582 91.3126C126.582 92.606 127.169 93.326 128.342 93.4726C128.529 93.5126 128.829 93.546 129.242 93.5726V90.4526ZM139.325 88.8926C140.699 87.4926 142.265 86.7926 144.025 86.7926C145.612 86.7926 146.872 87.3393 147.805 88.4326C148.605 89.3526 149.005 90.4926 149.005 91.8526V92.3326C149.005 93.586 148.645 94.5393 147.925 95.1926C147.325 95.7393 146.525 96.0126 145.525 96.0126H133.005V93.5926H136.585C136.639 93.406 136.712 93.1993 136.805 92.9726V84.4526L139.325 83.1126V88.8926ZM146.505 92.2326V91.8526C146.505 91.0526 146.272 90.3993 145.805 89.8926C145.352 89.386 144.765 89.1326 144.045 89.1326C143.112 89.1326 142.225 89.4793 141.385 90.1726C140.559 90.8526 139.872 91.7993 139.325 93.0126V93.5926H145.425C145.865 93.5926 146.152 93.506 146.285 93.3326C146.432 93.1593 146.505 92.7926 146.505 92.2326ZM168.969 96.0126C168.809 97.2393 168.116 98.1993 166.889 98.8926C165.783 99.506 164.403 99.8126 162.749 99.8126C160.536 99.8126 158.869 99.1793 157.749 97.9126C156.923 96.966 156.509 95.806 156.509 94.4326C156.509 93.3793 156.756 92.4593 157.249 91.6726L159.649 91.1726C159.116 92.0793 158.849 93.0326 158.849 94.0326C158.849 95.1526 159.183 96.0126 159.849 96.6126C160.516 97.226 161.483 97.5326 162.749 97.5326C164.723 97.5326 165.923 97.026 166.349 96.0126H164.429L165.689 93.5926H169.029V96.0126H168.969ZM174.885 93.5926H176.685V96.0126H174.645C173.605 96.0126 172.759 95.7193 172.105 95.1326C171.372 95.7193 170.472 96.0126 169.405 96.0126H168.005V93.5926H169.265C169.879 93.5926 170.312 93.4593 170.565 93.1926C170.832 92.926 170.965 92.4726 170.965 91.8326V84.4526L173.465 83.1126V87.1526L173.485 87.1326V92.1526C173.485 92.6726 173.592 93.046 173.805 93.2726C174.019 93.486 174.379 93.5926 174.885 93.5926ZM186.566 93.5926V96.0126H175.486V93.5926H178.446C178.073 92.8593 177.886 92.046 177.886 91.1526C177.886 89.7393 178.379 88.6193 179.366 87.7926C180.166 87.126 181.093 86.7926 182.146 86.7926C183.573 86.7926 184.726 87.406 185.606 88.6326V90.8526C184.633 89.706 183.573 89.1326 182.426 89.1326C181.813 89.1326 181.319 89.326 180.946 89.7126C180.586 90.086 180.406 90.5926 180.406 91.2326C180.406 91.966 180.633 92.546 181.086 92.9726C181.553 93.386 182.186 93.5926 182.986 93.5926H186.566Z" fill="#443818"/>
<rect opacity="0.52" x="122" y="112.013" width="52" height="2" rx="1" fill="#DCC999"/>
<path d="M47.4632 138.131C47.4632 139.241 47.0758 140.128 46.3012 140.791C45.6198 141.379 44.7518 141.673 43.6972 141.673C42.4465 141.673 41.4805 141.253 40.7992 140.413C40.2765 139.759 40.0152 138.98 40.0152 138.075C40.0152 137.281 40.2065 136.605 40.5892 136.045L41.7932 135.779C41.3638 136.441 41.1492 137.165 41.1492 137.949C41.1492 138.723 41.3965 139.358 41.8912 139.853C42.3485 140.31 42.9505 140.539 43.6972 140.539C44.5465 140.539 45.1998 140.287 45.6572 139.783C46.0492 139.353 46.2452 138.803 46.2452 138.131V130.627L47.4632 129.983V138.131ZM53.4325 138.565C53.0778 138.705 52.6438 138.775 52.1305 138.775C51.2998 138.775 50.6465 138.462 50.1705 137.837C49.7692 137.305 49.5685 136.637 49.5685 135.835C49.5685 134.845 49.8345 134.071 50.3665 133.511C50.8425 133.007 51.4678 132.755 52.2425 132.755C53.0358 132.755 53.6472 133.002 54.0765 133.497C54.4592 133.935 54.6505 134.509 54.6505 135.219V138.271C54.6505 139.325 54.3752 140.161 53.8245 140.777C53.3018 141.355 52.6065 141.645 51.7385 141.645C51.1598 141.645 50.6138 141.509 50.1005 141.239V140.175C50.5952 140.436 51.0852 140.567 51.5705 140.567C52.1212 140.567 52.5598 140.389 52.8865 140.035C53.2132 139.689 53.3952 139.199 53.4325 138.565ZM53.4325 135.275C53.4325 134.341 53.0358 133.875 52.2425 133.875C51.7758 133.875 51.4072 134.047 51.1365 134.393C50.8752 134.738 50.7445 135.209 50.7445 135.807C50.7445 136.395 50.8705 136.866 51.1225 137.221C51.3838 137.566 51.7338 137.739 52.1725 137.739C52.7885 137.739 53.2085 137.566 53.4325 137.221V135.275ZM56.2875 129.787L56.6095 129.185H56.9875C56.8942 129.017 56.8475 128.844 56.8475 128.667C56.8475 128.387 56.9502 128.149 57.1555 127.953C57.3609 127.747 57.6035 127.645 57.8835 127.645C58.1169 127.645 58.3409 127.719 58.5555 127.869V128.485C58.3502 128.326 58.1542 128.247 57.9675 128.247C57.6222 128.247 57.4495 128.401 57.4495 128.709C57.4495 128.867 57.5149 129.026 57.6455 129.185H58.9195L58.5975 129.787H56.2875ZM57.0295 139.013V131.187L58.2335 130.543V139.013H57.0295ZM67.7679 132.503C67.3105 132.503 67.0819 132.269 67.0819 131.803C67.0819 131.345 67.3105 131.117 67.7679 131.117C68.2159 131.117 68.4399 131.345 68.4399 131.803C68.4399 132.269 68.2159 132.503 67.7679 132.503ZM69.5459 132.503C69.0885 132.503 68.8599 132.269 68.8599 131.803C68.8599 131.345 69.0885 131.117 69.5459 131.117C69.9939 131.117 70.2179 131.345 70.2179 131.803C70.2179 132.269 69.9939 132.503 69.5459 132.503ZM66.3539 139.013C65.5979 139.013 65.0052 138.761 64.5759 138.257C64.2025 137.818 64.0159 137.244 64.0159 136.535V134.841L65.2199 134.197V136.423C65.2199 137.393 65.6725 137.879 66.5779 137.879H71.2259C72.1312 137.879 72.5839 137.393 72.5839 136.423V133.581L73.7879 132.937V136.535C73.7879 137.347 73.5405 137.977 73.0459 138.425C72.6072 138.817 72.0425 139.013 71.3519 139.013H66.3539ZM78.4694 139.013C77.6574 139.013 77.0321 138.751 76.5934 138.229C76.2201 137.781 76.0334 137.211 76.0334 136.521V130.627L77.2374 129.983V136.479C77.2374 137.412 77.6948 137.879 78.6094 137.879H79.5334V139.013H78.4694ZM78.6874 139.013V137.879H79.9474C80.8528 137.879 81.3054 137.412 81.3054 136.479V134.519L82.5094 133.875V136.479C82.5094 137.412 82.9668 137.879 83.8814 137.879H84.5254C85.4401 137.879 85.8974 137.412 85.8974 136.479V134.043L87.1014 133.413V136.479C87.1014 137.412 87.5541 137.879 88.4594 137.879H89.1174C90.0321 137.879 90.4894 137.412 90.4894 136.479V133.581L91.6934 132.937V136.521C91.6934 137.314 91.4554 137.935 90.9794 138.383C90.5594 138.793 89.9994 139.003 89.2994 139.013H88.3334C87.5121 139.013 86.9008 138.737 86.4994 138.187C86.0981 138.728 85.5008 139.003 84.7074 139.013H83.7414C82.9388 139.013 82.3274 138.737 81.9074 138.187C81.5061 138.737 80.8948 139.013 80.0734 139.013H78.6874ZM94.217 139.013V130.627L95.421 129.983V139.013H94.217ZM100.924 138.271C100.924 139.316 100.648 140.156 100.098 140.791C99.5751 141.397 98.8798 141.701 98.0118 141.701C97.4518 141.701 96.9058 141.561 96.3738 141.281V140.231C96.8498 140.492 97.3258 140.623 97.8018 140.623C98.3991 140.623 98.8658 140.422 99.2018 140.021C99.5378 139.619 99.7058 139.064 99.7058 138.355V133.581L100.924 132.937V138.271ZM102.326 139.013L102.914 137.879H105.406C105.779 137.879 106.04 137.785 106.19 137.599C106.348 137.412 106.428 137.09 106.428 136.633C106.428 135.391 105.854 134.458 104.706 133.833L105.322 132.797C106.787 133.655 107.552 134.841 107.618 136.353C107.636 136.894 107.758 137.286 107.982 137.529C108.215 137.762 108.584 137.879 109.088 137.879H109.914V139.013H108.99C108.215 139.013 107.608 138.765 107.17 138.271C106.862 138.765 106.344 139.013 105.616 139.013H102.326ZM109.08 139.013V137.879H109.822C110.793 137.879 111.278 137.37 111.278 136.353V130.627L112.496 129.983V136.367C112.496 137.197 112.249 137.855 111.754 138.341C111.287 138.789 110.676 139.013 109.92 139.013H109.08ZM115.012 139.013V130.627L116.216 129.983V139.013H115.012ZM122.175 138.565C121.82 138.705 121.386 138.775 120.873 138.775C120.042 138.775 119.389 138.462 118.913 137.837C118.511 137.305 118.311 136.637 118.311 135.835C118.311 134.845 118.577 134.071 119.109 133.511C119.585 133.007 120.21 132.755 120.985 132.755C121.778 132.755 122.389 133.002 122.819 133.497C123.201 133.935 123.393 134.509 123.393 135.219V138.271C123.393 139.325 123.117 140.161 122.567 140.777C122.044 141.355 121.349 141.645 120.481 141.645C119.902 141.645 119.356 141.509 118.843 141.239V140.175C119.337 140.436 119.827 140.567 120.313 140.567C120.863 140.567 121.302 140.389 121.629 140.035C121.955 139.689 122.137 139.199 122.175 138.565ZM122.175 135.275C122.175 134.341 121.778 133.875 120.985 133.875C120.518 133.875 120.149 134.047 119.879 134.393C119.617 134.738 119.487 135.209 119.487 135.807C119.487 136.395 119.613 136.866 119.865 137.221C120.126 137.566 120.476 137.739 120.915 137.739C121.531 137.739 121.951 137.566 122.175 137.221V135.275ZM132.469 137.879H133.393V139.013H132.329C131.853 139.013 131.443 138.919 131.097 138.733C131.013 139.657 130.691 140.394 130.131 140.945C129.618 141.449 128.974 141.701 128.199 141.701C127.639 141.701 127.093 141.561 126.561 141.281V140.231C127.037 140.492 127.513 140.623 127.989 140.623C128.587 140.623 129.053 140.422 129.389 140.021C129.725 139.619 129.893 139.064 129.893 138.355V133.581L131.097 132.937V132.951L131.111 132.937V136.759C131.195 137.505 131.648 137.879 132.469 137.879ZM132.555 139.013V137.879H133.479C134.393 137.879 134.851 137.412 134.851 136.479V133.581L136.055 132.937V136.521C136.055 137.314 135.817 137.939 135.341 138.397C134.902 138.807 134.328 139.013 133.619 139.013H132.555ZM133.297 141.799C132.839 141.799 132.611 141.565 132.611 141.099C132.611 140.641 132.839 140.413 133.297 140.413C133.745 140.413 133.969 140.641 133.969 141.099C133.969 141.565 133.745 141.799 133.297 141.799ZM135.075 141.799C134.617 141.799 134.389 141.565 134.389 141.099C134.389 140.641 134.617 140.413 135.075 140.413C135.523 140.413 135.747 140.641 135.747 141.099C135.747 141.565 135.523 141.799 135.075 141.799ZM141.557 138.271C141.557 139.316 141.281 140.156 140.731 140.791C140.208 141.397 139.513 141.701 138.645 141.701C138.085 141.701 137.539 141.561 137.007 141.281V140.231C137.483 140.492 137.959 140.623 138.435 140.623C139.032 140.623 139.499 140.422 139.835 140.021C140.171 139.619 140.339 139.064 140.339 138.355V133.581L141.557 132.937V138.271ZM146.514 139.013C145.702 139.013 145.077 138.751 144.638 138.229C144.265 137.781 144.078 137.211 144.078 136.521V130.627L145.282 129.983V136.479C145.282 137.412 145.74 137.879 146.654 137.879H147.578V139.013H146.514ZM150.204 131.341C149.747 131.341 149.518 131.107 149.518 130.641C149.518 130.183 149.747 129.955 150.204 129.955C150.652 129.955 150.876 130.183 150.876 130.641C150.876 131.107 150.652 131.341 150.204 131.341ZM151.982 131.341C151.525 131.341 151.296 131.107 151.296 130.641C151.296 130.183 151.525 129.955 151.982 129.955C152.43 129.955 152.654 130.183 152.654 130.641C152.654 131.107 152.43 131.341 151.982 131.341ZM152.85 137.879H155.454V139.013H152.038C151.674 139.013 151.357 138.98 151.086 138.915C150.825 138.98 150.508 139.013 150.134 139.013H146.732V137.879H149.336C148.758 137.216 148.468 136.483 148.468 135.681C148.468 134.766 148.725 134.038 149.238 133.497C149.705 133.002 150.321 132.755 151.086 132.755C151.964 132.755 152.64 133.072 153.116 133.707C153.518 134.229 153.718 134.887 153.718 135.681C153.718 136.483 153.429 137.216 152.85 137.879ZM151.1 137.753C151.53 137.603 151.88 137.333 152.15 136.941C152.421 136.539 152.556 136.101 152.556 135.625C152.556 135.083 152.421 134.659 152.15 134.351C151.889 134.033 151.534 133.875 151.086 133.875C150.638 133.875 150.279 134.033 150.008 134.351C149.747 134.668 149.616 135.093 149.616 135.625C149.616 136.091 149.756 136.525 150.036 136.927C150.316 137.328 150.671 137.603 151.1 137.753ZM156.189 131.341C155.732 131.341 155.503 131.107 155.503 130.641C155.503 130.183 155.732 129.955 156.189 129.955C156.637 129.955 156.861 130.183 156.861 130.641C156.861 131.107 156.637 131.341 156.189 131.341ZM157.981 131.341C157.524 131.341 157.295 131.107 157.295 130.641C157.295 130.183 157.524 129.955 157.981 129.955C158.429 129.955 158.653 130.183 158.653 130.641C158.653 131.107 158.429 131.341 157.981 131.341ZM159.493 137.879H160.417V139.013H159.353C158.578 139.013 157.967 138.765 157.519 138.271C157.071 138.765 156.46 139.013 155.685 139.013H154.621V137.879H155.545C156.46 137.879 156.917 137.412 156.917 136.479V133.581L158.121 132.937V136.479C158.121 137.412 158.578 137.879 159.493 137.879ZM159.57 139.013V137.879H160.312C161.283 137.879 161.768 137.37 161.768 136.353V130.627L162.986 129.983V136.367C162.986 137.197 162.739 137.855 162.244 138.341C161.778 138.789 161.166 139.013 160.41 139.013H159.57ZM165.502 139.013V130.627L166.706 129.983V139.013H165.502ZM177.263 130.837C176.824 130.837 176.605 130.617 176.605 130.179C176.605 129.749 176.824 129.535 177.263 129.535C177.683 129.535 177.893 129.749 177.893 130.179C177.893 130.617 177.683 130.837 177.263 130.837ZM176.381 132.503C175.923 132.503 175.695 132.269 175.695 131.803C175.695 131.345 175.923 131.117 176.381 131.117C176.829 131.117 177.053 131.345 177.053 131.803C177.053 132.269 176.829 132.503 176.381 132.503ZM178.159 132.503C177.701 132.503 177.473 132.269 177.473 131.803C177.473 131.345 177.701 131.117 178.159 131.117C178.607 131.117 178.831 131.345 178.831 131.803C178.831 132.269 178.607 132.503 178.159 132.503ZM174.827 139.013C174.071 139.013 173.478 138.761 173.049 138.257C172.675 137.818 172.489 137.244 172.489 136.535V134.841L173.693 134.197V136.423C173.693 137.393 174.145 137.879 175.051 137.879H179.699C180.604 137.879 181.057 137.393 181.057 136.423V133.581L182.261 132.937V136.535C182.261 137.347 182.013 137.977 181.519 138.425C181.08 138.817 180.515 139.013 179.825 139.013H174.827ZM183.386 139.013L183.974 137.879H186.466C186.839 137.879 187.101 137.785 187.25 137.599C187.409 137.412 187.488 137.09 187.488 136.633C187.488 135.391 186.914 134.458 185.766 133.833L186.382 132.797C187.847 133.655 188.613 134.841 188.678 136.353C188.697 136.894 188.818 137.286 189.042 137.529C189.275 137.762 189.644 137.879 190.148 137.879H190.974V139.013H190.05C189.275 139.013 188.669 138.765 188.23 138.271C187.922 138.765 187.404 139.013 186.676 139.013H183.386ZM190.141 139.013V137.879H192.059C193.953 137.879 195.451 137.253 196.553 136.003C195.778 134.575 194.835 133.861 193.725 133.861C192.969 133.861 192.189 134.262 191.387 135.065V133.945C192.171 133.151 193.001 132.755 193.879 132.755C194.597 132.755 195.293 133.016 195.965 133.539C196.637 134.052 197.229 134.789 197.743 135.751V136.367C196.371 138.131 194.471 139.013 192.045 139.013H190.141ZM198.967 129.787L199.289 129.185H199.667C199.574 129.017 199.527 128.844 199.527 128.667C199.527 128.387 199.63 128.149 199.835 127.953C200.041 127.747 200.283 127.645 200.563 127.645C200.797 127.645 201.021 127.719 201.235 127.869V128.485C201.03 128.326 200.834 128.247 200.647 128.247C200.302 128.247 200.129 128.401 200.129 128.709C200.129 128.867 200.195 129.026 200.325 129.185H201.599L201.277 129.787H198.967ZM199.709 139.013V131.187L200.913 130.543V139.013H199.709ZM217.826 137.879H218.75V139.013H217.686C216.902 139.013 216.295 138.77 215.866 138.285C215.408 138.77 214.797 139.013 214.032 139.013H209.034C208.278 139.013 207.685 138.761 207.256 138.257C206.882 137.818 206.696 137.244 206.696 136.535V134.841L207.9 134.197V136.423C207.9 137.393 208.352 137.879 209.258 137.879H213.906C214.802 137.879 215.25 137.393 215.25 136.423V130.627L216.468 129.983V136.479C216.468 137.412 216.92 137.879 217.826 137.879ZM211.652 132.195C212.454 132.232 212.856 132.629 212.856 133.385C212.856 133.711 212.758 133.973 212.562 134.169C212.375 134.365 212.123 134.463 211.806 134.463H209.958L210.28 133.861H211.75C212.086 133.861 212.254 133.693 212.254 133.357C212.254 132.946 211.992 132.741 211.47 132.741C211.199 132.741 210.952 132.806 210.728 132.937V132.377L211.904 131.075H212.646L211.652 132.195ZM217.908 139.013V137.879H218.65C219.621 137.879 220.106 137.37 220.106 136.353V130.627L221.324 129.983V136.367C221.324 137.197 221.077 137.855 220.582 138.341C220.115 138.789 219.504 139.013 218.748 139.013H217.908ZM238.252 137.879H238.896V139.013H238.112C237.328 139.013 236.716 138.77 236.278 138.285C235.839 138.77 235.228 139.013 234.444 139.013H229.446C228.69 139.013 228.097 138.761 227.668 138.257C227.294 137.818 227.108 137.244 227.108 136.535V134.841L228.312 134.197V136.423C228.312 137.393 228.764 137.879 229.67 137.879H234.318C235.223 137.879 235.676 137.393 235.676 136.423V133.581L236.88 132.937V136.479C236.88 137.412 237.337 137.879 238.252 137.879ZM231.49 140.413C231.938 140.413 232.162 140.641 232.162 141.099C232.162 141.565 231.938 141.799 231.49 141.799C231.032 141.799 230.804 141.565 230.804 141.099C230.804 140.641 231.032 140.413 231.49 140.413ZM242.932 137.879H243.856V139.013H242.792C242.018 139.013 241.406 138.765 240.958 138.271C240.51 138.765 239.899 139.013 239.124 139.013H238.06V137.879H238.984C239.899 137.879 240.356 137.412 240.356 136.479V133.581L241.56 132.937V136.479C241.56 137.412 242.018 137.879 242.932 137.879ZM239.586 140.413C240.034 140.413 240.258 140.646 240.258 141.113C240.258 141.57 240.034 141.799 239.586 141.799C239.129 141.799 238.9 141.57 238.9 141.113C238.9 140.646 239.129 140.413 239.586 140.413ZM241.364 140.413C241.812 140.413 242.036 140.646 242.036 141.113C242.036 141.57 241.812 141.799 241.364 141.799C240.907 141.799 240.678 141.57 240.678 141.113C240.678 140.646 240.907 140.413 241.364 140.413ZM252.138 137.879H253.048V139.013H252.124C251.368 139.013 250.761 138.929 250.304 138.761C249.846 138.583 249.422 138.275 249.03 137.837C247.854 138.621 246.482 139.013 244.914 139.013H243.01V137.879H244.928C246.822 137.879 248.32 137.253 249.422 136.003C248.647 134.575 247.704 133.861 246.594 133.861C245.838 133.861 245.058 134.262 244.256 135.065V133.945C245.04 133.151 245.87 132.755 246.748 132.755C247.466 132.755 248.162 133.016 248.834 133.539C249.506 134.052 250.098 134.789 250.612 135.751V136.367C250.322 136.731 250.047 137.025 249.786 137.249C250.29 137.669 251.074 137.879 252.138 137.879ZM247.56 140.413C248.008 140.413 248.232 140.641 248.232 141.099C248.232 141.565 248.008 141.799 247.56 141.799C247.102 141.799 246.874 141.565 246.874 141.099C246.874 140.641 247.102 140.413 247.56 140.413ZM255.067 131.243C254.61 131.243 254.381 131.009 254.381 130.543C254.381 130.085 254.61 129.857 255.067 129.857C255.515 129.857 255.739 130.085 255.739 130.543C255.739 131.009 255.515 131.243 255.067 131.243ZM252.211 139.013V137.879H253.135C254.05 137.879 254.507 137.412 254.507 136.479V133.581L255.711 132.937V136.521C255.711 137.314 255.473 137.939 254.997 138.397C254.558 138.807 253.984 139.013 253.275 139.013H252.211ZM29.7886 158.341C29.7886 158.331 29.7886 158.322 29.7886 158.313C29.8073 157.846 30.0546 157.613 30.5306 157.613C31.0253 157.613 31.2726 157.855 31.2726 158.341C31.2726 158.835 31.0253 159.083 30.5306 159.083C30.036 159.083 29.7886 158.835 29.7886 158.341ZM37.5325 152.503C37.0752 152.503 36.8465 152.269 36.8465 151.803C36.8465 151.345 37.0752 151.117 37.5325 151.117C37.9805 151.117 38.2045 151.345 38.2045 151.803C38.2045 152.269 37.9805 152.503 37.5325 152.503ZM39.3105 152.503C38.8532 152.503 38.6245 152.269 38.6245 151.803C38.6245 151.345 38.8532 151.117 39.3105 151.117C39.7585 151.117 39.9825 151.345 39.9825 151.803C39.9825 152.269 39.7585 152.503 39.3105 152.503ZM36.1185 159.013C35.3625 159.013 34.7698 158.761 34.3405 158.257C33.9672 157.818 33.7805 157.244 33.7805 156.535V154.841L34.9845 154.197V156.423C34.9845 157.393 35.4372 157.879 36.3425 157.879H40.9905C41.8958 157.879 42.3485 157.393 42.3485 156.423V153.581L43.5525 152.937V156.535C43.5525 157.347 43.3052 157.977 42.8105 158.425C42.3718 158.817 41.8072 159.013 41.1165 159.013H36.1185ZM48.2341 159.013C47.4221 159.013 46.7968 158.751 46.3581 158.229C45.9848 157.781 45.7981 157.211 45.7981 156.521V150.627L47.0021 149.983V156.479C47.0021 157.412 47.4594 157.879 48.3741 157.879H49.2981V159.013H48.2341ZM50.7481 155.219C50.7481 154.407 50.9907 153.777 51.4761 153.329C51.9054 152.946 52.4654 152.755 53.1561 152.755C54.0427 152.755 54.7241 153.081 55.2001 153.735C55.6107 154.285 55.8161 155.004 55.8161 155.891C55.8161 156.899 55.5547 157.687 55.0321 158.257C54.5747 158.761 53.9774 159.013 53.2401 159.013C52.4001 159.013 51.7607 158.779 51.3221 158.313C50.8741 158.779 50.2721 159.013 49.5161 159.013H48.4521V157.879H49.3761C50.2907 157.879 50.7481 157.412 50.7481 156.479V155.219ZM51.9521 156.577C51.9521 157.445 52.3767 157.879 53.2261 157.879C53.6647 157.879 54.0054 157.701 54.2481 157.347C54.5001 156.992 54.6261 156.497 54.6261 155.863C54.6261 155.237 54.4954 154.752 54.2341 154.407C53.9727 154.052 53.6134 153.875 53.1561 153.875C52.3534 153.875 51.9521 154.341 51.9521 155.275V156.577ZM64.6681 157.879V159.013H62.9321C62.8948 159.815 62.5495 160.478 61.8961 161.001C61.3455 161.43 60.7201 161.645 60.0201 161.645C59.4415 161.645 58.8955 161.509 58.3821 161.239V160.175C58.8768 160.436 59.3668 160.567 59.8521 160.567C60.3468 160.567 60.7761 160.413 61.1401 160.105C61.5135 159.797 61.7048 159.428 61.7141 158.999C61.2288 158.98 60.8695 158.961 60.6361 158.943C59.6281 158.887 58.8675 158.546 58.3541 157.921C57.9248 157.398 57.7101 156.721 57.7101 155.891C57.7101 154.873 57.9808 154.08 58.5221 153.511C59.0075 153.007 59.6468 152.755 60.4401 152.755C61.2708 152.755 61.9101 153.002 62.3581 153.497C62.7408 153.935 62.9321 154.509 62.9321 155.219V157.879H64.6681ZM61.7141 155.303C61.7141 154.351 61.2895 153.875 60.4401 153.875C59.9548 153.875 59.5768 154.052 59.3061 154.407C59.0355 154.752 58.9001 155.237 58.9001 155.863C58.9001 157.085 59.4975 157.734 60.6921 157.809C60.9161 157.837 61.2568 157.86 61.7141 157.879V155.303ZM68.6069 157.879H69.5309V159.013H68.4669C67.6643 159.013 67.0436 158.756 66.6049 158.243C66.1383 158.756 65.4943 159.013 64.6729 159.013H63.8329V157.879H64.5749C65.5456 157.879 66.0309 157.37 66.0309 156.353V150.627L67.2489 149.983V156.367C67.2489 156.908 67.3516 157.295 67.5569 157.529C67.7716 157.762 68.1216 157.879 68.6069 157.879ZM75.6024 157.879H79.2984V159.013H75.4904C74.9864 159.013 74.4871 158.915 73.9924 158.719C73.4978 158.915 72.9938 159.013 72.4804 159.013H68.6864V157.879H72.3824H72.5784C71.9064 157.328 71.2158 156.521 70.5064 155.457V154.841C70.9544 154.197 71.4864 153.688 72.1024 153.315C72.7278 152.941 73.3531 152.755 73.9784 152.755C74.6038 152.755 75.2291 152.946 75.8544 153.329C76.4798 153.702 77.0211 154.215 77.4784 154.869V155.457C76.7691 156.521 76.0738 157.328 75.3924 157.879H75.6024ZM71.6264 155.163C72.4851 156.339 73.2738 157.113 73.9924 157.487C74.7111 157.104 75.4998 156.325 76.3584 155.149C75.6584 154.299 74.8651 153.87 73.9784 153.861C73.0918 153.861 72.3078 154.295 71.6264 155.163ZM87.4778 157.879H88.4158V159.013H87.3518C86.5772 159.013 85.9658 158.765 85.5178 158.271C85.0418 158.952 84.3465 159.293 83.4318 159.293C82.5172 159.293 81.8265 158.957 81.3598 158.285C80.9212 158.77 80.3098 159.013 79.5258 159.013H78.4618V157.879H79.3858C80.3005 157.879 80.7578 157.412 80.7578 156.479V156.017C80.7578 154.934 81.0238 154.103 81.5558 153.525C82.0225 153.011 82.6478 152.755 83.4318 152.755C84.3278 152.755 85.0185 153.086 85.5038 153.749C85.9145 154.318 86.1198 155.074 86.1198 156.017V156.479C86.1198 157.412 86.5725 157.879 87.4778 157.879ZM83.4318 158.159C83.8892 158.159 84.2485 157.967 84.5098 157.585C84.7805 157.202 84.9158 156.675 84.9158 156.003C84.9158 154.584 84.4212 153.875 83.4318 153.875C82.4518 153.875 81.9618 154.584 81.9618 156.003C81.9618 157.44 82.4518 158.159 83.4318 158.159ZM87.581 159.013V157.879H88.323C89.2936 157.879 89.779 157.37 89.779 156.353V150.627L90.997 149.983V156.367C90.997 157.197 90.7496 157.855 90.255 158.341C89.7883 158.789 89.177 159.013 88.421 159.013H87.581ZM93.5129 159.013V150.627L94.7169 149.983V159.013H93.5129ZM103.929 157.879H104.853V159.013H103.789C103.313 159.013 102.903 158.919 102.557 158.733C102.473 159.657 102.151 160.394 101.591 160.945C101.078 161.449 100.434 161.701 99.6593 161.701C99.0993 161.701 98.5533 161.561 98.0213 161.281V160.231C98.4973 160.492 98.9733 160.623 99.4493 160.623C100.047 160.623 100.513 160.422 100.849 160.021C101.185 159.619 101.353 159.064 101.353 158.355V153.581L102.557 152.937V152.951L102.571 152.937V156.759C102.655 157.505 103.108 157.879 103.929 157.879ZM108.257 151.243C107.799 151.243 107.571 151.009 107.571 150.543C107.571 150.085 107.799 149.857 108.257 149.857C108.705 149.857 108.929 150.085 108.929 150.543C108.929 151.009 108.705 151.243 108.257 151.243ZM104.015 159.013V157.879H105.933C107.827 157.879 109.325 157.253 110.427 156.003C109.652 154.575 108.709 153.861 107.599 153.861C106.843 153.861 106.063 154.262 105.261 155.065V153.945C106.045 153.151 106.875 152.755 107.753 152.755C108.471 152.755 109.167 153.016 109.839 153.539C110.511 154.052 111.103 154.789 111.617 155.751V156.367C110.245 158.131 108.345 159.013 105.919 159.013H104.015ZM115.935 148.485C115.609 148.97 115.263 149.213 114.899 149.213C114.685 149.213 114.419 149.115 114.101 148.919C113.868 148.769 113.695 148.695 113.583 148.695C113.425 148.695 113.229 148.844 112.995 149.143L112.533 148.793C112.869 148.317 113.219 148.079 113.583 148.079C113.77 148.079 114.013 148.172 114.311 148.359C114.554 148.508 114.745 148.583 114.885 148.583C115.035 148.583 115.24 148.433 115.501 148.135L115.935 148.485ZM113.583 159.013V150.627L114.787 149.983V159.013H113.583ZM128.648 159.013C128.554 159.834 128.106 160.492 127.304 160.987C126.557 161.444 125.605 161.673 124.448 161.673C122.973 161.673 121.862 161.243 121.116 160.385C120.565 159.75 120.29 158.966 120.29 158.033C120.29 157.249 120.486 156.577 120.878 156.017L122.04 155.765C121.62 156.427 121.41 157.141 121.41 157.907C121.41 158.737 121.68 159.391 122.222 159.867C122.754 160.343 123.496 160.581 124.448 160.581C125.25 160.581 125.913 160.441 126.436 160.161C126.958 159.881 127.276 159.498 127.388 159.013H125.988L126.576 157.879H128.69V159.013H128.648ZM132.728 157.879H133.652V159.013H132.588C131.785 159.013 131.165 158.756 130.726 158.243C130.259 158.756 129.615 159.013 128.794 159.013H127.954V157.879H128.696C129.667 157.879 130.152 157.37 130.152 156.353V150.627L131.37 149.983V156.367C131.37 156.908 131.473 157.295 131.678 157.529C131.893 157.762 132.243 157.879 132.728 157.879ZM140.354 157.879V159.013H132.808V157.879H135.23C134.772 157.291 134.544 156.567 134.544 155.709C134.544 154.757 134.87 154.001 135.524 153.441C136.056 152.993 136.672 152.764 137.372 152.755C138.361 152.755 139.131 153.151 139.682 153.945V155.079C139.084 154.276 138.361 153.875 137.512 153.875C136.98 153.875 136.55 154.047 136.224 154.393C135.906 154.729 135.748 155.181 135.748 155.751C135.748 156.395 135.939 156.913 136.322 157.305C136.714 157.687 137.232 157.879 137.876 157.879H140.354ZM148.711 158.677C147.825 159.209 147.288 159.573 147.101 159.769C146.728 160.133 146.541 160.585 146.541 161.127C146.541 161.724 146.747 162.205 147.157 162.569C147.568 162.942 148.1 163.129 148.753 163.129C149.78 163.119 150.639 162.872 151.329 162.387V163.521C150.527 164.015 149.649 164.263 148.697 164.263C147.661 164.263 146.831 163.922 146.205 163.241C145.664 162.662 145.393 161.948 145.393 161.099C145.393 160.464 145.561 159.923 145.897 159.475C146.233 159.036 146.826 158.574 147.675 158.089C146.91 157.529 146.126 156.651 145.323 155.457V154.841C145.781 154.187 146.317 153.679 146.933 153.315C147.549 152.941 148.175 152.755 148.809 152.755C149.435 152.755 150.06 152.946 150.685 153.329C151.311 153.702 151.847 154.215 152.295 154.869V155.457C151.819 156.175 151.031 156.973 149.929 157.851C150.135 157.869 150.298 157.879 150.419 157.879H154.115L154.129 159.013H150.321C149.771 159.013 149.234 158.901 148.711 158.677ZM146.443 155.163C147.283 156.311 148.049 157.071 148.739 157.445C149.645 156.829 150.457 156.059 151.175 155.135C150.485 154.295 149.696 153.87 148.809 153.861C147.913 153.861 147.125 154.295 146.443 155.163ZM158.062 157.879H158.986V159.013H157.922C157.119 159.013 156.499 158.756 156.06 158.243C155.593 158.756 154.949 159.013 154.128 159.013H153.288V157.879H154.03C155.001 157.879 155.486 157.37 155.486 156.353V150.627L156.704 149.983V156.367C156.704 156.908 156.807 157.295 157.012 157.529C157.227 157.762 157.577 157.879 158.062 157.879ZM170.658 157.879H171.582V159.013H170.518C169.771 159.013 169.188 158.793 168.768 158.355C168.385 158.793 167.844 159.013 167.144 159.013H158.142V157.879H160.746L160.788 157.725V150.627L161.992 149.983V155.107C163.056 153.539 164.376 152.755 165.954 152.755C167.008 152.755 167.853 153.123 168.488 153.861C169.029 154.486 169.3 155.256 169.3 156.171V156.507C169.3 157.421 169.752 157.879 170.658 157.879ZM168.082 156.563V156.171C168.082 155.443 167.858 154.864 167.41 154.435C167.027 154.061 166.546 153.875 165.968 153.875C165.006 153.875 164.138 154.309 163.364 155.177C162.785 155.83 162.328 156.647 161.992 157.627V157.879H167.046C167.447 157.879 167.718 157.785 167.858 157.599C168.007 157.412 168.082 157.067 168.082 156.563ZM173.043 155.219C173.043 154.407 173.286 153.777 173.771 153.329C174.2 152.946 174.76 152.755 175.451 152.755C176.338 152.755 177.019 153.081 177.495 153.735C177.906 154.285 178.111 155.004 178.111 155.891C178.111 156.899 177.85 157.687 177.327 158.257C176.87 158.761 176.272 159.013 175.535 159.013C174.695 159.013 174.056 158.779 173.617 158.313C173.169 158.779 172.567 159.013 171.811 159.013H170.747V157.879H171.671C172.586 157.879 173.043 157.412 173.043 156.479V155.219ZM174.247 156.577C174.247 157.445 174.672 157.879 175.521 157.879C175.96 157.879 176.3 157.701 176.543 157.347C176.795 156.992 176.921 156.497 176.921 155.863C176.921 155.237 176.79 154.752 176.529 154.407C176.268 154.052 175.908 153.875 175.451 153.875C174.648 153.875 174.247 154.341 174.247 155.275V156.577ZM190.917 157.879H191.855V159.013H190.791C190.035 159.013 189.433 158.779 188.985 158.313C188.546 158.761 187.925 158.994 187.123 159.013H185.289C184.374 159.013 183.917 159.479 183.917 160.413V162.779L182.713 163.423V160.371C182.713 159.596 182.937 158.985 183.385 158.537C183.786 158.126 184.318 157.907 184.981 157.879C184.645 157.337 184.477 156.675 184.477 155.891C184.477 154.873 184.743 154.08 185.275 153.511C185.751 153.007 186.376 152.755 187.151 152.755C187.944 152.755 188.555 153.002 188.985 153.497C189.367 153.935 189.559 154.509 189.559 155.219V156.479C189.559 157.412 190.011 157.879 190.917 157.879ZM188.355 156.577V155.275C188.355 154.341 187.953 153.875 187.151 153.875C186.684 153.875 186.32 154.052 186.059 154.407C185.807 154.752 185.681 155.237 185.681 155.863C185.681 156.497 185.802 156.992 186.045 157.347C186.287 157.701 186.628 157.879 187.067 157.879C187.925 157.879 188.355 157.445 188.355 156.577ZM191.009 159.013V157.879H191.933C192.847 157.879 193.305 157.412 193.305 156.479V153.581L194.509 152.937V156.521C194.509 157.314 194.271 157.939 193.795 158.397C193.356 158.807 192.782 159.013 192.073 159.013H191.009ZM191.751 161.799C191.293 161.799 191.065 161.565 191.065 161.099C191.065 160.641 191.293 160.413 191.751 160.413C192.199 160.413 192.423 160.641 192.423 161.099C192.423 161.565 192.199 161.799 191.751 161.799ZM193.529 161.799C193.071 161.799 192.843 161.565 192.843 161.099C192.843 160.641 193.071 160.413 193.529 160.413C193.977 160.413 194.201 160.641 194.201 161.099C194.201 161.565 193.977 161.799 193.529 161.799ZM197.023 159.013V150.627L198.227 149.983V159.013H197.023ZM199.621 159.013L200.209 157.879H202.701C203.075 157.879 203.336 157.785 203.485 157.599C203.644 157.412 203.723 157.09 203.723 156.633C203.723 155.382 203.159 154.435 202.029 153.791L202.617 152.797C204.157 153.674 204.927 154.957 204.927 156.647C204.927 158.224 204.255 159.013 202.911 159.013H199.621ZM221.565 157.879H222.489V159.013H221.425C220.641 159.013 220.034 158.77 219.605 158.285C219.147 158.77 218.536 159.013 217.771 159.013H212.773C212.017 159.013 211.424 158.761 210.995 158.257C210.621 157.818 210.435 157.244 210.435 156.535V154.841L211.639 154.197V156.423C211.639 157.393 212.091 157.879 212.997 157.879H217.645C218.541 157.879 218.989 157.393 218.989 156.423V150.627L220.207 149.983V156.479C220.207 157.412 220.659 157.879 221.565 157.879ZM215.391 152.195C216.193 152.232 216.595 152.629 216.595 153.385C216.595 153.711 216.497 153.973 216.301 154.169C216.114 154.365 215.862 154.463 215.545 154.463H213.697L214.019 153.861H215.489C215.825 153.861 215.993 153.693 215.993 153.357C215.993 152.946 215.731 152.741 215.209 152.741C214.938 152.741 214.691 152.806 214.467 152.937V152.377L215.643 151.075H216.385L215.391 152.195ZM226.421 157.879H227.345V159.013H226.281C225.479 159.013 224.858 158.756 224.419 158.243C223.953 158.756 223.309 159.013 222.487 159.013H221.647V157.879H222.389C223.36 157.879 223.845 157.37 223.845 156.353V150.627L225.063 149.983V156.367C225.063 156.908 225.166 157.295 225.371 157.529C225.586 157.762 225.936 157.879 226.421 157.879ZM230.743 151.243C230.286 151.243 230.057 151.009 230.057 150.543C230.057 150.085 230.286 149.857 230.743 149.857C231.191 149.857 231.415 150.085 231.415 150.543C231.415 151.009 231.191 151.243 230.743 151.243ZM226.501 159.013V157.879H228.419C230.314 157.879 231.812 157.253 232.913 156.003C232.138 154.575 231.196 153.861 230.085 153.861C229.329 153.861 228.55 154.262 227.747 155.065V153.945C228.531 153.151 229.362 152.755 230.239 152.755C230.958 152.755 231.653 153.016 232.325 153.539C232.997 154.052 233.59 154.789 234.103 155.751V156.367C232.731 158.131 230.832 159.013 228.405 159.013H226.501ZM239.351 158.341C239.351 158.331 239.351 158.322 239.351 158.313C239.37 157.846 239.617 157.613 240.093 157.613C240.588 157.613 240.835 157.855 240.835 158.341C240.835 158.835 240.588 159.083 240.093 159.083C239.598 159.083 239.351 158.835 239.351 158.341ZM250.511 158.131C250.511 159.241 250.124 160.128 249.349 160.791C248.668 161.379 247.8 161.673 246.745 161.673C245.494 161.673 244.528 161.253 243.847 160.413C243.324 159.759 243.063 158.98 243.063 158.075C243.063 157.281 243.254 156.605 243.637 156.045L244.841 155.779C244.412 156.441 244.197 157.165 244.197 157.949C244.197 158.723 244.444 159.358 244.939 159.853C245.396 160.31 245.998 160.539 246.745 160.539C247.594 160.539 248.248 160.287 248.705 159.783C249.097 159.353 249.293 158.803 249.293 158.131V150.627L250.511 149.983V158.131ZM256.48 158.565C256.126 158.705 255.692 158.775 255.178 158.775C254.348 158.775 253.694 158.462 253.218 157.837C252.817 157.305 252.616 156.637 252.616 155.835C252.616 154.845 252.882 154.071 253.414 153.511C253.89 153.007 254.516 152.755 255.29 152.755C256.084 152.755 256.695 153.002 257.124 153.497C257.507 153.935 257.698 154.509 257.698 155.219V158.271C257.698 159.325 257.423 160.161 256.872 160.777C256.35 161.355 255.654 161.645 254.786 161.645C254.208 161.645 253.662 161.509 253.148 161.239V160.175C253.643 160.436 254.133 160.567 254.618 160.567C255.169 160.567 255.608 160.389 255.934 160.035C256.261 159.689 256.443 159.199 256.48 158.565ZM256.48 155.275C256.48 154.341 256.084 153.875 255.29 153.875C254.824 153.875 254.455 154.047 254.184 154.393C253.923 154.738 253.792 155.209 253.792 155.807C253.792 156.395 253.918 156.866 254.17 157.221C254.432 157.566 254.782 157.739 255.22 157.739C255.836 157.739 256.256 157.566 256.48 157.221V155.275ZM259.335 149.787L259.657 149.185H260.035C259.942 149.017 259.895 148.839 259.895 148.653C259.895 148.382 259.998 148.149 260.203 147.953C260.409 147.747 260.647 147.645 260.917 147.645C261.151 147.645 261.375 147.719 261.589 147.869V148.485C261.393 148.326 261.197 148.247 261.001 148.247C260.656 148.247 260.483 148.405 260.483 148.723C260.483 148.872 260.553 149.026 260.693 149.185H261.967L261.645 149.787H259.335ZM262.513 159.013C261.701 159.013 261.076 158.751 260.637 158.229C260.264 157.781 260.077 157.211 260.077 156.521V151.187L261.281 150.543V156.479C261.281 157.412 261.739 157.879 262.653 157.879H263.577V159.013H262.513ZM262.731 159.013V157.879H263.655C264.57 157.879 265.027 157.412 265.027 156.479V153.581L266.231 152.937V156.521C266.231 157.314 265.993 157.939 265.517 158.397C265.079 158.807 264.505 159.013 263.795 159.013H262.731ZM264.985 161.799C264.528 161.799 264.299 161.565 264.299 161.099C264.299 160.641 264.528 160.413 264.985 160.413C265.433 160.413 265.657 160.641 265.657 161.099C265.657 161.565 265.433 161.799 264.985 161.799Z" fill="#443818" fill-opacity="0.52"/>
</svg>
