<svg width="314" height="209" viewBox="0 0 314 209" fill="none" xmlns="http://www.w3.org/2000/svg">
<path d="M172.028 66.75L179.926 51.397H182.48L174.582 66.75H172.028ZM174.947 55.5676C174.947 56.871 174.652 57.9136 174.061 58.6956C173.47 59.4776 172.68 59.8686 171.689 59.8686C170.646 59.8686 169.83 59.4949 169.239 58.7477C168.648 57.9831 168.353 56.9318 168.353 55.5937C168.353 54.3252 168.648 53.3259 169.239 52.5961C169.847 51.8662 170.664 51.5013 171.689 51.5013C172.645 51.5013 173.427 51.8836 174.035 52.6482C174.643 53.3955 174.947 54.3686 174.947 55.5676ZM173.044 55.6198C173.044 54.9421 172.905 54.3773 172.627 53.9255C172.367 53.4563 172.037 53.2217 171.637 53.2217C171.237 53.2217 170.898 53.4476 170.62 53.8994C170.36 54.3512 170.229 54.9247 170.229 55.6198C170.229 56.367 170.36 56.9839 170.62 57.4705C170.881 57.9397 171.22 58.1743 171.637 58.1743C172.054 58.1743 172.393 57.9397 172.653 57.4705C172.914 56.9839 173.044 56.367 173.044 55.6198ZM185.999 62.5273C185.999 63.8306 185.704 64.8733 185.113 65.6553C184.522 66.4372 183.732 66.8282 182.741 66.8282C181.698 66.8282 180.882 66.4459 180.291 65.6813C179.7 64.9167 179.405 63.8741 179.405 62.5534C179.405 61.2848 179.7 60.2856 180.291 59.5558C180.899 58.8085 181.716 58.4349 182.741 58.4349C183.697 58.4349 184.479 58.8172 185.087 59.5818C185.695 60.3464 185.999 61.3283 185.999 62.5273ZM184.07 62.5794C184.07 61.9017 183.94 61.337 183.679 60.8851C183.419 60.416 183.089 60.1814 182.689 60.1814C182.272 60.1814 181.933 60.4073 181.672 60.8591C181.412 61.2935 181.281 61.867 181.281 62.5794C181.281 63.3267 181.412 63.9436 181.672 64.4302C181.933 64.8993 182.272 65.1339 182.689 65.1339C183.089 65.1339 183.419 64.8993 183.679 64.4302C183.94 63.9436 184.07 63.3267 184.07 62.5794Z" fill="#000B2E"/>
<path d="M159.608 49.9373C161.624 49.9373 163.24 50.9018 164.457 52.8307C165.482 54.4294 165.995 56.3322 165.995 58.5392C165.995 61.1979 165.343 63.3267 164.04 64.9254C162.893 66.3503 161.416 67.0628 159.608 67.0628C157.54 67.0628 155.924 66.1418 154.76 64.2998C153.787 62.7706 153.3 60.8504 153.3 58.5392C153.3 55.9673 153.943 53.8559 155.229 52.2051C156.393 50.6932 157.853 49.9373 159.608 49.9373ZM159.66 52.8567C157.784 52.8567 156.845 54.6987 156.845 58.3828C156.845 60.2422 157.115 61.7019 157.653 62.7619C158.14 63.7176 158.783 64.1955 159.582 64.1955C160.468 64.1955 161.164 63.6829 161.668 62.6576C162.189 61.615 162.45 60.19 162.45 58.3828C162.45 54.6987 161.52 52.8567 159.66 52.8567Z" fill="#000B2E"/>
<path d="M144.92 49.9373C146.936 49.9373 148.552 50.9018 149.769 52.8307C150.794 54.4294 151.307 56.3322 151.307 58.5392C151.307 61.1979 150.655 63.3267 149.352 64.9254C148.205 66.3503 146.728 67.0628 144.92 67.0628C142.852 67.0628 141.236 66.1418 140.072 64.2998C139.099 62.7706 138.612 60.8504 138.612 58.5392C138.612 55.9673 139.255 53.8559 140.541 52.2051C141.705 50.6932 143.165 49.9373 144.92 49.9373ZM144.972 52.8567C143.096 52.8567 142.157 54.6987 142.157 58.3828C142.157 60.2422 142.427 61.7019 142.965 62.7619C143.452 63.7176 144.095 64.1955 144.894 64.1955C145.781 64.1955 146.476 63.6829 146.98 62.6576C147.501 61.615 147.762 60.19 147.762 58.3828C147.762 54.6987 146.832 52.8567 144.972 52.8567Z" fill="#000B2E"/>
<path d="M135.533 50.2501V66.75H132.118V54.134C131.875 54.2904 131.519 54.5076 131.05 54.7856C130.372 55.1853 129.885 55.4894 129.59 55.6979C129.364 55.3156 128.982 54.6814 128.443 53.7951L128.287 53.5605C128.165 53.3346 128.07 53.1695 128 53.0653C128.556 52.6656 129.434 52.0661 130.633 51.2667C131.258 50.8496 131.754 50.5108 132.118 50.2501H135.533Z" fill="#000B2E"/>
<path d="M98.3934 84.7628C97.9934 84.7628 97.6734 84.6428 97.4334 84.4028C97.1934 84.1628 97.0734 83.8361 97.0734 83.4228C97.0734 82.5561 97.5134 82.1228 98.3934 82.1228C98.7934 82.1228 99.1067 82.2428 99.3334 82.4828C99.5734 82.7095 99.6934 83.0228 99.6934 83.4228C99.6934 84.3161 99.26 84.7628 98.3934 84.7628ZM101.473 84.7628C101.073 84.7628 100.753 84.6428 100.513 84.4028C100.273 84.1628 100.153 83.8361 100.153 83.4228C100.153 82.5561 100.593 82.1228 101.473 82.1228C101.873 82.1228 102.187 82.2428 102.413 82.4828C102.653 82.7095 102.773 83.0228 102.773 83.4228C102.773 84.3161 102.34 84.7628 101.473 84.7628ZM104.853 93.6428H106.653V96.0628H104.613C103.373 96.0628 102.413 95.6495 101.733 94.8228C101.16 95.2628 100.46 95.4828 99.6334 95.4828C98.4067 95.4828 97.4267 95.0228 96.6934 94.1028C96.0934 93.3428 95.7934 92.4295 95.7934 91.3628C95.7934 90.0428 96.22 88.9695 97.0734 88.1428C97.7934 87.4495 98.6267 87.1028 99.5734 87.1028C100.067 87.1028 100.52 87.1961 100.933 87.3828V86.8628L103.433 85.5428V92.2028C103.433 92.7228 103.54 93.0961 103.753 93.3228C103.98 93.5361 104.347 93.6428 104.853 93.6428ZM100.933 89.9028C100.587 89.6095 100.193 89.4628 99.7534 89.4628C99.3134 89.4628 98.9534 89.6428 98.6734 90.0028C98.4067 90.3628 98.2734 90.8361 98.2734 91.4228C98.2734 92.0095 98.4067 92.4761 98.6734 92.8228C98.94 93.1695 99.3067 93.3428 99.7734 93.3428C100.28 93.3428 100.673 93.1695 100.953 92.8228C100.94 92.7161 100.933 92.5495 100.933 92.3228V89.9028ZM110.553 85.4228C110.153 85.4228 109.833 85.3028 109.593 85.0628C109.353 84.8228 109.233 84.4961 109.233 84.0828C109.233 83.2161 109.673 82.7828 110.553 82.7828C110.953 82.7828 111.266 82.9028 111.493 83.1428C111.733 83.3695 111.853 83.6828 111.853 84.0828C111.853 84.9761 111.419 85.4228 110.553 85.4228ZM113.633 85.4228C113.233 85.4228 112.913 85.3028 112.673 85.0628C112.433 84.8228 112.313 84.4961 112.313 84.0828C112.313 83.2161 112.753 82.7828 113.633 82.7828C114.033 82.7828 114.346 82.9028 114.573 83.1428C114.813 83.3695 114.933 83.6828 114.933 84.0828C114.933 84.9761 114.499 85.4228 113.633 85.4228ZM105.453 96.0628V93.6428H108.653C108.253 93.0561 108.053 92.3228 108.053 91.4428C108.053 89.9761 108.453 88.8161 109.253 87.9628C109.973 87.2161 110.913 86.8428 112.073 86.8428C113.259 86.8428 114.179 87.2228 114.833 87.9828C115.419 88.6361 115.713 89.4895 115.713 90.5428V92.3428C115.699 93.4895 115.359 94.3961 114.693 95.0628C114.039 95.7295 113.153 96.0628 112.033 96.0628H105.453ZM113.193 90.5028C113.193 89.6228 112.819 89.1828 112.073 89.1828C111.046 89.1828 110.533 89.9095 110.533 91.3628C110.533 92.8828 111.026 93.6428 112.013 93.6428C112.799 93.6428 113.193 93.2161 113.193 92.3628V90.5028ZM128.622 93.6428V96.0628H126.162C126.069 97.2628 125.536 98.2228 124.562 98.9428C123.762 99.5295 122.829 99.8228 121.762 99.8228C120.922 99.8228 120.102 99.5961 119.302 99.1428V96.9628C120.022 97.3761 120.742 97.5828 121.462 97.5828C122.022 97.5828 122.516 97.4295 122.942 97.1228C123.382 96.8161 123.622 96.4495 123.662 96.0228C123.556 96.0095 123.389 95.9961 123.162 95.9828C122.936 95.9561 122.762 95.9361 122.642 95.9228C121.269 95.7761 120.209 95.2361 119.462 94.3028C118.836 93.5161 118.522 92.5628 118.522 91.4428C118.522 89.9761 118.922 88.8161 119.722 87.9628C120.429 87.2161 121.362 86.8428 122.522 86.8428C123.709 86.8428 124.636 87.2228 125.302 87.9828C125.876 88.6361 126.162 89.4895 126.162 90.5428V93.6428H128.622ZM123.662 90.5028C123.662 89.6228 123.282 89.1828 122.522 89.1828C121.509 89.1828 121.002 89.9095 121.002 91.3628C121.002 92.6561 121.589 93.3761 122.762 93.5228C122.949 93.5628 123.249 93.5961 123.662 93.6228V90.5028ZM130.385 82.2228C129.585 82.2228 129.185 81.8161 129.185 81.0028C129.185 80.2161 129.585 79.8228 130.385 79.8228C131.172 79.8228 131.565 80.2161 131.565 81.0028C131.565 81.8161 131.172 82.2228 130.385 82.2228ZM128.865 85.1628C128.465 85.1628 128.145 85.0428 127.905 84.8028C127.665 84.5628 127.545 84.2361 127.545 83.8228C127.545 82.9561 127.985 82.5228 128.865 82.5228C129.265 82.5228 129.579 82.6428 129.805 82.8828C130.045 83.1095 130.165 83.4228 130.165 83.8228C130.165 84.7161 129.732 85.1628 128.865 85.1628ZM131.945 85.1628C131.545 85.1628 131.225 85.0428 130.985 84.8028C130.745 84.5628 130.625 84.2361 130.625 83.8228C130.625 82.9561 131.065 82.5228 131.945 82.5228C132.345 82.5228 132.659 82.6428 132.885 82.8828C133.125 83.1095 133.245 83.4228 133.245 83.8228C133.245 84.7161 132.812 85.1628 131.945 85.1628ZM127.425 96.0628V93.6428H129.225C129.732 93.6428 130.092 93.5361 130.305 93.3228C130.519 93.0961 130.625 92.7228 130.625 92.2028V88.5028L133.145 87.1828V92.3228C133.145 93.5361 132.772 94.4828 132.025 95.1628C131.372 95.7628 130.519 96.0628 129.465 96.0628H127.425ZM146.239 93.6428V96.0628H143.779C143.686 97.2628 143.153 98.2228 142.179 98.9428C141.379 99.5295 140.446 99.8228 139.379 99.8228C138.539 99.8228 137.719 99.5961 136.919 99.1428V96.9628C137.639 97.3761 138.359 97.5828 139.079 97.5828C139.639 97.5828 140.133 97.4295 140.559 97.1228C140.999 96.8161 141.239 96.4495 141.279 96.0228C141.173 96.0095 141.006 95.9961 140.779 95.9828C140.553 95.9561 140.379 95.9361 140.259 95.9228C138.886 95.7761 137.826 95.2361 137.079 94.3028C136.453 93.5161 136.139 92.5628 136.139 91.4428C136.139 89.9761 136.539 88.8161 137.339 87.9628C138.046 87.2161 138.979 86.8428 140.139 86.8428C141.326 86.8428 142.253 87.2228 142.919 87.9828C143.493 88.6361 143.779 89.4895 143.779 90.5428V93.6428H146.239ZM141.279 90.5028C141.279 89.6228 140.899 89.1828 140.139 89.1828C139.126 89.1828 138.619 89.9095 138.619 91.3628C138.619 92.6561 139.206 93.3761 140.379 93.5228C140.566 93.5628 140.866 93.5961 141.279 93.6228V90.5028ZM148.243 90.5428C148.243 89.3428 148.616 88.4028 149.363 87.7228C150.016 87.1361 150.856 86.8428 151.883 86.8428C153.203 86.8428 154.229 87.3295 154.963 88.3028C155.589 89.1161 155.903 90.1628 155.903 91.4428C155.903 92.9228 155.509 94.0895 154.723 94.9428C154.016 95.6895 153.116 96.0628 152.023 96.0628C150.956 96.0628 150.083 95.8295 149.403 95.3628C148.763 95.8295 147.989 96.0628 147.083 96.0628H145.043V93.6428H146.843C147.349 93.6428 147.709 93.5361 147.923 93.3228C148.136 93.0961 148.243 92.7228 148.243 92.2028V90.5428ZM150.763 92.5228C150.763 93.2695 151.156 93.6428 151.943 93.6428C152.929 93.6428 153.423 92.8828 153.423 91.3628C153.423 89.9095 152.909 89.1828 151.883 89.1828C151.136 89.1828 150.763 89.6228 150.763 90.5028V92.5228ZM167.605 94.8228C167.605 96.3695 167.178 97.6228 166.325 98.5828C165.538 99.4761 164.498 99.9228 163.205 99.9228C162.365 99.9228 161.545 99.7095 160.745 99.2828V97.0828C161.438 97.4695 162.118 97.6628 162.785 97.6628C163.518 97.6628 164.085 97.4228 164.485 96.9428C164.898 96.4761 165.105 95.8228 165.105 94.9828V88.5228L167.605 87.1828V94.8228ZM169.612 96.0628L170.872 93.6428H174.032C174.712 93.6428 175.052 93.2495 175.052 92.4628C175.052 90.9828 174.345 89.8495 172.932 89.0628L174.172 86.9428C176.439 88.2761 177.572 90.1295 177.572 92.5028C177.572 94.8761 176.545 96.0628 174.492 96.0628H169.612ZM184.423 96.0628C183.21 96.0628 182.27 95.6761 181.603 94.9028C181.03 94.2361 180.743 93.3761 180.743 92.3228V84.4828L183.263 83.1628V92.2028C183.263 92.7228 183.37 93.0961 183.583 93.3228C183.797 93.5361 184.157 93.6428 184.663 93.6428H186.463V96.0628H184.423ZM205.857 93.6428H207.657V96.0628H205.617C204.644 96.0628 203.837 95.8028 203.197 95.2828C202.557 95.8028 201.751 96.0628 200.777 96.0628H192.137C191.164 96.0628 190.357 95.8028 189.717 95.2828C189.077 95.8028 188.271 96.0628 187.297 96.0628H185.257V93.6428H187.057C187.564 93.6428 187.924 93.5361 188.137 93.3228C188.351 93.0961 188.457 92.7228 188.457 92.2028V89.5628L190.977 88.2428V92.2028C190.977 93.0561 191.317 93.5295 191.997 93.6228C192.637 91.6761 193.571 90.0961 194.797 88.8828C196.157 87.5228 197.717 86.8428 199.477 86.8428C201.051 86.8428 202.311 87.3895 203.257 88.4828C204.057 89.4028 204.457 90.5428 204.457 91.9028V92.3228C204.457 93.2028 204.924 93.6428 205.857 93.6428ZM200.677 93.6428C201.157 93.6428 201.484 93.5428 201.657 93.3428C201.844 93.1295 201.937 92.7428 201.937 92.1828V91.9028C201.937 91.1028 201.711 90.4495 201.257 89.9428C200.804 89.4361 200.217 89.1828 199.497 89.1828C198.457 89.1828 197.484 89.5828 196.577 90.3828C195.684 91.1828 194.977 92.2695 194.457 93.6428H200.677ZM209.649 90.5428C209.649 89.3428 210.022 88.4028 210.769 87.7228C211.422 87.1361 212.262 86.8428 213.289 86.8428C214.609 86.8428 215.635 87.3295 216.369 88.3028C216.995 89.1161 217.309 90.1628 217.309 91.4428C217.309 92.9228 216.915 94.0895 216.129 94.9428C215.422 95.6895 214.522 96.0628 213.429 96.0628C212.362 96.0628 211.489 95.8295 210.809 95.3628C210.169 95.8295 209.395 96.0628 208.489 96.0628H206.449V93.6428H208.249C208.755 93.6428 209.115 93.5361 209.329 93.3228C209.542 93.0961 209.649 92.7228 209.649 92.2028V90.5428ZM212.169 92.5228C212.169 93.2695 212.562 93.6428 213.349 93.6428C214.335 93.6428 214.829 92.8828 214.829 91.3628C214.829 89.9095 214.315 89.1828 213.289 89.1828C212.542 89.1828 212.169 89.6228 212.169 90.5028V92.5228Z" fill="#000B2E"/>
<rect x="131" y="112.063" width="52" height="2" rx="1" fill="#CED8F5"/>
<path d="M52.2768 131.153C51.8195 131.153 51.5908 130.919 51.5908 130.453C51.5908 129.995 51.8195 129.767 52.2768 129.767C52.7248 129.767 52.9488 129.995 52.9488 130.453C52.9488 130.919 52.7248 131.153 52.2768 131.153ZM54.0548 131.153C53.5975 131.153 53.3688 130.919 53.3688 130.453C53.3688 129.995 53.5975 129.767 54.0548 129.767C54.5028 129.767 54.7268 129.995 54.7268 130.453C54.7268 130.919 54.5028 131.153 54.0548 131.153ZM56.6588 137.929H57.5828V139.063H56.5188C55.5575 139.063 54.8668 138.708 54.4468 137.999C53.9988 138.428 53.4435 138.643 52.7808 138.643C51.9595 138.643 51.3062 138.335 50.8208 137.719C50.4195 137.196 50.2188 136.557 50.2188 135.801C50.2188 134.895 50.4942 134.167 51.0448 133.617C51.5115 133.141 52.0808 132.903 52.7528 132.903C53.2662 132.903 53.7095 133.033 54.0828 133.295V132.693L55.3008 132.049V136.529C55.3008 137.462 55.7535 137.929 56.6588 137.929ZM54.0828 134.597C53.7375 134.214 53.3128 134.023 52.8088 134.023C52.3982 134.023 52.0622 134.191 51.8008 134.527C51.5395 134.853 51.4088 135.283 51.4088 135.815C51.4088 136.356 51.5395 136.79 51.8008 137.117C52.0622 137.443 52.4028 137.607 52.8228 137.607C53.3455 137.607 53.7748 137.392 54.1108 136.963C54.0922 136.795 54.0828 136.664 54.0828 136.571V134.597ZM60.402 131.391C59.9446 131.391 59.716 131.157 59.716 130.691C59.716 130.233 59.9446 130.005 60.402 130.005C60.85 130.005 61.074 130.233 61.074 130.691C61.074 131.157 60.85 131.391 60.402 131.391ZM62.18 131.391C61.7226 131.391 61.494 131.157 61.494 130.691C61.494 130.233 61.7226 130.005 62.18 130.005C62.628 130.005 62.852 130.233 62.852 130.691C62.852 131.157 62.628 131.391 62.18 131.391ZM56.748 139.063V137.929H59.268C58.8386 137.453 58.624 136.79 58.624 135.941C58.624 134.923 58.89 134.13 59.422 133.561C59.8886 133.057 60.5093 132.805 61.284 132.805C62.0773 132.805 62.6933 133.052 63.132 133.547C63.5053 133.985 63.692 134.559 63.692 135.269V136.599C63.6826 137.373 63.454 137.985 63.006 138.433C62.5673 138.853 61.984 139.063 61.256 139.063H56.748ZM62.488 135.325C62.488 134.391 62.0866 133.925 61.284 133.925C60.8266 133.925 60.4673 134.102 60.206 134.457C59.9446 134.802 59.814 135.287 59.814 135.913C59.814 136.529 59.94 137.019 60.192 137.383C60.444 137.747 60.78 137.929 61.2 137.929C62.0586 137.929 62.488 137.481 62.488 136.585V135.325ZM72.6085 137.929V139.063H70.8725C70.8352 139.865 70.4899 140.528 69.8365 141.051C69.2859 141.48 68.6605 141.695 67.9605 141.695C67.3819 141.695 66.8359 141.559 66.3225 141.289V140.225C66.8172 140.486 67.3072 140.617 67.7925 140.617C68.2872 140.617 68.7165 140.463 69.0805 140.155C69.4539 139.847 69.6452 139.478 69.6545 139.049C69.1692 139.03 68.8099 139.011 68.5765 138.993C67.5685 138.937 66.8079 138.596 66.2945 137.971C65.8652 137.448 65.6505 136.771 65.6505 135.941C65.6505 134.923 65.9212 134.13 66.4625 133.561C66.9479 133.057 67.5872 132.805 68.3805 132.805C69.2112 132.805 69.8505 133.052 70.2985 133.547C70.6812 133.985 70.8725 134.559 70.8725 135.269V137.929H72.6085ZM69.6545 135.353C69.6545 134.401 69.2299 133.925 68.3805 133.925C67.8952 133.925 67.5172 134.102 67.2465 134.457C66.9759 134.802 66.8405 135.287 66.8405 135.913C66.8405 137.135 67.4379 137.784 68.6325 137.859C68.8565 137.887 69.1972 137.91 69.6545 137.929V135.353ZM73.7334 129.627C73.3227 129.627 73.1174 129.417 73.1174 128.997C73.1174 128.586 73.3227 128.381 73.7334 128.381C74.144 128.381 74.3494 128.586 74.3494 128.997C74.3494 129.417 74.144 129.627 73.7334 129.627ZM72.8514 131.293C72.394 131.293 72.1654 131.059 72.1654 130.593C72.1654 130.135 72.394 129.907 72.8514 129.907C73.2994 129.907 73.5234 130.135 73.5234 130.593C73.5234 131.059 73.2994 131.293 72.8514 131.293ZM74.6294 131.293C74.172 131.293 73.9434 131.059 73.9434 130.593C73.9434 130.135 74.172 129.907 74.6294 129.907C75.0774 129.907 75.3014 130.135 75.3014 130.593C75.3014 131.059 75.0774 131.293 74.6294 131.293ZM71.7734 139.063V137.929H72.6974C73.612 137.929 74.0694 137.462 74.0694 136.529V133.631L75.2734 132.987V136.571C75.2734 137.364 75.0354 137.989 74.5594 138.447C74.1207 138.857 73.5467 139.063 72.8374 139.063H71.7734ZM84.3253 137.929V139.063H82.5893C82.552 139.865 82.2067 140.528 81.5533 141.051C81.0027 141.48 80.3773 141.695 79.6773 141.695C79.0987 141.695 78.5527 141.559 78.0393 141.289V140.225C78.534 140.486 79.024 140.617 79.5093 140.617C80.004 140.617 80.4333 140.463 80.7973 140.155C81.1707 139.847 81.362 139.478 81.3713 139.049C80.886 139.03 80.5267 139.011 80.2933 138.993C79.2853 138.937 78.5247 138.596 78.0113 137.971C77.582 137.448 77.3673 136.771 77.3673 135.941C77.3673 134.923 77.638 134.13 78.1793 133.561C78.6647 133.057 79.304 132.805 80.0973 132.805C80.928 132.805 81.5673 133.052 82.0153 133.547C82.398 133.985 82.5893 134.559 82.5893 135.269V137.929H84.3253ZM81.3713 135.353C81.3713 134.401 80.9467 133.925 80.0973 133.925C79.612 133.925 79.234 134.102 78.9633 134.457C78.6927 134.802 78.5573 135.287 78.5573 135.913C78.5573 137.135 79.1547 137.784 80.3493 137.859C80.5733 137.887 80.914 137.91 81.3713 137.929V135.353ZM85.7862 135.269C85.7862 134.457 86.0288 133.827 86.5142 133.379C86.9435 132.996 87.5035 132.805 88.1942 132.805C89.0808 132.805 89.7622 133.131 90.2382 133.785C90.6488 134.335 90.8542 135.054 90.8542 135.941C90.8542 136.949 90.5928 137.737 90.0702 138.307C89.6128 138.811 89.0155 139.063 88.2782 139.063C87.4382 139.063 86.7988 138.829 86.3602 138.363C85.9122 138.829 85.3102 139.063 84.5542 139.063H83.4902V137.929H84.4142C85.3288 137.929 85.7862 137.462 85.7862 136.529V135.269ZM86.9902 136.627C86.9902 137.495 87.4148 137.929 88.2642 137.929C88.7028 137.929 89.0435 137.751 89.2862 137.397C89.5382 137.042 89.6642 136.547 89.6642 135.913C89.6642 135.287 89.5335 134.802 89.2722 134.457C89.0108 134.102 88.6515 133.925 88.1942 133.925C87.3915 133.925 86.9902 134.391 86.9902 135.325V136.627ZM98.5078 138.321C98.5078 139.366 98.2324 140.206 97.6818 140.841C97.1591 141.447 96.4638 141.751 95.5958 141.751C95.0358 141.751 94.4898 141.611 93.9578 141.331V140.281C94.4338 140.542 94.9098 140.673 95.3858 140.673C95.9831 140.673 96.4498 140.472 96.7858 140.071C97.1218 139.669 97.2898 139.114 97.2898 138.405V133.631L98.5078 132.987V138.321ZM99.9095 139.063L100.498 137.929H102.99C103.363 137.929 103.624 137.835 103.774 137.649C103.932 137.462 104.012 137.14 104.012 136.683C104.012 135.432 103.447 134.485 102.318 133.841L102.906 132.847C104.446 133.724 105.216 135.007 105.216 136.697C105.216 138.274 104.544 139.063 103.2 139.063H99.9095ZM109.891 139.063C109.079 139.063 108.454 138.801 108.015 138.279C107.642 137.831 107.455 137.261 107.455 136.571V130.677L108.659 130.033V136.529C108.659 137.462 109.117 137.929 110.031 137.929H110.955V139.063H109.891ZM124.445 137.929H125.369V139.063H124.305C123.521 139.063 122.91 138.82 122.471 138.335C122.033 138.82 121.421 139.063 120.637 139.063H114.841C114.067 139.063 113.455 138.815 113.007 138.321C112.559 138.815 111.948 139.063 111.173 139.063H110.109V137.929H111.033C111.948 137.929 112.405 137.462 112.405 136.529V134.569L113.609 133.925V136.529C113.609 137.313 113.913 137.765 114.519 137.887C114.893 136.477 115.509 135.301 116.367 134.359C117.329 133.323 118.449 132.805 119.727 132.805C120.791 132.805 121.641 133.173 122.275 133.911C122.807 134.536 123.073 135.306 123.073 136.221V136.557C123.073 137.471 123.531 137.929 124.445 137.929ZM120.567 137.929C121.435 137.929 121.869 137.443 121.869 136.473V136.221C121.869 135.493 121.645 134.914 121.197 134.485C120.805 134.111 120.32 133.925 119.741 133.925C118.752 133.925 117.861 134.382 117.067 135.297C116.461 135.997 115.994 136.874 115.667 137.929H120.567ZM126.829 135.269C126.829 134.457 127.072 133.827 127.557 133.379C127.986 132.996 128.546 132.805 129.237 132.805C130.124 132.805 130.805 133.131 131.281 133.785C131.692 134.335 131.897 135.054 131.897 135.941C131.897 136.949 131.636 137.737 131.113 138.307C130.656 138.811 130.058 139.063 129.321 139.063C128.481 139.063 127.842 138.829 127.403 138.363C126.955 138.829 126.353 139.063 125.597 139.063H124.533V137.929H125.457C126.372 137.929 126.829 137.462 126.829 136.529V135.269ZM128.033 136.627C128.033 137.495 128.458 137.929 129.307 137.929C129.746 137.929 130.086 137.751 130.329 137.397C130.581 137.042 130.707 136.547 130.707 135.913C130.707 135.287 130.576 134.802 130.315 134.457C130.054 134.102 129.694 133.925 129.237 133.925C128.434 133.925 128.033 134.391 128.033 135.325V136.627ZM140.727 132.749C140.269 132.749 140.041 132.515 140.041 132.049C140.041 131.591 140.269 131.363 140.727 131.363C141.175 131.363 141.399 131.591 141.399 132.049C141.399 132.515 141.175 132.749 140.727 132.749ZM145.837 137.929H146.761V139.063H145.697C145.211 139.063 144.791 138.965 144.437 138.769C144.325 139.721 143.909 140.463 143.191 140.995C142.547 141.48 141.749 141.723 140.797 141.723C139.583 141.723 138.641 141.293 137.969 140.435C137.455 139.772 137.199 138.988 137.199 138.083C137.199 137.299 137.395 136.627 137.787 136.067L138.949 135.815C138.529 136.477 138.319 137.191 138.319 137.957C138.319 138.741 138.561 139.385 139.047 139.889C139.504 140.355 140.087 140.589 140.797 140.589C141.618 140.589 142.253 140.351 142.701 139.875C143.074 139.473 143.261 138.951 143.261 138.307V133.631L144.465 132.987V136.529C144.465 137.462 144.922 137.929 145.837 137.929ZM148.212 135.269C148.212 134.457 148.455 133.827 148.94 133.379C149.369 132.996 149.929 132.805 150.62 132.805C151.507 132.805 152.188 133.131 152.664 133.785C153.075 134.335 153.28 135.054 153.28 135.941C153.28 136.949 153.019 137.737 152.496 138.307C152.039 138.811 151.441 139.063 150.704 139.063C149.864 139.063 149.225 138.829 148.786 138.363C148.338 138.829 147.736 139.063 146.98 139.063H145.916V137.929H146.84C147.755 137.929 148.212 137.462 148.212 136.529V135.269ZM149.416 136.627C149.416 137.495 149.841 137.929 150.69 137.929C151.129 137.929 151.469 137.751 151.712 137.397C151.964 137.042 152.09 136.547 152.09 135.913C152.09 135.287 151.959 134.802 151.698 134.457C151.437 134.102 151.077 133.925 150.62 133.925C149.817 133.925 149.416 134.391 149.416 135.325V136.627ZM161.298 139.063C160.486 139.063 159.86 138.801 159.422 138.279C159.048 137.831 158.862 137.261 158.862 136.571V130.677L160.066 130.033V136.529C160.066 137.462 160.523 137.929 161.438 137.929H162.362V139.063H161.298ZM164.372 131.293C163.914 131.293 163.686 131.059 163.686 130.593C163.686 130.135 163.914 129.907 164.372 129.907C164.82 129.907 165.044 130.135 165.044 130.593C165.044 131.059 164.82 131.293 164.372 131.293ZM161.516 139.063V137.929H162.44C163.354 137.929 163.812 137.462 163.812 136.529V133.631L165.016 132.987V136.571C165.016 137.364 164.778 137.989 164.302 138.447C163.863 138.857 163.289 139.063 162.58 139.063H161.516ZM170.96 137.929H171.884V139.063H170.82C170.344 139.063 169.933 138.969 169.588 138.783C169.504 139.707 169.182 140.444 168.622 140.995C168.108 141.499 167.464 141.751 166.69 141.751C166.13 141.751 165.584 141.611 165.052 141.331V140.281C165.528 140.542 166.004 140.673 166.48 140.673C167.077 140.673 167.544 140.472 167.88 140.071C168.216 139.669 168.384 139.114 168.384 138.405V133.631L169.588 132.987V133.001L169.602 132.987V136.809C169.686 137.555 170.138 137.929 170.96 137.929ZM171.045 139.063V137.929H171.969C172.884 137.929 173.341 137.462 173.341 136.529V133.631L174.545 132.987V136.571C174.545 137.364 174.307 137.989 173.831 138.447C173.392 138.857 172.818 139.063 172.109 139.063H171.045ZM171.787 141.849C171.33 141.849 171.101 141.615 171.101 141.149C171.101 140.691 171.33 140.463 171.787 140.463C172.235 140.463 172.459 140.691 172.459 141.149C172.459 141.615 172.235 141.849 171.787 141.849ZM173.565 141.849C173.108 141.849 172.879 141.615 172.879 141.149C172.879 140.691 173.108 140.463 173.565 140.463C174.013 140.463 174.237 140.691 174.237 141.149C174.237 141.615 174.013 141.849 173.565 141.849ZM180.047 138.321C180.047 139.366 179.772 140.206 179.221 140.841C178.698 141.447 178.003 141.751 177.135 141.751C176.575 141.751 176.029 141.611 175.497 141.331V140.281C175.973 140.542 176.449 140.673 176.925 140.673C177.522 140.673 177.989 140.472 178.325 140.071C178.661 139.669 178.829 139.114 178.829 138.405V133.631L180.047 132.987V138.321ZM185.005 139.063C184.193 139.063 183.567 138.801 183.129 138.279C182.755 137.831 182.569 137.261 182.569 136.571V130.677L183.773 130.033V136.529C183.773 137.462 184.23 137.929 185.145 137.929H186.069V139.063H185.005ZM188.695 131.391C188.237 131.391 188.009 131.157 188.009 130.691C188.009 130.233 188.237 130.005 188.695 130.005C189.143 130.005 189.367 130.233 189.367 130.691C189.367 131.157 189.143 131.391 188.695 131.391ZM190.473 131.391C190.015 131.391 189.787 131.157 189.787 130.691C189.787 130.233 190.015 130.005 190.473 130.005C190.921 130.005 191.145 130.233 191.145 130.691C191.145 131.157 190.921 131.391 190.473 131.391ZM191.341 137.929H193.945V139.063H190.529C190.165 139.063 189.847 139.03 189.577 138.965C189.315 139.03 188.998 139.063 188.625 139.063H185.223V137.929H187.827C187.248 137.266 186.959 136.533 186.959 135.731C186.959 134.816 187.215 134.088 187.729 133.547C188.195 133.052 188.811 132.805 189.577 132.805C190.454 132.805 191.131 133.122 191.607 133.757C192.008 134.279 192.209 134.937 192.209 135.731C192.209 136.533 191.919 137.266 191.341 137.929ZM189.591 137.803C190.02 137.653 190.37 137.383 190.641 136.991C190.911 136.589 191.047 136.151 191.047 135.675C191.047 135.133 190.911 134.709 190.641 134.401C190.379 134.083 190.025 133.925 189.577 133.925C189.129 133.925 188.769 134.083 188.499 134.401C188.237 134.718 188.107 135.143 188.107 135.675C188.107 136.141 188.247 136.575 188.527 136.977C188.807 137.378 189.161 137.653 189.591 137.803ZM194.189 131.293C193.732 131.293 193.503 131.059 193.503 130.593C193.503 130.135 193.732 129.907 194.189 129.907C194.637 129.907 194.861 130.135 194.861 130.593C194.861 131.059 194.637 131.293 194.189 131.293ZM195.967 131.293C195.51 131.293 195.281 131.059 195.281 130.593C195.281 130.135 195.51 129.907 195.967 129.907C196.415 129.907 196.639 130.135 196.639 130.593C196.639 131.059 196.415 131.293 195.967 131.293ZM193.111 139.063V137.929H194.035C194.95 137.929 195.407 137.462 195.407 136.529V133.631L196.611 132.987V136.571C196.611 137.364 196.373 137.989 195.897 138.447C195.459 138.857 194.885 139.063 194.175 139.063H193.111ZM211.017 137.929H211.941V139.063H210.877C210.373 139.063 209.92 138.951 209.519 138.727C209.388 139.688 208.954 140.444 208.217 140.995C207.563 141.48 206.756 141.723 205.795 141.723C204.544 141.723 203.578 141.303 202.897 140.463C202.374 139.809 202.113 139.03 202.113 138.125C202.113 137.331 202.304 136.655 202.687 136.095L203.891 135.829C203.461 136.491 203.247 137.215 203.247 137.999C203.247 138.773 203.494 139.408 203.989 139.903C204.446 140.36 205.048 140.589 205.795 140.589C206.644 140.589 207.297 140.337 207.755 139.833C208.147 139.403 208.343 138.853 208.343 138.181V130.677L209.561 130.033V136.529C209.561 137.462 210.046 137.929 211.017 137.929ZM213.861 133.141C213.871 133.141 213.885 133.141 213.903 133.141C213.922 133.141 213.936 133.141 213.945 133.141C215 133.141 215.854 133.467 216.507 134.121C217.105 134.709 217.403 135.46 217.403 136.375V136.613C217.403 137.415 217.156 138.041 216.661 138.489C216.223 138.871 215.658 139.063 214.967 139.063H211.103V137.929H214.855C215.751 137.929 216.199 137.457 216.199 136.515V136.389C216.199 135.698 215.929 135.166 215.387 134.793C214.958 134.503 214.435 134.359 213.819 134.359C213.325 134.359 212.825 134.447 212.321 134.625V133.435L215.387 130.033H216.619L213.861 133.141ZM222.792 138.391C222.792 138.381 222.792 138.372 222.792 138.363C222.81 137.896 223.058 137.663 223.534 137.663C224.028 137.663 224.276 137.905 224.276 138.391C224.276 138.885 224.028 139.133 223.534 139.133C223.039 139.133 222.792 138.885 222.792 138.391ZM226.797 138.391C226.797 138.381 226.797 138.372 226.797 138.363C226.816 137.896 227.063 137.663 227.539 137.663C228.034 137.663 228.281 137.905 228.281 138.391C228.281 138.885 228.034 139.133 227.539 139.133C227.045 139.133 226.797 138.885 226.797 138.391ZM234.037 132.749C233.58 132.749 233.351 132.515 233.351 132.049C233.351 131.591 233.58 131.363 234.037 131.363C234.485 131.363 234.709 131.591 234.709 132.049C234.709 132.515 234.485 132.749 234.037 132.749ZM239.147 137.929H240.071V139.063H239.007C238.522 139.063 238.102 138.965 237.747 138.769C237.635 139.721 237.22 140.463 236.501 140.995C235.857 141.48 235.059 141.723 234.107 141.723C232.894 141.723 231.951 141.293 231.279 140.435C230.766 139.772 230.509 138.988 230.509 138.083C230.509 137.299 230.705 136.627 231.097 136.067L232.259 135.815C231.839 136.477 231.629 137.191 231.629 137.957C231.629 138.741 231.872 139.385 232.357 139.889C232.815 140.355 233.398 140.589 234.107 140.589C234.929 140.589 235.563 140.351 236.011 139.875C236.385 139.473 236.571 138.951 236.571 138.307V133.631L237.775 132.987V136.529C237.775 137.462 238.233 137.929 239.147 137.929ZM244.914 129.501L245.586 129.123V130.257C245.586 130.518 245.498 130.733 245.32 130.901C245.143 131.069 244.914 131.153 244.634 131.153C244.392 131.153 244.182 131.087 244.004 130.957C243.827 131.087 243.617 131.153 243.374 131.153C243.094 131.153 242.861 131.069 242.674 130.901C242.497 130.733 242.408 130.518 242.408 130.257V129.823L243.094 129.445V130.215C243.094 130.401 243.188 130.495 243.374 130.495C243.561 130.495 243.654 130.415 243.654 130.257V129.641L244.34 129.263V130.257C244.34 130.415 244.438 130.495 244.634 130.495C244.821 130.495 244.914 130.401 244.914 130.215V129.501ZM248.242 137.929H249.18V139.063H248.116C247.342 139.063 246.73 138.815 246.282 138.321C245.806 139.002 245.111 139.343 244.196 139.343C243.282 139.343 242.591 139.007 242.124 138.335C241.686 138.82 241.074 139.063 240.29 139.063H239.226V137.929H240.15C241.065 137.929 241.522 137.462 241.522 136.529V136.067C241.522 134.984 241.788 134.153 242.32 133.575C242.787 133.061 243.412 132.805 244.196 132.805C245.092 132.805 245.783 133.136 246.268 133.799C246.679 134.368 246.884 135.124 246.884 136.067V136.529C246.884 137.462 247.337 137.929 248.242 137.929ZM244.196 138.209C244.654 138.209 245.013 138.017 245.274 137.635C245.545 137.252 245.68 136.725 245.68 136.053C245.68 134.634 245.186 133.925 244.196 133.925C243.216 133.925 242.726 134.634 242.726 136.053C242.726 137.49 243.216 138.209 244.196 138.209ZM252.196 135.157C253.26 133.589 254.58 132.805 256.158 132.805C257.212 132.805 258.057 133.173 258.692 133.911C259.233 134.536 259.504 135.306 259.504 136.221V136.669C259.504 137.434 259.317 138.027 258.944 138.447C258.57 138.857 258.038 139.063 257.348 139.063H248.346V137.929H250.95L250.992 137.775V130.677L252.196 130.033V135.157ZM258.286 136.613V136.221C258.286 135.493 258.062 134.914 257.614 134.485C257.231 134.111 256.75 133.925 256.172 133.925C255.21 133.925 254.342 134.359 253.568 135.227C252.989 135.88 252.532 136.697 252.196 137.677V137.929H257.25C257.651 137.929 257.922 137.835 258.062 137.649C258.211 137.462 258.286 137.117 258.286 136.613ZM261.742 139.063V130.677L262.946 130.033V139.063H261.742ZM52.8912 158.391C52.8912 158.381 52.8912 158.372 52.8912 158.363C52.9099 157.896 53.1572 157.663 53.6332 157.663C54.1279 157.663 54.3752 157.905 54.3752 158.391C54.3752 158.885 54.1279 159.133 53.6332 159.133C53.1385 159.133 52.8912 158.885 52.8912 158.391ZM62.735 163.571C61.9417 164.065 61.0504 164.313 60.061 164.313C58.997 164.313 58.1384 163.958 57.485 163.249C56.897 162.614 56.603 161.797 56.603 160.799C56.603 159.725 56.9204 158.871 57.555 158.237C57.835 157.957 58.157 157.737 58.521 157.579C58.885 157.42 59.4357 157.261 60.173 157.103C60.873 156.953 61.3864 156.809 61.713 156.669C62.049 156.529 62.3384 156.328 62.581 156.067C61.8157 154.629 60.873 153.911 59.753 153.911C59.0064 153.911 58.2224 154.312 57.401 155.115V153.995C58.185 153.201 59.0204 152.805 59.907 152.805C60.6164 152.805 61.307 153.066 61.979 153.589C62.651 154.111 63.2437 154.849 63.757 155.801V156.417C63.449 156.883 63.0757 157.238 62.637 157.481C62.1984 157.714 61.517 157.929 60.593 158.125C59.501 158.358 58.773 158.652 58.409 159.007C57.961 159.436 57.737 160.038 57.737 160.813C57.737 161.597 57.9937 162.203 58.507 162.633C58.9364 162.997 59.487 163.179 60.159 163.179C61.1857 163.169 62.0444 162.922 62.735 162.437V163.571ZM68.1511 159.063C67.3391 159.063 66.7137 158.801 66.2751 158.279C65.9017 157.831 65.7151 157.261 65.7151 156.571V150.677L66.9191 150.033V156.529C66.9191 157.462 67.3764 157.929 68.2911 157.929H69.2151V159.063H68.1511ZM69.4471 151.293C68.9897 151.293 68.7611 151.059 68.7611 150.593C68.7611 150.135 68.9897 149.907 69.4471 149.907C69.8951 149.907 70.1191 150.135 70.1191 150.593C70.1191 151.059 69.8951 151.293 69.4471 151.293ZM71.2251 151.293C70.7677 151.293 70.5391 151.059 70.5391 150.593C70.5391 150.135 70.7677 149.907 71.2251 149.907C71.6731 149.907 71.8971 150.135 71.8971 150.593C71.8971 151.059 71.6731 151.293 71.2251 151.293ZM68.3691 159.063V157.929H69.2931C70.2077 157.929 70.6651 157.462 70.6651 156.529V153.631L71.8691 152.987V156.571C71.8691 157.364 71.6311 157.989 71.1551 158.447C70.7164 158.857 70.1424 159.063 69.4331 159.063H68.3691ZM77.813 157.929H78.737V159.063H77.673C77.197 159.063 76.7864 158.969 76.441 158.783C76.357 159.707 76.035 160.444 75.475 160.995C74.9617 161.499 74.3177 161.751 73.543 161.751C72.983 161.751 72.437 161.611 71.905 161.331V160.281C72.381 160.542 72.857 160.673 73.333 160.673C73.9304 160.673 74.397 160.472 74.733 160.071C75.069 159.669 75.237 159.114 75.237 158.405V153.631L76.441 152.987V153.001L76.455 152.987V156.809C76.539 157.555 76.9917 157.929 77.813 157.929ZM80.1944 155.269C80.1944 154.457 80.437 153.827 80.9224 153.379C81.3517 152.996 81.9117 152.805 82.6024 152.805C83.489 152.805 84.1704 153.131 84.6464 153.785C85.057 154.335 85.2624 155.054 85.2624 155.941C85.2624 156.949 85.001 157.737 84.4784 158.307C84.021 158.811 83.4237 159.063 82.6864 159.063C81.8464 159.063 81.207 158.829 80.7684 158.363C80.3204 158.829 79.7184 159.063 78.9624 159.063H77.8984V157.929H78.8224C79.737 157.929 80.1944 157.462 80.1944 156.529V155.269ZM81.3984 156.627C81.3984 157.495 81.823 157.929 82.6724 157.929C83.111 157.929 83.4517 157.751 83.6944 157.397C83.9464 157.042 84.0724 156.547 84.0724 155.913C84.0724 155.287 83.9417 154.802 83.6804 154.457C83.419 154.102 83.0597 153.925 82.6024 153.925C81.7997 153.925 81.3984 154.391 81.3984 155.325V156.627ZM94.596 152.553C94.1387 152.553 93.91 152.319 93.91 151.853C93.91 151.395 94.1387 151.167 94.596 151.167C95.044 151.167 95.268 151.395 95.268 151.853C95.268 152.319 95.044 152.553 94.596 152.553ZM96.374 152.553C95.9167 152.553 95.688 152.319 95.688 151.853C95.688 151.395 95.9167 151.167 96.374 151.167C96.822 151.167 97.046 151.395 97.046 151.853C97.046 152.319 96.822 152.553 96.374 152.553ZM101.988 157.929H102.632V159.063H101.848C101.064 159.063 100.453 158.82 100.014 158.335C99.5753 158.82 98.964 159.063 98.18 159.063H93.182C92.426 159.063 91.8333 158.811 91.404 158.307C91.0307 157.868 90.844 157.294 90.844 156.585V154.891L92.048 154.247V156.473C92.048 157.443 92.5007 157.929 93.406 157.929H98.054C98.9593 157.929 99.412 157.443 99.412 156.473V153.631L100.616 152.987V156.529C100.616 157.462 101.073 157.929 101.988 157.929ZM104.653 151.293C104.195 151.293 103.967 151.059 103.967 150.593C103.967 150.135 104.195 149.907 104.653 149.907C105.101 149.907 105.325 150.135 105.325 150.593C105.325 151.059 105.101 151.293 104.653 151.293ZM101.797 159.063V157.929H102.721C103.635 157.929 104.093 157.462 104.093 156.529V153.631L105.297 152.987V156.571C105.297 157.364 105.059 157.989 104.583 158.447C104.144 158.857 103.57 159.063 102.861 159.063H101.797ZM107.811 159.063V150.677L109.015 150.033V159.063H107.811ZM114.974 158.615C114.619 158.755 114.185 158.825 113.672 158.825C112.841 158.825 112.188 158.512 111.712 157.887C111.31 157.355 111.11 156.687 111.11 155.885C111.11 154.895 111.376 154.121 111.908 153.561C112.384 153.057 113.009 152.805 113.784 152.805C114.577 152.805 115.188 153.052 115.618 153.547C116 153.985 116.192 154.559 116.192 155.269V158.321C116.192 159.375 115.916 160.211 115.366 160.827C114.843 161.405 114.148 161.695 113.28 161.695C112.701 161.695 112.155 161.559 111.642 161.289V160.225C112.136 160.486 112.626 160.617 113.112 160.617C113.662 160.617 114.101 160.439 114.428 160.085C114.754 159.739 114.936 159.249 114.974 158.615ZM114.974 155.325C114.974 154.391 114.577 153.925 113.784 153.925C113.317 153.925 112.948 154.097 112.678 154.443C112.416 154.788 112.286 155.259 112.286 155.857C112.286 156.445 112.412 156.916 112.664 157.271C112.925 157.616 113.275 157.789 113.714 157.789C114.33 157.789 114.75 157.616 114.974 157.271V155.325ZM123.056 151.153C122.599 151.153 122.37 150.919 122.37 150.453C122.37 149.995 122.599 149.767 123.056 149.767C123.504 149.767 123.728 149.995 123.728 150.453C123.728 150.919 123.504 151.153 123.056 151.153ZM124.834 151.153C124.377 151.153 124.148 150.919 124.148 150.453C124.148 149.995 124.377 149.767 124.834 149.767C125.282 149.767 125.506 149.995 125.506 150.453C125.506 150.919 125.282 151.153 124.834 151.153ZM127.438 157.929H128.362V159.063H127.298C126.337 159.063 125.646 158.708 125.226 157.999C124.778 158.428 124.223 158.643 123.56 158.643C122.739 158.643 122.085 158.335 121.6 157.719C121.199 157.196 120.998 156.557 120.998 155.801C120.998 154.895 121.273 154.167 121.824 153.617C122.291 153.141 122.86 152.903 123.532 152.903C124.045 152.903 124.489 153.033 124.862 153.295V152.693L126.08 152.049V156.529C126.08 157.462 126.533 157.929 127.438 157.929ZM124.862 154.597C124.517 154.214 124.092 154.023 123.588 154.023C123.177 154.023 122.841 154.191 122.58 154.527C122.319 154.853 122.188 155.283 122.188 155.815C122.188 156.356 122.319 156.79 122.58 157.117C122.841 157.443 123.182 157.607 123.602 157.607C124.125 157.607 124.554 157.392 124.89 156.963C124.871 156.795 124.862 156.664 124.862 156.571V154.597ZM129.823 155.269C129.823 154.457 130.066 153.827 130.551 153.379C130.981 152.996 131.541 152.805 132.231 152.805C133.118 152.805 133.799 153.131 134.275 153.785C134.686 154.335 134.891 155.054 134.891 155.941C134.891 156.949 134.63 157.737 134.107 158.307C133.65 158.811 133.053 159.063 132.315 159.063C131.475 159.063 130.836 158.829 130.397 158.363C129.949 158.829 129.347 159.063 128.591 159.063H127.527V157.929H128.451C129.366 157.929 129.823 157.462 129.823 156.529V155.269ZM131.027 156.627C131.027 157.495 131.452 157.929 132.301 157.929C132.74 157.929 133.081 157.751 133.323 157.397C133.575 157.042 133.701 156.547 133.701 155.913C133.701 155.287 133.571 154.802 133.309 154.457C133.048 154.102 132.689 153.925 132.231 153.925C131.429 153.925 131.027 154.391 131.027 155.325V156.627ZM143.743 157.929V159.063H142.007C141.97 159.865 141.625 160.528 140.971 161.051C140.421 161.48 139.795 161.695 139.095 161.695C138.517 161.695 137.971 161.559 137.457 161.289V160.225C137.952 160.486 138.442 160.617 138.927 160.617C139.422 160.617 139.851 160.463 140.215 160.155C140.589 159.847 140.78 159.478 140.789 159.049C140.304 159.03 139.945 159.011 139.711 158.993C138.703 158.937 137.943 158.596 137.429 157.971C137 157.448 136.785 156.771 136.785 155.941C136.785 154.923 137.056 154.13 137.597 153.561C138.083 153.057 138.722 152.805 139.515 152.805C140.346 152.805 140.985 153.052 141.433 153.547C141.816 153.985 142.007 154.559 142.007 155.269V157.929H143.743ZM140.789 155.353C140.789 154.401 140.365 153.925 139.515 153.925C139.03 153.925 138.652 154.102 138.381 154.457C138.111 154.802 137.975 155.287 137.975 155.913C137.975 157.135 138.573 157.784 139.767 157.859C139.991 157.887 140.332 157.91 140.789 157.929V155.353ZM147.682 157.929H148.606V159.063H147.542C146.739 159.063 146.119 158.806 145.68 158.293C145.213 158.806 144.569 159.063 143.748 159.063H142.908V157.929H143.65C144.621 157.929 145.106 157.42 145.106 156.403V150.677L146.324 150.033V156.417C146.324 156.958 146.427 157.345 146.632 157.579C146.847 157.812 147.197 157.929 147.682 157.929ZM154.678 157.929H158.374V159.063H154.566C154.062 159.063 153.562 158.965 153.068 158.769C152.573 158.965 152.069 159.063 151.556 159.063H147.762V157.929H151.458H151.654C150.982 157.378 150.291 156.571 149.582 155.507V154.891C150.03 154.247 150.562 153.738 151.178 153.365C151.803 152.991 152.428 152.805 153.054 152.805C153.679 152.805 154.304 152.996 154.93 153.379C155.555 153.752 156.096 154.265 156.554 154.919V155.507C155.844 156.571 155.149 157.378 154.468 157.929H154.678ZM150.702 155.213C151.56 156.389 152.349 157.163 153.068 157.537C153.786 157.154 154.575 156.375 155.434 155.199C154.734 154.349 153.94 153.92 153.054 153.911C152.167 153.911 151.383 154.345 150.702 155.213ZM166.553 157.929H167.491V159.063H166.427C165.652 159.063 165.041 158.815 164.593 158.321C164.117 159.002 163.422 159.343 162.507 159.343C161.592 159.343 160.902 159.007 160.435 158.335C159.996 158.82 159.385 159.063 158.601 159.063H157.537V157.929H158.461C159.376 157.929 159.833 157.462 159.833 156.529V156.067C159.833 154.984 160.099 154.153 160.631 153.575C161.098 153.061 161.723 152.805 162.507 152.805C163.403 152.805 164.094 153.136 164.579 153.799C164.99 154.368 165.195 155.124 165.195 156.067V156.529C165.195 157.462 165.648 157.929 166.553 157.929ZM162.507 158.209C162.964 158.209 163.324 158.017 163.585 157.635C163.856 157.252 163.991 156.725 163.991 156.053C163.991 154.634 163.496 153.925 162.507 153.925C161.527 153.925 161.037 154.634 161.037 156.053C161.037 157.49 161.527 158.209 162.507 158.209ZM166.656 159.063V157.929H167.398C168.369 157.929 168.854 157.42 168.854 156.403V150.677L170.072 150.033V156.417C170.072 157.247 169.825 157.905 169.33 158.391C168.864 158.839 168.252 159.063 167.496 159.063H166.656ZM172.588 159.063V150.677L173.792 150.033V159.063H172.588ZM181.492 151.293C181.035 151.293 180.806 151.059 180.806 150.593C180.806 150.135 181.035 149.907 181.492 149.907C181.94 149.907 182.164 150.135 182.164 150.593C182.164 151.059 181.94 151.293 181.492 151.293ZM178.454 159.063L179.042 157.929H181.534C181.908 157.929 182.169 157.835 182.318 157.649C182.477 157.462 182.556 157.14 182.556 156.683C182.556 155.441 181.982 154.508 180.834 153.883L181.45 152.847C182.916 153.705 183.681 154.891 183.746 156.403C183.765 156.944 183.886 157.336 184.11 157.579C184.344 157.812 184.712 157.929 185.216 157.929H186.042V159.063H185.118C184.344 159.063 183.737 158.815 183.298 158.321C182.99 158.815 182.472 159.063 181.744 159.063H178.454ZM189.451 151.293C188.994 151.293 188.765 151.059 188.765 150.593C188.765 150.135 188.994 149.907 189.451 149.907C189.899 149.907 190.123 150.135 190.123 150.593C190.123 151.059 189.899 151.293 189.451 151.293ZM185.209 159.063V157.929H187.127C189.022 157.929 190.52 157.303 191.621 156.053C190.846 154.625 189.904 153.911 188.793 153.911C188.037 153.911 187.258 154.312 186.455 155.115V153.995C187.239 153.201 188.07 152.805 188.947 152.805C189.666 152.805 190.361 153.066 191.033 153.589C191.705 154.102 192.298 154.839 192.811 155.801V156.417C191.439 158.181 189.54 159.063 187.113 159.063H185.209ZM197.214 159.063C196.402 159.063 195.776 158.801 195.338 158.279C194.964 157.831 194.778 157.261 194.778 156.571V150.677L195.982 150.033V156.529C195.982 157.462 196.439 157.929 197.354 157.929H198.278V159.063H197.214ZM198.51 151.293C198.052 151.293 197.824 151.059 197.824 150.593C197.824 150.135 198.052 149.907 198.51 149.907C198.958 149.907 199.182 150.135 199.182 150.593C199.182 151.059 198.958 151.293 198.51 151.293ZM200.288 151.293C199.83 151.293 199.602 151.059 199.602 150.593C199.602 150.135 199.83 149.907 200.288 149.907C200.736 149.907 200.96 150.135 200.96 150.593C200.96 151.059 200.736 151.293 200.288 151.293ZM197.432 159.063V157.929H198.356C199.27 157.929 199.728 157.462 199.728 156.529V153.631L200.932 152.987V156.571C200.932 157.364 200.694 157.989 200.218 158.447C199.779 158.857 199.205 159.063 198.496 159.063H197.432ZM207.315 157.425C207.828 157.425 208.094 157.691 208.113 158.223C208.113 158.484 208.029 158.703 207.861 158.881C207.702 159.049 207.492 159.133 207.231 159.133C206.652 159.133 206.363 158.778 206.363 158.069V156.263L206.951 156.095L206.965 157.425H207.315ZM211.601 151.153C211.143 151.153 210.915 150.919 210.915 150.453C210.915 149.995 211.143 149.767 211.601 149.767C212.049 149.767 212.273 149.995 212.273 150.453C212.273 150.919 212.049 151.153 211.601 151.153ZM213.393 151.153C212.935 151.153 212.707 150.919 212.707 150.453C212.707 149.995 212.935 149.767 213.393 149.767C213.841 149.767 214.065 149.995 214.065 150.453C214.065 150.919 213.841 151.153 213.393 151.153ZM212.511 159.063C211.661 159.063 210.999 158.778 210.523 158.209C210.112 157.714 209.907 157.084 209.907 156.319C209.907 155.488 210.135 154.769 210.593 154.163C211.059 153.547 211.722 153.094 212.581 152.805C213.486 153.113 214.167 153.598 214.625 154.261C215.035 154.849 215.241 155.535 215.241 156.319C215.241 157.205 214.979 157.901 214.457 158.405C213.99 158.843 213.388 159.063 212.651 159.063H212.511ZM212.469 157.929H212.679C213.099 157.929 213.43 157.784 213.673 157.495C213.925 157.205 214.051 156.818 214.051 156.333C214.051 155.213 213.561 154.41 212.581 153.925C211.601 154.41 211.111 155.208 211.111 156.319C211.111 156.813 211.232 157.205 211.475 157.495C211.717 157.784 212.049 157.929 212.469 157.929ZM216.326 159.063L216.914 157.929H219.406C219.779 157.929 220.04 157.835 220.19 157.649C220.348 157.462 220.428 157.14 220.428 156.683C220.428 155.441 219.854 154.508 218.706 153.883L219.322 152.847C220.787 153.705 221.552 154.891 221.618 156.403C221.636 156.944 221.758 157.336 221.982 157.579C222.215 157.812 222.584 157.929 223.088 157.929H223.914V159.063H222.99C222.215 159.063 221.608 158.815 221.17 158.321C220.862 158.815 220.344 159.063 219.616 159.063H216.326ZM232.096 157.929H233.034V159.063H231.97C231.195 159.063 230.584 158.815 230.136 158.321C229.66 159.002 228.965 159.343 228.05 159.343C227.135 159.343 226.445 159.007 225.978 158.335C225.539 158.82 224.928 159.063 224.144 159.063H223.08V157.929H224.004C224.919 157.929 225.376 157.462 225.376 156.529V156.067C225.376 154.984 225.642 154.153 226.174 153.575C226.641 153.061 227.266 152.805 228.05 152.805C228.946 152.805 229.637 153.136 230.122 153.799C230.533 154.368 230.738 155.124 230.738 156.067V156.529C230.738 157.462 231.191 157.929 232.096 157.929ZM228.05 158.209C228.507 158.209 228.867 158.017 229.128 157.635C229.399 157.252 229.534 156.725 229.534 156.053C229.534 154.634 229.039 153.925 228.05 153.925C227.07 153.925 226.58 154.634 226.58 156.053C226.58 157.49 227.07 158.209 228.05 158.209ZM233.767 151.391C233.31 151.391 233.081 151.157 233.081 150.691C233.081 150.233 233.31 150.005 233.767 150.005C234.215 150.005 234.439 150.233 234.439 150.691C234.439 151.157 234.215 151.391 233.767 151.391ZM235.559 151.391C235.102 151.391 234.873 151.157 234.873 150.691C234.873 150.233 235.102 150.005 235.559 150.005C236.007 150.005 236.231 150.233 236.231 150.691C236.231 151.157 236.007 151.391 235.559 151.391ZM237.071 157.929H237.995V159.063H236.931C236.156 159.063 235.545 158.815 235.097 158.321C234.649 158.815 234.038 159.063 233.263 159.063H232.199V157.929H233.123C234.038 157.929 234.495 157.462 234.495 156.529V153.631L235.699 152.987V156.529C235.699 157.462 236.156 157.929 237.071 157.929ZM244.064 157.929H247.76V159.063H243.952C243.448 159.063 242.949 158.965 242.454 158.769C241.96 158.965 241.456 159.063 240.942 159.063H237.148V157.929H240.844H241.04C240.368 157.378 239.678 156.571 238.968 155.507V154.891C239.416 154.247 239.948 153.738 240.564 153.365C241.19 152.991 241.815 152.805 242.44 152.805C243.066 152.805 243.691 152.996 244.316 153.379C244.942 153.752 245.483 154.265 245.94 154.919V155.507C245.231 156.571 244.536 157.378 243.854 157.929H244.064ZM240.088 155.213C240.947 156.389 241.736 157.163 242.454 157.537C243.173 157.154 243.962 156.375 244.82 155.199C244.12 154.349 243.327 153.92 242.44 153.911C241.554 153.911 240.77 154.345 240.088 155.213ZM249.22 155.269C249.22 154.457 249.462 153.827 249.948 153.379C250.377 152.996 250.937 152.805 251.628 152.805C252.514 152.805 253.196 153.131 253.672 153.785C254.082 154.335 254.288 155.054 254.288 155.941C254.288 156.949 254.026 157.737 253.504 158.307C253.046 158.811 252.449 159.063 251.712 159.063C250.872 159.063 250.232 158.829 249.794 158.363C249.346 158.829 248.744 159.063 247.988 159.063H246.924V157.929H247.848C248.762 157.929 249.22 157.462 249.22 156.529V155.269ZM250.424 156.627C250.424 157.495 250.848 157.929 251.698 157.929C252.136 157.929 252.477 157.751 252.72 157.397C252.972 157.042 253.098 156.547 253.098 155.913C253.098 155.287 252.967 154.802 252.706 154.457C252.444 154.102 252.085 153.925 251.628 153.925C250.825 153.925 250.424 154.391 250.424 155.325V156.627ZM260.046 158.615C259.691 158.755 259.257 158.825 258.744 158.825C257.913 158.825 257.26 158.512 256.784 157.887C256.382 157.355 256.182 156.687 256.182 155.885C256.182 154.895 256.448 154.121 256.98 153.561C257.456 153.057 258.081 152.805 258.856 152.805C259.649 152.805 260.26 153.052 260.69 153.547C261.072 153.985 261.264 154.559 261.264 155.269V158.321C261.264 159.375 260.988 160.211 260.438 160.827C259.915 161.405 259.22 161.695 258.352 161.695C257.773 161.695 257.227 161.559 256.714 161.289V160.225C257.208 160.486 257.698 160.617 258.184 160.617C258.734 160.617 259.173 160.439 259.5 160.085C259.826 159.739 260.008 159.249 260.046 158.615ZM260.046 155.325C260.046 154.391 259.649 153.925 258.856 153.925C258.389 153.925 258.02 154.097 257.75 154.443C257.488 154.788 257.358 155.259 257.358 155.857C257.358 156.445 257.484 156.916 257.736 157.271C257.997 157.616 258.347 157.789 258.786 157.789C259.402 157.789 259.822 157.616 260.046 157.271V155.325Z" fill="#000B2E" fill-opacity="0.52"/>
</svg>
