<svg width="21" height="20" viewBox="0 0 21 20" fill="none" xmlns="http://www.w3.org/2000/svg">
<path d="M18.167 4.98333C15.392 4.70833 12.6003 4.56667 9.81699 4.56667C8.16699 4.56667 6.51699 4.65 4.86699 4.81667L3.16699 4.98333" stroke="#C41919" stroke-width="1.42857" stroke-linecap="round" stroke-linejoin="round"/>
<path d="M7.75 4.14167L7.93333 3.05001C8.06667 2.25834 8.16667 1.66667 9.575 1.66667H11.7583C13.1667 1.66667 13.275 2.29167 13.4 3.05834L13.5833 4.14167" stroke="#C41919" stroke-width="1.42857" stroke-linecap="round" stroke-linejoin="round"/>
<path d="M16.3747 7.61667L15.833 16.0083C15.7413 17.3167 15.6663 18.3333 13.3413 18.3333H7.99134C5.66634 18.3333 5.59134 17.3167 5.49967 16.0083L4.95801 7.61667" stroke="#C41919" stroke-width="1.42857" stroke-linecap="round" stroke-linejoin="round"/>
<path d="M9.27441 13.75H12.0494" stroke="#C41919" stroke-width="1.42857" stroke-linecap="round" stroke-linejoin="round"/>
<path d="M8.58398 10.4167H12.7507" stroke="#C41919" stroke-width="1.42857" stroke-linecap="round" stroke-linejoin="round"/>
</svg>
