<svg width="18" height="18" viewBox="0 0 18 18" fill="none" xmlns="http://www.w3.org/2000/svg">
<path d="M3.92889 11.1088C4.22801 12.2251 4.88712 13.2116 5.804 13.9151C6.72088 14.6187 7.84429 15 9 15C10.1557 15 11.2791 14.6187 12.196 13.9151C13.1129 13.2116 13.772 12.2251 14.0711 11.1088" stroke="#3D9635" stroke-width="1.5"/>
<path d="M9 9.75L8.53148 10.3357L9 10.7105L9.46852 10.3357L9 9.75ZM9.75 3C9.75 2.58579 9.41421 2.25 9 2.25C8.58579 2.25 8.25 2.58579 8.25 3L9.75 3ZM4.78148 7.33565L8.53148 10.3357L9.46852 9.16435L5.71852 6.16435L4.78148 7.33565ZM9.46852 10.3357L13.2185 7.33565L12.2815 6.16435L8.53148 9.16435L9.46852 10.3357ZM9.75 9.75L9.75 3L8.25 3L8.25 9.75L9.75 9.75Z" fill="#3D9635"/>
</svg>
