<svg width="21" height="20" viewBox="0 0 21 20" fill="none" xmlns="http://www.w3.org/2000/svg">
<path d="M10.9167 6.25L5.44016 11.7265C5.26305 11.9036 5.1745 11.9922 5.11627 12.101C5.05805 12.2098 5.03349 12.3326 4.98437 12.5782L4.37257 15.6371C4.31714 15.9143 4.28942 16.0529 4.36826 16.1317C4.4471 16.2106 4.58569 16.1829 4.86286 16.1274L7.92184 15.5156C8.16745 15.4665 8.29025 15.4419 8.39904 15.3837C8.50783 15.3255 8.59638 15.237 8.77348 15.0599L8.77349 15.0598L14.25 9.58333L10.9167 6.25Z" fill="#3D9635"/>
<path d="M5.46098 16.15L5.46099 16.15L5.48277 16.1445L5.48278 16.1445L7.67276 15.597C7.68625 15.5937 7.69971 15.5903 7.71314 15.587C7.89545 15.5417 8.0707 15.4981 8.23024 15.4078C8.38978 15.3175 8.51729 15.1896 8.64994 15.0566C8.65971 15.0468 8.6695 15.037 8.67933 15.0271L14.6626 9.04383L14.6744 9.03206L14.6744 9.03206L14.6968 9.00969C14.9554 8.75112 15.1839 8.52262 15.3434 8.31365C15.5162 8.08714 15.6542 7.82587 15.6542 7.5C15.6542 7.17413 15.5162 6.91286 15.3433 6.68635C15.1839 6.47737 14.9554 6.24886 14.6967 5.99029L14.6744 5.96794L14.5314 5.82496L14.509 5.80259C14.2505 5.54398 14.022 5.31544 13.813 5.156C13.5865 4.98318 13.3252 4.84518 12.9993 4.84518C12.6735 4.84518 12.4122 4.98318 12.1857 5.156C11.9767 5.31544 11.7482 5.54399 11.4896 5.8026L11.4673 5.82496L5.47222 11.82C5.46239 11.8299 5.45257 11.8396 5.44278 11.8494C5.30976 11.9821 5.18188 12.1096 5.09155 12.2691C5.00122 12.4287 4.95767 12.6039 4.91237 12.7862C4.90903 12.7996 4.90569 12.8131 4.90231 12.8266L4.34937 15.0384C4.34736 15.0464 4.34533 15.0545 4.34328 15.0627C4.31111 15.1911 4.27471 15.3363 4.26263 15.4598C4.24917 15.5974 4.2504 15.8468 4.45148 16.0479C4.65254 16.2489 4.90191 16.2502 5.03951 16.2367C5.16306 16.2246 5.30827 16.1882 5.43666 16.1561C5.44484 16.154 5.45295 16.152 5.46098 16.15Z" stroke="#3D9635"/>
<path d="M10.916 6.25L14.2493 9.58333" stroke="#3D9635"/>
</svg>
