<svg width="34" height="34" viewBox="0 0 34 34" fill="none" xmlns="http://www.w3.org/2000/svg">
<g clip-path="url(#clip0_703_1928)">
<path d="M10.3277 14.8688C7.80708 16.8004 7.32951 20.4096 9.26106 22.9303C11.1926 25.451 14.8019 25.9285 17.3225 23.997C17.6513 23.745 17.7136 23.2743 17.4617 22.9455C17.2097 22.6167 16.7389 22.5544 16.4102 22.8063C14.5471 24.234 11.8794 23.881 10.4517 22.0179C9.02402 20.1548 9.37701 17.4871 11.2401 16.0594C11.5689 15.8075 11.6312 15.3367 11.3792 15.008C11.1273 14.6792 10.6565 14.6169 10.3277 14.8688Z" fill="white"/>
<path d="M16.6778 10.0029C16.349 10.2548 16.2867 10.7256 16.5386 11.0544C16.7906 11.3832 17.2613 11.4455 17.5901 11.1935C19.4532 9.76585 22.1209 10.1188 23.5486 11.9819C24.9763 13.845 24.6233 16.5127 22.7602 17.9404C22.4314 18.1923 22.3691 18.6631 22.621 18.9919C22.873 19.3207 23.3438 19.383 23.6725 19.131C26.1932 17.1995 26.6708 13.5902 24.7392 11.0696C22.8077 8.5489 19.1984 8.07133 16.6778 10.0029Z" fill="white"/>
<path d="M13.369 18.8376C13.0402 19.0895 12.9779 19.5603 13.2298 19.8891C13.4818 20.2179 13.9525 20.2802 14.2813 20.0282L20.6313 15.1623C20.9601 14.9103 21.0224 14.4396 20.7705 14.1108C20.5185 13.782 20.0478 13.7197 19.719 13.9716L13.369 18.8376Z" fill="white"/>
</g>
<defs>
<clipPath id="clip0_703_1928">
<rect width="24" height="24" fill="white" transform="translate(0.17627 14.7739) rotate(-37.4625)"/>
</clipPath>
</defs>
</svg>
