<svg width="21" height="20" viewBox="0 0 21 20" fill="none" xmlns="http://www.w3.org/2000/svg">
<path d="M7.56637 2.86001C8.88956 0.568192 11.8201 -0.217041 14.1119 1.10614C16.4037 2.42932 17.189 5.35986 15.8658 7.65168L15.7757 7.80776C16.8442 9.58282 17.0255 11.8213 16.126 13.8065C15.995 14.0957 15.8117 14.4132 15.4945 14.9625L15.4619 15.0191C15.424 15.0847 15.3847 15.1529 15.3422 15.2122C14.937 15.7777 14.1887 15.9783 13.555 15.6911C13.4886 15.661 13.4205 15.6216 13.3549 15.5837L8.19543 12.6049L5.1746 17.8371C5.00201 18.1361 4.61977 18.2385 4.32083 18.0659C4.0219 17.8933 3.91948 17.5111 4.09207 17.2121L7.1129 11.9799L1.9535 9.00113C1.88784 8.96328 1.81966 8.92399 1.76038 8.88151C1.19486 8.47626 0.994354 7.72796 1.28149 7.09425C1.31159 7.02782 1.35098 6.9597 1.38892 6.8941L1.42154 6.83763C1.73872 6.28822 1.92202 5.97071 2.10699 5.71259C3.3762 3.94141 5.40487 2.97917 7.47595 3.01663L7.56637 2.86001Z" fill="#F59E0B"/>
</svg>
