<svg width="24" height="24" viewBox="0 0 24 24" fill="none" xmlns="http://www.w3.org/2000/svg">
<path d="M21 5.98022C17.67 5.65022 14.32 5.48022 10.98 5.48022C9 5.48022 7.02 5.58022 5.04 5.78022L3 5.98022" stroke="#C41919" stroke-width="1.71429" stroke-linecap="round" stroke-linejoin="round"/>
<path d="M8.49902 4.97024L8.71902 3.66024C8.87902 2.71024 8.99902 2.00024 10.689 2.00024H13.309C14.999 2.00024 15.129 2.75024 15.279 3.67024L15.499 4.97024" stroke="#C41919" stroke-width="1.71429" stroke-linecap="round" stroke-linejoin="round"/>
<path d="M18.8494 9.14014L18.1994 19.2101C18.0894 20.7801 17.9994 22.0001 15.2094 22.0001H8.78941C5.99941 22.0001 5.90941 20.7801 5.79941 19.2101L5.14941 9.14014" stroke="#C41919" stroke-width="1.71429" stroke-linecap="round" stroke-linejoin="round"/>
<path d="M10.3291 16.5H13.6591" stroke="#C41919" stroke-width="1.71429" stroke-linecap="round" stroke-linejoin="round"/>
<path d="M9.50098 12.5002H14.501" stroke="#C41919" stroke-width="1.71429" stroke-linecap="round" stroke-linejoin="round"/>
</svg>
